<?xml version="1.0" encoding="UTF-8"?>
<!-- Generator: Adobe Illustrator 16.0.3, SVG Export Plug-In . SVG Version: 6.00 Build 0)  -->
<!DOCTYPE svg PUBLIC "-//W3C//DTD SVG 1.1//EN" "http://www.w3.org/Graphics/SVG/1.1/DTD/svg11.dtd">
<svg version="1.1" id="Layer_1" xmlns:x="http://ns.adobe.com/Extensibility/1.0/" xmlns:i="http://ns.adobe.com/AdobeIllustrator/10.0/" xmlns:graph="http://ns.adobe.com/Graphs/1.0/" xmlns="http://www.w3.org/2000/svg" xmlns:xlink="http://www.w3.org/1999/xlink" x="0px" y="0px" width="437.999px" height="18.893px" viewBox="0 0 437.999 18.893" enable-background="new 0 0 437.999 18.893" xml:space="preserve">
<metadata>
	<sfw xmlns="http://ns.adobe.com/SaveForWeb/1.0/">
		<slices/>
		<sliceSourceBounds width="437.999" height="18.892" x="96.333" y="382.886" bottomLeftOrigin="true"/>
	</sfw>
</metadata>
<g>
	<path d="M0,9.445c0,0,37.005-0.063,73.998-0.829c18.495-0.386,36.989-0.949,50.831-1.785c6.919-0.414,12.677-0.906,16.663-1.46   c1.99-0.28,3.539-0.582,4.535-0.878c0.502-0.146,0.844-0.297,1.049-0.405c0.157-0.107,0.238-0.162,0.238-0.162l0.42-0.287   l0.656,0.656l-0.369,0.338c0,0-0.154,0.142-0.456,0.324c-0.291,0.154-0.714,0.331-1.256,0.484   c-1.085,0.314-2.667,0.608-4.686,0.879c-4.037,0.533-9.811,0.985-16.745,1.354c-13.868,0.744-32.369,1.183-50.87,1.443   C37.003,9.632,0,9.445,0,9.445z"/>
</g>
<g>
	<path d="M148,3.906c0,0,0.163,0.156,0.448,0.429c0.142,0.148,0.317,0.279,0.518,0.437c0.194,0.163,0.429,0.339,0.709,0.519   c0.536,0.379,1.212,0.761,1.951,1.146c0.741,0.383,1.557,0.749,2.387,1.084c1.662,0.667,3.38,1.215,4.691,1.531   c0.655,0.163,1.208,0.271,1.597,0.327c0.389,0.059,0.616,0.066,0.616,0.066s-0.226,0.008-0.62-0.023   c-0.395-0.029-0.956-0.099-1.624-0.218c-1.338-0.227-3.101-0.655-4.83-1.214c-0.864-0.28-1.719-0.596-2.506-0.936   c-0.786-0.342-1.514-0.688-2.11-1.05c-0.593-0.33-1.12-0.719-1.417-0.958c-0.303-0.252-0.477-0.396-0.477-0.396l-0.385-0.32   l0.691-0.77L148,3.906z"/>
</g>
<g>
	<path d="M0,9.445c0,0,37.003-0.312,74.011,0.079c18.504,0.198,37.009,0.574,50.89,1.271c6.941,0.346,12.724,0.779,16.785,1.302   c2.033,0.267,3.633,0.556,4.762,0.879c0.562,0.156,1.026,0.347,1.36,0.523c0.367,0.218,0.571,0.418,0.565,0.405l0.46,0.953   l-0.85,0.851l-1.025-0.39c-0.011-0.004-0.022-0.003-0.129-0.081c-0.162-0.085-0.463-0.224-0.944-0.365   c-0.952-0.288-2.484-0.594-4.459-0.879c-3.961-0.564-9.711-1.076-16.623-1.514c-13.828-0.882-32.319-1.508-50.811-1.956   C37.006,9.634,0,9.445,0,9.445z"/>
</g>
<g>
	<path d="M146.999,13.868c0,0,0.178-0.139,0.491-0.381c0.141-0.119,0.377-0.272,0.641-0.443c0.264-0.18,0.557-0.355,0.871-0.515   c0.626-0.354,1.379-0.682,2.189-1.003c0.811-0.318,1.686-0.607,2.566-0.861c1.763-0.504,3.547-0.874,4.899-1.055   c0.674-0.097,1.241-0.146,1.638-0.163c0.397-0.018,0.623-0.002,0.623-0.002s-0.227,0.016-0.613,0.088   c-0.387,0.069-0.935,0.196-1.583,0.383c-1.297,0.361-2.993,0.968-4.622,1.688c-0.813,0.362-1.609,0.755-2.327,1.159   c-0.715,0.405-1.366,0.806-1.872,1.193c-0.269,0.187-0.484,0.363-0.655,0.52c-0.18,0.154-0.334,0.277-0.477,0.435   c-0.276,0.283-0.434,0.445-0.434,0.445l-0.699,0.718l-1.429-1.592L146.999,13.868z"/>
</g>
<g>
	<path d="M164.166,9.445c0,0,0.01-0.114,0.029-0.327c0.038-0.211,0.003-0.535,0.141-0.916c0.058-0.191,0.103-0.413,0.189-0.641   c0.105-0.221,0.218-0.46,0.339-0.716c0.146-0.241,0.339-0.478,0.526-0.741c0.219-0.232,0.468-0.467,0.729-0.719   c0.582-0.409,1.283-0.841,2.137-0.996c0.231-0.036,0.385-0.103,0.696-0.113c0.203-0.002,0.408-0.004,0.616-0.006   c0.195-0.02,0.435,0.021,0.69,0.077c0.245,0.053,0.518,0.093,0.751,0.185c0.941,0.331,1.813,0.966,2.474,1.824   c0.646,0.876,0.972,1.98,1.015,3.089l-0.081,0.782c-0.002,0.201-0.095,0.509-0.189,0.797c-0.153,0.609-0.463,1.05-0.749,1.507   c-0.66,0.858-1.533,1.49-2.472,1.822c-0.947,0.278-1.914,0.368-2.746,0.143c-0.373-0.047-0.798-0.243-1.17-0.399   c-0.377-0.153-0.664-0.409-0.97-0.594c-0.26-0.252-0.511-0.484-0.729-0.718c-0.188-0.264-0.38-0.499-0.526-0.741   c-0.121-0.255-0.235-0.494-0.34-0.715c-0.086-0.227-0.131-0.448-0.189-0.64c-0.139-0.381-0.104-0.707-0.141-0.917   C164.176,9.56,164.166,9.445,164.166,9.445z M164.166,9.445c0,0,0.013,0.113,0.037,0.327c0.045,0.208,0.006,0.536,0.167,0.907   c0.07,0.188,0.126,0.401,0.226,0.618c0.125,0.203,0.261,0.423,0.405,0.657c0.169,0.216,0.382,0.418,0.584,0.643   c0.228,0.2,0.505,0.368,0.774,0.549c0.31,0.112,0.61,0.296,0.94,0.359c0.336,0.055,0.628,0.149,1.051,0.116   c0.729,0.043,1.444-0.235,2.083-0.563c0.631-0.381,1.134-0.934,1.523-1.541c0.138-0.338,0.325-0.668,0.372-0.959   c0.041-0.147,0.108-0.271,0.115-0.531l0.031-0.342l0.016-0.171l0.008-0.086l0.004-0.042l0.001-0.021l0.001-0.011   c-0.002,0.041,0.006-0.107-0.004,0.09c-0.031-0.724-0.213-1.42-0.547-2.07c-0.388-0.607-0.893-1.157-1.521-1.539   c-0.151-0.095-0.302-0.139-0.454-0.224c-0.145-0.08-0.304-0.161-0.526-0.19c-0.203-0.043-0.404-0.086-0.603-0.129   c-0.09-0.024-0.333-0.012-0.493-0.021c-0.728-0.045-1.399,0.198-1.995,0.474c-0.269,0.181-0.548,0.347-0.775,0.547   c-0.202,0.225-0.416,0.427-0.584,0.642c-0.145,0.234-0.281,0.454-0.406,0.657c-0.099,0.216-0.155,0.43-0.226,0.617   c-0.162,0.371-0.123,0.7-0.168,0.908C164.179,9.332,164.166,9.445,164.166,9.445z"/>
</g>
<g>
	<path d="M437.999,9.445c0,0-37.004,0.187-74.007-0.329c-18.501-0.261-37.002-0.699-50.869-1.443   c-6.935-0.368-12.708-0.82-16.745-1.354c-2.019-0.271-3.601-0.565-4.687-0.879c-0.541-0.153-0.965-0.33-1.256-0.484   c-0.302-0.183-0.456-0.324-0.456-0.324l-0.369-0.338l0.656-0.656l0.42,0.287c0,0,0.081,0.055,0.238,0.162   c0.204,0.108,0.546,0.26,1.048,0.405c0.996,0.296,2.545,0.598,4.535,0.878c3.986,0.554,9.744,1.046,16.663,1.46   C327.011,7.667,345.506,8.23,364,8.616C400.994,9.382,437.999,9.445,437.999,9.445z"/>
</g>
<g>
	<path d="M290.667,4.65c0,0-0.173,0.144-0.477,0.396c-0.296,0.239-0.823,0.628-1.417,0.958c-0.596,0.361-1.323,0.708-2.109,1.05   c-0.788,0.34-1.643,0.655-2.507,0.936c-1.729,0.559-3.491,0.987-4.83,1.214c-0.668,0.119-1.229,0.188-1.624,0.218   c-0.395,0.031-0.62,0.023-0.62,0.023s0.227-0.008,0.615-0.066c0.39-0.057,0.942-0.164,1.597-0.327   c1.312-0.316,3.029-0.864,4.691-1.531c0.83-0.335,1.646-0.701,2.387-1.084c0.739-0.385,1.415-0.767,1.951-1.146   c0.279-0.18,0.515-0.356,0.709-0.519c0.2-0.158,0.376-0.289,0.518-0.437c0.285-0.273,0.448-0.429,0.448-0.429l0.361-0.346   l0.691,0.77L290.667,4.65z"/>
</g>
<g>
	<path d="M437.999,9.445c0,0-37.006,0.188-73.993,1.079c-18.492,0.448-36.983,1.074-50.812,1.956   c-6.911,0.438-12.661,0.949-16.622,1.514c-1.976,0.285-3.507,0.591-4.459,0.879c-0.481,0.142-0.782,0.28-0.944,0.365   c-0.106,0.078-0.117,0.077-0.129,0.081l-1.024,0.39l-0.851-0.851l0.461-0.953c-0.006,0.013,0.198-0.188,0.564-0.405   c0.334-0.177,0.799-0.367,1.36-0.523c1.13-0.323,2.729-0.612,4.763-0.879c4.062-0.522,9.844-0.956,16.785-1.302   c13.881-0.697,32.386-1.073,50.89-1.271C400.996,9.134,437.999,9.445,437.999,9.445z"/>
</g>
<g>
	<path d="M289.665,15.356c0,0-0.158-0.162-0.434-0.445c-0.143-0.157-0.297-0.28-0.478-0.435c-0.171-0.156-0.386-0.333-0.654-0.52   c-0.506-0.388-1.157-0.788-1.872-1.193c-0.718-0.404-1.514-0.797-2.327-1.159c-1.628-0.721-3.324-1.327-4.621-1.688   c-0.647-0.187-1.196-0.313-1.583-0.383c-0.387-0.072-0.613-0.088-0.613-0.088s0.226-0.016,0.622,0.002   c0.397,0.017,0.964,0.066,1.639,0.163c1.352,0.181,3.136,0.551,4.898,1.055c0.881,0.254,1.756,0.543,2.567,0.861   c0.81,0.321,1.563,0.649,2.189,1.003c0.313,0.159,0.606,0.335,0.871,0.515c0.263,0.171,0.499,0.324,0.64,0.443   c0.313,0.242,0.491,0.381,0.491,0.381l0.793,0.614l-1.43,1.592L289.665,15.356z"/>
</g>
<g>
	<path d="M273.833,9.445c0,0-0.013-0.113-0.036-0.327c-0.046-0.208-0.007-0.537-0.169-0.908c-0.069-0.188-0.126-0.401-0.225-0.617   c-0.126-0.203-0.261-0.423-0.406-0.657c-0.169-0.215-0.382-0.417-0.584-0.642c-0.228-0.2-0.507-0.366-0.775-0.548   c-0.596-0.276-1.268-0.52-1.995-0.474c-0.16,0.009-0.402-0.004-0.493,0.021c-0.198,0.042-0.399,0.085-0.603,0.129   c-0.222,0.029-0.381,0.111-0.525,0.191c-0.152,0.084-0.303,0.128-0.454,0.223c-0.629,0.383-1.134,0.932-1.521,1.539   c-0.334,0.65-0.516,1.347-0.547,2.07c-0.011-0.197-0.003-0.049-0.005-0.09l0.001,0.011l0.002,0.021L265.5,9.43l0.008,0.086   l0.016,0.171l0.03,0.342c0.007,0.261,0.074,0.384,0.115,0.531c0.047,0.291,0.234,0.621,0.372,0.959   c0.389,0.607,0.892,1.16,1.522,1.541c0.64,0.327,1.354,0.605,2.084,0.563c0.423,0.033,0.715-0.062,1.051-0.116   c0.33-0.063,0.63-0.247,0.939-0.359c0.27-0.181,0.548-0.349,0.775-0.549c0.202-0.225,0.415-0.427,0.584-0.643   c0.145-0.234,0.28-0.454,0.405-0.657c0.099-0.217,0.155-0.431,0.226-0.618c0.161-0.371,0.122-0.699,0.168-0.907   C273.82,9.559,273.833,9.445,273.833,9.445z M273.833,9.445c0,0-0.011,0.114-0.029,0.327c-0.037,0.21-0.003,0.536-0.142,0.917   c-0.059,0.191-0.103,0.413-0.188,0.64c-0.105,0.221-0.219,0.46-0.34,0.715c-0.146,0.242-0.339,0.478-0.526,0.741   c-0.219,0.233-0.47,0.466-0.729,0.718c-0.307,0.185-0.594,0.44-0.971,0.594c-0.372,0.157-0.798,0.353-1.17,0.399   c-0.833,0.226-1.799,0.136-2.746-0.144c-0.939-0.332-1.813-0.964-2.473-1.821c-0.285-0.457-0.595-0.897-0.748-1.507   c-0.096-0.288-0.188-0.596-0.189-0.797l-0.082-0.782c0.044-1.108,0.37-2.213,1.016-3.089c0.661-0.857,1.533-1.493,2.474-1.824   c0.233-0.091,0.507-0.131,0.752-0.185c0.255-0.056,0.495-0.096,0.69-0.077c0.208,0.002,0.413,0.004,0.616,0.006   c0.311,0.009,0.465,0.076,0.695,0.112c0.854,0.155,1.556,0.586,2.137,0.996c0.261,0.251,0.511,0.485,0.729,0.719   c0.188,0.264,0.38,0.5,0.526,0.741c0.121,0.256,0.234,0.495,0.339,0.716c0.087,0.228,0.131,0.449,0.188,0.641   c0.139,0.381,0.104,0.705,0.142,0.916C273.823,9.331,273.833,9.445,273.833,9.445z"/>
</g>
<g>
	<path d="M219.036,9.538c0,0.001,0.021,0.793-0.398,1.112c-0.455,0.227-1.147,0.497-2.016,0.874c-0.87,0.371-1.927,0.821-3.14,1.337   c-1.231,0.524-2.533,1.086-4.146,1.676c-1.554,0.502-3.131,1.182-5.047,1.581c-0.466,0.114-0.939,0.23-1.417,0.349   c-0.477,0.125-0.961,0.239-1.461,0.292c-0.993,0.141-2.007,0.284-3.039,0.431c-1.034,0.092-2.093,0.087-3.158,0.135   c-0.542,0.01-1.049,0.052-1.628,0.034c-0.53-0.028-1.049-0.034-1.596-0.083c-2.23-0.167-4.413-0.681-6.484-1.565   c-2.038-0.893-4.018-2.178-5.183-4.133c-0.288-0.485-0.493-1.027-0.579-1.594c-0.067-0.599-0.048-1.089-0.006-1.646   c0.088-1.075,0.399-2.172,1.041-3.079c0.622-0.922,1.533-1.584,2.458-2.055c0.929-0.497,1.898-0.782,2.844-1.022   c1.897-0.446,3.721-0.477,5.362-0.453c1.618,0.041,3.198,0.136,4.545,0.532c0.667,0.198,1.285,0.429,1.824,0.683   c0.521,0.302,1.025,0.518,1.411,0.826c0.394,0.294,0.747,0.546,1.038,0.783c0.271,0.261,0.501,0.482,0.688,0.663   c0.359,0.367,0.551,0.563,0.551,0.563s-0.247-0.12-0.709-0.346c-0.224-0.117-0.5-0.26-0.825-0.429   c-0.329-0.156-0.72-0.305-1.142-0.488c-0.85-0.355-1.907-0.675-3.133-0.856c-1.227-0.212-2.642-0.169-4.259-0.159   c-1.596,0.042-3.304,0.033-5.07,0.25c-1.727,0.232-3.653,0.634-4.92,2.022c-0.603,0.697-0.984,1.627-1.075,2.626   c-0.05,0.48-0.095,1.044-0.018,1.493c0.083,0.473,0.264,0.936,0.528,1.359c1.102,1.707,3.096,2.704,5.055,3.321   c1.993,0.596,4.112,0.837,6.125,0.928c0.529,0.007,1.056,0.014,1.581,0.021c0.475-0.003,1.015-0.062,1.514-0.089   c1.015-0.082,2.022-0.109,3-0.231c0.97-0.172,1.923-0.342,2.856-0.507c0.471-0.064,0.921-0.188,1.362-0.322   c0.443-0.125,0.88-0.249,1.313-0.372c1.712-0.431,3.392-1.106,4.917-1.612c1.494-0.581,2.863-1.114,4.077-1.587   c1.231-0.468,2.305-0.876,3.188-1.213c0.887-0.33,1.572-0.614,2.058-0.766c0.521-0.06,1.042,0.53,1.042,0.531L219.036,9.538z"/>
</g>
<g>
	<path d="M218.963,9.353c0,0,0.008-0.165,0.064-0.379c0.048-0.236,0.156-0.493,0.353-0.687c0.195-0.196,0.504-0.265,0.836-0.424   c0.338-0.144,0.727-0.309,1.162-0.494c0.87-0.371,1.928-0.82,3.14-1.337c1.232-0.524,2.531-1.09,4.146-1.679   c1.555-0.5,3.13-1.183,5.046-1.581c0.467-0.115,0.939-0.231,1.417-0.349c0.478-0.125,0.962-0.239,1.462-0.292   c0.993-0.141,2.007-0.285,3.039-0.431c1.034-0.092,2.093-0.087,3.158-0.135c0.542-0.01,1.05-0.052,1.628-0.034   c0.53,0.028,1.049,0.034,1.596,0.083c2.23,0.167,4.413,0.68,6.484,1.565c2.038,0.892,4.018,2.177,5.183,4.132   c0.289,0.485,0.493,1.027,0.579,1.594c0.067,0.599,0.048,1.089,0.006,1.646c-0.089,1.075-0.4,2.171-1.043,3.076   c-0.623,0.921-1.533,1.581-2.458,2.05c-0.931,0.492-1.9,0.764-2.843,1.017c-1.896,0.455-3.72,0.483-5.36,0.469   c-1.617-0.034-3.198-0.119-4.55-0.507c-0.67-0.192-1.292-0.42-1.834-0.669c-0.525-0.297-1.034-0.51-1.424-0.814   c-0.398-0.29-0.756-0.539-1.051-0.773c-0.274-0.258-0.509-0.477-0.698-0.654c-0.366-0.362-0.563-0.556-0.563-0.556l0.125-0.156   c0,0,0.242,0.123,0.698,0.353c0.221,0.119,0.494,0.266,0.814,0.438c0.325,0.158,0.712,0.312,1.13,0.498   c0.841,0.362,1.89,0.69,3.11,0.881c1.222,0.221,2.636,0.188,4.254,0.185c1.596-0.033,3.303-0.025,5.072-0.233   c0.872-0.122,1.781-0.261,2.629-0.585c0.853-0.303,1.676-0.753,2.291-1.448c0.603-0.699,0.982-1.63,1.073-2.629   c0.05-0.48,0.094-1.044,0.018-1.493c-0.082-0.473-0.264-0.936-0.527-1.359c-1.102-1.707-3.097-2.705-5.056-3.321   c-1.993-0.596-4.112-0.837-6.126-0.927c-0.528-0.007-1.056-0.014-1.58-0.021c-0.475,0.002-1.015,0.062-1.515,0.089   c-1.015,0.082-2.022,0.109-3,0.231c-0.97,0.172-1.923,0.342-2.856,0.508c-0.47,0.064-0.92,0.188-1.361,0.321   c-0.443,0.126-0.881,0.25-1.313,0.373c-1.712,0.431-3.393,1.103-4.918,1.611c-1.495,0.58-2.864,1.112-4.079,1.584   c-1.23,0.469-2.304,0.877-3.188,1.213c-0.442,0.168-0.837,0.318-1.18,0.449c-0.35,0.116-0.62,0.28-0.895,0.274   c-0.274-0.005-0.526-0.116-0.721-0.255c-0.187-0.116-0.304-0.23-0.304-0.23L218.963,9.353z"/>
</g>
<polyline fill="none" stroke="#000000" stroke-width="2" stroke-miterlimit="10" points="209.416,13.307 219,9.445 228.583,5.584   "/>
<g>
	<path d="M229.998,1.929c-0.005,0.007-0.064-0.133-0.229-0.326c-0.146-0.191-0.438-0.423-0.854-0.563   c-0.833-0.299-2.152-0.246-3.673,0.172c-0.769,0.203-1.553,0.524-2.437,0.901c-0.874,0.366-1.795,0.752-2.748,1.152   c-1.912,0.785-3.952,1.622-5.992,2.458c-2.05,0.812-4.1,1.622-6.021,2.383c-0.964,0.373-1.896,0.733-2.779,1.075   c-0.871,0.343-1.742,0.675-2.593,0.874c-1.668,0.42-3.262,0.265-4.156-0.357c-0.449-0.298-0.671-0.684-0.761-0.936   c-0.09-0.26-0.078-0.405-0.088-0.402c0,0,0.065,0.132,0.229,0.321c0.149,0.199,0.439,0.424,0.856,0.565   c0.832,0.298,2.15,0.246,3.671-0.171c0.755-0.199,1.556-0.525,2.437-0.901c0.874-0.366,1.795-0.752,2.748-1.151   c1.913-0.785,3.952-1.622,5.992-2.458c2.05-0.811,4.1-1.622,6.021-2.382c0.964-0.373,1.896-0.734,2.779-1.076   c0.868-0.342,1.755-0.679,2.593-0.874c1.669-0.419,3.262-0.262,4.155,0.358c0.449,0.3,0.669,0.678,0.764,0.938   C230,1.788,229.987,1.93,229.998,1.929z"/>
</g>
<g>
	<path d="M240.332,10.527c-0.005,0.007-0.064-0.134-0.23-0.326c-0.145-0.19-0.438-0.423-0.854-0.562   c-0.833-0.299-2.151-0.245-3.673,0.173c-0.769,0.203-1.552,0.525-2.437,0.901c-0.873,0.366-1.795,0.753-2.748,1.152   c-1.912,0.784-3.951,1.621-5.991,2.458c-2.05,0.812-4.1,1.622-6.021,2.383c-0.964,0.373-1.896,0.733-2.779,1.075   c-0.871,0.343-1.741,0.675-2.593,0.875c-1.668,0.42-3.262,0.264-4.155-0.357c-0.45-0.298-0.671-0.684-0.762-0.936   c-0.09-0.26-0.078-0.406-0.088-0.402c0,0,0.065,0.132,0.229,0.321c0.149,0.199,0.439,0.424,0.856,0.565   c0.832,0.297,2.15,0.245,3.671-0.172c0.756-0.198,1.556-0.525,2.437-0.901c0.874-0.366,1.795-0.752,2.748-1.151   c1.912-0.785,3.952-1.621,5.991-2.458c2.051-0.811,4.101-1.622,6.022-2.382c0.964-0.373,1.896-0.733,2.779-1.075   c0.867-0.342,1.755-0.68,2.593-0.875c1.668-0.419,3.26-0.263,4.154,0.357c0.449,0.3,0.669,0.678,0.764,0.938   C240.333,10.386,240.321,10.528,240.332,10.527z"/>
</g>
</svg>