<?xml version="1.0" encoding="UTF-8"?>
<svg id="Layer_1" xmlns="http://www.w3.org/2000/svg" viewBox="0 0 1976 595">
  <g id="bullets">
    <path d="M484.7,335.08c-4.97,1.4-7.46.7-7.46-2.1v-6.93c-.28-.56-.42-1.16-.42-1.79s.17-1.12.52-1.47l1.05-4.31c-.14-1.05.11-2.1.74-3.15-.07-.07-.28-.25-.63-.53-.35-.28-.67-.51-.95-.68-.28-.17-.56-.26-.84-.26s-.54-.02-.79-.05c-.25-.04-.51-.09-.79-.16-.91.35-1.56.44-1.94.26-.39-.17-.82-.19-1.31-.05-.21.28-.47.47-.79.58-.31.1-1.28.16-2.89.16-.14-.21-.35-.59-.63-1.16-.28-.56-1-1.82-2.15-3.78-1.15-1.96-1.35-4.24-.58-6.83.7-2.24,1.64-3.99,2.83-5.25.42-.42,1.17-.7,2.26-.84,1.08-.14,2.83-.07,5.25.21,2.42.28,3.97.42,4.67.42l4.41-2.83c-2.45-2.87-3.75-4.44-3.89-4.73-.14-.28-.16-.52-.05-.73s.19-.35.26-.42c-.35-.84-.4-2.42-.16-4.73.24-2.31.63-4.18,1.15-5.62.52-1.43,1.17-1.98,1.94-1.63l1.89,1.47c.91.07,1.89.72,2.94,1.94,1.05,1.23,1.64,2.29,1.79,3.2l5.15,6.93,1.68.74c1.4-.63,3.13-2.29,5.2-4.99,2.06-2.69,3.55-4.39,4.46-5.09.91-.7,1.85-1.22,2.83-1.58.98-.35,2.13-.31,3.47.11l.73,3.67c-.91,4.27-1.49,6.77-1.73,7.51-.25.73-.52,1.4-.84,2-.31.59-.63,1.12-.94,1.57-.31.46-.65.86-1,1.21.28.7.84,1.4,1.68,2.1.7.14,1.71.32,3.04.53,1.33.21,3.67.31,7.04.31,1.47,0,2.85,1.19,4.15,3.57,1.29,2.38,1.87,4.27,1.73,5.67l-2.94,1.47-2.1,2.73c-.28.14-1.47.58-3.57,1.31-2.1.74-3.57,1.42-4.41,2.05l-.94,2.73c.28.63,1,2.01,2.15,4.15,1.15,2.14,1.77,3.88,1.84,5.25.07,1.37-.35,2.68-1.26,3.94-1.26,1.75-3.19,2.96-5.78,3.62-2.59.67-5.01.37-7.24-.89-1.26-.7-1.61-1.5-1.05-2.42-1.33-.7-2.14-1.54-2.42-2.52l-3.25-2.52c-.63.56-1.77,1.68-3.41,3.36-1.65,1.68-3.06,2.89-4.25,3.62-1.19.73-2.35,1.28-3.46,1.63ZM497.83,305.57c3.15-3.64,3.22-5.14.21-4.51,0,.14-.04.37-.1.68-.07.31-.21.49-.42.52-.21.04-.84-.02-1.89-.16-.35.49-.63,1.09-.84,1.79-.21.7-.07,1.26.42,1.68.49.42,1.36.42,2.62,0Z"/>
  </g>
</svg>