<svg width="70" height="36" viewBox="0 0 70 36" fill="none" xmlns="http://www.w3.org/2000/svg">
<path d="M55.01 17.28C57.89 19.26 59.81 22.44 59.81 25.98C59.81 31.32 54.77 35.7 48.59 35.7C38.51 35.7 32.09 26.76 24.59 21.36C21.83 23.1 18.89 24.18 16.61 24.18C12.65 24.18 9.23002 22.02 7.61002 18.9C4.37002 20.58 2.21002 23.58 2.21002 26.94C2.21002 29.04 3.77002 30.78 5.75002 30.78C7.19002 30.78 6.41002 27.48 9.05002 27.48C10.13 27.48 10.97 28.44 10.97 29.58C10.97 31.62 8.87002 33.3 6.23002 33.3C3.17002 33.3 0.710022 30.36 0.710022 26.76C0.710022 22.8 3.11002 19.32 6.89002 17.1C6.65002 16.38 6.59002 15.54 6.59002 14.76C6.59002 7.26 14.09 1.2 23.33 1.2C36.05 1.2 49.25 14.58 58.37 14.58C64.85 14.58 67.91 12.3 67.91 8.04C67.91 4.74 65.45 2.1 62.45 2.1C60.71 2.1 59.33 3.24 59.33 4.62C59.33 5.82 58.37 6.78 57.23 6.78C56.09 6.78 55.13 5.76 55.13 4.44C55.13 1.98 58.13 0 61.79 0C65.93 0 69.29 3.72 69.29 8.34C69.29 13.32 64.67 17.58 58.85 17.58C57.53 17.58 56.27 17.46 55.01 17.28ZM26.75 18.24C28.61 16.56 30.41 14.52 32.03 12.12L41.27 17.7C42.65 16.32 45.41 15.12 47.81 15.06C38.57 11.16 30.11 4.08 20.69 4.08C13.73 4.08 8.03002 9.06 8.03002 15.18C8.03002 15.6 8.09002 16.02 8.15002 16.44C10.55 15.24 13.37 14.58 16.43 14.58C20.27 14.58 23.63 16.08 26.75 18.24ZM8.75002 18.36C10.07 21 12.95 22.8 16.31 22.8C18.77 22.8 21.17 22.02 23.51 20.64C20.63 18.72 17.45 17.4 13.91 17.4C12.05 17.4 10.31 17.76 8.75002 18.36ZM27.77 18.96C35.21 24.42 41.51 32.94 50.51 32.94C54.65 32.94 58.01 29.7 58.01 25.68C58.01 20.34 53.63 16.02 48.23 16.02C45.11 16.02 41.33 18.3 39.29 21.24L30.59 16.08C29.75 17.1 28.79 18.06 27.77 18.96Z" fill="#111111"/>
</svg>
