<?xml version="1.0" encoding="UTF-8" standalone="no"?>
<svg
   id="Layer_1"
   viewBox="0 0 360000 40000"
   version="1.1"
   width="360000"
   height="40000"
   xmlns="http://www.w3.org/2000/svg"
   xmlns:svg="http://www.w3.org/2000/svg">
  <defs
     id="defs1">
    <style
       id="style1">
      .cls-1 {
        fill: none;
      }
    </style>
  </defs>
  <rect
     class="cls-1"
     x="2"
     y="64.93"
     width="598"
     height="70.129997"
     id="rect1" />
  <path
     d="m 35.38,119.83 c -0.8,0 -2.04,-0.28 -3.71,-0.83 -1.68,-0.55 -2.79,-1.08 -3.34,-1.58 -0.35,-0.3 -0.6,-0.95 -0.75,-1.95 -0.05,-0.5 0.06,-0.99 0.34,-1.46 0.27,-0.47 1.15,-1.24 2.62,-2.29 1.47,-1.05 2.21,-2.12 2.21,-3.23 l 0.08,-7.05 c 0,-0.65 0.57,-2.27 1.72,-4.87 0,-0.55 -0.2,-1.36 -0.6,-2.44 -0.4,-1.07 -0.63,-1.81 -0.68,-2.21 -0.05,-0.25 -0.07,-1.51 -0.07,-3.79 0,-2.28 -0.18,-3.59 -0.53,-3.94 -0.2,-0.25 -0.7,-0.2 -1.5,0.15 -0.8,0.35 -1.3,0.52 -1.5,0.52 -0.6,0 -1.55,-0.2 -2.85,-0.6 -1.3,-0.4 -2.23,-0.6 -2.78,-0.6 -2.5,0 -4.03,0.28 -4.57,0.83 -0.45,0.45 -1.35,0.76 -2.7,0.94 -1.35,0.18 -2.25,0.54 -2.7,1.09 -0.45,0.6 -0.76,1.9 -0.94,3.9 -0.18,2 -0.36,3.28 -0.56,3.83 -0.25,0.65 -0.44,1.61 -0.56,2.89 -0.13,1.27 -0.16,2.36 -0.11,3.26 0.05,1 0.2,2.71 0.45,5.14 0.25,2.43 0.38,4.01 0.38,4.76 0,0.4 0.09,0.83 0.26,1.28 0.17,0.45 0.69,0.94 1.54,1.46 0.85,0.52 1.39,1.04 1.61,1.54 0.22,0.5 0.31,1.08 0.26,1.72 0,0.3 -0.14,0.5 -0.41,0.6 -0.28,0.1 -0.78,0.1 -1.5,0 -0.73,-0.1 -1.16,-0.13 -1.31,-0.08 -0.35,0 -0.94,0.14 -1.76,0.41 -0.83,0.27 -1.41,0.41 -1.76,0.41 -2.05,0.1 -3.58,0.06 -4.57,-0.11 -1,-0.18 -1.69,-0.49 -2.06,-0.94 -0.38,-0.45 -0.56,-0.95 -0.56,-1.5 0,-1.15 0.8,-2.25 2.4,-3.3 0.2,-0.15 0.54,-0.25 1.01,-0.3 0.47,-0.05 0.81,-0.15 1.01,-0.3 0.45,-0.35 0.7,-1.25 0.75,-2.7 0.05,-1.45 0.12,-2.33 0.23,-2.62 0.05,-0.25 0.39,-1.09 1.01,-2.51 0.62,-1.42 0.94,-2.51 0.94,-3.26 L 9.9,85.25 c 0,0 -0.01,-0.36 -0.04,-0.94 -0.03,-0.57 -0.03,-1.09 0,-1.54 0.02,-0.45 0.09,-0.86 0.19,-1.24 0.1,-0.38 0.26,-0.56 0.49,-0.56 0.23,0 0.46,0.07 0.71,0.23 0.85,0.6 2.15,1.26 3.9,1.99 1.75,0.73 2.92,0.96 3.52,0.71 0.35,-0.15 0.8,-0.46 1.35,-0.94 0.55,-0.47 1,-0.79 1.35,-0.94 2.9,-1.4 5.3,-2.07 7.2,-2.02 0.65,0.05 1.62,0.36 2.93,0.94 1.3,0.58 2.61,1.48 3.94,2.7 1.32,1.23 1.99,2.34 1.99,3.34 v 0.15 c 0,0.05 -0.04,0.9 -0.11,2.55 -0.08,1.65 -0.08,3.01 0,4.09 0.07,1.08 0.19,1.76 0.34,2.06 0.1,0.2 0.36,0.56 0.79,1.09 0.42,0.52 0.64,0.94 0.64,1.24 l -0.15,8.62 c -0.05,1.4 0.62,2.79 2.02,4.16 1.4,1.38 2.2,2.34 2.4,2.89 0.2,0.55 0.3,1 0.3,1.35 0,0.9 -0.39,1.76 -1.16,2.59 -0.78,0.83 -1.54,1.36 -2.29,1.61 -0.25,0.05 -1.03,0.14 -2.32,0.26 -1.3,0.12 -2.13,0.19 -2.48,0.19 z M 11,76.93 C 10.6,76.73 10.26,75.67 9.99,73.74 9.71,71.82 9.55,70.78 9.5,70.63 9.4,70.38 9.17,70.01 8.83,69.51 8.48,69.01 7.77,68.44 6.69,67.78 5.61,67.13 4.98,66.62 4.78,66.24 4.58,65.86 4.48,65.55 4.48,65.3 c 0,-0.65 0.35,-1.19 1.05,-1.61 0.7,-0.42 1.7,-0.61 3,-0.56 0.25,0.05 0.56,0.28 0.94,0.67 0.38,0.4 0.59,0.6 0.64,0.6 0.05,0 0.23,-0.2 0.52,-0.6 0.3,-0.4 0.6,-0.6 0.9,-0.6 0.7,0 1.46,0.19 2.29,0.56 0.83,0.37 1.42,0.84 1.8,1.39 0.38,0.55 0.56,1.08 0.56,1.58 0,0.6 -0.34,1.05 -1.01,1.35 -0.68,0.3 -1.04,0.48 -1.09,0.52 -0.2,0.2 -0.39,0.48 -0.56,0.82 -0.18,0.35 -0.35,0.84 -0.53,1.46 -0.18,0.63 -0.29,1.01 -0.34,1.16 -0.1,0.25 -0.23,1.03 -0.38,2.33 -0.15,1.3 -0.58,2.15 -1.27,2.55 z"
     id="path1"
     style="fill:#fffff8;fill-opacity:1" />
  <path
     d="m 57.8,118.63 c -1,0 -2.02,-0.38 -3.07,-1.12 l -1.58,-0.08 -0.07,-0.07 c -1,-0.05 -2.21,-0.95 -3.64,-2.7 -1.42,-1.75 -2.26,-3.17 -2.51,-4.28 -0.05,-0.2 0.05,-1 0.3,-2.4 0.05,-0.2 0.09,-0.47 0.11,-0.83 0.02,-0.35 -0.04,-1.29 -0.19,-2.81 -0.15,-1.52 -0.15,-2.49 0,-2.89 v -0.15 l 0.45,-1.12 c 0.45,-0.9 0.65,-1.82 0.6,-2.77 -0.1,-1.2 0,-2.95 0.3,-5.25 l -0.23,-0.67 v -0.08 l -0.3,-0.75 -0.6,-1.65 c -0.5,-1.1 -1.09,-2.06 -1.76,-2.89 -0.67,-0.82 -1.39,-1.44 -2.14,-1.84 l -4.8,0.83 -0.45,-0.08 -0.15,-0.07 c -0.65,-0.45 -1.1,-0.85 -1.35,-1.2 0,-1.5 1.47,-2 4.42,-1.5 l 0.98,-0.45 c 3.55,-1.8 5.5,-4.17 5.85,-7.12 -0.4,-2.6 -0.45,-4.59 -0.15,-5.96 0.3,-1.37 0.85,-2.46 1.65,-3.26 l 0.75,0.52 c 0.25,0.2 0.57,0.6 0.98,1.2 0.3,0.6 0.45,0.98 0.45,1.12 -0.85,2.6 -1.35,5.25 -1.5,7.95 0.05,1.2 0.32,1.88 0.83,2.02 0.4,0.65 0.98,1.25 1.73,1.8 0.75,0.55 1.25,1.08 1.5,1.57 0.2,-0.3 0.6,-0.34 1.2,-0.11 0.6,0.23 0.98,0.31 1.12,0.26 0.85,-0.2 2.04,-0.36 3.56,-0.49 1.52,-0.12 2.82,-0.12 3.9,0 1.07,0.13 1.61,0.49 1.61,1.09 -0.6,0.6 -1.27,1.05 -2.02,1.35 l -0.6,0.23 -0.38,0.15 c -0.75,0.15 -1.5,0.23 -2.25,0.23 H 58.92 L 58.1,84.21 56,83.83 l -0.98,1.2 c -0.85,0 -1.55,0.23 -2.1,0.68 -0.55,0.45 -1.05,1.29 -1.5,2.51 -0.45,1.23 -0.63,3.44 -0.52,6.64 0.1,3.2 0.1,5.05 0,5.55 l -0.38,2.1 -0.07,2.7 -0.08,1.88 1.35,1.5 c 0.1,0.55 0.3,1.23 0.6,2.03 l 0.67,1.27 c 0.25,0.45 0.62,0.93 1.12,1.42 1.15,1.15 2.48,1.73 3.98,1.73 2.25,0 4.32,-1.32 6.23,-3.98 0.05,-0.1 0.14,-0.34 0.26,-0.71 0.12,-0.38 0.21,-0.66 0.26,-0.86 l 0.45,-1.2 0.9,-1.88 1.42,-2.25 c 0.4,-0.6 0.7,-1.28 0.9,-2.03 1.1,-0.65 1.96,-1 2.59,-1.05 0.62,-0.05 1.21,0.38 1.76,1.28 0.05,0.85 0.34,1.78 0.86,2.77 0.53,1 0.81,1.81 0.86,2.44 0.05,0.63 -0.08,1.31 -0.38,2.06 l -0.3,0.3 -1.35,1.8 c -1.4,1.85 -2.35,3.05 -2.85,3.6 -1,1 -1.88,1.67 -2.62,2.03 -1.65,0.7 -3.78,0.97 -6.38,0.82 -0.95,0.3 -1.93,0.45 -2.93,0.45 z"
     id="path2"
     style="fill:#fffff8;fill-opacity:1" />
  <path
     d="m 85.32,118.63 c -1,0 -2.02,-0.38 -3.07,-1.12 l -1.58,-0.08 -0.07,-0.07 c -1,-0.05 -2.21,-0.95 -3.64,-2.7 -1.42,-1.75 -2.26,-3.17 -2.51,-4.28 -0.05,-0.2 0.05,-1 0.3,-2.4 0.05,-0.2 0.09,-0.47 0.11,-0.83 0.02,-0.35 -0.04,-1.29 -0.19,-2.81 -0.15,-1.52 -0.15,-2.49 0,-2.89 v -0.15 l 0.45,-1.12 c 0.45,-0.9 0.65,-1.82 0.6,-2.77 -0.1,-1.2 0,-2.95 0.3,-5.25 l -0.23,-0.67 v -0.08 l -0.3,-0.75 -0.6,-1.65 c -0.5,-1.1 -1.09,-2.06 -1.76,-2.89 -0.67,-0.82 -1.39,-1.44 -2.14,-1.84 l -4.8,0.83 -0.45,-0.08 -0.15,-0.07 c -0.65,-0.45 -1.1,-0.85 -1.35,-1.2 0,-1.5 1.47,-2 4.42,-1.5 l 0.98,-0.45 c 3.55,-1.8 5.5,-4.17 5.85,-7.12 -0.4,-2.6 -0.45,-4.59 -0.15,-5.96 0.3,-1.37 0.85,-2.46 1.65,-3.26 l 0.75,0.52 c 0.25,0.2 0.57,0.6 0.98,1.2 0.3,0.6 0.45,0.98 0.45,1.12 -0.85,2.6 -1.35,5.25 -1.5,7.95 0.05,1.2 0.32,1.88 0.83,2.02 0.4,0.65 0.98,1.25 1.73,1.8 0.75,0.55 1.25,1.08 1.5,1.57 0.2,-0.3 0.6,-0.34 1.2,-0.11 0.6,0.23 0.98,0.31 1.12,0.26 0.85,-0.2 2.04,-0.36 3.56,-0.49 1.52,-0.12 2.82,-0.12 3.9,0 1.07,0.13 1.61,0.49 1.61,1.09 -0.6,0.6 -1.27,1.05 -2.02,1.35 l -0.6,0.23 -0.38,0.15 c -0.75,0.15 -1.5,0.23 -2.25,0.23 h -1.43 l -0.82,-0.15 -2.1,-0.38 -0.98,1.2 c -0.85,0 -1.55,0.23 -2.1,0.68 -0.55,0.45 -1.05,1.29 -1.5,2.51 -0.45,1.23 -0.63,3.44 -0.52,6.64 0.1,3.2 0.1,5.05 0,5.55 l -0.38,2.1 -0.07,2.7 -0.08,1.88 1.35,1.5 c 0.1,0.55 0.3,1.23 0.6,2.03 l 0.67,1.27 c 0.25,0.45 0.62,0.93 1.12,1.42 1.15,1.15 2.48,1.73 3.98,1.73 2.25,0 4.32,-1.32 6.23,-3.98 0.05,-0.1 0.14,-0.34 0.26,-0.71 0.12,-0.38 0.21,-0.66 0.26,-0.86 l 0.45,-1.2 0.9,-1.88 1.42,-2.25 c 0.4,-0.6 0.7,-1.28 0.9,-2.03 1.1,-0.65 1.96,-1 2.59,-1.05 0.62,-0.05 1.21,0.38 1.76,1.28 0.05,0.85 0.34,1.78 0.86,2.77 0.53,1 0.81,1.81 0.86,2.44 0.05,0.63 -0.08,1.31 -0.38,2.06 l -0.3,0.3 -1.35,1.8 c -1.4,1.85 -2.35,3.05 -2.85,3.6 -1,1 -1.88,1.67 -2.62,2.03 -1.65,0.7 -3.78,0.97 -6.38,0.82 -0.95,0.3 -1.93,0.45 -2.93,0.45 z"
     id="path3"
     style="fill:#fffff8;fill-opacity:1" />
  <path
     d="m 107.97,133.56 c -0.4,0 -1.03,-0.07 -1.88,-0.22 -0.85,-0.15 -1.45,-0.22 -1.8,-0.22 h -0.38 c -0.2,0 -1.25,0.02 -3.15,0.07 -1.9,0.05 -3.26,0.08 -4.09,0.08 -0.83,0 -1.71,-0.04 -2.66,-0.11 -0.95,-0.08 -1.76,-0.19 -2.44,-0.34 -0.67,-0.15 -1.16,-0.38 -1.46,-0.67 l -0.3,-0.83 c 0,-0.3 0.13,-0.59 0.38,-0.86 0.25,-0.28 1.02,-0.51 2.33,-0.71 1.55,-0.2 2.7,-0.41 3.45,-0.64 0.75,-0.23 1.32,-0.55 1.72,-0.98 0.4,-0.42 0.65,-0.74 0.75,-0.94 0.15,-0.25 0.27,-1.09 0.38,-2.51 0.1,-1.43 0.16,-3.25 0.19,-5.48 0.02,-2.23 0.04,-4.09 0.04,-5.59 0,-1.5 -0.01,-2.72 -0.04,-3.68 -0.03,-0.95 -0.04,-2.12 -0.04,-3.52 0,-0.85 0.11,-2.3 0.34,-4.35 0.23,-2.05 0.34,-3.57 0.34,-4.57 0,-0.4 -0.11,-1.01 -0.34,-1.84 -0.23,-0.83 -0.34,-1.44 -0.34,-1.84 -0.05,-1.25 -0.01,-3.14 0.11,-5.66 0.12,-2.52 0.19,-4.06 0.19,-4.61 0,-0.2 0.05,-0.66 0.15,-1.39 0.1,-0.72 -0.01,-1.29 -0.34,-1.69 -0.33,-0.4 -0.91,-0.77 -1.76,-1.12 1,-0.2 1.67,-0.27 2.03,-0.23 0.35,0.05 0.59,0.25 0.71,0.6 0.12,0.35 0.21,0.63 0.26,0.82 0.05,0.3 0.26,0.69 0.64,1.16 0.38,0.48 0.59,0.81 0.64,1.01 0.3,0.75 0.62,1.14 0.97,1.16 0.35,0.03 0.65,0.16 0.9,0.41 -0.2,0.5 -0.41,1.14 -0.64,1.91 -0.23,0.78 -0.4,1.7 -0.52,2.77 -0.13,1.08 -0.25,2.23 -0.38,3.45 -0.13,1.23 -0.19,1.91 -0.19,2.06 0,0.2 -0.14,0.66 -0.41,1.39 -0.28,0.73 -0.34,1.29 -0.19,1.69 0.05,0.15 0.21,0.4 0.49,0.75 0.27,0.35 0.44,0.68 0.49,0.98 0,0.25 -0.08,0.65 -0.23,1.2 -0.15,0.55 -0.2,0.95 -0.15,1.2 0.15,0.8 0.59,1.94 1.31,3.41 0.72,1.48 1.79,2.98 3.19,4.5 1.4,1.53 2.7,2.41 3.9,2.66 1.85,0.35 3.65,0.35 5.4,0 2.05,0.5 3.68,0.4 4.88,-0.3 0.75,-0.4 1.62,-1.26 2.62,-2.59 1,-1.32 2.07,-3.19 3.23,-5.59 1.15,-2.4 1.75,-4.4 1.8,-6 0,-0.55 -0.14,-1 -0.41,-1.35 -0.28,-0.35 -0.44,-0.62 -0.49,-0.82 -0.1,-0.3 -0.04,-0.79 0.19,-1.46 0.23,-0.68 0.34,-1.11 0.34,-1.31 0,-0.25 -0.16,-0.66 -0.49,-1.24 -0.33,-0.57 -0.49,-0.99 -0.49,-1.24 0,-0.15 0.06,-0.5 0.19,-1.05 0.12,-0.55 0.14,-0.97 0.04,-1.27 l -2.92,-5.77 c 0.15,0.1 0.47,0.26 0.98,0.49 0.5,0.23 0.85,0.41 1.05,0.56 0.45,0.45 1.24,1.68 2.36,3.68 1.12,2 1.71,3.23 1.76,3.67 0,0.3 -0.07,0.78 -0.23,1.43 -0.15,0.65 -0.2,1.12 -0.15,1.42 0.05,0.25 0.2,0.56 0.45,0.94 0.25,0.38 0.4,0.66 0.45,0.86 0.35,1 0.41,2.55 0.19,4.65 -0.22,2.1 -0.34,3.37 -0.34,3.82 0,0.1 0.04,0.41 0.11,0.94 0.07,0.52 0.09,0.86 0.04,1.01 -0.5,1.35 -1.18,2.51 -2.02,3.49 -0.85,0.97 -1.78,1.83 -2.77,2.55 -1,0.73 -1.88,1.34 -2.62,1.84 -0.1,0.1 -0.39,0.34 -0.86,0.71 -0.48,0.38 -0.84,0.64 -1.09,0.79 -0.1,0.05 -0.34,0.03 -0.71,-0.08 -0.38,-0.1 -0.61,-0.15 -0.71,-0.15 -0.7,-0.05 -1.73,0.1 -3.08,0.45 -1.35,0.35 -2.23,0.55 -2.62,0.6 l -3.45,-1.5 c -0.25,-0.1 -0.69,-0.17 -1.31,-0.22 -0.63,-0.05 -1.06,-0.15 -1.31,-0.3 -0.35,-0.2 -0.99,-0.84 -1.91,-1.91 -0.93,-1.07 -1.79,-1.61 -2.59,-1.61 -0.35,0 -0.7,0.16 -1.05,0.49 -0.35,0.33 -0.64,0.93 -0.86,1.8 -0.22,0.87 -0.34,1.9 -0.34,3.07 0,1.17 0.02,2.3 0.07,3.38 0.05,1.08 0.08,1.64 0.08,1.69 0.05,0.45 0.04,1.11 -0.04,1.99 -0.07,0.87 -0.11,1.46 -0.11,1.76 -0.1,1.85 0.4,3.1 1.5,3.75 1.4,0.8 2.25,1.2 2.55,1.2 0.3,0.05 0.91,0.04 1.84,-0.04 0.92,-0.08 1.67,0.01 2.25,0.26 0.57,0.25 0.84,0.92 0.79,2.02 0,0.45 -0.28,0.86 -0.82,1.24 -0.55,0.38 -1.05,0.56 -1.5,0.56 z"
     id="path4"
     style="fill:#fffff8;fill-opacity:1" />
  <path
     d="m 144.65,115.63 -1.5,-0.83 c -0.65,-0.25 -1.54,-0.49 -2.66,-0.71 -1.12,-0.23 -1.91,-0.29 -2.36,-0.19 -0.35,0.05 -0.96,0.26 -1.84,0.64 -0.88,0.38 -1.66,0.54 -2.36,0.49 -0.35,0 -0.93,-0.17 -1.73,-0.53 -0.8,-0.35 -1.64,-0.87 -2.51,-1.58 -0.88,-0.7 -1.36,-1.32 -1.46,-1.88 -0.05,-0.5 0.01,-1.25 0.19,-2.25 0.17,-1 0.26,-1.7 0.26,-2.1 0,-0.1 -0.05,-0.65 -0.15,-1.65 -0.1,-1 -0.09,-1.91 0.04,-2.74 0.12,-0.83 0.51,-1.24 1.16,-1.24 0.45,0 0.85,0.11 1.2,0.34 0.35,0.22 0.54,0.71 0.56,1.46 0.02,0.75 0.04,1.15 0.04,1.2 0.05,0.8 0.47,1.71 1.27,2.74 0.8,1.03 1.96,2.04 3.49,3.04 1.52,1 2.86,1.62 4.01,1.88 1.15,0.25 2.72,0.38 4.73,0.38 2.01,0 3.62,-0.12 4.88,-0.38 1.3,-0.25 2.36,-0.96 3.19,-2.14 0.83,-1.18 1.31,-2.46 1.46,-3.86 0,-0.15 0.06,-0.5 0.19,-1.05 0.12,-0.55 0.17,-0.99 0.15,-1.31 -0.03,-0.32 -0.06,-0.61 -0.11,-0.86 -0.15,-0.5 -0.63,-1.09 -1.42,-1.76 -0.8,-0.67 -1.28,-1.24 -1.43,-1.69 -0.35,-1 -0.7,-1.79 -1.05,-2.36 -0.35,-0.57 -0.95,-1.01 -1.8,-1.31 -1.2,-0.45 -1.93,-0.76 -2.17,-0.94 -0.25,-0.17 -0.45,-0.34 -0.6,-0.49 0.35,-0.25 0.91,-0.42 1.69,-0.53 0.77,-0.1 1.44,-0.1 1.99,0 1.7,0.05 2.7,0.13 3,0.23 0.95,0.3 2.17,1.12 3.67,2.48 1.5,1.36 2.61,2.62 3.34,3.83 0.72,1.2 1.09,2.15 1.09,2.85 0,0.3 -0.07,0.61 -0.22,0.94 -0.15,0.33 -0.41,0.74 -0.79,1.24 -0.38,0.5 -0.61,0.85 -0.71,1.05 -0.2,0.35 -0.34,0.96 -0.41,1.84 -0.08,0.88 -0.24,1.51 -0.49,1.91 -0.6,0.95 -1.54,1.88 -2.81,2.77 -1.27,0.9 -2.44,1.4 -3.49,1.5 h -0.94 c -0.48,0 -0.84,0.03 -1.09,0.08 -0.35,0.1 -1.05,0.41 -2.1,0.94 -1.05,0.53 -1.83,0.76 -2.33,0.71 -0.5,-0.05 -0.85,-0.1 -1.05,-0.15 z M 140,92.83 139.77,92.38 c -0.15,-0.35 -0.34,-0.45 -0.56,-0.3 -0.23,0.15 -0.39,0.24 -0.49,0.26 -0.1,0.03 -0.2,0.04 -0.3,0.04 -1,-0.15 -2.13,-0.44 -3.38,-0.86 -1.25,-0.42 -2.17,-0.94 -2.77,-1.54 -0.55,-0.55 -0.96,-1.3 -1.24,-2.25 -0.28,-0.95 -0.39,-2.3 -0.34,-4.05 0,-1.15 0.04,-2.07 0.11,-2.77 0.07,-0.7 0.29,-1.27 0.64,-1.73 0.45,-0.55 1.54,-1.25 3.26,-2.1 1.73,-0.85 3.81,-1.7 6.26,-2.55 0.55,0 1.37,0.21 2.47,0.64 1.1,0.43 1.9,0.66 2.4,0.71 0.45,0.05 1.09,-0.01 1.91,-0.19 0.83,-0.17 1.44,-0.26 1.84,-0.26 0.5,0 1.26,0.21 2.29,0.64 1.02,0.43 1.76,0.64 2.21,0.64 0.3,0 0.82,-0.14 1.57,-0.41 0.75,-0.27 1.32,-0.39 1.73,-0.34 0.7,0.05 1.22,0.64 1.58,1.76 0.35,1.12 0.4,2.25 0.15,3.38 -0.25,1.12 -0.63,1.69 -1.12,1.69 -0.4,0 -1.4,-0.65 -3,-1.95 -1.6,-1.3 -2.81,-2.14 -3.64,-2.51 -0.82,-0.38 -1.51,-0.56 -2.06,-0.56 -0.9,-0.05 -1.7,0.06 -2.4,0.34 -0.7,0.28 -1.58,0.91 -2.62,1.91 -1.05,1 -1.88,1.65 -2.48,1.95 -0.25,0.15 -0.7,0.26 -1.35,0.34 -0.65,0.07 -1.1,0.16 -1.35,0.26 -0.65,0.3 -1.18,0.75 -1.58,1.35 -0.4,0.6 -0.59,1.2 -0.56,1.8 0.02,0.6 0.16,1.1 0.41,1.5 l 1.8,1.95 c 0.2,0.25 0.4,0.54 0.6,0.86 0.2,0.33 0.45,0.81 0.75,1.46 0.3,0.65 0.5,1.05 0.6,1.2 -0.25,0.1 -0.63,0.15 -1.12,0.15 z"
     id="path5"
     style="fill:#fffff8;fill-opacity:1" />
  <path
     d="m 175.47,116.53 c -0.3,-0.05 -0.93,-0.49 -1.88,-1.31 -0.95,-0.83 -1.8,-1.49 -2.55,-1.99 0,-0.15 -0.15,-0.99 -0.45,-2.51 -0.3,-1.52 -0.38,-2.69 -0.23,-3.49 1,-0.6 1.7,-1.04 2.1,-1.31 0.4,-0.27 0.67,-0.55 0.82,-0.83 0.15,-0.27 0.23,-0.46 0.23,-0.56 1.9,-0.8 3.4,-1.2 4.5,-1.2 0,0.2 0.04,0.4 0.11,0.6 0.08,0.2 0.2,0.35 0.38,0.45 0.17,0.1 0.69,0.16 1.54,0.19 0.85,0.03 1.32,0.41 1.43,1.16 0,0.15 0.04,0.39 0.11,0.71 0.08,0.33 0.36,0.59 0.86,0.79 0.5,0.2 0.8,0.33 0.9,0.38 0.25,0.1 0.49,0.91 0.71,2.44 0.22,1.53 0.29,2.49 0.19,2.89 -0.15,1 -1.38,1.9 -3.68,2.7 -2.3,0.8 -4,1.1 -5.1,0.9 z m 0.45,-24.22 c -0.1,-0.05 -0.21,-0.45 -0.34,-1.2 -0.13,-0.75 -0.74,-1.22 -1.84,-1.43 -0.05,-0.05 -0.21,-0.22 -0.49,-0.52 -0.28,-0.3 -0.5,-0.51 -0.67,-0.64 -0.18,-0.12 -0.34,-0.19 -0.49,-0.19 -0.05,-0.35 -0.28,-1.07 -0.68,-2.18 -0.4,-1.1 -0.6,-1.77 -0.6,-2.02 0.25,-0.3 0.54,-0.8 0.86,-1.5 0.32,-0.7 0.56,-1.17 0.71,-1.42 0.4,-0.6 1.32,-1.06 2.77,-1.39 1.45,-0.32 2.74,-0.32 3.86,0 1.12,0.33 1.94,0.86 2.44,1.61 0.25,0.4 0.47,0.78 0.67,1.12 0.2,0.35 0.29,0.5 0.26,0.45 -0.03,-0.05 0.49,0.4 1.54,1.35 -0.35,0.4 -0.63,1.1 -0.82,2.1 -0.2,1 -0.34,1.66 -0.41,1.99 -0.08,0.33 -0.21,0.6 -0.41,0.83 -0.2,0.22 -0.48,0.34 -0.82,0.34 -0.25,0 -0.75,0.45 -1.5,1.35 -0.35,0.3 -1.7,0.75 -4.05,1.35 z"
     id="path6"
     style="fill:#fffff8;fill-opacity:1" />
  <path
     d="m 184.7,131.23 0.08,-0.15 c -0.05,-0.2 -0.1,-0.4 -0.15,-0.6 -0.05,-0.2 -0.11,-0.36 -0.19,-0.49 -0.08,-0.12 -0.2,-0.34 -0.38,-0.64 -0.18,-0.3 -0.16,-1.2 0.04,-2.7 0.05,0 0.11,0.01 0.19,0.04 0.07,0.02 0.27,0.09 0.6,0.19 0.32,0.1 0.5,0.15 0.53,0.15 0.02,0 -0.01,-0.04 -0.11,-0.11 -0.1,-0.08 -0.19,-0.15 -0.26,-0.23 -0.08,-0.08 -0.15,-0.15 -0.23,-0.22 -0.08,-0.08 -0.14,-0.18 -0.19,-0.3 -0.05,-0.13 -0.1,-0.26 -0.15,-0.41 l 2.7,-5.55 c 0.65,-1.25 1.19,-2.46 1.61,-3.64 0.42,-1.17 0.84,-2.14 1.24,-2.89 0.35,-0.7 0.9,-2 1.65,-3.9 0.75,-1.9 1.37,-3.33 1.88,-4.28 0.3,-0.55 0.86,-1.32 1.69,-2.33 0.83,-1 1.39,-1.77 1.69,-2.32 0.4,-0.7 0.86,-1.94 1.39,-3.71 0.52,-1.77 0.94,-2.99 1.24,-3.64 0.5,-1.05 1.47,-2.71 2.93,-4.99 1.45,-2.27 2.45,-4.06 3,-5.36 0.5,-1.15 1.6,-4.07 3.3,-8.77 1.7,-4.7 3.3,-8.2 4.8,-10.5 0.1,-0.15 0.3,-0.49 0.6,-1.01 0.3,-0.52 0.68,-1.39 1.12,-2.59 0.45,-1.2 0.72,-1.95 0.83,-2.25 0.3,-0.7 0.67,-1.26 1.12,-1.69 0.45,-0.42 0.8,-0.47 1.05,-0.15 0.25,0.33 0.17,1.06 -0.23,2.21 -0.55,1.55 -0.73,3.65 -0.52,6.3 -0.45,0.95 -1.35,2.44 -2.7,4.46 -1.35,2.02 -2.28,3.61 -2.78,4.76 -0.8,0.85 -1.24,2.2 -1.31,4.05 -0.07,1.85 -0.2,3.05 -0.38,3.6 -0.18,0.55 -0.34,0.93 -0.49,1.12 -0.15,0.25 -0.49,0.56 -1.01,0.94 -0.52,0.38 -0.89,0.76 -1.09,1.16 -0.5,0.95 -0.82,2.1 -0.98,3.45 -0.15,1.35 -0.3,2.3 -0.45,2.85 -0.15,0.6 -0.76,1.59 -1.84,2.96 -1.08,1.38 -1.74,2.34 -1.99,2.89 -0.75,1.4 -1.48,3.22 -2.17,5.47 -0.7,2.1 -2.19,5.15 -4.46,9.15 -2.28,4 -3.74,7.12 -4.39,9.38 -0.1,0.4 -0.19,1.06 -0.26,1.99 -0.07,0.92 -0.16,1.59 -0.26,1.99 -0.3,1.1 -1.1,2.24 -2.4,3.41 -1.3,1.17 -2.6,2.14 -3.9,2.89 z"
     id="path7"
     style="fill:#fffff8;fill-opacity:1" />
  <path
     d="m 211.32,131.23 0.08,-0.15 c -0.05,-0.2 -0.1,-0.4 -0.15,-0.6 -0.05,-0.2 -0.11,-0.36 -0.19,-0.49 -0.08,-0.12 -0.2,-0.34 -0.38,-0.64 -0.18,-0.3 -0.16,-1.2 0.04,-2.7 0.05,0 0.11,0.01 0.19,0.04 0.07,0.02 0.27,0.09 0.6,0.19 0.32,0.1 0.5,0.15 0.53,0.15 0.02,0 -0.01,-0.04 -0.11,-0.11 -0.1,-0.08 -0.19,-0.15 -0.26,-0.23 -0.08,-0.08 -0.15,-0.15 -0.23,-0.22 -0.08,-0.08 -0.14,-0.18 -0.19,-0.3 -0.05,-0.13 -0.1,-0.26 -0.15,-0.41 l 2.7,-5.55 c 0.65,-1.25 1.19,-2.46 1.61,-3.64 0.42,-1.17 0.84,-2.14 1.24,-2.89 0.35,-0.7 0.9,-2 1.65,-3.9 0.75,-1.9 1.37,-3.33 1.88,-4.28 0.3,-0.55 0.86,-1.32 1.69,-2.33 0.83,-1 1.39,-1.77 1.69,-2.32 0.4,-0.7 0.86,-1.94 1.39,-3.71 0.52,-1.77 0.94,-2.99 1.24,-3.64 0.5,-1.05 1.47,-2.71 2.93,-4.99 1.45,-2.27 2.45,-4.06 3,-5.36 0.5,-1.15 1.6,-4.07 3.3,-8.77 1.7,-4.7 3.3,-8.2 4.8,-10.5 0.1,-0.15 0.3,-0.49 0.6,-1.01 0.3,-0.52 0.68,-1.39 1.12,-2.59 0.45,-1.2 0.72,-1.95 0.83,-2.25 0.3,-0.7 0.67,-1.26 1.12,-1.69 0.45,-0.42 0.8,-0.47 1.05,-0.15 0.25,0.33 0.17,1.06 -0.23,2.21 -0.55,1.55 -0.73,3.65 -0.52,6.3 -0.45,0.95 -1.35,2.44 -2.7,4.46 -1.35,2.02 -2.28,3.61 -2.78,4.76 -0.8,0.85 -1.24,2.2 -1.31,4.05 -0.07,1.85 -0.2,3.05 -0.38,3.6 -0.18,0.55 -0.34,0.93 -0.49,1.12 -0.15,0.25 -0.49,0.56 -1.01,0.94 -0.52,0.38 -0.89,0.76 -1.09,1.16 -0.5,0.95 -0.82,2.1 -0.98,3.45 -0.15,1.35 -0.3,2.3 -0.45,2.85 -0.15,0.6 -0.76,1.59 -1.84,2.96 -1.08,1.38 -1.74,2.34 -1.99,2.89 -0.75,1.4 -1.48,3.22 -2.17,5.47 -0.7,2.1 -2.19,5.15 -4.46,9.15 -2.28,4 -3.74,7.12 -4.39,9.38 -0.1,0.4 -0.19,1.06 -0.26,1.99 -0.07,0.92 -0.16,1.59 -0.26,1.99 -0.3,1.1 -1.1,2.24 -2.4,3.41 -1.3,1.17 -2.6,2.14 -3.9,2.89 z"
     id="path8"
     style="fill:#fffff8;fill-opacity:1" />
  <path
     d="m 273.72,117.73 c -0.55,0 -1.18,-0.1 -1.88,-0.3 -0.45,-0.15 -1.15,-0.54 -2.1,-1.16 -0.95,-0.62 -1.78,-0.99 -2.48,-1.09 -1.35,-0.25 -3.15,0.05 -5.4,0.9 -0.3,0.1 -0.81,0.2 -1.54,0.3 -0.73,0.1 -1.21,0.17 -1.46,0.23 -2.5,0.6 -4.61,0.92 -6.34,0.97 -1.73,0.05 -2.94,-0.15 -3.64,-0.6 -0.05,-0.05 -0.2,-0.21 -0.45,-0.49 -0.25,-0.28 -0.66,-1 -1.24,-2.17 -0.58,-1.17 -0.91,-1.84 -1.01,-1.99 -0.15,-0.3 -0.49,-0.6 -1.01,-0.9 -0.52,-0.3 -0.85,-0.56 -0.98,-0.79 -0.13,-0.22 -0.19,-0.56 -0.19,-1.01 0,-0.05 0.01,-0.1 0.04,-0.15 0.02,-0.05 0.19,-0.09 0.49,-0.11 0.3,-0.02 0.45,-0.81 0.45,-2.36 v -2.47 l 0.07,-5.17 0.15,-7.73 c 0,-1.05 -0.03,-1.7 -0.08,-1.95 -0.05,-0.25 -0.14,-0.38 -0.26,-0.38 -0.12,0 -0.21,-0.05 -0.26,-0.15 -0.05,-0.1 -0.09,-0.2 -0.11,-0.3 -0.03,-0.1 -0.19,-0.85 -0.49,-2.25 -0.3,-1.4 -1.03,-2.12 -2.17,-2.18 H 241 c -0.35,0 -0.8,0.23 -1.35,0.68 -0.6,0 -1.36,-0.17 -2.29,-0.52 -0.93,-0.35 -1.39,-0.85 -1.39,-1.5 0,-0.45 0.47,-1.73 1.42,-3.83 0.25,-0.15 0.65,-0.25 1.2,-0.3 0.55,-0.05 1.3,-0.01 2.25,0.11 0.95,0.13 1.52,0.19 1.73,0.19 -0.05,-0.4 0.07,-0.67 0.38,-0.83 0.3,-0.15 0.87,0 1.72,0.45 0.5,0.3 1.07,0.74 1.73,1.31 0.65,0.58 1.2,1.11 1.65,1.61 0.6,0.85 0.9,1.48 0.9,1.88 v 0.9 l -0.08,4.27 v 2.32 l -0.08,1.58 -0.07,3.98 v 2.92 l -0.08,1.72 v 1.28 l -0.07,3.9 c 0,0.5 0.19,1.14 0.56,1.91 0.38,0.78 0.99,1.6 1.84,2.47 0.85,0.88 1.62,1.51 2.32,1.91 l 1.43,0.38 c 0,0 0.26,0.19 0.64,0.56 0.38,0.37 0.74,0.56 1.09,0.56 0.15,0 0.45,-0.04 0.9,-0.11 0.45,-0.07 0.99,-0.41 1.61,-1.01 0.62,-0.6 1.04,-0.98 1.24,-1.12 0.5,-0.4 1.22,-0.62 2.17,-0.68 0.95,-0.05 1.5,-0.12 1.65,-0.22 0.15,-0.1 0.41,-0.5 0.79,-1.2 0.38,-0.7 0.61,-1.12 0.71,-1.27 1.6,-1.9 2.57,-3.45 2.93,-4.65 1.3,-4.55 1.72,-8.42 1.27,-11.62 -0.1,-0.85 -0.25,-1.73 -0.45,-2.62 l -0.6,-2.1 c -0.15,-0.55 -0.35,-1.05 -0.6,-1.5 -0.55,-0.85 -1.3,-1.37 -2.25,-1.58 -0.25,-0.1 -0.64,-0.09 -1.16,0.04 -0.52,0.13 -0.89,0.19 -1.09,0.19 l -1.28,-0.45 -0.45,-0.22 c -0.95,-0.65 -1.4,-1.52 -1.35,-2.62 0,-0.4 0.16,-0.8 0.49,-1.2 0.32,-0.4 0.66,-0.62 1.01,-0.67 0.25,-0.1 0.64,0.06 1.16,0.49 0.52,0.43 0.96,0.64 1.31,0.64 0.3,0.05 1.21,0.04 2.74,-0.04 1.52,-0.08 2.6,0.01 3.23,0.26 0.62,0.25 1.07,0.6 1.35,1.05 0.27,0.45 0.31,1.15 0.11,2.1 -0.35,0.55 -0.59,1.48 -0.71,2.77 -0.13,1.3 -0.08,2.29 0.15,2.96 0.23,0.67 0.56,1.01 1.01,1.01 -0.5,4.6 -0.75,8 -0.75,10.2 0,0.3 -0.1,0.75 -0.3,1.35 -0.2,0.6 -0.3,1.03 -0.3,1.28 -0.15,1.3 -0.03,2.5 0.38,3.6 0.9,2.5 3.2,4.42 6.9,5.78 0.15,0 0.45,0.45 0.9,1.35 l 0.38,1.05 c 0,0.7 -0.52,1.26 -1.57,1.69 -1.05,0.42 -2.48,0.59 -4.27,0.49 z"
     id="path9"
     style="fill:#fffff8;fill-opacity:1" />
  <path
     d="m 322.62,118.26 c -1.05,-0.25 -2.62,-0.48 -4.72,-0.67 -2.1,-0.2 -3.43,-0.35 -3.97,-0.45 -0.15,-0.05 -0.46,0.01 -0.94,0.19 -0.48,0.17 -0.91,0.19 -1.31,0.04 -0.4,-0.15 -0.8,-0.4 -1.2,-0.75 -0.3,0.25 -1.04,0.4 -2.21,0.45 -1.17,0.05 -2.43,0.05 -3.75,0 -1.32,-0.05 -2.09,-0.07 -2.29,-0.07 -1.2,0 -2.02,-0.14 -2.47,-0.41 -0.45,-0.28 -0.68,-0.69 -0.68,-1.24 0,-0.35 0.51,-1 1.54,-1.95 1.02,-0.95 1.61,-1.5 1.76,-1.65 0.55,-0.85 0.88,-2.78 0.97,-5.78 0.09,-3 0.04,-5.66 -0.19,-7.99 -0.22,-2.32 -0.59,-3.81 -1.09,-4.46 L 302,88.72 c 0,-0.75 -0.21,-1.41 -0.64,-1.99 -0.43,-0.57 -1.15,-0.85 -2.18,-0.82 -1.03,0.03 -2.24,0.48 -3.64,1.35 -1.4,0.88 -2.68,2.33 -3.82,4.35 -1.15,2.02 -1.73,4.31 -1.73,6.86 0,0.55 0.2,1.41 0.6,2.59 0.4,1.17 0.6,2.04 0.6,2.59 0,0.35 -0.09,1.04 -0.26,2.06 -0.18,1.03 -0.24,1.81 -0.19,2.36 0.1,0.85 0.77,2.21 2.02,4.09 1.25,1.88 1.88,3.01 1.88,3.41 0,0.4 -0.19,0.8 -0.56,1.2 -0.38,0.4 -0.79,0.7 -1.24,0.9 h -1.65 c -0.85,0 -1.5,0.05 -1.95,0.15 -0.05,0 -0.13,0.01 -0.23,0.04 -0.1,0.02 -0.66,0.15 -1.69,0.38 -1.03,0.22 -1.96,0.32 -2.81,0.3 -0.85,-0.03 -1.58,-0.26 -2.17,-0.71 -0.6,-0.45 -0.9,-1.27 -0.9,-2.47 0,-0.6 0.62,-1.32 1.88,-2.17 1.25,-0.85 2.03,-1.52 2.33,-2.03 0.5,-0.75 0.89,-2.04 1.16,-3.86 0.27,-1.82 0.34,-4.06 0.19,-6.71 0,-0.3 0.1,-0.8 0.3,-1.5 0.2,-0.7 0.3,-1.2 0.3,-1.5 0,-0.45 -0.16,-1.15 -0.49,-2.1 -0.33,-0.95 -0.44,-1.7 -0.34,-2.25 0.05,-0.15 0.14,-0.49 0.26,-1.01 0.12,-0.52 0.19,-0.96 0.19,-1.31 0,-0.35 -0.08,-0.7 -0.23,-1.05 -0.5,-1.25 -1.53,-2.27 -3.08,-3.08 -1.55,-0.8 -2.44,-1.37 -2.66,-1.73 -0.22,-0.35 -0.34,-0.67 -0.34,-0.98 0,-0.5 0.21,-1 0.64,-1.5 0.42,-0.5 1.1,-0.85 2.02,-1.05 0.92,-0.2 1.71,-0.17 2.36,0.08 3.65,1.65 5.55,2.47 5.7,2.47 0.35,0 1.35,-0.31 3,-0.94 1.65,-0.62 2.87,-0.96 3.67,-1.01 0.85,-0.05 2.14,0.21 3.86,0.79 1.72,0.58 2.91,0.86 3.56,0.86 0.35,0 3.4,-0.9 9.15,-2.7 0.15,0 0.8,0.29 1.95,0.86 1.15,0.58 1.85,0.94 2.1,1.09 l 1.88,3.15 0.08,2.55 c 0,0.15 0.01,0.43 0.04,0.82 0.03,0.4 0.04,3.11 0.04,8.14 0,5.03 0.38,8.39 1.12,10.09 0.3,0.6 1.01,1.51 2.14,2.74 1.12,1.23 1.72,2.26 1.8,3.11 0.08,0.85 0.01,1.65 -0.19,2.4 -0.05,0.1 -0.26,0.33 -0.64,0.67 -0.38,0.34 -0.86,0.71 -1.46,1.09 -0.6,0.38 -0.97,0.54 -1.12,0.49 z m -12,-3.23 c 0.25,-0.25 0.68,-0.46 1.28,-0.64 0.6,-0.17 1.05,-0.36 1.35,-0.56 2.75,-0.6 4.12,-1.6 4.12,-3 0,-0.55 0.01,-1.41 0.04,-2.59 0.03,-1.17 -0.01,-2.16 -0.11,-2.96 -0.1,-0.8 -0.38,-1.75 -0.83,-2.85 0.95,-2.35 1.41,-3.92 1.39,-4.72 -0.03,-0.8 -0.16,-1.43 -0.41,-1.88 0,-0.35 0.05,-1.11 0.15,-2.29 0.1,-1.17 -0.03,-2.24 -0.38,-3.19 -0.3,-0.75 -0.9,-1.59 -1.8,-2.51 -0.9,-0.92 -1.7,-1.39 -2.4,-1.39 -0.65,0 -1.49,0.5 -2.51,1.5 -1.03,1 -1.81,1.9 -2.36,2.7 -0.1,0.1 -0.15,0.28 -0.15,0.52 0,0.24 -0.03,0.43 -0.07,0.53 -0.1,0.1 -0.3,0.24 -0.6,0.41 -0.3,0.18 -0.5,0.34 -0.6,0.49 -0.1,0.15 -0.12,0.36 -0.07,0.64 0.05,0.28 -0.2,0.71 -0.75,1.31 -0.45,1.1 -0.68,1.85 -0.68,2.25 V 110 c 0,1.2 0.21,2.11 0.64,2.74 0.42,0.63 1.25,1.06 2.47,1.31 1.22,0.25 1.99,0.58 2.29,0.98 z"
     id="path10"
     style="fill:#fffff8;fill-opacity:1" />
  <path
     d="m 350.82,118.63 c -1,0 -2.02,-0.38 -3.08,-1.12 l -1.57,-0.08 -0.08,-0.07 c -1,-0.05 -2.21,-0.95 -3.64,-2.7 -1.42,-1.75 -2.26,-3.17 -2.51,-4.28 -0.05,-0.2 0.05,-1 0.3,-2.4 0.05,-0.2 0.09,-0.47 0.11,-0.83 0.02,-0.35 -0.04,-1.29 -0.19,-2.81 -0.15,-1.52 -0.15,-2.49 0,-2.89 v -0.15 l 0.45,-1.12 c 0.45,-0.9 0.65,-1.82 0.6,-2.77 -0.1,-1.2 0,-2.95 0.3,-5.25 l -0.22,-0.67 v -0.08 l -0.3,-0.75 -0.6,-1.65 c -0.5,-1.1 -1.09,-2.06 -1.76,-2.89 -0.67,-0.82 -1.39,-1.44 -2.14,-1.84 l -4.8,0.83 -0.45,-0.08 -0.15,-0.07 c -0.65,-0.45 -1.1,-0.85 -1.35,-1.2 0,-1.5 1.47,-2 4.43,-1.5 l 0.97,-0.45 c 3.55,-1.8 5.5,-4.17 5.85,-7.12 -0.4,-2.6 -0.45,-4.59 -0.15,-5.96 0.3,-1.37 0.85,-2.46 1.65,-3.26 l 0.75,0.52 c 0.25,0.2 0.57,0.6 0.98,1.2 0.3,0.6 0.45,0.98 0.45,1.12 -0.85,2.6 -1.35,5.25 -1.5,7.95 0.05,1.2 0.32,1.88 0.82,2.02 0.4,0.65 0.98,1.25 1.73,1.8 0.75,0.55 1.25,1.08 1.5,1.57 0.2,-0.3 0.6,-0.34 1.2,-0.11 0.6,0.23 0.97,0.31 1.12,0.26 0.85,-0.2 2.04,-0.36 3.56,-0.49 1.52,-0.12 2.82,-0.12 3.9,0 1.08,0.13 1.61,0.49 1.61,1.09 -0.6,0.6 -1.27,1.05 -2.02,1.35 l -0.6,0.23 -0.38,0.15 c -0.75,0.15 -1.5,0.23 -2.25,0.23 h -1.42 l -0.83,-0.15 -2.1,-0.38 -0.97,1.2 c -0.85,0 -1.55,0.23 -2.1,0.68 -0.55,0.45 -1.05,1.29 -1.5,2.51 -0.45,1.23 -0.63,3.44 -0.52,6.64 0.1,3.2 0.1,5.05 0,5.55 l -0.38,2.1 -0.08,2.7 -0.08,1.88 1.35,1.5 c 0.1,0.55 0.3,1.23 0.6,2.03 l 0.67,1.27 c 0.25,0.45 0.62,0.93 1.12,1.42 1.15,1.15 2.47,1.73 3.97,1.73 2.25,0 4.32,-1.32 6.23,-3.98 0.05,-0.1 0.14,-0.34 0.26,-0.71 0.12,-0.38 0.21,-0.66 0.26,-0.86 l 0.45,-1.2 0.9,-1.88 1.42,-2.25 c 0.4,-0.6 0.7,-1.28 0.9,-2.03 1.1,-0.65 1.96,-1 2.59,-1.05 0.62,-0.05 1.21,0.38 1.76,1.28 0.05,0.85 0.34,1.78 0.86,2.77 0.53,1 0.81,1.81 0.86,2.44 0.05,0.63 -0.07,1.31 -0.38,2.06 l -0.3,0.3 -1.35,1.8 c -1.4,1.85 -2.35,3.05 -2.85,3.6 -1,1 -1.88,1.67 -2.62,2.03 -1.65,0.7 -3.78,0.97 -6.38,0.82 -0.95,0.3 -1.92,0.45 -2.92,0.45 z"
     id="path11"
     style="fill:#fffff8;fill-opacity:1" />
  <path
     d="m 388.1,117.43 c -0.25,-0.05 -0.74,-0.39 -1.46,-1.01 -0.73,-0.62 -1.19,-1.09 -1.39,-1.39 -0.1,-0.2 -0.41,-1.01 -0.94,-2.44 -0.52,-1.42 -0.79,-2.21 -0.79,-2.36 0,-1.4 0.39,-2.8 1.16,-4.2 0.78,-1.4 2.31,-2.82 4.61,-4.28 0.15,-0.1 0.36,-0.15 0.64,-0.15 0.28,0 0.66,0.06 1.16,0.19 0.5,0.12 0.8,0.19 0.9,0.19 0.05,0 0.27,-0.04 0.68,-0.11 0.4,-0.07 0.75,-0.12 1.05,-0.15 0.3,-0.02 0.55,-0.01 0.75,0.04 1.2,0.35 2.26,1.12 3.19,2.33 0.92,1.2 1.51,2.28 1.76,3.22 0.15,0.5 0.15,1.24 0,2.21 -0.15,0.97 -0.38,1.69 -0.68,2.14 0,0.05 0.06,0.33 0.19,0.83 0.13,0.5 0.14,0.82 0.04,0.97 -0.05,0.1 -0.16,0.28 -0.34,0.53 -0.18,0.25 -0.56,0.62 -1.16,1.12 -0.6,0.5 -0.98,0.82 -1.12,0.97 -0.1,0.05 -0.36,0.04 -0.79,-0.04 -0.42,-0.08 -0.71,-0.04 -0.86,0.11 -1.8,1.55 -4,1.97 -6.6,1.27 z m 3.67,-5.02 c 0.55,0 1.11,-0.29 1.69,-0.86 0.58,-0.57 0.86,-1.16 0.86,-1.76 0,-0.5 -0.25,-0.94 -0.75,-1.31 -0.5,-0.38 -1,-0.56 -1.5,-0.56 -0.5,0 -1,0.3 -1.5,0.9 -0.5,0.6 -0.75,1.18 -0.75,1.73 0,0.55 0.19,1 0.56,1.35 0.38,0.35 0.84,0.53 1.39,0.53 z"
     id="path12"
     style="fill:#fffff8;fill-opacity:1" />
  <path
     d="m 426.05,116.38 c -0.9,0 -1.63,-0.26 -2.18,-0.79 -0.55,-0.53 -0.95,-1.35 -1.2,-2.48 -0.25,-1.12 -0.28,-2.82 -0.08,-5.1 0.2,-2.27 0.3,-3.56 0.3,-3.86 0,-1.35 -0.25,-3.46 -0.75,-6.34 -0.5,-2.87 -0.75,-4.99 -0.75,-6.34 l -0.15,-4.95 c -0.05,-0.45 -0.18,-0.89 -0.38,-1.31 -0.2,-0.42 -0.72,-1.17 -1.57,-2.25 -0.85,-1.07 -1.55,-1.99 -2.1,-2.74 l -0.08,-0.08 c 0,0 -0.49,0.19 -1.31,0.56 -0.82,0.38 -1.36,0.54 -1.61,0.49 -0.55,0 -1.15,-0.26 -1.8,-0.79 -0.65,-0.52 -0.97,-1.11 -0.97,-1.76 0,-0.4 0.09,-0.8 0.26,-1.2 0.18,-0.4 0.53,-0.68 1.05,-0.83 0.52,-0.15 1.31,-0.15 2.36,0 1.05,0.15 1.7,0.23 1.95,0.23 l 2.77,-0.38 c 0.4,0.05 1.65,0.41 3.75,1.09 2.1,0.67 3.23,1.09 3.38,1.24 v 0.45 c -0.6,0.4 -1.7,0.98 -3.3,1.73 v 2.7 c -0.3,-0.05 -0.54,-0.01 -0.71,0.11 -0.18,0.13 -0.09,0.66 0.26,1.61 0.25,0.3 0.49,0.78 0.71,1.43 0.22,0.65 0.49,2.28 0.79,4.88 0.05,0.1 0.2,0.52 0.45,1.27 0.25,0.75 0.42,1.18 0.53,1.27 0.6,0.25 1.55,0.39 2.85,0.41 1.3,0.03 2.2,0.11 2.7,0.26 -0.05,0.3 0.1,0.5 0.45,0.6 l 2.7,-8.4 c 0.1,-0.35 0.31,-0.83 0.64,-1.42 0.33,-0.6 0.64,-0.87 0.94,-0.83 l 0.45,0.3 c -0.2,-1.5 -0.3,-2.65 -0.3,-3.45 -0.7,-1.1 -1.05,-1.85 -1.05,-2.25 0.05,-0.55 0.56,-0.96 1.54,-1.24 0.97,-0.27 2.27,-0.26 3.9,0.04 1.62,0.3 2.44,0.75 2.44,1.35 0,0.25 -0.03,0.66 -0.08,1.24 -0.05,0.58 -0.05,1.11 0,1.61 0.05,0.5 0.25,0.98 0.6,1.42 0.05,0.2 0.06,0.52 0.04,0.98 -0.03,0.45 -0.16,0.85 -0.41,1.2 0.05,0.1 0.31,0.46 0.79,1.09 0.47,0.63 0.71,1.11 0.71,1.46 0,0.85 -0.18,1.68 -0.52,2.48 -0.35,0.8 -0.8,1.26 -1.35,1.39 -0.55,0.13 -1.17,-0.29 -1.88,-1.24 -0.4,-0.6 -0.65,-1.45 -0.75,-2.55 l -3.22,-1.58 c -0.15,1.7 -0.5,3.84 -1.05,6.41 -0.55,2.58 -1.38,5.41 -2.48,8.51 -1.1,3.1 -2.28,6 -3.52,8.7 -0.2,0.4 -0.23,1 -0.08,1.8 0.15,0.8 0.22,1.25 0.22,1.35 0,0.25 -0.14,0.6 -0.41,1.05 -0.28,0.45 -0.7,0.8 -1.28,1.05 -0.58,0.25 -1.01,0.38 -1.31,0.38 -0.15,0 -0.4,-0.2 -0.75,-0.6 l -0.15,0.6 z m 23.62,1.28 c -0.9,0 -1.76,-0.28 -2.59,-0.83 -0.83,-0.55 -1.42,-1.62 -1.8,-3.22 -0.38,-1.6 -0.51,-3.95 -0.41,-7.05 -0.05,-0.15 -0.1,-0.46 -0.15,-0.94 -0.05,-0.47 -0.15,-1.3 -0.3,-2.47 -0.15,-1.17 -0.19,-2.24 -0.11,-3.19 0.08,-0.95 0.25,-1.59 0.53,-1.91 0.27,-0.32 0.55,-0.51 0.83,-0.56 0.27,-0.05 0.99,-0.04 2.14,0.04 1.15,0.07 2.07,-0.34 2.77,-1.24 0.6,-3.4 1.02,-6.7 1.28,-9.9 -0.05,-0.25 -0.23,-0.72 -0.53,-1.42 -0.3,-0.7 -0.45,-1.17 -0.45,-1.43 0,-0.4 0.15,-0.85 0.45,-1.35 0.3,-0.5 0.47,-0.8 0.53,-0.9 -0.45,-1.2 -0.67,-1.84 -0.67,-1.91 v -0.26 c 2.15,-1.25 4.24,-1.82 6.26,-1.73 2.03,0.1 4.19,0.8 6.49,2.1 v 0.45 c -0.75,0.5 -2.03,0.8 -3.83,0.9 l 0.45,0.52 -0.6,-0.45 h -0.08 c -0.4,0.35 -0.9,0.86 -1.5,1.54 -0.6,0.67 -1.05,1.16 -1.35,1.46 0,0.05 -0.16,0.13 -0.49,0.23 -0.33,0.1 -0.49,0.18 -0.49,0.23 -0.2,4.05 -0.56,7.68 -1.09,10.88 -0.53,3.2 -1.36,6.48 -2.51,9.82 -0.15,0.45 -0.29,2.18 -0.41,5.18 -0.13,3 -0.4,4.99 -0.83,5.96 -0.43,0.98 -0.94,1.46 -1.54,1.46 z"
     id="path13"
     style="fill:#fffff8;fill-opacity:1" />
  <path
     d="m 470.52,116.46 c -0.9,-0.35 -1.94,-0.45 -3.11,-0.3 -1.18,0.15 -1.84,0.2 -1.99,0.15 -1.65,-0.5 -3.58,-1.3 -5.78,-2.4 -0.95,-0.5 -1.95,-1.1 -3,-1.8 0.1,-0.15 0.12,-0.5 0.08,-1.05 -0.05,-0.55 -0.33,-1.22 -0.83,-2.02 l -0.97,-1.88 -0.38,-1.35 -0.53,-1.95 c -0.15,-0.45 -0.43,-1.09 -0.83,-1.91 -0.4,-0.83 -0.66,-1.5 -0.79,-2.02 -0.13,-0.52 -0.19,-1.09 -0.19,-1.69 0,-0.6 0.21,-1.61 0.64,-3.04 0.42,-1.42 1.74,-4.24 3.94,-8.44 0.1,-0.2 0.4,-0.76 0.9,-1.69 0.5,-0.92 0.9,-1.61 1.2,-2.06 0.6,-0.8 1.5,-1.67 2.7,-2.62 0.9,-0.6 1.52,-0.95 1.88,-1.05 0.15,-0.05 0.41,-0.04 0.79,0.04 0.38,0.08 0.64,0.09 0.79,0.04 0.15,-0.05 0.26,-0.23 0.34,-0.52 0.08,-0.29 0.16,-0.47 0.26,-0.52 0.2,-0.1 0.85,-0.08 1.95,0.07 1.1,0.15 1.77,0.23 2.02,0.23 0.35,0 0.66,-0.17 0.94,-0.52 0.27,-0.35 0.56,-0.52 0.86,-0.52 l 3.07,-0.15 c 0.35,0 0.74,0.06 1.16,0.19 0.42,0.12 1.04,0.36 1.84,0.71 0.8,0.35 1.35,0.58 1.65,0.67 l 4.12,1.43 c 0.5,0.5 1.17,1.74 2.03,3.71 0.85,1.98 1.62,3.39 2.32,4.24 0.05,0.05 0.25,0.21 0.6,0.49 0.35,0.28 0.55,0.46 0.6,0.56 0.1,0.3 0.26,0.79 0.49,1.46 0.23,0.67 0.26,1.54 0.11,2.59 -0.15,1.05 -0.23,1.83 -0.23,2.33 0.15,3.75 0.12,6.12 -0.08,7.12 -0.35,1.7 -1.68,3.83 -3.97,6.38 -1.45,1.6 -3.12,3.08 -5.03,4.42 -2.1,1.6 -3.8,2.5 -5.1,2.7 -0.25,0.05 -0.58,0.09 -0.97,0.11 -0.4,0.02 -1.58,-0.01 -3.53,-0.11 z m 1.35,-3.08 c 2.35,0 4.39,-0.27 6.11,-0.83 1.72,-0.55 3.19,-1.39 4.39,-2.51 1.2,-1.12 2.2,-2.61 3,-4.46 0.35,-0.75 0.59,-2.04 0.71,-3.86 0.12,-1.82 0.29,-2.99 0.49,-3.49 0.05,-0.1 0.19,-0.25 0.41,-0.45 0.22,-0.2 0.34,-0.38 0.34,-0.52 0,-0.35 -0.19,-1.27 -0.56,-2.77 -0.37,-1.5 -0.79,-2.9 -1.24,-4.2 -0.3,-1 -1.06,-2.11 -2.29,-3.34 -1.23,-1.22 -2.31,-1.94 -3.26,-2.14 -0.1,0 -0.45,0.01 -1.05,0.04 -0.6,0.03 -1.05,-0.04 -1.35,-0.19 l -2.55,-1.73 c -1.95,-1.3 -3.67,-1.95 -5.17,-1.95 -1.5,0 -2.81,0.29 -4.09,0.86 -1.27,0.58 -2.39,1.31 -3.34,2.21 -1.4,1.35 -2.53,3.01 -3.38,4.99 -0.85,1.98 -1.3,3.96 -1.35,5.96 0,0.5 -0.04,0.93 -0.11,1.27 -0.08,0.35 -0.25,0.64 -0.53,0.86 -0.28,0.22 -0.46,0.44 -0.56,0.64 -0.25,0.6 -0.31,1.33 -0.19,2.18 0.12,0.85 0.34,1.62 0.64,2.32 2.2,4.45 3.5,7 3.9,7.65 0.4,0.6 0.85,1.15 1.35,1.65 0.65,0.55 1.41,0.96 2.29,1.24 0.87,0.28 1.75,0.45 2.62,0.53 0.87,0.08 1.82,0.1 2.85,0.08 1.02,-0.03 1.66,-0.04 1.91,-0.04 z"
     id="path14"
     style="fill:#fffff8;fill-opacity:1" />
  <path
     d="m 499.32,117.13 c -1.15,0.35 -3.4,0.45 -6.75,0.3 -3.35,-0.15 -5.65,-0.4 -6.9,-0.75 -0.45,-0.1 -0.8,-0.4 -1.05,-0.9 -0.25,-0.5 -0.38,-1 -0.38,-1.5 0.05,-1.6 1.12,-2.61 3.23,-3.04 2.1,-0.42 3.22,-0.66 3.38,-0.71 0.85,-0.3 1.56,-0.71 2.14,-1.24 0.57,-0.53 0.85,-1.49 0.82,-2.89 -0.03,-1.4 0.16,-2.42 0.56,-3.08 0.25,-0.4 0.5,-0.75 0.75,-1.05 0.25,-0.3 0.39,-0.53 0.41,-0.67 0.02,-0.15 0.06,-0.72 0.11,-1.73 l 0.3,-17.55 c 0,-0.95 -0.31,-1.94 -0.94,-2.96 -0.63,-1.02 -1.36,-1.56 -2.21,-1.61 -0.6,-0.05 -1.08,0.08 -1.43,0.38 -0.35,0.3 -0.58,0.48 -0.67,0.52 -0.35,0.15 -0.95,0.34 -1.8,0.56 -0.85,0.23 -1.61,0.28 -2.29,0.15 -0.68,-0.12 -1.1,-0.34 -1.28,-0.64 -0.18,-0.3 -0.26,-0.57 -0.26,-0.83 0,-1.45 1.08,-2.17 3.23,-2.17 1.3,0.05 3.85,0.3 7.65,0.75 1.55,0.25 2.55,1.65 3,4.2 0.05,0.25 0.3,0.46 0.75,0.64 0.45,0.18 1.09,0.24 1.91,0.19 0.82,-0.05 1.39,-0.15 1.69,-0.3 0.35,-0.2 1.11,-0.71 2.29,-1.54 1.17,-0.83 2.11,-1.34 2.81,-1.54 0.1,-0.05 0.45,-0.11 1.05,-0.19 0.6,-0.08 0.92,-0.09 0.98,-0.04 -0.5,0.4 -0.85,0.74 -1.05,1.01 -0.2,0.28 -0.28,0.59 -0.22,0.94 0.05,0.35 0.05,0.63 0,0.82 -0.1,0.3 -0.43,0.66 -0.97,1.09 -0.55,0.43 -0.95,0.81 -1.2,1.16 -0.1,0.2 -0.39,0.34 -0.86,0.41 -0.48,0.08 -0.79,0.16 -0.94,0.26 -0.6,0.45 -1.61,1.71 -3.04,3.79 -1.42,2.08 -2.11,3.36 -2.06,3.86 l 0.67,1.42 c 0.05,0.2 0.08,0.69 0.08,1.46 0,0.77 -0.03,1.29 -0.08,1.54 l -0.52,2.25 c 0,0.3 0.14,0.7 0.41,1.2 0.27,0.5 0.41,0.9 0.41,1.2 0,0.45 -0.11,1.16 -0.34,2.14 -0.22,0.97 -0.29,1.74 -0.19,2.29 0.1,0.9 0.39,1.8 0.86,2.7 0.47,0.9 1.04,1.62 1.69,2.17 0.3,0.25 0.9,0.43 1.8,0.53 0.9,0.1 1.38,0.15 1.43,0.15 0.75,0.15 1.44,0.65 2.06,1.5 0.62,0.85 0.85,1.7 0.67,2.55 -0.18,0.85 -0.71,1.35 -1.61,1.5 -1,0.6 -1.58,0.9 -1.73,0.9 -0.35,0 -1.16,-0.16 -2.44,-0.49 -1.27,-0.32 -2.19,-0.36 -2.74,-0.11 l -1.2,0.97 z M 519.5,87.58 c -0.35,0 -0.66,-0.17 -0.94,-0.53 -0.28,-0.35 -0.41,-0.72 -0.41,-1.12 0.05,-0.75 0.5,-1.47 1.35,-2.17 0.85,-0.7 1.38,-1.21 1.58,-1.54 0.2,-0.32 0.33,-0.56 0.38,-0.71 0.1,-0.3 -0.01,-0.79 -0.34,-1.46 -0.33,-0.68 -0.49,-1.04 -0.49,-1.09 0,-0.2 0.2,-0.38 0.6,-0.53 0.4,-0.15 0.7,-0.2 0.9,-0.15 0.4,0 0.76,0.18 1.09,0.52 0.32,0.35 0.5,0.93 0.53,1.73 0.02,0.8 -0.11,1.75 -0.41,2.85 -0.3,1.1 -0.75,2.01 -1.35,2.74 -0.6,0.73 -1.12,1.15 -1.58,1.28 -0.45,0.12 -0.75,0.19 -0.9,0.19 z"
     id="path15"
     style="fill:#fffff8;fill-opacity:1" />
  <path
     d="m 530.45,118.56 c -2.25,0 -3.93,-0.55 -5.02,-1.65 0.15,-0.6 0.64,-1.1 1.46,-1.5 0.83,-0.4 1.89,-0.66 3.19,-0.79 1.3,-0.12 2.46,-0.19 3.49,-0.19 1.03,0 2.05,0.03 3.08,0.08 1.02,0.05 1.56,0.08 1.61,0.08 0.7,0 1.36,-0.46 1.99,-1.39 0.62,-0.92 1.17,-2.6 1.65,-5.02 0.47,-2.42 0.94,-7.69 1.39,-15.79 l -0.22,-0.38 -0.45,-1.05 c -0.45,-1 -0.7,-1.94 -0.75,-2.81 -0.05,-0.87 0.08,-1.41 0.38,-1.61 0.1,-1.45 0.1,-3.89 0,-7.31 -0.1,-3.42 -0.05,-5.96 0.15,-7.61 0.05,-0.6 -0.51,-1.6 -1.69,-3 -1.17,-1.4 -2.56,-2.67 -4.16,-3.83 2.25,-0.6 3.9,-0.66 4.95,-0.19 1.05,0.48 1.75,1.31 2.1,2.51 0.05,0.15 0.1,0.73 0.15,1.73 0.05,1 0.12,3.01 0.22,6.04 0.1,3.03 0.15,4.64 0.15,4.84 0,0.3 -0.08,0.81 -0.23,1.54 -0.15,0.73 -0.2,1.26 -0.15,1.61 0,0.5 0.22,1.19 0.67,2.06 0.45,0.88 0.67,1.56 0.67,2.06 0,0.45 -0.12,1.09 -0.38,1.91 -0.25,0.82 -0.38,1.46 -0.38,1.91 0,0.8 0.09,2.04 0.26,3.71 0.17,1.68 0.26,2.86 0.26,3.56 0.15,6.3 0.29,10.34 0.41,12.11 0.12,1.78 0.26,2.94 0.41,3.49 0.05,0.15 0.15,0.28 0.3,0.38 0.15,0.1 0.39,0.2 0.71,0.3 0.33,0.1 0.54,0.18 0.64,0.22 3.35,-0.2 5.58,-0.17 6.67,0.08 1.1,0.25 1.81,0.63 2.14,1.12 0.33,0.49 0.49,0.97 0.49,1.42 -0.15,0.05 -0.7,0.24 -1.65,0.56 -0.95,0.32 -1.58,0.49 -1.88,0.49 l -22.65,0.3 z m 1.95,-52.65 c -0.05,0 -0.79,0.16 -2.21,0.49 -1.42,0.33 -2.14,-0.21 -2.14,-1.61 1,-0.45 2.05,-0.61 3.15,-0.49 1.1,0.13 2.05,0.44 2.85,0.94 z"
     id="path16"
     style="fill:#fffff8;fill-opacity:1" />
  <path
     d="m 569.37,117.51 c -0.3,0 -1.11,-0.29 -2.44,-0.86 -1.33,-0.58 -2.61,-1.16 -3.86,-1.76 -1.4,-0.75 -2.23,-1.22 -2.47,-1.42 -0.6,-0.55 -1.28,-1.38 -2.03,-2.47 -0.75,-1.09 -1.35,-2.18 -1.8,-3.23 -0.6,-1.25 -0.97,-2.42 -1.12,-3.52 -0.05,-0.35 0.05,-1.12 0.3,-2.33 0.1,-0.6 0.12,-1.07 0.08,-1.42 -0.05,-0.3 -0.29,-1.1 -0.71,-2.4 -0.42,-1.3 -0.64,-2.05 -0.64,-2.25 0,-0.6 0.29,-1.43 0.86,-2.48 0.57,-1.05 0.91,-1.67 1.01,-1.88 l 0.15,-1.8 c 0.15,-1 0.98,-2.49 2.48,-4.46 1.5,-1.97 2.8,-3.49 3.9,-4.54 0.15,-0.15 1.59,-0.5 4.31,-1.05 2.72,-0.55 4.34,-0.83 4.84,-0.83 l 1.2,0.23 c 0.9,0.25 1.84,0.63 2.81,1.12 0.97,0.5 1.64,0.98 1.99,1.43 0.15,0.15 0.3,0.29 0.45,0.41 0.15,0.13 0.39,0.21 0.71,0.26 0.33,0.05 0.54,0.1 0.64,0.15 0.3,0.05 0.72,0.36 1.28,0.94 0.55,0.58 0.92,0.86 1.12,0.86 0.15,0 0.24,0.01 0.26,0.04 0.03,0.03 0.06,0.06 0.11,0.11 0.2,0.2 0.46,0.23 0.79,0.07 0.32,-0.15 0.64,-0.51 0.94,-1.09 0.3,-0.57 0.5,-1.17 0.6,-1.8 0.1,-0.62 0.09,-1.29 -0.04,-1.99 -0.12,-0.7 -0.54,-1.2 -1.24,-1.5 0.05,-0.95 0.27,-2.47 0.67,-4.57 0.4,-2.1 0.62,-3.65 0.67,-4.65 0.05,-0.45 -0.03,-1.12 -0.22,-2.03 l -0.08,-0.3 v -0.15 c -0.1,-0.6 -0.12,-1.02 -0.08,-1.27 0.4,-0.2 0.9,-0.2 1.5,0 0.6,0.2 0.9,0.58 0.9,1.12 l -0.08,3 -0.08,3.22 c 0,0.25 0.21,0.59 0.64,1.01 0.42,0.43 0.64,0.76 0.64,1.01 l -0.83,6.97 c 0,0.1 0.21,0.61 0.64,1.54 0.42,0.93 0.72,1.94 0.9,3.04 0.17,1.1 0.24,2.2 0.19,3.3 l -0.07,1.95 -0.23,12.3 v 1.65 l -0.08,3.83 v 1.42 c 0,0.45 0.25,0.81 0.75,1.09 0.5,0.28 1.67,0.46 3.53,0.56 0.85,0.05 1.59,0.28 2.21,0.67 0.62,0.4 0.99,0.86 1.09,1.39 0.1,0.52 -0.08,1 -0.52,1.42 -0.45,0.42 -1.18,0.69 -2.18,0.79 -0.85,0.1 -2.29,0.11 -4.31,0.04 -2.02,-0.08 -3.24,-0.24 -3.64,-0.49 -0.2,-0.15 -0.45,-0.47 -0.75,-0.97 -0.3,-0.5 -0.53,-0.83 -0.68,-0.97 -0.35,-0.35 -0.67,-0.53 -0.97,-0.53 -0.2,0 -1,0.38 -2.4,1.12 -1.4,0.75 -2.12,1.15 -2.17,1.2 -0.65,0.3 -2.23,0.67 -4.72,1.12 l -3.23,0.52 -1.5,0.08 z m 1.5,-4.43 c 0.75,0 1.32,-0.27 1.73,-0.83 0.4,-0.55 0.62,-0.83 0.67,-0.83 0.4,-0.15 1.34,-0.39 2.81,-0.71 1.47,-0.33 2.6,-0.7 3.38,-1.12 0.77,-0.42 1.36,-0.89 1.76,-1.39 0.55,-0.7 1,-1.45 1.35,-2.25 0.45,-0.95 0.85,-2.12 1.2,-3.53 0.1,-0.6 0.25,-1.77 0.45,-3.52 0.2,-1.75 0.15,-3.72 -0.15,-5.92 l -0.52,-3.83 c -0.05,-0.3 -0.41,-0.9 -1.09,-1.8 -0.68,-0.9 -1.55,-1.91 -2.62,-3.04 -1.08,-1.12 -1.79,-1.71 -2.14,-1.76 -2.8,-0.5 -4.9,-0.72 -6.3,-0.67 -2.2,0.1 -4.12,0.65 -5.78,1.65 -0.55,0.35 -1.03,0.88 -1.42,1.58 l -1.27,2.55 c -0.1,0.15 -0.18,0.43 -0.23,0.83 -0.05,0.4 -0.1,0.65 -0.15,0.75 -0.15,0.15 -0.41,0.26 -0.79,0.34 -0.38,0.08 -0.61,0.21 -0.71,0.41 -0.25,0.45 -0.48,1.59 -0.68,3.41 -0.2,1.83 -0.25,3.89 -0.15,6.19 0,0.5 0.08,1.12 0.22,1.87 0.15,1 0.42,2.03 0.83,3.08 0.4,1.05 0.87,1.92 1.42,2.62 0.65,0.8 1.56,1.74 2.74,2.81 1.18,1.07 2.24,1.86 3.19,2.36 0.95,0.5 1.7,0.75 2.25,0.75 z"
     id="path17"
     style="fill:#fffff8;fill-opacity:1" />
  <path
     d="m 2,129.13 v -3.75 h 30.37 v 3.75 z"
     id="path18"
     style="fill:#fffff8;fill-opacity:1" />
  <path
     d="m 32.37,129.13 v -3.75 h 27.52 v 3.75 z"
     id="path19"
     style="fill:#fffff8;fill-opacity:1" />
  <path
     d="m 59.9,129.13 v -3.75 h 30.37 v 3.75 z"
     id="path20"
     style="fill:#fffff8;fill-opacity:1" />
  <path
     d="m 90.27,129.13 v -3.75 h 64.5 v 3.75 z"
     id="path21"
     style="fill:#fffff8;fill-opacity:1" />
  <path
     d="m 154.77,129.13 v -3.75 h 79.87 v 3.75 z"
     id="path22"
     style="fill:#fffff8;fill-opacity:1" />
  <path
     d="m 234.65,129.13 v -3.75 h 181.5 v 3.75 z"
     id="path23"
     style="fill:#fffff8;fill-opacity:1" />
  <path
     d="m 416.15,129.13 v -3.75 h 181.88 v 3.75 z"
     id="path24"
     style="fill:#fffff8;fill-opacity:1" />
</svg>
