<?xml version="1.0" encoding="UTF-8"?>
<svg id="Layer_1" xmlns="http://www.w3.org/2000/svg" viewBox="0 0 600 200">
  <defs>
    <style>
      .cls-1 {
        fill: none;
      }
    </style>
  </defs>
  <rect class="cls-1" x="2" y="64.93" width="598" height="70.13"/>
  <path d="M34.77,120.3c-2.5-.1-4.15-.26-4.95-.49-.8-.22-1.4-.46-1.8-.71-.25-.75-.18-1.44.23-2.06.4-.62,1.31-1.34,2.74-2.14,1.43-.8,2.29-1.35,2.59-1.65.25-1.05.17-2.36-.23-3.94-.4-1.58-.61-2.66-.64-3.26-.03-.6-.01-1.02.04-1.27l.38-.53c-.1-.95,0-2.7.3-5.25.3-2.55.38-4.2.23-4.95-.15-.65-.41-1.4-.79-2.25-.38-.85-.96-1.56-1.76-2.14-.8-.57-1.86-.92-3.19-1.05-1.33-.12-2.81.16-4.46.86-1.6.7-3.05,1.73-4.35,3.08-1.3,1.35-2.15,2.73-2.55,4.12-.4,1.4-.52,2.62-.38,3.67.15,1.1-.03,2.6-.52,4.5-.5,1.9-.73,3.31-.67,4.24.05.93.23,1.69.52,2.29s.52,1,.67,1.2c.8.25,1.15.67,1.05,1.27.15.15.67.56,1.57,1.24.9.67,1.52,1.24,1.88,1.69.35.45.53.85.53,1.2-.05.8-1.36,1.54-3.94,2.21-2.58.67-5.33.96-8.25.86-2.93-.1-4.79-.55-5.59-1.35,0-.15-.07-.49-.22-1.01-.15-.53-.15-.91,0-1.16,0-.6.35-1.24,1.05-1.91.7-.67,1.5-1.34,2.4-1.99.9-.65,1.43-1.02,1.58-1.12l.6-1.12,1.35-12.38c-.05-.1-.09-.35-.11-.75-.03-.4,0-1.27.08-2.62.07-1.35.11-2.1.11-2.25,0-.35-.09-1.04-.26-2.06-.18-1.02-.26-1.79-.26-2.29,0-.95.11-2.29.34-4.01s.36-2.91.41-3.56c.1-1.85-.2-3.55-.9-5.1-.7-1.55-1.83-2.65-3.38-3.3-.55.15-1.05-.08-1.5-.68-1.2-.7-1.69-1.54-1.46-2.51.23-.98,1.17-1.85,2.85-2.62,1.67-.77,3.42-.99,5.25-.64,1.82.35,3.19,1.35,4.09,3l.9.52c.3,2.4.2,5.65-.3,9.75.2.3.35.65.45,1.05-.1.2-.25.61-.45,1.24-.2.63-.33,1.06-.38,1.31.45.7,1.07,1.45,1.88,2.25.05,0,.56-.3,1.54-.9s2.09-1.17,3.34-1.73c1.25-.55,2.56-.92,3.94-1.12,1.37-.2,2.61-.05,3.71.45,1.5,0,2.57.18,3.23.52,1.15.05,2.22.48,3.23,1.27.85.1,1.59.61,2.21,1.54.62.93,1.07,2.28,1.35,4.05.27,1.78.46,3.99.56,6.64.1,2.65.17,4.25.23,4.8.1.65.05,1.58-.15,2.78-.2,1.2-.3,2.05-.3,2.55-.45.4-.49,1.12-.11,2.17s.76,1.88,1.16,2.47c0,.2.04.5.11.9.08.4.46.78,1.16,1.12.7.35,1.2.63,1.5.83.85.15,1.6.55,2.25,1.2.1.2.4.52.9.97-.05.2.01.48.19.83.17.35.26.6.26.75,0,.4-.09.76-.26,1.09-.18.33-.5.61-.98.86-.48.25-1.08.4-1.8.45-.73.05-1.48.06-2.25.04-.78-.03-1.21-.04-1.31-.04-.4,0-1.16.12-2.29.38s-2,.34-2.62.26c-.63-.08-1.14-.26-1.54-.56Z"/>
  <path d="M54.72,122.85c-.55.25-1.18.44-1.88.56-.7.12-1.27,0-1.73-.38s-.94-1.1-1.46-2.17-.99-1.79-1.39-2.14c-.2-.2-.58-.4-1.12-.6-.55-.2-.93-.4-1.12-.6-.5-.5-1.27-2.28-2.32-5.33-1.05-3.05-1.53-4.9-1.43-5.55.05-.45.3-1.05.75-1.8.45-.75.7-1.32.75-1.72-.25-.45-.4-.96-.45-1.54-.05-.57-.06-1.2-.04-1.88.02-.68.04-1.11.04-1.31-.2-.4-.34-.86-.41-1.39-.08-.52.07-1.31.45-2.36.38-1.05.56-1.85.56-2.4-.2-.25-.46-.76-.79-1.54-.33-.77-.59-1.26-.79-1.46-.05-.35.05-1.17.3-2.47-.45-.85-.93-1.45-1.42-1.8-.15-.05-.75.13-1.8.52-1.05.4-1.72.68-2.02.83-.45.25-1.15.34-2.1.26-.95-.08-1.89-.45-2.81-1.12-.92-.68-1.39-1.46-1.39-2.36,0-1.4.6-2.62,1.8-3.67,1.2-1.05,2.5-1.52,3.9-1.43.3,0,1.2.33,2.7.98,1.1-.05,1.65-.09,1.65-.11s.05-.14.15-.34c.1-.2.23-.42.38-.68.15-.25.47-.59.98-1.01.5-.42.83-.79.98-1.09.2-.4.32-1.16.38-2.29.05-1.12.1-1.79.15-1.99,0-.05-.01-.11-.04-.19-.03-.07-.2-.64-.52-1.69-.33-1.05-.54-1.97-.64-2.77-.1-.8-.09-1.41.04-1.84.12-.42.34-.71.64-.86.4-.9.98-1.59,1.73-2.06.75-.47,1.64-.65,2.66-.52,1.02.13,1.96.46,2.81,1.01.85.55,1.27.98,1.27,1.27.05.35-.1.98-.45,1.88.1.3.23.89.38,1.76.15.88.25,2.29.3,4.24.05,1.95.07,3.15.07,3.6.65.2,1.1.61,1.35,1.24.25.63.52,1.04.83,1.24.65.4,1.47.35,2.47-.15,1-.5,1.7-.75,2.1-.75.3,0,.76.18,1.39.53.62.35,1.11.55,1.46.6.25.05.71.04,1.39-.04.67-.08,1.19-.06,1.54.04.55.15,1.09.78,1.61,1.88.52,1.1.76,1.95.71,2.55-.05.4-.29.94-.71,1.61-.43.68-1.09,1.33-1.99,1.95-.9.63-1.65.96-2.25,1.01-.85.05-1.99-.11-3.41-.49-1.43-.38-2.56-.54-3.41-.49-.85.05-1.48.12-1.88.22-.75,1-1.15,1.98-1.2,2.93.15.55.16,2.21.04,4.99-.13,2.77-.29,4.41-.49,4.91-.2,2.95.02,5.4.67,7.35.35,1,.86,2,1.54,3,.67,1,1.39,1.74,2.14,2.21.75.48,1.45.74,2.1.79.15-.15.41-.47.79-.97.38-.5.76-.87,1.16-1.12,1-.25,1.45-.45,1.35-.6.35-.6.61-1.51.79-2.74.17-1.22.66-2.31,1.46-3.26.15-1,.31-1.56.49-1.69.17-.12.42-.25.75-.38.32-.12.61-.24.86-.34,0-.05.05-.26.15-.64.1-.38.2-.64.3-.79.6-.75,1.32-1.22,2.17-1.43.85-.2,1.84.03,2.96.68,1.12.65,2.11,1.61,2.96,2.89.85,1.28,1.35,2.34,1.5,3.19.05.45-.3,1.69-1.05,3.71s-1.2,3.34-1.35,3.94c-.15.6-.23,1-.23,1.2-.15.1-.65.61-1.5,1.54-.85.93-1.45,1.36-1.8,1.31-.35.4-.78.78-1.27,1.12-2.05,1.8-3.74,3.06-5.06,3.79-1.33.72-2.73,1.14-4.2,1.24-1.48.1-3.11.02-4.91-.23Z"/>
  <path d="M82.25,122.85c-.55.25-1.18.44-1.88.56-.7.12-1.27,0-1.73-.38s-.94-1.1-1.46-2.17-.99-1.79-1.39-2.14c-.2-.2-.58-.4-1.12-.6-.55-.2-.93-.4-1.12-.6-.5-.5-1.27-2.28-2.32-5.33-1.05-3.05-1.53-4.9-1.43-5.55.05-.45.3-1.05.75-1.8.45-.75.7-1.32.75-1.72-.25-.45-.4-.96-.45-1.54-.05-.57-.06-1.2-.04-1.88.02-.68.04-1.11.04-1.31-.2-.4-.34-.86-.41-1.39-.08-.52.07-1.31.45-2.36.38-1.05.56-1.85.56-2.4-.2-.25-.46-.76-.79-1.54-.33-.77-.59-1.26-.79-1.46-.05-.35.05-1.17.3-2.47-.45-.85-.93-1.45-1.42-1.8-.15-.05-.75.13-1.8.52-1.05.4-1.72.68-2.02.83-.45.25-1.15.34-2.1.26-.95-.08-1.89-.45-2.81-1.12-.92-.68-1.39-1.46-1.39-2.36,0-1.4.6-2.62,1.8-3.67,1.2-1.05,2.5-1.52,3.9-1.43.3,0,1.2.33,2.7.98,1.1-.05,1.65-.09,1.65-.11s.05-.14.15-.34c.1-.2.23-.42.38-.68.15-.25.47-.59.98-1.01.5-.42.83-.79.98-1.09.2-.4.32-1.16.38-2.29.05-1.12.1-1.79.15-1.99,0-.05-.01-.11-.04-.19-.03-.07-.2-.64-.52-1.69-.33-1.05-.54-1.97-.64-2.77-.1-.8-.09-1.41.04-1.84.12-.42.34-.71.64-.86.4-.9.98-1.59,1.73-2.06.75-.47,1.64-.65,2.66-.52,1.02.13,1.96.46,2.81,1.01.85.55,1.27.98,1.27,1.27.05.35-.1.98-.45,1.88.1.3.23.89.38,1.76.15.88.25,2.29.3,4.24.05,1.95.07,3.15.07,3.6.65.2,1.1.61,1.35,1.24.25.63.52,1.04.83,1.24.65.4,1.47.35,2.47-.15,1-.5,1.7-.75,2.1-.75.3,0,.76.18,1.39.53.62.35,1.11.55,1.46.6.25.05.71.04,1.39-.04.67-.08,1.19-.06,1.54.04.55.15,1.09.78,1.61,1.88.52,1.1.76,1.95.71,2.55-.05.4-.29.94-.71,1.61-.43.68-1.09,1.33-1.99,1.95-.9.63-1.65.96-2.25,1.01-.85.05-1.99-.11-3.41-.49-1.43-.38-2.56-.54-3.41-.49-.85.05-1.48.12-1.88.22-.75,1-1.15,1.98-1.2,2.93.15.55.16,2.21.04,4.99-.13,2.77-.29,4.41-.49,4.91-.2,2.95.02,5.4.67,7.35.35,1,.86,2,1.54,3,.67,1,1.39,1.74,2.14,2.21.75.48,1.45.74,2.1.79.15-.15.41-.47.79-.97.38-.5.76-.87,1.16-1.12,1-.25,1.45-.45,1.35-.6.35-.6.61-1.51.79-2.74.17-1.22.66-2.31,1.46-3.26.15-1,.31-1.56.49-1.69.17-.12.42-.25.75-.38.32-.12.61-.24.86-.34,0-.05.05-.26.15-.64.1-.38.2-.64.3-.79.6-.75,1.32-1.22,2.17-1.43.85-.2,1.84.03,2.96.68,1.12.65,2.11,1.61,2.96,2.89.85,1.28,1.35,2.34,1.5,3.19.05.45-.3,1.69-1.05,3.71s-1.2,3.34-1.35,3.94c-.15.6-.23,1-.23,1.2-.15.1-.65.61-1.5,1.54-.85.93-1.45,1.36-1.8,1.31-.35.4-.78.78-1.27,1.12-2.05,1.8-3.74,3.06-5.06,3.79-1.33.72-2.73,1.14-4.2,1.24-1.48.1-3.11.02-4.91-.23Z"/>
  <path d="M98.82,140.55l-1.27-.9c-.85.15-2.31-.04-4.39-.56-2.08-.53-3.44-1.06-4.09-1.61-.55-.5-.85-1.56-.9-3.19-.05-1.62.1-2.81.45-3.56.55-1.05,1.67-1.83,3.38-2.32.25-.55.85-1.05,1.8-1.5.95-.45,1.67-1,2.18-1.65.8-1.1,1.41-3.65,1.84-7.65.42-4,.56-7.05.41-9.15-.4-3.05-.55-4.92-.45-5.62-.55-2.05-.5-4.9.15-8.55.65-3.65.98-5.55.98-5.7s-.03-.4-.08-.75c-.4-.45-1-.91-1.8-1.39-.8-.47-1.25-.76-1.35-.86-2.1.1-3.52-.12-4.27-.67-.75-.55-1.22-1.35-1.42-2.4-.1-.6-.06-1.24.11-1.91.18-.68.45-1.15.83-1.43.38-.27.76-.39,1.16-.34.45-.25,1.02-.45,1.73-.6.7-.15,1.47-.11,2.33.11.85.22,2.05.86,3.6,1.91.3,0,.76-.27,1.39-.82.62-.55,1.11-.83,1.46-.83.75,0,1.9.2,3.45.6,1.55.4,2.67.6,3.38.6.45-.45,1.8-.95,4.05-1.5,2.25-.55,3.7-.72,4.35-.52.2.05.5.2.9.45.4.25.72.4.98.45.75.2,1.8.41,3.15.64,1.35.23,2.4.59,3.15,1.09.75.5,1.67,1.38,2.77,2.62.6.7,1.42,1.99,2.48,3.86,1.05,1.88,2,3.21,2.85,4.01v1.8c.1.15.35.39.75.71.4.33.65.61.75.86-.05,2.8-.38,6.28-.97,10.42-.45,3.1-.81,5.06-1.09,5.89-.28.82-.61,1.56-1.01,2.21-.4.65-.83,1.2-1.27,1.65-.8.8-2.2,1.72-4.2,2.77-2,1.05-3.2,1.7-3.6,1.95h-.07c-1,.45-1.99.85-2.96,1.2-.97.35-1.9.56-2.77.64-.88.08-2.16-.09-3.86-.49-1.7-.4-3.45-.58-5.25-.53-1.15.05-1.85.55-2.1,1.5-.25.95-.05,2.24.6,3.86.65,1.62,1.35,2.81,2.1,3.56.3.3.64.57,1.01.83.38.25.95.5,1.73.75.77.25,1.3.55,1.58.9.27.35.47.69.6,1.01.12.33.24.7.34,1.12.1.42.2.89.3,1.39.05.15.09.4.11.75.02.35-.11.74-.41,1.16-.3.42-.5.69-.6.79.15.3-.31.64-1.39,1.01-1.08.38-2.29.64-3.64.79-.2,0-.7-.1-1.5-.3-.8-.2-1.35-.22-1.65-.08-.3.15-.45.42-.45.83l-2.55.38c-1.85-1.1-3.1-1-3.75.3ZM116.52,112.72c.3-.05.51-.25.64-.6.12-.35.29-.53.49-.53.6,0,1.34-.15,2.21-.45.87-.3,1.74-.35,2.59-.15.15-.2.36-.77.64-1.72.27-.95.69-1.47,1.24-1.58.1-.3.42-1.39.98-3.26.55-1.88.92-3.29,1.12-4.24.2-.95.3-1.65.3-2.1,0-3.85-1.15-6.9-3.45-9.15-2.3-2.25-5.38-3.38-9.23-3.38-.55,0-1.73.85-3.52,2.55-1.8,1.7-2.92,2.93-3.38,3.68-.55.9-.88,2.08-.98,3.52-.1,1.45-.18,2.4-.23,2.85-.15.65-.43,1.46-.82,2.44-.4.98-.59,1.79-.56,2.44.02.65.21,1.38.56,2.17.7,1.65,1.77,3.13,3.23,4.43,1.45,1.3,3.05,2.22,4.8,2.77.35-.3.71-.51,1.09-.64.38-.12.8.01,1.27.41.47.4.81.58,1.01.52Z"/>
  <path d="M133.4,122.7c-.15-.1-.44-.29-.86-.56-.43-.28-.81-.55-1.16-.83-.35-.28-.6-.61-.75-1.01l-2.02-2.02c-.55-5-1.05-8.28-1.5-9.83.25-1.9.85-2.9,1.8-3l.67-1.05c.65-.4,1.36-.59,2.14-.56.77.03,1.61.42,2.51,1.2.9.78,2.05,2.26,3.45,4.46,1.4,2.2,2.36,3.58,2.89,4.12.52.55.99.9,1.39,1.05.45.15,1.44.2,2.96.15,1.52-.05,2.49.08,2.89.38.85-.1,1.69-.24,2.51-.41.82-.17,1.54-.42,2.14-.75.6-.32,1.12-.85,1.58-1.57s1.02-1.19,1.73-1.39c.1-.35.15-.7.15-1.05s-.06-.71-.19-1.09c-.13-.38-.29-.8-.49-1.28-.2-.47-.33-.76-.38-.86.35-.2.05-.62-.9-1.27-.85-.6-2.1-1.3-3.75-2.1-.65,0-2.17.13-4.57.38-2.4.25-4.2.28-5.4.08-3.9-.75-6.8-2.65-8.7-5.7-1.9-3.05-2.62-6.6-2.17-10.65.1-.9.82-2.07,2.17-3.53,1.35-1.45,2.45-2.3,3.3-2.55,2.15-1.45,4.6-2.46,7.35-3.04,2.75-.57,5.25-.54,7.5.11.4.15.91.41,1.54.79.62.38,1.11.64,1.46.79.5.2,1.32.34,2.48.41,1.15.08,1.97.19,2.48.34,1.6-.45,2.89-.39,3.86.19.98.58,1.56,1.71,1.76,3.41.3.5.42,1.19.38,2.06-.05.88-.23,1.64-.52,2.29.05.3.17.71.38,1.24.2.52.3.81.3.86.35.9.44,1.79.26,2.66-.18.88-.74,1.65-1.69,2.33-.95.67-2.05,1.16-3.3,1.46.35.45.64.86.86,1.24.22.38.36.69.41.94.05.25.08.4.08.45.2.6.7,1.27,1.5,2.02.8.75,1.4,1.58,1.8,2.47.4.9.72,2.08.98,3.53.05.2.12.54.23,1.01.1.48.14.85.11,1.12-.03.28-.07.49-.15.64s-.2.31-.38.49-.44.36-.79.56c-.05.45-.1.94-.15,1.46-.05.53-.19.93-.41,1.2-.22.28-.4.51-.52.71-.13.2-.29.45-.49.75-.2.3-.46.76-.79,1.39-.33.62-.67,1.09-1.05,1.39-.38.3-1.04.53-1.99.68-.1.15-.21.54-.34,1.16-.13.62-.31,1.02-.56,1.2-.25.17-.55.24-.9.19-2.25,1.4-4.83,2.15-7.73,2.25-2.9.1-5.6-.43-8.1-1.58-.65.15-1.35-.35-2.1-1.5-.95.25-1.8.25-2.55,0-.25.1-.65.39-1.2.86-.55.47-1.03.71-1.42.71ZM156.27,96.97c.2,0,.6-.12,1.2-.38v-1.88c0-.75-.54-1.8-1.61-3.15-1.08-1.35-2-2.25-2.77-2.7-.78-.45-1.36-.65-1.76-.6-.4.05-.7.2-.9.45-4.4.15-7.35.51-8.85,1.09-1.5.58-2.28,1.31-2.32,2.21,0,.2.07.55.23,1.05.15.5.52.95,1.12,1.35.65-.2,1.27-.3,1.88-.3s1.3.24,2.1.71c.8.48,1.4.79,1.8.94.75.35,1.91.46,3.49.34,1.58-.12,2.71-.09,3.41.11.1,0,.45.09,1.05.26.6.18,1.05.3,1.35.38.3.07.5.11.6.11Z"/>
  <path d="M175.92,120.75c-1.3,0-2.74-.64-4.31-1.91-1.57-1.28-2.51-2.56-2.81-3.86.2-.1.34-.41.41-.94.08-.52-.01-1.79-.26-3.79-.25-2-.33-3.3-.22-3.9.1-.05.22-.14.38-.26.15-.12.27-.39.38-.79.1-.4.17-.67.22-.83l1.35-.52c.75-1.5,2.05-3.02,3.9-4.58.05-.45-.51-1.05-1.69-1.8-1.18-.75-1.84-1.2-1.99-1.35s-.45-.67-.9-1.57c-.45-.9-.93-1.96-1.43-3.19-.5-1.22-.7-1.96-.6-2.21.85-3.65,1.56-5.94,2.14-6.86.57-.92,1.29-1.49,2.14-1.69.4-.35,1.17-.79,2.32-1.31,1.15-.52,2.44-.84,3.86-.94,1.42-.1,2.41.25,2.96,1.05.1.1.2.26.3.49.1.23.15.36.15.41.25.1.6.19,1.05.26.45.08.76.21.94.41.17.2.21.67.11,1.42.35.85.62,1.76.83,2.74.2.98.36,2.06.49,3.26.12,1.2.21,1.98.26,2.33-.6.25-1.06.58-1.39.98-.33.4-.61,1.11-.86,2.14-.25,1.03-.58,1.73-.98,2.1-.4.38-.93.61-1.57.71-.8,1-1.5,1.65-2.1,1.95-.1.5,0,.9.3,1.2.1.1.71.38,1.84.82s2.19,1.23,3.19,2.32c.8.85,1.52,2.06,2.18,3.64.65,1.58.85,2.86.6,3.86-.65,3.05-2.08,5.43-4.28,7.12-.45.35-1.15.79-2.1,1.31-.95.53-1.63.91-2.03,1.16-.3,0-.75.1-1.35.3-.6.2-1.08.3-1.43.3Z"/>
  <path d="M183.35,138.52c-.2,0-.61-.23-1.24-.68-.63-.45-1.25-.95-1.88-1.5-.62-.55-.99-.85-1.09-.9,0-.25-.04-.9-.11-1.95-.08-1.05-.05-1.93.07-2.62.13-.7.39-1.25.79-1.65-.05-1.3.38-2.81,1.27-4.54s1.92-3.09,3.08-4.09c.1-.3.26-.94.49-1.91s.52-1.74.9-2.29c.38-.55.91-.98,1.61-1.28.1-.5.19-.8.26-.9.08-.1.46-.42,1.16-.97.25-.7.47-1.39.68-2.06.2-.67.4-1.36.6-2.06.2-.7.38-1.35.53-1.95.15-.6.47-1.41.97-2.44.5-1.02,1.15-2.24,1.95-3.64.4-.7.77-1.17,1.12-1.42.35-.25.62-.45.83-.6.25-.75.46-1.32.64-1.73.17-.4.47-.77.9-1.12.42-.35.79-.67,1.09-.98.05-.05.4-.84,1.05-2.36.65-1.52,1.99-4.89,4.01-10.09,2.02-5.2,3.09-7.9,3.19-8.1.2-.1,2.06-3.79,5.59-11.06s5.49-11.24,5.89-11.89c.4-.75.94-1.34,1.61-1.76.67-.42,1.49-.56,2.44-.41.95.15,1.79.64,2.51,1.46.72.83,1.19,1.71,1.39,2.66.15.8-.11,1.79-.79,2.96-.67,1.18-1.06,1.89-1.16,2.14-.15.45-.25,1.21-.3,2.29-.05,1.08-.15,1.84-.3,2.29-.3.7-.9,1.68-1.8,2.93-.9,1.25-1.45,2.02-1.65,2.32-.4.65-1.35,2.59-2.85,5.81-1.5,3.23-2.35,4.96-2.55,5.21-.15.2-.39.43-.71.67-.33.25-.48.5-.45.75.02.25.14.58.34.98-.7.6-1.26,1.31-1.69,2.14-.43.83-.81,2.13-1.16,3.9-.35,1.78-.67,3.01-.97,3.71-.65,1.65-2,4.31-4.05,7.99-2.05,3.68-3.43,6.59-4.12,8.74-.25.7-.69,1.8-1.31,3.3-.63,1.5-1.94,4.05-3.94,7.65-.1.2-.35.62-.75,1.28-.4.65-.69,1.15-.86,1.5-.18.35-.31.67-.41.97l-3.52,10.8c-.3.85-1.35,1.81-3.15,2.89-1.8,1.08-3.18,1.61-4.12,1.61Z"/>
  <path d="M209.97,138.52c-.2,0-.61-.23-1.24-.68-.63-.45-1.25-.95-1.88-1.5-.62-.55-.99-.85-1.09-.9,0-.25-.04-.9-.11-1.95-.08-1.05-.05-1.93.07-2.62.13-.7.39-1.25.79-1.65-.05-1.3.38-2.81,1.27-4.54s1.92-3.09,3.08-4.09c.1-.3.26-.94.49-1.91s.52-1.74.9-2.29c.38-.55.91-.98,1.61-1.28.1-.5.19-.8.26-.9.08-.1.46-.42,1.16-.97.25-.7.47-1.39.68-2.06.2-.67.4-1.36.6-2.06.2-.7.38-1.35.53-1.95.15-.6.47-1.41.97-2.44.5-1.02,1.15-2.24,1.95-3.64.4-.7.77-1.17,1.12-1.42.35-.25.62-.45.83-.6.25-.75.46-1.32.64-1.73.17-.4.47-.77.9-1.12.42-.35.79-.67,1.09-.98.05-.05.4-.84,1.05-2.36.65-1.52,1.99-4.89,4.01-10.09,2.02-5.2,3.09-7.9,3.19-8.1.2-.1,2.06-3.79,5.59-11.06s5.49-11.24,5.89-11.89c.4-.75.94-1.34,1.61-1.76.67-.42,1.49-.56,2.44-.41.95.15,1.79.64,2.51,1.46.72.83,1.19,1.71,1.39,2.66.15.8-.11,1.79-.79,2.96-.67,1.18-1.06,1.89-1.16,2.14-.15.45-.25,1.21-.3,2.29-.05,1.08-.15,1.84-.3,2.29-.3.7-.9,1.68-1.8,2.93-.9,1.25-1.45,2.02-1.65,2.32-.4.65-1.35,2.59-2.85,5.81-1.5,3.23-2.35,4.96-2.55,5.21-.15.2-.39.43-.71.67-.33.25-.48.5-.45.75.02.25.14.58.34.98-.7.6-1.26,1.31-1.69,2.14-.43.83-.81,2.13-1.16,3.9-.35,1.78-.67,3.01-.97,3.71-.65,1.65-2,4.31-4.05,7.99-2.05,3.68-3.43,6.59-4.12,8.74-.25.7-.69,1.8-1.31,3.3-.63,1.5-1.94,4.05-3.94,7.65-.1.2-.35.62-.75,1.28-.4.65-.69,1.15-.86,1.5-.18.35-.31.67-.41.97l-3.52,10.8c-.3.85-1.35,1.81-3.15,2.89-1.8,1.08-3.18,1.61-4.12,1.61Z"/>
  <path d="M251,120.75c-.6.2-1.49.04-2.66-.49-1.18-.53-2.16-.79-2.96-.79-.15-.55-.73-1.36-1.73-2.44-1-1.07-1.64-1.91-1.91-2.51-.28-.6-.29-1.15-.04-1.65-.1-.25-.09-.6.04-1.05.12-.45.19-.77.19-.98-.05-.2-.19-.49-.41-.86-.22-.38-.34-.71-.34-1.01,0-.2.11-1.09.34-2.66.23-1.58.27-2.6.15-3.08-.13-.47-.24-.79-.34-.94-.2-1.55-.2-3.77,0-6.67.2-2.9.25-5,.15-6.3-.25-.55-.55-1.01-.9-1.39-.35-.38-.88-.6-1.57-.67-.7-.08-1.18-.14-1.43-.19-.95-.2-1.86-.67-2.74-1.42s-1.41-1.55-1.61-2.4c-.2-.85-.2-1.57,0-2.17.15-.35.41-.56.79-.64.38-.07.64-.19.79-.34,0-.3.1-.6.3-.9.2-.3.42-.47.67-.52.05,0,.1-.02.15-.08s.32-.29.83-.71c.5-.42.92-.64,1.27-.64.95,0,2.21.1,3.79.3,1.57.2,2.99.58,4.24,1.12,1.25.55,2.07,1.21,2.48,1.99.4.78.47,1.61.23,2.51.3.4.49.99.56,1.76.07.78-.01,1.86-.26,3.26-.25,1.4-.38,2.25-.38,2.55-.05.45.05,1.38.3,2.78.05.25.06.56.04.94-.03.38-.19,1.49-.49,3.34-.05.45,0,1.08.15,1.88.15.8.23,1.33.23,1.57.05.65-.05,1.48-.3,2.47-.25,1-.29,1.83-.11,2.48.17.65.34,1.12.49,1.42.05.15.19.38.41.67.23.3.91.96,2.06,1.99,1.15,1.03,1.77,1.59,1.88,1.69,1.6.65,2.79,1.08,3.56,1.28.77.2,1.45.12,2.03-.22.57-.35,1.34-1.05,2.29-2.1.95-1.05,1.55-1.72,1.8-2.02-.2-.45-.01-.84.56-1.16.57-.32.89-.51.94-.56.1-1.15.44-3.11,1.01-5.89.57-2.77.89-4.92.94-6.45.05-1.52-.07-2.94-.38-4.24-.3-1.3-.82-2.52-1.57-3.67-1.4-.3-2.53-.7-3.38-1.2-.85-.5-1.53-1.27-2.02-2.32-.45-.25-.89-.59-1.31-1.01-.43-.42-.69-.84-.79-1.24.15-.15.4-.3.75-.45.35-.15.5-.35.45-.6-.25-.5-.31-.86-.19-1.09.12-.23.5-.34,1.12-.34s1.01-.1,1.16-.3h.15c.5-.25,1.29-.45,2.36-.6,1.07-.15,2.35-.12,3.82.07,1.47.2,2.59.52,3.34.98.4.25,1.12,1.12,2.17,2.62.85,1.2,1.47,2.46,1.88,3.79.4,1.33.49,3.05.26,5.17-.23,2.13-.34,3.59-.34,4.39l.3,5.32c0,.55-.16,1.51-.49,2.89-.33,1.38-.44,2.44-.34,3.19l.98,3.67c.1.6.34,1.08.71,1.42.38.35.79.6,1.24.75.45.15,1.57.4,3.38.75,1.8.35,2.67,1.18,2.62,2.48-.05,1.2-.83,2.31-2.33,3.34s-3.25,1.71-5.25,2.06c-2,.35-3.5.33-4.5-.08-.45.05-.94-.09-1.46-.41-.52-.33-.91-.51-1.16-.56l-1.65-.38c-.2-.05-.49-.25-.86-.6-.38-.35-.69-.55-.94-.6l-2.17,1.5c-.6.3-1.21.51-1.84.64-.63.12-1.33.21-2.1.26-.78.05-1.29.1-1.54.15-.4.05-1.01.16-1.84.34-.83.17-1.51.24-2.06.19-.55-.05-1.1-.18-1.65-.38Z"/>
  <path d="M321.42,122.02c-1,.25-2.23.12-3.68-.38-1.45-.5-2.32-.78-2.62-.83-.75-.15-1.84-.19-3.26-.11-1.43.07-2.24.11-2.44.11-1.3.55-2.93.96-4.88,1.24-1.95.27-3.43.16-4.43-.34-.45-.2-.96-.72-1.54-1.57-.58-.85-1.11-1.38-1.61-1.58-.45.2-1.11.61-1.99,1.24-.88.62-1.34.96-1.39,1.01-1.1.55-2.28.86-3.53.94-1.25.08-2.45-.09-3.6-.49-1.7.35-2.78.44-3.23.26-.45-.18-.68-.41-.68-.71l-.38.6c-1.15-.2-1.85-.67-2.1-1.42-.55-.5-1.02-1.05-1.43-1.65-.4-.6-.45-1.14-.15-1.61.3-.47,1.06-.94,2.29-1.39,1.22-.45,1.96-.8,2.21-1.05.35-.35.9-1.5,1.65-3.45.75-1.95,1.1-3.17,1.05-3.67,0-.7-.13-1.42-.38-2.17-.25-.75-.36-1.39-.34-1.91.02-.53.14-1.14.34-1.84-.05-.85,0-2.09.15-3.71.15-1.62.23-2.49.23-2.59-1.05-.7-1.23-1.4-.53-2.1,0-.05-.04-.16-.11-.34-.08-.17-.31-.49-.71-.94-.4-.45-.3-.98.3-1.58-.2,0-.64.03-1.31.08-.67.05-1.24-.32-1.69-1.12-.55-.25-1-.66-1.35-1.24-.35-.57-.5-1.45-.45-2.62.05-1.17.07-1.86.07-2.06.35,0,.53-.25.53-.75.95-.45,2.04-.75,3.26-.9,1.22-.15,2.81.14,4.76.86,1.95.73,3.27,1.09,3.98,1.09.65,0,1.8-.35,3.45-1.05,1.65-.7,2.91-1.06,3.79-1.09.87-.02,1.55.1,2.03.38.47.28.79.46.94.56.5-.05.92.31,1.27,1.09.35.78.57,1.21.68,1.31.1.1.22.19.38.26.15.08.7.21,1.65.41.35-.4.64-.77.86-1.12.23-.35.35-.55.38-.6.03-.05.08-.09.15-.11.08-.02.16-.04.26-.04s.36-.01.79-.04c.42-.02.76-.04,1.01-.04,2.3-1.3,4.44-1.69,6.41-1.16,1.97.52,3.49,1.99,4.54,4.39.5.35.99,1.08,1.46,2.18.47,1.1.79,1.78.94,2.02l-.3,4.12-.45,11.4c0,.2.21,1.15.64,2.85.42,1.7.56,2.62.41,2.78.25,1.05.89,1.96,1.91,2.74,1.03.78,1.6,1.24,1.72,1.39.12.15.25.4.38.75.12.35.19.75.19,1.2,0,.85-.14,1.44-.41,1.76s-.78.54-1.5.64c-.72.1-1.26.23-1.61.38-.25.1-.73.33-1.43.67-.7.35-1.23.57-1.57.68ZM297.57,116.1c1.35-1,2.18-1.67,2.48-2.02.05-.25.25-1.11.6-2.59.35-1.47.55-2.61.6-3.41,0-.5-.12-1.22-.38-2.17-.25-.95-.38-1.65-.38-2.1,0-.3.09-1.8.26-4.5.18-2.7-.14-4.77-.94-6.23-.2.05-.43-.02-.67-.23-.25-.2-.38-.65-.38-1.35-.5-.15-.98-.2-1.42-.15-1.9.2-3.36,1.53-4.39,3.98-1.03,2.45-1.54,6.08-1.54,10.88,0,.9.23,2.53.68,4.88,1,1.5,1.72,2.7,2.17,3.6.25.5.83.85,1.73,1.05.9.2,1.42.33,1.57.38ZM308.67,115.72c1,.55,2.02.68,3.07.38,1.05-.3,1.95-.92,2.7-1.88.15-.45.47-1.27.98-2.47.5-1.2.75-2.19.75-2.96s-.15-1.51-.45-2.21c-.1-.3-.34-.67-.71-1.12s-.54-.84-.49-1.16c.05-.32.25-.69.6-1.09-.5-1.05-.78-1.73-.82-2.03-.05-.3-.05-.52,0-.67.15-1.1.24-1.97.26-2.62.03-.65.03-1.22,0-1.72-.03-.5-.05-.96-.07-1.39-.03-.42-.06-.89-.11-1.39-.05-.5-.07-.85-.07-1.05-.55-.35-1.26-.64-2.14-.86-.88-.23-1.64-.26-2.29-.11-1.1,1.6-1.79,2.76-2.06,3.49-.28.73-.41,1.44-.41,2.14,0,.3.07.84.22,1.61.15.78.2,1.36.15,1.76-.05.95-.3,2.81-.75,5.59-.45,2.78-.4,5.24.15,7.39l.07.08,1.43,2.32Z"/>
  <path d="M347.75,122.85c-.55.25-1.17.44-1.88.56s-1.27,0-1.72-.38-.94-1.1-1.46-2.17c-.52-1.08-.99-1.79-1.39-2.14-.2-.2-.58-.4-1.12-.6-.55-.2-.93-.4-1.12-.6-.5-.5-1.28-2.28-2.33-5.33s-1.53-4.9-1.42-5.55c.05-.45.3-1.05.75-1.8.45-.75.7-1.32.75-1.72-.25-.45-.4-.96-.45-1.54-.05-.57-.06-1.2-.04-1.88.03-.68.04-1.11.04-1.31-.2-.4-.34-.86-.41-1.39-.07-.52.08-1.31.45-2.36.38-1.05.56-1.85.56-2.4-.2-.25-.46-.76-.79-1.54-.33-.77-.59-1.26-.79-1.46-.05-.35.05-1.17.3-2.47-.45-.85-.93-1.45-1.43-1.8-.15-.05-.75.13-1.8.52-1.05.4-1.72.68-2.02.83-.45.25-1.15.34-2.1.26-.95-.08-1.89-.45-2.81-1.12-.92-.68-1.39-1.46-1.39-2.36,0-1.4.6-2.62,1.8-3.67,1.2-1.05,2.5-1.52,3.9-1.43.3,0,1.2.33,2.7.98,1.1-.05,1.65-.09,1.65-.11s.05-.14.15-.34c.1-.2.23-.42.38-.68.15-.25.47-.59.98-1.01.5-.42.82-.79.97-1.09.2-.4.32-1.16.38-2.29.05-1.12.1-1.79.15-1.99,0-.05-.01-.11-.04-.19-.03-.07-.2-.64-.52-1.69-.33-1.05-.54-1.97-.64-2.77-.1-.8-.09-1.41.04-1.84.12-.42.34-.71.64-.86.4-.9.97-1.59,1.72-2.06.75-.47,1.64-.65,2.66-.52,1.02.13,1.96.46,2.81,1.01.85.55,1.27.98,1.27,1.27.05.35-.1.98-.45,1.88.1.3.22.89.38,1.76.15.88.25,2.29.3,4.24.05,1.95.08,3.15.08,3.6.65.2,1.1.61,1.35,1.24.25.63.53,1.04.83,1.24.65.4,1.47.35,2.47-.15,1-.5,1.7-.75,2.1-.75.3,0,.76.18,1.39.53.62.35,1.11.55,1.46.6.25.05.71.04,1.39-.04.67-.08,1.19-.06,1.54.04.55.15,1.09.78,1.61,1.88.53,1.1.76,1.95.71,2.55-.05.4-.29.94-.71,1.61-.42.68-1.09,1.33-1.99,1.95-.9.63-1.65.96-2.25,1.01-.85.05-1.99-.11-3.41-.49s-2.56-.54-3.41-.49c-.85.05-1.47.12-1.88.22-.75,1-1.15,1.98-1.2,2.93.15.55.16,2.21.04,4.99-.12,2.77-.29,4.41-.49,4.91-.2,2.95.02,5.4.67,7.35.35,1,.86,2,1.54,3,.68,1,1.39,1.74,2.14,2.21.75.48,1.45.74,2.1.79.15-.15.41-.47.79-.97.38-.5.76-.87,1.16-1.12,1-.25,1.45-.45,1.35-.6.35-.6.61-1.51.79-2.74.17-1.22.66-2.31,1.46-3.26.15-1,.31-1.56.49-1.69.17-.12.42-.25.75-.38.32-.12.61-.24.86-.34,0-.05.05-.26.15-.64.1-.38.2-.64.3-.79.6-.75,1.32-1.22,2.17-1.43.85-.2,1.84.03,2.96.68,1.12.65,2.11,1.61,2.96,2.89.85,1.28,1.35,2.34,1.5,3.19.05.45-.3,1.69-1.05,3.71s-1.2,3.34-1.35,3.94c-.15.6-.23,1-.23,1.2-.15.1-.65.61-1.5,1.54-.85.93-1.45,1.36-1.8,1.31-.35.4-.78.78-1.27,1.12-2.05,1.8-3.74,3.06-5.06,3.79-1.33.72-2.73,1.14-4.2,1.24-1.48.1-3.11.02-4.91-.23Z"/>
  <path d="M394.02,123.67c-.4,0-1.04-.3-1.91-.9-.88-.6-1.36-.93-1.46-.98-2.05-1-3.63-2.51-4.72-4.54-1.1-2.03-1.65-4.21-1.65-6.56,0-1.75.57-3.31,1.72-4.69,1.15-1.38,2.6-2.49,4.35-3.34.2-.1.57-.44,1.12-1.01.55-.57,1.07-.86,1.58-.86.15,0,1.1.15,2.85.45,1.75.3,2.7.48,2.85.53,2.25.95,3.88,2.12,4.88,3.52,1,1.4,1.5,3.25,1.5,5.55,0,2.1-.25,3.9-.75,5.4s-1.12,2.58-1.88,3.22c-.6.55-1.99,1.39-4.16,2.51s-3.61,1.69-4.31,1.69Z"/>
  <path d="M431.52,121.05c-.15.15-.31.25-.49.3-.18.05-.36.06-.56.04-.2-.03-.58-.15-1.12-.38-.55-.23-1-.29-1.35-.19-.15-.3-.33-.5-.52-.6-.2-.1-.53-.16-.98-.19-.45-.03-.67-.19-.67-.49.05-.05.1-.11.15-.19.05-.08.05-.15,0-.22-.05-.08-.13-.14-.23-.19-.1-.05-.21-.1-.34-.15-.13-.05-.21-.08-.26-.08,0-.1-.03-.3-.08-.6s-.36-1.7-.94-4.2c-.58-2.5-.81-3.97-.71-4.42-.4-2.3-.8-3.72-1.2-4.28l.45-1.05c0-4.5,1-7.8,3-9.9-.05-.1-.43-.38-1.12-.83-.05,0-.13-.08-.23-.23-.1-.15-.38-1.04-.83-2.66-.45-1.62-.88-2.77-1.27-3.45-.4-.68-.76-1.07-1.09-1.2-.33-.12-.54-.19-.64-.19-.45-.05-1.16.19-2.14.71-.98.53-2.01.64-3.11.34-.15-.2-.44-.51-.86-.94-.42-.42-.71-.76-.86-1.01-.4-.7-.59-1.5-.56-2.4.03-.9.21-1.7.56-2.4.15-.35.38-.76.67-1.24.3-.47.6-.74.9-.79.2-.05,1.03.3,2.47,1.05,1.45.75,2.4,1.12,2.85,1.12.55,0,1.42-.21,2.62-.64,1.2-.42,2.55-.46,4.05-.11,1.1.25,1.75,1.03,1.95,2.32.2,1.3.11,2.81-.26,4.54s-.84,3.26-1.39,4.61l-1.65,3.38c1.75,1.65,3.47,2.6,5.18,2.85.25-.05.46-.2.64-.45.17-.25.29-.4.34-.45.35-1.8.7-2.62,1.05-2.48l.3-1.57c.05-.3.41-.91,1.09-1.84.67-.92,1.06-1.67,1.16-2.25.1-.57-.01-1.11-.34-1.61-.33-.5-.91-.95-1.76-1.35-.15-.55-.19-1.19-.11-1.91.08-.72.29-1.26.64-1.61.35-.35.72-.52,1.12-.52l7.57.15c.3-.65.65-.77,1.05-.38.65-.3,1.46-.21,2.44.26.97.48,1.69.69,2.14.64.9-.1,2.24-.41,4.01-.94,1.77-.52,3.01-.84,3.71-.94,1.35-.2,2.89-.27,4.61-.22,1.72.05,2.94.35,3.64.9,1.55.3,2.27,1.05,2.17,2.25.5,1.45-.09,2.35-1.76,2.7-1.68.35-2.66.6-2.96.75-1.15.7-2.06,1.66-2.74,2.89-.67,1.23-1.19,3.29-1.54,6.19-.05.3-.18.73-.38,1.27-.2.55-.33.95-.38,1.2.3.8.35,1.4.15,1.8-.2.4-.33.8-.38,1.2,0,.3.01.91.04,1.84.02.93-.01,1.64-.11,2.14-.1.45-.3,1.16-.6,2.14-.3.98-.5,1.71-.6,2.21-.05.2-.04,1.12.04,2.78.08,1.65-.09,2.67-.49,3.07.05.25.06.58.04.98-.03.4-.1.97-.23,1.72-.12.75-.21,1.23-.26,1.42-.3.05-.79.33-1.46.83-.67.5-1.21.8-1.61.9-.1-.05-.25-.09-.45-.11-.2-.03-.43.06-.67.26-.35-.05-1.4-.55-3.15-1.5-1.75-.95-2.65-1.5-2.7-1.65,0-.05.01-.24.04-.56.02-.33-.01-.59-.11-.79-.3-.45-.36-.82-.19-1.12.17-.3.26-.6.26-.9-.35-.55-.55-1-.6-1.35-.35-.55-.64-1.2-.86-1.95-.23-.75-.29-1.76-.19-3.04.1-1.27.15-2.06.15-2.36-.05-.15-.14-1.1-.26-2.85s-.16-2.67-.11-2.78c0-.1-.06-.31-.19-.64-.12-.32-.19-.59-.19-.79s.11-.65.34-1.35c.22-.7.29-1.27.19-1.73-.15-.55-.55-1.19-1.2-1.91-.65-.72-1.28-1.26-1.88-1.61-.9.35-1.34.89-1.31,1.61.02.73.01,1.24-.04,1.54-.05.3-.18.63-.38.98.3,1.05.38,2.08.22,3.08-.15,1-.75,2.38-1.8,4.12.05.65-.16,1.2-.64,1.65-.48.45-.76.8-.86,1.05.1.25.24.63.41,1.12.17.5.15,1.12-.08,1.88-.22.75-.36,1.33-.41,1.72l.6,1.65c.05.5-.12,1.61-.52,3.34-.4,1.72-.75,2.74-1.05,3.04-.45.45-.81.69-1.09.71-.28.02-.46.14-.56.34-.1.2-.22.57-.38,1.12ZM451.47,93c0-1.15-.13-2.2-.38-3.15-.25-.95-.67-1.64-1.28-2.06-.6-.42-1.16-.42-1.69,0-.52.43-.81,1.01-.86,1.76-.05.4.15,1.48.6,3.23.65.55,1.17.91,1.58,1.09.4.18,1.08-.11,2.03-.86Z"/>
  <path d="M472.32,122.7c-.4.05-1.33-.04-2.77-.26-1.45-.22-3.1-.59-4.95-1.09-1.85-.5-3-.97-3.45-1.42-1.5-1.45-3.18-3.46-5.03-6.04s-2.85-3.96-3-4.16c-.3-2.7-.45-5.37-.45-8.02-.4-.7-.68-1.32-.83-1.88-.15-.55-.05-1.07.3-1.58.05-1.65.39-3.54,1.01-5.66.62-2.12,1.71-4.2,3.26-6.23,1.55-2.02,3.42-3.71,5.62-5.06.45-.3,1.3-.47,2.55-.52,1.25-.05,2-.1,2.25-.15.1-.05.27-.14.52-.26.25-.12.9-.86,1.95-2.21l1.65-.3c.6.9,1.42,1.55,2.47,1.95,1.05.4,1.65.63,1.8.67.1,0,.38-.04.83-.11.45-.08.85-.12,1.2-.15.35-.02.67-.01.97.04,1.3.1,2.46.39,3.49.86,1.02.48,1.8,1.06,2.32,1.76.53.7,1.04,1.63,1.54,2.78.35.2.69.33,1.01.38.32.05.49.09.49.11,0,.03.04.13.11.3.08.18.24.66.49,1.46,1,.55,1.58,1.03,1.73,1.42.55,1.65.99,4.49,1.31,8.51.32,4.03.29,6.74-.11,8.14-.3,1-.79,2.21-1.46,3.64s-1.41,2.74-2.21,3.94c.05.65-.08,1.24-.38,1.76s-.83.79-1.58.79c-2.25,2.75-4.38,4.28-6.38,4.58-.75.1-1.78.45-3.07,1.05-1.3.6-2.38.92-3.23.98ZM476.6,113.62c1.9-1.9,3.35-3.62,4.35-5.17,0-.2.02-.49.08-.86.05-.38.27-.7.67-.98.4-.27.7-.54.9-.79.05-.1.02-.42-.08-.98-.1-.55-.12-.92-.08-1.12.05-.15.17-.49.38-1.01.2-.53.3-.96.3-1.31.05-.65-.03-1.58-.22-2.78-.2-1.2-.43-2.1-.67-2.7-.4-.95-1.74-2.89-4.01-5.81-2.28-2.93-3.56-4.36-3.86-4.31-.35,0-.96.24-1.84.71-.88.48-1.41.71-1.61.71s-.46-.06-.79-.19c-.33-.12-.56-.19-.71-.19-.7,0-1.78.41-3.22,1.24-1.45.82-2.35,1.54-2.7,2.14-.55,1-1.44,3.09-2.66,6.26-1.23,3.18-1.84,5.11-1.84,5.81,0,.45.11,1.09.34,1.91.23.82,1.04,2.17,2.44,4.05,1.4,1.88,2.25,3.26,2.55,4.16.9.1,1.27.45,1.12,1.05,1.9.5,4.07.81,6.52.94,2.45.13,4-.14,4.65-.79Z"/>
  <path d="M507.8,120.45c-.8.05-2.59-.09-5.36-.41-2.77-.33-4.41-.51-4.91-.56l-3.75.15-5.92-.15-1.35-.67c-.1-.1-.3-.38-.6-.83-.3-.45-.58-1.1-.83-1.95-.55-1.9-.21-3.29,1.01-4.16,1.22-.87,2.84-1.31,4.84-1.31.7,0,1.31-.08,1.84-.22.53-.15.91-.46,1.16-.94.25-.47.47-1.26.67-2.36.15-.95.17-2.29.08-4.01-.1-1.73-.15-2.84-.15-3.34.05-1.45.25-3.59.6-6.41.35-2.82.55-4.46.6-4.91.1-.7-.04-1.49-.41-2.36-.38-.87-.85-1.51-1.42-1.91-.58-.4-1.09-.6-1.54-.6-.3,0-.76.14-1.39.41-.63.28-1.09.41-1.39.41-.45,0-.94-.15-1.46-.45-.53-.3-.94-.81-1.24-1.54-.3-.72-.4-1.44-.3-2.14-.05-.25.01-.59.19-1.01.17-.42.36-.71.56-.86.95-1.4,2.36-1.92,4.24-1.58,1.88.35,3.01.52,3.41.52.65,0,1.2-.07,1.65-.22.45-.15.71-.24.79-.26.08-.02.17-.04.3-.04s.27.03.45.08c.17.05.44.14.79.26.35.13.83.34,1.42.64.45.25.75.45.9.6s.1.43-.15.82c.1.1.36.38.79.83.42.45.83.8,1.2,1.05.38.25.75.4,1.12.45.38.05.71.03,1.01-.08.3-.1.57-.25.83-.45.35-.85.7-1.1,1.05-.75l1.88-1.73c1.2-.55,2.19-.94,2.96-1.16.77-.23,1.71-.36,2.81-.41,3.6-.1,6.19.24,7.76,1.01,1.58.78,3.39,2.64,5.44,5.59l.3,2.55c.05.35-.16,1.1-.64,2.25-.48,1.15-1.04,2.2-1.69,3.15-.4.65-1.23,1.18-2.47,1.57-1.25.4-2.28.6-3.08.6-.35,0-.76-.07-1.24-.23-.48-.15-.94-.39-1.39-.71-.45-.32-1.28-1.06-2.47-2.21.05-.1.09-.2.11-.3.02-.1.22-.61.6-1.54.38-.92.44-1.89.19-2.89-.1-.55-.03-1.02.23-1.42-.25-.2-.56-.36-.94-.49-.38-.12-.83-.09-1.35.11-.52.2-1.16.63-1.91,1.27-.75.65-1.25,1.05-1.5,1.2-2.05,1.3-3.45,2.24-4.2,2.81-.75.58-1.45,1.34-2.1,2.29-.35.5-.88,1.46-1.58,2.89-.7,1.42-1.08,2.34-1.12,2.74-.05.15-.09.43-.11.83-.03.4.06.96.26,1.69.2.73.33,1.21.38,1.46.1.7.1,1.84,0,3.41-.1,1.58-.07,2.74.08,3.49.05.15.11.36.19.64.08.28.29.55.64.83.35.28.57.46.67.56.15.1.39.2.71.3.32.1,1.15.21,2.47.34,1.32.13,2.14.24,2.44.34.55.15,1.22.83,2.03,2.03.8,1.2,1.17,2.1,1.12,2.7,0,.2-.2.61-.6,1.24s-.52,1.04-.38,1.24c-.15.5-.72.87-1.72,1.12-.8.7-1.5,1.07-2.1,1.12Z"/>
  <path d="M556.1,121.27c-1.25,0-3.29-.21-6.11-.64-2.83-.43-4.78-.63-5.85-.6s-1.81.06-2.21.11l-2.62.52c-.8.05-2-.08-3.6-.38-1.6-.3-2.7-.48-3.3-.52-.2.1-.53.27-.97.52-.45.25-.74.39-.86.41-.12.02-.76-.11-1.91-.41-.4-.1-.89-.05-1.46.15-.58.2-1.11.25-1.61.15-2.2-.45-3.63-.84-4.27-1.16-.65-.33-1.12-.8-1.43-1.42-.3-.62-.28-1.49.08-2.59-.1-.25-.08-.57.08-.97.15-.4.8-1.05,1.95-1.95.85-.6,1.74-1.07,2.66-1.42.92-.35,2.07-.29,3.45.19,1.38.48,2.36.74,2.96.79.6.05,1,.08,1.2.08.05-.1.15-.21.3-.34.15-.12.5-.32,1.05-.6.55-.27,1.47-.69,2.77-1.24.05-.1.27-.6.68-1.5.4-.9.6-1.52.6-1.88l.75-18.83c0-.2.11-.36.34-.49.22-.12.31-.26.26-.41-.75-.45-1.23-.9-1.42-1.35-.15-.3-.3-1.94-.45-4.91-.15-2.97-.18-4.74-.07-5.29,0-.1.09-.42.26-.98.17-.55.24-.98.19-1.27-.05-.5-.44-1.07-1.16-1.73-.73-.65-1.34-.98-1.84-.98-.35,0-.89.19-1.61.56-.73.38-1.26.56-1.61.56s-.9-.19-1.65-.56-1.33-.56-1.72-.56c-.4-.05-1.2.05-2.4.3-1.2.25-2.17-.12-2.92-1.12-1.15-.75-1.58-1.55-1.27-2.4-.05-.3,0-.72.15-1.27.15-.55.23-.92.23-1.12.5-.6,1.57-1.15,3.22-1.65l1.2-.9c.55.15,1.32.09,2.33-.19,1-.27,1.67-.41,2.02-.41.3,0,.7.15,1.2.45.5.3.9.45,1.2.45l.83-.38c.6-.2,2.82-.05,6.67.45.55.05,1.3.3,2.25.75.95.45,1.76,1.11,2.44,1.99.67.88.66,1.74-.04,2.59l1.35.53c.15.1.27.61.38,1.54.1.93.14,2.31.11,4.16-.03,1.85-.05,3.63-.08,5.33-.03,1.7-.04,2.62-.04,2.77-.05,1.35-.33,3.28-.83,5.77l.38,1.88c.2.8.36,1.93.49,3.38.12,1.45.01,3.75-.34,6.9-.35,3.15-.49,5.4-.41,6.75s.31,2.5.71,3.45c.25.25.92.66,2.02,1.24,1.1.58,1.83.94,2.18,1.09.8.2,2.11.07,3.94-.38,1.82-.45,3.1-.65,3.82-.6.72.05,1.3.25,1.73.6.42.35.74.78.94,1.27.2.4.38.95.52,1.65.15.7.23,1.3.23,1.8,0,1.05-.3,1.93-.9,2.62-.6.7-1.38.85-2.33.45-.55.45-1.01.76-1.39.94-.38.17-.84.26-1.39.26Z"/>
  <path d="M596.52,122.02c-.95.7-2.15,1.06-3.6,1.09-1.45.02-2.75-.16-3.9-.56-1.15-.4-2.05-.83-2.7-1.27-4.6-.7-7.31-1.09-8.14-1.16-.82-.08-1.34-.06-1.54.04-.5.15-1.15.52-1.95,1.12-.3-.05-.76-.09-1.39-.11s-1.59.11-2.89.41c-1.3.3-2.23.36-2.78.19-.55-.18-.97-.39-1.28-.64-2.15-.25-3.51-.51-4.09-.79-.58-.28-.94-.54-1.09-.79-.15-.2-.29-.51-.41-.94-.13-.42-.21-.69-.26-.79-.85-.6-1.38-1.08-1.58-1.42-.2-.35-.33-.91-.38-1.69s-.48-1.56-1.27-2.36c-.55-.6-1.18-2.32-1.88-5.17-.4-.5-.71-1.11-.94-1.84-.23-.72-.3-1.76-.23-3.11.08-1.35.11-2.2.11-2.55,0-.1-.07-.65-.22-1.65-.15-1-.14-1.79.04-2.36.17-.57.54-.89,1.09-.94,1.05-3.5,2-5.92,2.85-7.27,1.05-1.75,2.64-3.05,4.76-3.9,2.12-.85,4.59-1.36,7.39-1.54,2.8-.17,5.55-.04,8.25.41.7.75,1.5,1.14,2.4,1.16.9.03,1.6-.44,2.1-1.39.15-.35.21-1.01.19-1.99-.03-.98-.14-1.64-.34-1.99-.05-.65.1-1.35.45-2.1.05-1.9.04-3.1-.04-3.6-.08-.5-.26-.87-.56-1.12-.3-.25-.9-.53-1.8-.83-.9-.3-1.63-.55-2.18-.75-1.3-.5-2.3-1.01-3-1.54s-.86-1.05-.49-1.57c.38-.53,1.36-.94,2.96-1.24,1.6-.3,3.15-.47,4.65-.52,1.5-.05,2.58.03,3.23.23.45.15,1,.55,1.65,1.2,1.4.35,2.21.73,2.44,1.12.23.4.39,1.45.49,3.15.2.1.38.38.52.82.15.45.15.99,0,1.61-.15.63-.35.94-.6.94l-.98,7.65c-.2,1.65-.1,4.31.3,7.99.4,3.68.61,6.11.64,7.31.03,1.2.04,2.05.04,2.55,0,.25-.08.6-.23,1.05-.15.45-.25.75-.3.9-.2.95-.05,1.68.45,2.18.15,1.65.2,3.15.15,4.5,0,.05-.05.5-.15,1.35-.1.85-.05,1.51.15,1.99.2.48.67.91,1.42,1.31.1-.05.32-.05.67,0,.35.05.67.25.97.6,1,.1,1.75.33,2.25.67.5.35.78.95.83,1.8.1,0,.25.04.45.11.2.08.49.26.86.56s.6.88.67,1.73c.08.85-.14,1.69-.64,2.51-.5.83-1.05,1.24-1.65,1.24ZM566.97,113.4c.25.15.5.12.75-.08.25-.2.57-.27.97-.23.4.05.7.1.9.15,2.1.55,3.7.83,4.8.83s2.57-.38,4.42-1.12c0-.75.08-1.31.23-1.69.15-.38.31-.61.49-.71.17-.1.45-.15.83-.15s.41-.4.11-1.2c.15-.3.49-.57,1.01-.83.52-.25.84-.42.94-.53.5-.4.92-1.24,1.27-2.51.35-1.28.5-2.71.45-4.31-.05-1.15-.56-3.1-1.54-5.85-.98-2.75-1.81-4.47-2.51-5.18-.4-.4-1.08-.9-2.03-1.5-.95-.6-1.58-1-1.88-1.2-.8-.8-1.38-1.27-1.72-1.43-.3.1-1.34.48-3.11,1.12-1.78.65-3.06,1.18-3.86,1.58-.4.2-.94.69-1.61,1.46-.67.78-1.21,1.29-1.61,1.54-.05.2-.44,1.12-1.16,2.77-.73,1.65-1.15,2.89-1.28,3.71-.12.83-.04,1.41.26,1.76.05.35.1.86.15,1.54s.08,1.83.08,3.45.3,2.94.9,3.94c.6,1,1.85,2.55,3.75,4.65Z"/>
  <path d="M2,132.07v-3.75h30.37v3.75H2Z"/>
  <path d="M32.37,132.07v-3.75h27.52v3.75h-27.52Z"/>
  <path d="M59.9,132.07v-3.75h30.37v3.75h-30.37Z"/>
  <path d="M90.27,132.07v-3.75h64.5v3.75h-64.5Z"/>
  <path d="M154.77,132.07v-3.75h79.87v3.75h-79.87Z"/>
  <path d="M234.65,132.07v-3.75h181.5v3.75h-181.5Z"/>
  <path d="M416.15,132.07v-3.75h181.88v3.75h-181.88Z"/>
</svg>