<?xml version="1.0" standalone="no"?>
<!DOCTYPE svg PUBLIC "-//W3C//DTD SVG 20010904//EN"
 "http://www.w3.org/TR/2001/REC-SVG-20010904/DTD/svg10.dtd">
<svg version="1.0" xmlns="http://www.w3.org/2000/svg"
 width="600.000000pt" height="200.000000pt" viewBox="0 0 600.000000 200.000000"
 preserveAspectRatio="xMidYMid meet">
<metadata>
Created by potrace 1.16, written by Peter Selinger 2001-2019
</metadata>
<g transform="translate(0.000000,200.000000) scale(0.100000,-0.100000)"
fill="#000000" stroke="none">
<path d="M959 1440 c-82 -11 -96 -24 -62 -62 16 -17 2 -18 -425 -18 -386 0
-442 -2 -442 -15 0 -13 58 -15 460 -15 444 0 460 -1 470 -19 12 -23 13 -61 3
-61 -5 0 -17 7 -27 15 -11 8 -37 15 -59 15 -33 0 -46 -7 -79 -40 l-40 -39 -40
27 c-23 15 -50 33 -62 39 -54 32 -132 -1 -168 -71 -19 -35 -21 -55 -19 -142 3
-108 -7 -134 -49 -134 -16 0 -17 4 -9 32 5 18 9 64 9 103 0 68 5 85 43 138 39
55 -9 93 -102 81 -31 -4 -73 -15 -94 -26 -38 -19 -40 -19 -59 -1 -29 26 -161
32 -188 8 -27 -24 -25 -36 9 -69 36 -35 48 -102 50 -288 1 -124 1 -127 -24
-146 -42 -33 -28 -62 29 -62 41 0 63 26 70 81 12 87 12 87 118 83 122 -6 177
-14 185 -27 4 -6 10 -36 14 -66 4 -29 13 -59 19 -65 20 -20 45 8 52 58 3 26
12 53 18 61 6 7 43 16 81 20 83 8 97 0 105 -61 11 -79 13 -85 36 -82 18 2 24
13 33 59 15 73 17 76 68 81 24 3 70 17 104 32 60 27 61 27 94 10 54 -28 121
-23 170 12 l42 29 36 -36 c30 -30 45 -37 91 -42 30 -3 91 0 135 6 69 10 81 16
93 37 15 30 9 86 -15 127 -16 28 -15 31 8 62 34 46 32 105 -4 159 -31 47 -78
72 -141 72 -163 2 -177 0 -202 -25 -13 -13 -24 -31 -24 -39 0 -12 -8 -11 -46
6 -35 15 -57 18 -91 13 -55 -8 -93 13 -93 50 l0 25 383 0 383 0 16 -34 17 -34
-29 11 c-60 23 -141 -49 -125 -110 3 -14 17 -42 30 -64 31 -48 31 -47 0 -89
-34 -47 -33 -85 6 -121 30 -28 50 -34 94 -29 30 3 44 18 56 63 12 46 -3 112
-28 121 -12 5 -8 15 16 48 17 23 31 49 31 57 1 9 10 -2 21 -24 12 -22 47 -85
79 -140 31 -55 96 -172 143 -260 85 -158 125 -214 146 -200 18 11 12 59 -13
106 -97 182 -136 260 -136 271 0 7 -40 96 -89 198 -49 102 -93 195 -96 208 -6
21 -4 22 63 22 l69 0 16 -37 c21 -48 113 -222 203 -383 39 -69 99 -178 133
-242 72 -133 92 -158 116 -138 24 20 11 61 -61 190 -56 101 -62 115 -45 118
38 6 53 38 62 129 4 49 5 105 2 125 -6 42 5 61 49 84 27 14 30 14 58 -15 27
-27 30 -36 30 -95 0 -61 -2 -67 -39 -110 -36 -42 -39 -49 -30 -75 16 -45 106
-58 150 -22 23 18 24 25 24 138 0 85 4 126 15 148 16 31 60 59 72 47 4 -4 8
-44 9 -90 2 -78 1 -84 -30 -127 -26 -37 -30 -48 -21 -65 6 -11 23 -22 38 -26
15 -3 33 -8 41 -10 7 -2 19 0 26 6 6 5 27 10 46 9 19 0 57 0 84 0 52 1 94 0
155 -3 31 -1 37 3 53 37 15 30 19 59 18 148 -1 97 1 114 19 136 28 36 26 67
-5 81 -37 17 -123 15 -141 -3 -13 -13 -18 -12 -44 6 -26 20 -32 20 -78 9 -39
-10 -56 -11 -79 -1 -39 16 -133 3 -133 -19 0 -5 -18 -6 -41 -3 -22 3 -58 0
-80 -7 -36 -12 -44 -12 -71 4 -40 24 -101 23 -137 -3 -46 -33 -61 -77 -61
-183 0 -60 -5 -100 -13 -111 -11 -15 -22 3 -89 140 -42 87 -80 170 -84 186
l-6 27 1886 0 c1670 0 1886 2 1886 15 0 13 -216 15 -1887 15 -1867 0 -1888 0
-1918 20 -39 26 -81 26 -95 0 -15 -29 -132 -29 -175 0 -38 25 -67 25 -90 0
-17 -19 -31 -20 -377 -20 l-358 0 16 26 c15 22 15 27 3 39 -19 18 -73 24 -140
15z m2191 -253 c0 -51 -41 -80 -55 -38 -9 29 12 71 35 71 16 0 20 -7 20 -33z
m-2863 6 c43 -20 53 -45 53 -134 0 -76 -17 -124 -49 -134 -26 -8 -72 16 -105
55 -22 26 -26 41 -26 91 0 71 10 93 53 119 38 24 31 24 74 3z m1254 -9 c66
-34 11 -88 -91 -89 -49 0 -55 2 -58 21 -2 12 9 35 23 53 31 36 76 41 126 15z
m-363 -10 c44 -12 74 -113 52 -178 -35 -107 -170 -77 -170 38 0 49 16 103 38
129 16 18 41 21 80 11z m1808 -53 c4 -55 -10 -76 -33 -45 -16 21 -9 84 10 96
16 10 19 5 23 -51z m-2313 -28 c19 -29 36 -43 50 -43 20 0 22 -5 21 -50 0 -32
-6 -57 -16 -66 -21 -21 -103 -22 -143 -3 -28 13 -30 19 -33 74 -4 70 2 98 24
120 28 27 65 15 97 -32z m269 10 c16 -24 27 -60 32 -99 6 -52 4 -63 -12 -77
-16 -15 -26 -16 -70 -6 -29 6 -54 14 -57 19 -3 5 -6 42 -8 83 -2 62 1 79 17
96 31 34 69 27 98 -16z m2198 -45 c0 -30 -25 -15 -28 17 -3 25 -2 27 12 16 9
-8 16 -22 16 -33z m-1594 -68 c19 0 18 -26 -2 -34 -33 -13 -64 -7 -64 13 0 21
17 32 38 25 8 -2 20 -4 28 -4z"/>
<path d="M3469 1257 c-18 -12 -44 -40 -57 -62 -20 -36 -22 -50 -18 -142 5
-115 2 -121 -68 -138 -67 -17 -56 -75 15 -75 34 0 49 -18 55 -67 11 -78 13
-84 37 -81 18 2 24 13 33 59 15 73 19 79 59 79 54 0 87 19 83 49 -2 20 -11 27
-38 34 -87 22 -90 25 -91 81 -2 110 12 146 59 146 22 0 35 -10 60 -45 41 -58
76 -62 97 -11 13 30 13 40 -1 79 -12 37 -25 51 -72 81 -67 42 -105 45 -153 13z"/>
<path d="M5218 1269 c-23 -13 -23 -52 -2 -70 9 -8 38 -14 63 -15 69 -1 69 -2
86 -34 13 -24 15 -61 13 -192 l-3 -163 -60 -14 c-86 -19 -105 -28 -105 -48 1
-42 15 -48 104 -46 112 4 131 12 141 60 5 21 7 112 6 203 -1 150 0 168 19 198
15 24 27 32 49 32 29 0 29 -1 20 -32 -11 -41 -12 -121 0 -133 5 -6 14 -27 21
-48 11 -36 51 -74 95 -92 11 -5 46 -11 79 -14 46 -5 62 -11 74 -29 14 -21 12
-24 -22 -55 -43 -39 -45 -60 -11 -75 32 -15 57 -15 88 -1 43 19 49 50 42 201
-4 75 -4 162 0 194 6 50 12 62 46 92 74 67 46 83 -140 87 -90 1 -147 -2 -167
-11 -24 -9 -35 -9 -43 -1 -16 16 -369 21 -393 6z m571 -99 c24 -12 51 -80 51
-126 0 -28 -8 -44 -34 -70 -40 -40 -75 -44 -124 -14 -43 27 -61 69 -52 126 10
63 42 94 97 94 25 0 52 -4 62 -10z"/>
<path d="M3925 1263 c-37 -10 -62 -33 -73 -69 -10 -34 -9 -37 32 -80 28 -29
51 -44 68 -44 52 0 107 72 94 124 -13 52 -67 83 -121 69z"/>
<path d="M4269 1254 c-7 -9 -18 -69 -25 -143 -14 -159 -17 -167 -59 -181 -44
-14 -55 -29 -44 -58 l9 -23 162 7 c192 8 186 8 308 -4 95 -10 169 -4 211 18
15 8 23 7 35 -5 22 -21 92 -23 164 -4 25 6 54 4 102 -7 64 -16 68 -16 100 3
18 10 39 31 48 45 13 24 13 30 -3 62 -20 42 -45 46 -94 16 -18 -11 -33 -17
-33 -15 0 3 -8 1 -19 -4 -14 -8 -23 -5 -39 12 -56 59 -52 138 10 198 48 46 48
84 1 93 -48 9 -227 5 -240 -6 -8 -6 -19 -6 -32 1 -26 14 -166 14 -194 0 -12
-6 -32 -21 -44 -32 -18 -16 -23 -17 -23 -5 0 22 -33 48 -62 48 -36 0 -56 -27
-64 -87 -13 -101 -55 -109 -68 -14 -11 82 -70 129 -107 85z m486 -84 c33 -13
45 -25 70 -74 l19 -38 -24 -46 c-32 -60 -85 -92 -124 -74 -38 17 -86 89 -86
128 0 49 58 111 107 113 6 1 24 -4 38 -9z m202 -124 c5 -55 3 -70 -12 -86 -23
-25 -50 -27 -40 -2 17 41 26 100 22 141 -4 38 -3 41 10 28 9 -9 17 -42 20 -81z"/>
</g>
</svg>
