<svg width="179" height="58" viewBox="0 0 179 58" fill="none" xmlns="http://www.w3.org/2000/svg">
<path d="M6.32974 46.3338V24.8942C6.32974 20.2626 4.31817 18.5442 1.81041 18.5442H0.509598C0.107284 18.5442 0 18.4502 0 18.034V15.4162C0 15.1074 0.107284 15.0134 0.509598 15.0134H16.8972C17.2995 15.0134 17.4068 15.1074 17.4068 15.4162V46.5217C17.4068 50.7505 20.6253 54.1739 24.6484 54.1739C28.6716 54.1739 31.1927 51.9588 34.599 46.5217V24.8807C34.599 20.2491 32.5874 18.5308 30.0797 18.5308H28.7654C28.3631 18.5308 28.2559 18.4368 28.2559 18.0206V15.4027C28.2559 15.094 28.3497 15 28.7654 15H45.153C45.5554 15 45.6626 15.094 45.6626 15.4027V44.8033C45.6626 50.2404 46.5611 51.744 50.4904 52.4555C50.7988 52.5629 51 52.6569 51 52.9657V54.5766C51 54.9794 50.8927 55.0868 50.4904 55.1808C44.563 56.0802 38.7294 57.0871 36.8117 57.7986C36.5167 57.906 35.9132 58 35.4036 58C34.8002 58 34.7063 57.5973 34.7063 56.5904V51.0593C30.482 56.295 25.9627 57.906 20.223 57.906C12.284 57.906 6.34315 53.1805 6.34315 46.3338H6.32974Z" fill="#111111"/>
<path d="M125.721 48.1296C125.721 52.7626 127.712 54.4681 130.208 54.4681H131.496C131.894 54.4681 132 54.5756 132 54.9785V57.5971C132 57.8926 131.907 58 131.496 58H108.996C108.597 58 108.491 57.8926 108.491 57.5971V54.9785C108.491 54.5756 108.597 54.4681 108.996 54.4681H110.296C112.792 54.4681 114.783 52.7626 114.783 48.1296V27.0862C114.783 22.3592 111.996 19.8345 107.217 19.8345C103.739 19.8345 101.549 20.9357 97.7655 24.669C97.3673 30.6181 97.2611 35.2511 97.2611 38.1652C97.2611 41.0793 97.3673 42.7042 97.4602 48.1296C97.4602 52.7626 99.4513 54.4681 101.947 54.4681H103.248C103.646 54.4681 103.752 54.5756 103.752 54.9785V57.5971C103.752 57.8926 103.646 58 103.248 58H80.7478C80.3496 58 80.2566 57.8926 80.2566 57.5971V54.9785C80.2566 54.5756 80.3496 54.4681 80.7478 54.4681H82.0487C84.5442 54.4681 86.5354 52.7626 86.5354 48.1296V26.3745C86.5354 22.3457 83.6549 19.633 79.4735 19.633C74.8938 19.633 72.0133 21.1371 68.2301 25.8776V48.1296C68.2301 52.7626 70.2212 54.4681 72.7035 54.4681H74.0044C74.4027 54.4681 74.5089 54.5756 74.5089 54.9785V57.5971C74.5089 57.8926 74.4027 58 74.0044 58H51.5044C51.1062 58 51 57.8926 51 57.5971V54.9785C51 54.5756 51.1062 54.4681 51.5044 54.4681H52.8053C55.2876 54.4681 57.2788 52.7626 57.2788 48.1296V30.9135C57.2788 25.4747 56.3894 23.9706 52.5 23.2589C52.1947 23.1649 51.9956 23.0575 51.9956 22.7486V21.1371C51.9956 20.7342 52.1018 20.6268 52.5 20.5328C58.8717 18.6259 62.7478 17.1084 65.6416 15.8998C65.9469 15.7923 67.0354 15.2014 67.5398 15.2014C68.1372 15.2014 68.2301 15.6043 68.2301 16.6115V21.1505C72.1062 17.7261 78.4779 15 84.9558 15C90.6239 15 92.9204 16.0072 97.1947 20.7342C102.969 16.9069 108.451 15 113.721 15C120.783 15 125.867 19.9419 125.867 26.7773L125.774 48.1296H125.721Z" fill="#111111"/>
<path d="M148.813 0.0133333C149.413 0.0133333 149.507 0.413333 149.507 1.41333V15.0133H162.2C162.6 15.0133 162.707 15.1067 162.707 15.52L161.507 19.12C161.4 19.4267 161.107 19.52 160.707 19.52H149.507V46.52C149.507 50.32 151.307 52.8133 154.107 52.8133C155.707 52.8133 157.8 51.8133 159.707 50.5067C160.4 50 160.707 49.7067 161.2 49.7067C162.2 49.7067 163 51.4 163 52C163 52.6933 162.6 52.9067 161.4 53.8C158.307 56.1067 154.507 58 150.4 58C143.6 58 139 53.6 139 47.1067V19.5067H132.507C132.107 19.5067 132 19.4133 132 19.1067V15.5067C132 15.1067 132.093 15 132.507 15C137.6 15 144.507 7.69333 147.107 0.6C147.307 0.0933333 147.507 0 148.813 0V0.0133333Z" fill="#111111"/>
</svg>
