<?xml version="1.0" encoding="UTF-8"?>
<svg id="Layer_1" xmlns="http://www.w3.org/2000/svg" viewBox="0 0 1036.64 525.36">
  <path d="M331.78,477.9c-9,24-40,25-54,47-6-1-16,3-19-5,2-17-21-22-25-36-8-12-18-26-34-27-7-6,2-13,2-19,11-20,5-42,11-62,9-9,4-82,6-105,10-17-4-33-4-51-1-27-22-62,6-85,9-12,18-29,34-32,8,0,18-2,23,6,14,26,44,59,17,89-13,20,8,38,0,57,2,17-1,37,3,54,0,22,3,48-1,72,7,20-7,41,4,59,9,14,26,21,31,38ZM155.78,475.9c2,7-5,12-9,15-7,11-20,13-26,26-14,1-28,13-42,4-12-5-13-18-22-26-8-32-17-63-24-94,0,0-1-50,2-88-10-19,4-39-5-59,3-15,1-33-6-45-5-15-34-15-20-34,16-22,27-52,54-61,11-12,25,0,36,1,10,10,27,18,28,34,14,10,4,27,2,40-7,5-3,12-6,19,0,13-5,28-2,41-6,12,0,25,0,39,7,19-3,37,1,58,0,21,7,44,1,65,2,9,2,21,7,31,1,17,22,23,31,34Z"/>
  <path d="M833.78,148.9c-2,8-8,13-13,20-14,9-21,26-19,41-3,26-7,52-2,77,1,14-4,25,0,40,4,22,0,46,2,69-3,25,7,54,31,70,4,24-28,17-31,36-9,8-16,16-27,18-8-1-43-18-38-33-8-13-16-31-10-45-1-9-19-83-12-112-1-17-7-37-1-54-2-22,6-42,2-65-8-8-6-23-20-25-11,1-17-10-26-13,4-9,3-20,10-26,7-18,15-45,37-50,8-1,17-5,24-1,19,7,11,30,29,38,7,7,16,6,25,4,9-5,22-12,32-5,5,4,5,10,7,16ZM622.78,484.9c-9,9-13,23-27,24-6,6-15,8-24,7-13-6-29-14-32-30-9-5-12-15-11-24,6-13,3-81,5-99,6-11,1-28,2-41,1-6-4-12-5-18,0-8,7-16,1-24,0-18,4-39,1-59l-3-26c-9-5-15-17-27-13-5-3-15,4-15-5,8-5,6-15,12-23,15-17,24-39,45-52,11-2,22-2,31,3,17,19,29,40,35,65,5,8,2,21,11,29,5,14-8,51-13,58,4,10,0,23,4,31-6,30,10,62,4,93-9,12-2,28-3,42,6,19,16,40,9,62ZM484.78,182.9c0,5-6,9-10,11-18,14-42,31-45,56,2,12,9,26,3,38l3,72c-4,16,0,34-1,51,8,10,0,22,2,33,2,13,13,26,8,40-14,8-22,28-38,32-4,7-13,9-20,7-16-6-16-24-31-32-12-22-5-46-5-52,3-18,15-38,5-56,1-7,5-79-1-107,2-9,1-55,6-65-9-8-7-26-22-26-6-8-10-19-5-28,11-21,20-43,40-58,5-3,11-1,17,0,11,9,25,17,32,31,4,18,12,34,21,50,11,6,23,7,33,0,3,2,7-1,8,3Z"/>
  <path d="M1036.6,473.08c1,17-16,22-27,30-10,7-24,11-30,22-11,3-44-19-43-30-16-15-34-27-51-35-7-9,2-18-2-27,1-10-2-63,8-76-1-9,2-20,2-29,6-17-4-74,2-81-3-10,1-45,5-54-4-14-7-28-15-39-2-26,25-40,29-65,13-19,22-39,33-60,1-7,12-8,14-15,7-6,15-15,26-14,7,0,15,3,18,11,9,27-10,51-15,76,2,18,15,33,28,44h18v34c-11-2-22,1-31,6-27,19-23,118-27,135,6,13,1,28,1,40-10,64,5,81,2,91,11,9,21,22,33,28,7,4,17,0,22,8Z"/>
</svg>