<?xml version="1.0" encoding="UTF-8"?>
<svg id="Layer_1" xmlns="http://www.w3.org/2000/svg" viewBox="0 0 141.83 50.56">
  <defs>
    <style>
      .cls-1 {
        fill: none;
      }
    </style>
  </defs>
  <rect class="cls-1" x=".57" y="-.74" width="145.26" height="70.3"/>
  <path d="M7.6,13.1c1.06,0,3.12-.78,4.05-.78,1.63,0,2.34.57,2.34,3.2,0,4.19-.43,6.39-.43,16.19,0,1.21,0,7.53,1.35,9.87,1.21,2.13,3.48,3.83,7.74,3.83,3.98,0,6.6-1.56,8.38-4.47,1.63-2.63,1.77-9.73,1.77-15.05,0-6.82-.43-9.02-2.91-9.02-1.06,0-1.85.43-2.91.43-1.42,0-2.41-.99-2.41-2.34,0-1.49,1.35-2.63,3.34-2.63,1.21,0,3.34.78,4.4.78,1.35,0,2.7-.78,4.05-.78,1.49,0,2.13.85,2.13,2.63,0,3.12-.21,7.17-.21,9.8v14.41c0,2.7.14,5.54,2.06,5.54,1.06,0,2.2-.43,3.27-.43,1.42,0,2.41.99,2.41,2.34,0,1.63-1.56,2.63-3.05,2.63-1.07,0-2.98-.78-4.05-.78-1.14,0-3.05.78-4.12.78-1.35,0-1.7-1.14-1.7-3.69v-.64h-.14c-2.27,3.48-5.96,5.33-11.15,5.33-6.39,0-13.7-2.63-13.7-12.21v-15.55c0-3.12-.57-5.61-2.48-5.61-1.06,0-2.13.43-3.19.43-1.42,0-2.41-.99-2.41-2.34,0-1.63,1.56-2.63,3.48-2.63,1.35,0,2.7.78,4.12.78Z"/>
  <path d="M81.01,16.58c2.63-3.76,6.67-5.25,11.29-5.25,8.17,0,13.49,3.55,13.49,13.84v13.92c0,3.41.28,5.61,2.13,5.61,1.06,0,2.13-.43,3.2-.43,1.42,0,2.41.99,2.41,2.34,0,1.63-1.06,2.63-3.05,2.63-1.7,0-4.69-.78-7.24-.78-2.77,0-5.75.78-7.53.78-1.99,0-3.12-.99-3.12-2.63,0-1.35.99-2.34,2.41-2.34,1.06,0,2.13.43,3.2.43,1.7,0,2.13-1.28,2.13-5.54v-11.57c0-2.91-.21-5.61-1.06-7.31-1.7-3.27-4.97-4.12-7.38-4.12-2.13,0-4.19.78-5.96,2.34-1.77,1.56-2.7,5.11-2.7,10.72v10.37c0,2.49.14,5.11,2.13,5.11,1.06,0,2.13-.43,3.19-.43,1.42,0,2.41.99,2.41,2.34,0,1.63-1.14,2.63-3.12,2.63-1.7,0-4.61-.78-7.17-.78-2.77,0-5.68.78-7.6.78s-3.05-.99-3.05-2.63c0-1.35.99-2.34,2.41-2.34,1.06,0,2.13.43,3.19.43,1.7,0,2.13-1.35,2.13-5.54v-14.55c0-2.34-.35-4.19-1.35-5.54-1.77-2.41-4.62-2.91-6.11-2.91-3.05,0-6.04,1.14-7.81,4.12-1.21,1.99-1.85,3.91-1.85,8.59v7.46c0,6.39.21,8.38,2.06,8.38,1.14,0,2.34-.43,3.27-.43,1.42,0,2.41.99,2.41,2.34,0,1.63-1.14,2.63-3.12,2.63-1.7,0-4.61-.78-7.17-.78-2.77,0-5.68.78-7.6.78s-3.05-.99-3.05-2.63c0-1.35.99-2.34,2.41-2.34.92,0,2.06.43,3.27.43,1.63,0,2.06-1.35,2.06-5.54v-16.76c0-3.98-.28-5.54-2.06-5.54-1.21,0-2.34.43-3.27.43-1.42,0-2.41-.99-2.41-2.34,0-1.21,1.35-2.63,2.7-2.63.92,0,2.41.78,3.76.78,1.49,0,3.27-.78,4.4-.78,1.35,0,1.63.78,1.63,4.26h.14c2.77-3.62,5.96-5.25,10.51-5.25s8.52,1.92,10.44,5.25Z"/>
  <path d="M134.54,17.44h-7.1c-.78,0-1.21.43-1.21,1.28v17.54c0,5.33.99,8.24,5.18,8.24,2.84,0,5.04-1.42,5.04-7.31,0-3.98,0-6.46,2.84-6.46,1.42,0,2.63.71,2.63,4.05,0,11.5-4.26,14.7-11.36,14.7-1.35,0-3.62-.28-5.18-1.14-2.63-1.42-4.61-3.76-4.61-11v-17.61c0-2.06-.35-2.27-2.84-2.27-2.91,0-3.76-.85-3.76-2.63,0-1.42,1.21-2.56,2.98-2.56h2.41c1.06,0,1.21-.64,1.21-1.49V3.73c0-2.13.92-3.2,2.77-3.2,1.7,0,2.7.92,2.7,3.34v7.31c0,.78.21,1.06.92,1.06h7.6c2.34,0,3.41.71,3.41,2.63,0,1.78-1.28,2.56-3.62,2.56Z"/>
</svg>