<?xml version="1.0" standalone="no"?>
<!DOCTYPE svg PUBLIC "-//W3C//DTD SVG 20010904//EN"
 "http://www.w3.org/TR/2001/REC-SVG-20010904/DTD/svg10.dtd">
<svg version="1.0" xmlns="http://www.w3.org/2000/svg"
 width="600.000000pt" height="200.000000pt" viewBox="0 0 600.000000 200.000000"
 preserveAspectRatio="xMidYMid meet">
<metadata>
Created by potrace 1.16, written by Peter Selinger 2001-2019
</metadata>
<g transform="translate(0.000000,200.000000) scale(0.100000,-0.100000)"
fill="#000000" stroke="none">
<path d="M991 1330 c-51 -3 -86 -10 -88 -17 -2 -6 4 -13 14 -16 10 -3 -188 -5
-439 -6 -451 -1 -458 -1 -458 -21 0 -20 7 -20 485 -20 l485 0 0 -57 c0 -56 0
-56 -20 -38 -26 23 -105 36 -145 22 -36 -12 -75 -45 -75 -64 0 -20 -7 -16 -45
26 -30 33 -43 40 -83 43 -63 5 -109 -10 -134 -44 -18 -27 -20 -38 -13 -136 6
-99 5 -109 -13 -132 -14 -17 -30 -25 -53 -25 -18 0 -34 -6 -36 -12 -3 -9 6
-13 25 -13 44 0 82 -48 82 -105 0 -44 16 -68 30 -46 4 7 2 32 -3 57 -9 40 -8
47 11 66 18 18 34 22 102 24 104 2 130 -14 130 -84 0 -52 12 -78 29 -68 7 5 9
26 5 59 -8 67 15 92 85 92 65 0 68 19 4 25 -77 8 -86 22 -91 133 -4 77 -1 98
15 126 42 75 89 68 133 -19 16 -32 37 -63 47 -68 14 -9 16 -24 14 -108 -1 -54
-5 -102 -7 -106 -3 -4 -1 -8 3 -8 5 0 16 15 26 33 14 26 15 42 8 87 -12 71 -1
131 32 174 23 30 33 34 79 38 67 4 87 -7 120 -67 25 -44 27 -58 23 -114 -3
-35 -10 -72 -16 -83 -18 -34 -1 -32 20 2 10 18 22 60 26 94 13 126 40 157 137
164 66 5 92 -10 103 -58 7 -31 -28 -95 -58 -105 -29 -11 -7 -27 26 -20 33 7
72 37 88 68 12 21 -6 82 -31 110 -19 20 -81 40 -120 38 -14 -1 -51 -3 -83 -4
-46 -2 -62 -7 -76 -23 l-17 -21 -28 22 c-53 42 -125 38 -193 -11 -22 -15 -23
-15 -32 10 -6 14 -9 48 -8 76 l2 50 418 0 418 0 14 -32 c20 -50 82 -180 98
-208 31 -53 90 -178 117 -245 16 -38 43 -101 62 -140 l33 -70 3 43 c3 34 -4
53 -32 100 -20 31 -36 68 -36 81 0 13 -9 38 -19 55 -10 17 -22 45 -26 63 -3
17 -12 37 -20 43 -7 6 -23 36 -36 68 -13 31 -40 89 -61 130 -58 112 -58 112
66 112 l104 0 37 -87 c20 -49 47 -104 59 -123 12 -19 28 -51 36 -70 7 -19 26
-57 41 -85 15 -27 41 -85 58 -128 33 -84 88 -197 96 -197 14 0 -11 102 -35
140 -15 25 -31 56 -35 69 -7 22 -5 23 30 19 28 -3 42 1 61 18 23 22 24 28 24
153 l0 129 31 26 c37 31 48 32 93 5 57 -33 80 -81 81 -165 0 -79 -11 -101 -53
-106 -19 -2 -28 -10 -30 -26 -3 -21 -1 -22 40 -16 24 3 48 7 54 9 8 2 11 44
10 135 l-2 131 29 25 c15 13 33 24 38 24 5 0 9 9 9 20 0 29 -43 36 -89 15 -30
-13 -46 -15 -77 -6 -39 9 -95 15 -124 12 -8 0 -23 -16 -33 -33 -15 -26 -19
-57 -20 -154 -1 -67 -5 -125 -9 -129 -4 -4 -26 -8 -49 -9 -43 -1 -43 0 -56 43
-7 24 -19 51 -28 60 -8 10 -21 36 -29 59 -8 23 -33 76 -55 118 -23 43 -41 88
-41 101 l0 23 1900 0 c1893 0 1900 0 1900 20 0 20 -7 20 -1916 20 -1301 0
-1922 3 -1935 10 -13 7 -19 7 -19 0 0 -14 -232 -14 -247 1 -8 8 -13 8 -17 0
-5 -8 -123 -11 -381 -11 -359 0 -373 1 -368 19 6 24 -7 27 -106 21z m-374
-195 c13 -9 32 -37 43 -62 32 -72 53 -80 73 -30 14 32 14 31 21 -45 6 -62 4
-83 -9 -112 -10 -20 -20 -36 -24 -37 -203 -17 -203 -17 -212 116 -5 82 -3 103
12 135 25 52 56 63 96 35z"/>
<path d="M310 1187 c-33 -17 -37 -43 -9 -66 27 -21 41 -117 32 -216 l-5 -60
-61 -3 c-81 -3 -125 12 -135 46 -4 15 -7 70 -7 123 0 78 3 101 18 116 9 11 17
24 17 30 0 12 -90 26 -114 17 -24 -9 -20 -39 8 -57 29 -19 36 -55 43 -199 2
-60 6 -108 8 -108 3 0 19 7 38 16 32 15 36 15 75 -5 52 -27 71 -26 113 2 36
24 40 40 55 202 4 42 13 70 30 92 27 36 23 60 -13 74 -33 12 -63 11 -93 -4z"/>
<path d="M2823 1172 c-11 -12 -9 -19 17 -48 25 -30 30 -43 31 -92 2 -124 0
-135 -34 -165 -31 -26 -31 -28 -13 -42 16 -12 23 -12 57 1 31 13 45 14 74 4
26 -8 44 -9 68 -1 26 9 43 8 76 -4 56 -19 58 -19 86 10 23 22 25 31 25 123 0
89 2 103 25 136 50 74 33 87 -109 80 -143 -7 -142 -7 -115 -43 21 -28 22 -37
16 -142 -3 -61 -11 -117 -16 -122 -16 -16 -60 3 -85 36 -18 24 -21 41 -19 109
2 60 8 89 23 113 16 26 17 35 8 43 -21 17 -99 19 -115 4z m317 -37 c32 -16 35
-33 34 -187 -1 -100 -60 -106 -108 -10 -12 24 -16 53 -14 110 3 70 5 78 28 89
31 16 25 16 60 -2z"/>
<path d="M3472 1177 c-18 -6 -42 -23 -53 -39 -19 -27 -21 -38 -14 -136 6 -99
5 -109 -13 -132 -14 -17 -30 -25 -53 -25 -18 0 -34 -6 -36 -12 -3 -9 6 -13 24
-13 46 0 83 -45 83 -102 0 -47 15 -72 30 -48 4 6 3 32 -3 58 -9 43 -8 47 18
69 23 20 33 23 77 17 41 -6 50 -4 46 7 -3 9 -25 16 -56 19 -28 3 -57 11 -64
18 -8 8 -15 52 -18 110 -5 81 -3 103 12 134 35 72 99 58 138 -29 32 -73 52
-80 75 -27 14 33 13 38 -4 63 -48 67 -113 90 -189 68z"/>
<path d="M5282 1183 c-13 -2 -21 -10 -19 -16 5 -15 65 -28 98 -21 16 3 30 -1
38 -10 22 -26 31 -128 24 -285 -6 -144 -8 -157 -29 -178 -12 -12 -18 -25 -13
-28 15 -10 48 5 53 23 3 9 8 114 12 232 3 118 10 223 16 233 5 10 19 17 31 16
45 -4 67 1 67 16 0 12 -18 15 -99 15 -54 0 -111 2 -127 4 -16 2 -39 2 -52 -1z"/>
<path d="M3865 1155 c-53 -52 -18 -135 57 -135 45 0 72 28 70 76 -2 45 -6 51
-49 69 -47 20 -50 19 -78 -10z m73 -59 c3 -13 -1 -17 -14 -14 -11 2 -20 11
-22 22 -3 13 1 17 14 14 11 -2 20 -11 22 -22z"/>
<path d="M4472 1162 c-15 -15 -22 -35 -22 -59 0 -21 -3 -55 -6 -75 -6 -35 -5
-37 30 -52 39 -16 39 -16 40 -135 1 -51 3 -55 29 -62 15 -4 41 -3 58 1 17 5
59 7 93 4 85 -8 132 9 157 57 10 21 23 40 29 44 5 3 10 40 10 82 0 67 -3 80
-26 111 -15 19 -47 47 -72 63 -40 25 -53 28 -97 23 -87 -10 -119 -29 -140 -84
-22 -57 -35 -49 -35 21 0 25 -6 53 -13 64 -13 17 -15 17 -35 -3z m328 -47 c37
-19 56 -55 64 -120 7 -62 -11 -115 -44 -131 -14 -7 -46 -22 -71 -35 -72 -35
-139 -4 -160 74 -6 23 -16 54 -21 68 -8 22 -4 38 21 87 17 33 36 62 43 65 29
12 140 6 168 -8z m-208 -290 c11 -20 11 -20 -11 -1 -11 11 -21 26 -21 35 0 14
2 14 10 1 6 -8 16 -24 22 -35z"/>
<path d="M1738 1152 c-37 -22 -45 -70 -16 -91 41 -29 54 -30 86 -4 33 25 44
74 22 88 -31 19 -68 22 -92 7z"/>
<path d="M4846 1155 c-9 -24 0 -33 44 -45 31 -8 41 -17 46 -38 3 -15 10 -37
15 -50 13 -34 11 -216 -3 -230 -7 -7 -28 -9 -56 -5 -36 5 -44 3 -40 -8 5 -15
67 -24 104 -15 12 3 26 15 29 26 8 24 35 26 76 4 43 -22 47 -11 11 26 -67 67
-69 71 -65 166 4 93 11 111 45 116 28 4 47 33 31 49 -6 6 -59 13 -121 16 -96
5 -110 3 -116 -12z"/>
<path d="M5640 1152 c-50 -25 -76 -70 -84 -145 -10 -98 35 -188 103 -207 56
-15 83 -12 124 16 51 34 68 27 65 -28 -4 -72 2 -138 11 -138 11 0 23 112 30
305 l6 160 30 5 c18 3 31 12 33 23 3 14 -5 17 -51 17 -35 0 -57 -5 -60 -12 -3
-10 -15 -9 -53 5 -62 22 -110 22 -154 -1z m84 -29 c4 -5 24 -13 44 -18 51 -14
72 -58 72 -148 0 -65 -2 -71 -34 -103 -28 -28 -42 -34 -76 -34 -55 0 -73 11
-104 64 -44 76 -31 165 33 219 33 27 52 33 65 20z"/>
<path d="M4235 1149 c-4 -6 -7 -37 -7 -68 1 -31 -5 -98 -12 -148 -13 -97 -33
-135 -65 -126 -9 2 -23 -3 -30 -11 -11 -13 -10 -17 3 -22 19 -7 123 0 132 8 3
4 -2 17 -11 31 -14 21 -14 32 -4 73 13 53 22 64 55 64 17 0 26 -12 43 -60 12
-33 19 -69 16 -80 -8 -24 14 -35 50 -26 21 5 25 12 25 46 0 21 4 41 9 44 13 8
1 46 -14 46 -8 0 -16 -9 -20 -19 -13 -41 -33 -32 -44 19 -6 28 -20 76 -32 107
-12 32 -24 74 -28 93 -5 28 -11 36 -33 38 -14 2 -29 -2 -33 -9z"/>
<path d="M1373 920 c-51 -11 -63 -27 -63 -81 0 -47 2 -49 39 -69 33 -16 52
-19 108 -14 37 4 81 7 98 8 31 1 43 22 31 52 -5 12 -12 11 -39 -10 -35 -27
-81 -34 -93 -15 -3 6 -22 17 -41 25 -44 19 -50 36 -23 74 12 17 21 32 19 34
-2 1 -19 0 -36 -4z"/>
<path d="M1744 902 c-49 -41 -37 -102 20 -102 63 0 90 65 43 102 -27 22 -37
22 -63 0z"/>
<path d="M5184 869 c-3 -6 1 -18 10 -28 9 -10 16 -27 16 -39 0 -25 18 -30 26
-7 13 34 -35 101 -52 74z"/>
<path d="M100 735 c0 -15 -11 -36 -26 -50 -36 -34 -26 -55 24 -51 22 2 44 6
51 10 13 9 15 36 1 36 -5 0 -15 18 -21 40 -14 45 -29 53 -29 15z"/>
<path d="M5285 650 c3 -5 12 -10 20 -10 8 0 17 5 20 10 4 6 -5 10 -20 10 -15
0 -24 -4 -20 -10z"/>
</g>
</svg>
