<?xml version="1.0" encoding="UTF-8"?>
<svg id="Layer_1" xmlns="http://www.w3.org/2000/svg" viewBox="0 0 600 200">
  <defs>
    <style>
      .cls-1 {
        fill: none;
      }
    </style>
  </defs>
  <rect class="cls-1" x="2" y="64.93" width="598" height="70.13"/>
  <path d="M45.65,117.41c-.05.3.02.61.23.94.2.33,0,.96-.6,1.91-.1.2-.28.4-.52.6-.25.2-.83.33-1.73.38-.4.05-1.44.16-3.11.34-1.68.17-3.21.29-4.61.34-1.4.05-2.73-.05-3.97-.3l-3.08-.83c-.6-.9-.89-1.46-.86-1.69.02-.22.16-.52.41-.9.25-.38.42-.64.53-.79,1.4-.8,2.5-1.72,3.3-2.77.8-1.05,1.19-2.67,1.16-4.88-.03-2.2.01-3.72.11-4.58,0-.1.16-.47.49-1.12.32-.65.51-1.12.56-1.42.05-.5-.01-1.31-.19-2.44-.18-1.12-.26-1.84-.26-2.14-.1-3.5-.4-5.77-.9-6.82-.5-1.05-1.24-1.75-2.21-2.1-.98-.35-2.26-.3-3.86.15-.25-.6-.49-1.07-.71-1.42-.23-.35-.43-.51-.6-.49-.18.03-.56.31-1.16.86-.6.55-1.25.85-1.95.9-1.3.15-2.41.55-3.34,1.2-.93.65-1.99,2.13-3.19,4.42-.6.45-1.21,1.38-1.84,2.77-.63,1.4-1.14,3.36-1.54,5.89-.4,2.53-.38,4.76.07,6.71.45,1.95,1.22,3.12,2.33,3.52.8.3,1.76.85,2.89,1.65,1.12.8,1.69,1.48,1.69,2.03,0,.2.15.58.45,1.12.3.55.42.95.38,1.2-.05.2-.28.44-.67.71-.4.27-.63.51-.68.71l-4.8.22c-.3.05-1.43.24-3.38.56-1.95.32-3.56.41-4.84.26-1.28-.15-2.29-.58-3.04-1.28-.1-1.35-.01-2.47.26-3.38.27-.9,1.07-1.79,2.4-2.66,1.32-.87,2.29-1.56,2.89-2.06l.68-12.6c-.3-.75-.46-2.45-.49-5.1-.03-2.65.06-6.02.26-10.12.2-4.1.3-6.4.3-6.9l-.82-1.57c-.15-.25-.39-.7-.71-1.35-.33-.65-.6-1.09-.82-1.31s-1.11-.59-2.66-1.09l-.15-2.1,1.65-1.12c.15-.05.44-.08.86-.08s.74-.05.94-.15c.25-.05.65-.31,1.2-.79.55-.47,1-.7,1.35-.67.35.03.67.21.98.56.1.1.17.28.22.52.05.25.12.43.23.52.05.1.4.29,1.05.56.65.28,1,.44,1.05.49-.5,2.65-.75,5.43-.75,8.32,0,.25.2.64.6,1.16.4.52.6.89.6,1.09.05.25.02.69-.08,1.31-.1.63-.08,1.09.08,1.39.15.35.66.73,1.54,1.12.87.4,1.49.6,1.84.6.15,0,.44-.02.86-.08.42-.05,1.92-.34,4.5-.86,2.57-.53,4.54-.83,5.89-.9,1.35-.07,2.32-.01,2.92.19.6.2,1,.43,1.2.68.05.1.14.3.26.6.12.3.24.5.34.6.05.05.14.1.26.15.12.05.59.15,1.39.3,1,.2,1.94.59,2.81,1.16.87.58,1.5,1.42,1.88,2.55s.56,2.51.56,4.16c0,6.1-.05,10.68-.15,13.72-.3.25-.46.5-.49.75-.03.25.12.58.45.98.32.4.49.67.49.82l-.38,1.12c-.05.45.08.9.38,1.35s.9.95,1.8,1.5c.9.55,1.47.93,1.73,1.12l1.88,2.02Z"/>
  <path d="M56.97,123.93c-1.15,0-2.34-.24-3.56-.71-1.23-.48-2.24-1.19-3.04-2.14-.25-.3-.45-.8-.6-1.5-.15-.7-.28-1.17-.38-1.43-.2-.4-.65-.99-1.35-1.76-.7-.78-1.15-1.39-1.35-1.84-.05-.1-.14-.54-.26-1.31-.13-.77-.24-1.21-.34-1.31,0-.1.01-.27.04-.53.02-.25.21-2.25.56-6,.35-3.75.46-6.61.34-8.59-.13-1.97-.44-3.04-.94-3.19-.05-.4-.25-1.31-.6-2.74-.35-1.43-.6-2.21-.75-2.36-.15-.2-.41-.36-.79-.49-.38-.12-1.12-.12-2.25,0-1.12.13-2.01.18-2.66.15-.65-.02-1.27-.12-1.88-.3-.6-.17-1.12-.39-1.57-.64.15-1,.56-1.8,1.24-2.4.68-.6,1.99-1.07,3.94-1.43,1.1-.2,2.27-.61,3.52-1.24,1.25-.62,1.95-1.34,2.1-2.14.1-.65.17-1.42.23-2.32.05-.9.05-2.12,0-3.68-.05-1.55-.08-2.57-.08-3.07.1-1.1.24-1.85.41-2.25.17-.4.46-.6.86-.6.1.1.26.2.49.3.23.1.39.13.49.08.1-.2.62-.3,1.58-.3.2,0,.39.06.56.19.17.12.32.34.45.64.12.3.2.69.22,1.16.02.48.02.96,0,1.46-.03.5-.04.8-.04.9,0,.65-.13,2.6-.38,5.85,0,.05-.05.35-.15.9-.1.55-.11.96-.04,1.24.07.28.21.41.41.41.4.35,1.01.78,1.84,1.27.82.5,1.31.8,1.46.9.6.4,1.19.7,1.76.9.57.2,1.35.23,2.33.08s1.71-.25,2.21-.3c2.2-.2,3.45,0,3.75.6l.68,1.5-.9,1.65c-.4.25-.91.41-1.54.49-.63.07-1.54.05-2.74-.08-1.2-.12-1.95-.19-2.25-.19-1.55,0-2.89.6-4.01,1.8-1.12,1.2-1.74,2.6-1.84,4.2l-.9.6c.05.15.19.36.41.64.23.28.34.49.34.64l-.52,1.58c-.15,1.05-.28,2.73-.38,5.02,0,1.2.1,2.84.3,4.91.2,2.08.59,4.03,1.16,5.85.57,1.83,1.25,3.16,2.02,4.01.77.85,1.59,1.28,2.44,1.28.45,0,1.25-.29,2.4-.86,1.15-.57,2.27-1.38,3.38-2.4,1.1-1.02,1.4-1.89.9-2.59.15-.2.29-.62.41-1.28.12-.65.26-1.1.41-1.35.15-.25.46-.57.94-.98.47-.4.79-.72.94-.97.9-1.4,1.51-2.26,1.84-2.59s.66-.57,1.01-.75c.35-.17.72-.21,1.12-.11.4.1.8.38,1.2.83.85.9,1.27,2.58,1.27,5.02,0,.6-.05,1.26-.15,1.99-.1.72-.25,1.26-.45,1.61-.2.35-.58.69-1.12,1.01-.55.33-.98.66-1.27,1.01-.05.1-.1.26-.15.49-.05.22-.1.52-.15.9-.05.38-.08.61-.08.71-.1.2-.31.4-.64.6-.33.2-.51.33-.56.38-.2.2-.4.45-.6.75-.2.3-.38.72-.53,1.28-.15.55-.28.92-.38,1.12-.2.45-1.6.86-4.2,1.24-2.6.38-4.48.56-5.62.56Z"/>
  <path d="M84.5,123.93c-1.15,0-2.34-.24-3.56-.71-1.23-.48-2.24-1.19-3.04-2.14-.25-.3-.45-.8-.6-1.5-.15-.7-.28-1.17-.38-1.43-.2-.4-.65-.99-1.35-1.76-.7-.78-1.15-1.39-1.35-1.84-.05-.1-.14-.54-.26-1.31-.13-.77-.24-1.21-.34-1.31,0-.1.01-.27.04-.53.02-.25.21-2.25.56-6,.35-3.75.46-6.61.34-8.59-.13-1.97-.44-3.04-.94-3.19-.05-.4-.25-1.31-.6-2.74-.35-1.43-.6-2.21-.75-2.36-.15-.2-.41-.36-.79-.49-.38-.12-1.12-.12-2.25,0-1.12.13-2.01.18-2.66.15-.65-.02-1.27-.12-1.88-.3-.6-.17-1.12-.39-1.57-.64.15-1,.56-1.8,1.24-2.4.68-.6,1.99-1.07,3.94-1.43,1.1-.2,2.27-.61,3.52-1.24,1.25-.62,1.95-1.34,2.1-2.14.1-.65.17-1.42.23-2.32.05-.9.05-2.12,0-3.68-.05-1.55-.08-2.57-.08-3.07.1-1.1.24-1.85.41-2.25.17-.4.46-.6.86-.6.1.1.26.2.49.3.23.1.39.13.49.08.1-.2.62-.3,1.58-.3.2,0,.39.06.56.19.17.12.32.34.45.64.12.3.2.69.22,1.16.02.48.02.96,0,1.46-.03.5-.04.8-.04.9,0,.65-.13,2.6-.38,5.85,0,.05-.05.35-.15.9-.1.55-.11.96-.04,1.24.07.28.21.41.41.41.4.35,1.01.78,1.84,1.27.82.5,1.31.8,1.46.9.6.4,1.19.7,1.76.9.57.2,1.35.23,2.33.08s1.71-.25,2.21-.3c2.2-.2,3.45,0,3.75.6l.68,1.5-.9,1.65c-.4.25-.91.41-1.54.49-.63.07-1.54.05-2.74-.08-1.2-.12-1.95-.19-2.25-.19-1.55,0-2.89.6-4.01,1.8-1.12,1.2-1.74,2.6-1.84,4.2l-.9.6c.05.15.19.36.41.64.23.28.34.49.34.64l-.52,1.58c-.15,1.05-.28,2.73-.38,5.02,0,1.2.1,2.84.3,4.91.2,2.08.59,4.03,1.16,5.85.57,1.83,1.25,3.16,2.02,4.01.77.85,1.59,1.28,2.44,1.28.45,0,1.25-.29,2.4-.86,1.15-.57,2.27-1.38,3.38-2.4,1.1-1.02,1.4-1.89.9-2.59.15-.2.29-.62.41-1.28.12-.65.26-1.1.41-1.35.15-.25.46-.57.94-.98.47-.4.79-.72.94-.97.9-1.4,1.51-2.26,1.84-2.59s.66-.57,1.01-.75c.35-.17.72-.21,1.12-.11.4.1.8.38,1.2.83.85.9,1.27,2.58,1.27,5.02,0,.6-.05,1.26-.15,1.99-.1.72-.25,1.26-.45,1.61-.2.35-.58.69-1.12,1.01-.55.33-.98.66-1.27,1.01-.05.1-.1.26-.15.49-.05.22-.1.52-.15.9-.05.38-.08.61-.08.71-.1.2-.31.4-.64.6-.33.2-.51.33-.56.38-.2.2-.4.45-.6.75-.2.3-.38.72-.53,1.28-.15.55-.28.92-.38,1.12-.2.45-1.6.86-4.2,1.24-2.6.38-4.48.56-5.62.56Z"/>
  <path d="M99.57,138.48c-.5,0-1.66.06-3.49.19-1.83.12-3.45.04-4.88-.26-1.42-.3-2.61-1.05-3.56-2.25.1-.15.36-.7.79-1.65.43-.95.86-1.58,1.31-1.88.35-.25,1.01-.44,1.99-.56.98-.13,1.64-.26,1.99-.41.8-.35,1.65-.94,2.55-1.76.9-.83,1.4-1.69,1.5-2.59.2-1.45.17-3.75-.08-6.9-.25-3.15-.28-5.47-.07-6.97l.38-2.55c.15-1.05.14-2.59-.04-4.61-.18-2.03-.26-3.29-.26-3.79,0-6.1-.28-10.67-.82-13.72-.3-.3-.96-.77-1.99-1.42-1.03-.65-1.71-1.22-2.06-1.73-.3-.4-.52-.92-.67-1.58-.15-.65-.04-1.27.34-1.88s.99-.9,1.84-.9c1.5,0,3.7.48,6.6,1.42,2.9.95,5.1,1.43,6.6,1.43l1.05-1.43c.1-.1.55-.15,1.35-.15s1.27-.02,1.43-.07c.45-.1,1.42-.4,2.92-.9,1.5-.5,2.67-.75,3.52-.75,1.35,0,2.7.19,4.05.56,1.35.38,2.69,1.18,4.01,2.4,1.32,1.23,2.86,3.54,4.61,6.94.7,1.3,1.3,2.2,1.8,2.7,0,.05-.01.14-.04.26-.03.13-.03.34,0,.64.02.3.09.68.19,1.12.1.45.23.86.38,1.24s.31.79.49,1.24c.17.45.29.75.34.9-.9,1.1-1.3,2.76-1.2,4.99.1,2.23.09,3.76-.04,4.61-.12.85-.33,1.64-.6,2.36-.28.72-.71,1.56-1.31,2.51-.6.95-1.6,2.09-3,3.41-1.4,1.33-3.33,2.76-5.78,4.31-.85-.3-1.3-.45-1.35-.45s-.14.08-.26.22c-.13.15-.26.27-.41.38-.15.1-.33.2-.52.3-.75.3-1.78.45-3.08.45-.85,0-2.16-.16-3.94-.49-1.78-.33-3.09-.49-3.94-.49-.15,0-.49.04-1.01.11s-.96.06-1.31-.04c-.3-.1-.75-.33-1.35-.67-.6-.35-.98-.63-1.12-.83.1.15.04.42-.19.83-.23.4-.51.7-.86.9-.15.1-.53.16-1.12.19-.6.02-.93.14-.98.34-.05.2-.08.35-.08.45l.98,1.42c-.1.35-.88.77-2.33,1.27.2.3.6.74,1.2,1.31.6.57.98,1.01,1.12,1.31.1.25.19.68.26,1.28.07.6.19,1.05.34,1.35.35.75,1,1.45,1.95,2.1.95.65,1.85,1.1,2.7,1.35.75.65,1.15,1.2,1.2,1.65.15,1.45-.83,2.27-2.93,2.47-.3.05-1.09-.12-2.36-.52-1.27-.4-2.06-.43-2.36-.08-.3.35-.43.8-.38,1.35ZM110.97,115.53c.7,0,1.8-.19,3.3-.56s2.6-.56,3.3-.56c.2,0,.4.33.6.98l.98-.83c.4,0,.84-.08,1.31-.22.47-.15.89-.39,1.24-.71.35-.32.91-1,1.69-2.03.77-1.02,1.59-1.66,2.44-1.91.1-.45.32-1.19.68-2.21.35-1.02.57-1.81.67-2.36.1-.45.1-1.26,0-2.44-.1-1.17-.1-1.96,0-2.36.1-.2.31-.49.64-.86.32-.38.51-.69.56-.94-.85-.5-1.43-1.07-1.73-1.73-.15-.35-.29-.85-.41-1.5-.13-.65-.21-1.05-.26-1.2-.8-2.45-2.38-4.41-4.73-5.89-2.35-1.47-4.85-2.21-7.5-2.21-.75,0-2.31.44-4.69,1.31-2.38.88-3.81,1.56-4.31,2.06-.75.75-1.38,1.98-1.88,3.67-.5,1.7-.84,3.88-1.01,6.52-.18,2.65-.29,4-.34,4.05-.1.1-.34.23-.71.38-.38.15-.59.3-.64.45-.05.1.01.48.19,1.12.17.65.31,1.12.41,1.42.15.25.44.51.86.79.42.28.71.51.86.71.1.2.21.54.34,1.01.12.48.24.81.34,1.01.2.4.71.96,1.54,1.69.83.73,1.9,1.46,3.23,2.21,1.32.75,2.34,1.12,3.04,1.12Z"/>
  <path d="M133.02,118.76c-2.45.1-4-.06-4.65-.49-.65-.42-1.03-.89-1.12-1.39-.25-.95-.52-2.44-.83-4.46-.3-2.02-.58-3.56-.82-4.61l.3-2.03c0-.1.04-.27.11-.52.08-.25.21-.56.41-.94.2-.38.56-.56,1.09-.56s1.19.25,1.99.75c.8.5,1.27.78,1.42.83h.9c.75,1.75,2.48,3.82,5.18,6.22,2.7,2.4,4.9,3.7,6.6,3.9l.3-1.05c1.45.35,3.02.53,4.73.53s2.96-.29,3.79-.86c.82-.57,1.34-1.26,1.54-2.06.35.05.61.05.79,0,.17-.05.2-.19.08-.41-.13-.22-.16-.36-.11-.41.35.1.68.14.98.11.3-.02.3-.39,0-1.09.4-.7.89-1.65,1.46-2.85.57-1.2.79-1.95.64-2.25-.05-.25-.25-.4-.6-.45-.35-.05-.48-.42-.38-1.12-.4,0-1.16-.16-2.29-.49-1.12-.32-2.35-.81-3.67-1.46-1.33-.65-2.14-1.22-2.44-1.73-.25-.05-.51-.23-.79-.52-.28-.3-.49-.5-.64-.6-.35-.2-1.18-.17-2.48.07-1.3.2-3.38-.12-6.23-.97-2.85-.85-4.93-1.67-6.23-2.48-.2-.25-.64-.42-1.31-.52-.67-.1-.99-.42-.94-.98,0-1.2-.06-1.99-.19-2.36-.13-.38-.36-.61-.71-.71l.15-5.32c0-.2.17-.51.52-.94.35-.42.5-.86.45-1.31.35-.6.9-1.21,1.65-1.84.75-.62,2.14-1.34,4.16-2.14,2.02-.8,3.41-1.45,4.16-1.95,1.05.25,2.41.39,4.09.41,1.67.03,2.64.04,2.89.04.85.05,2.22.39,4.12,1.01,1.9.63,3.52.79,4.88.49.45-.1,1.11-.09,1.99.04.87.12,1.55.33,2.02.6.47.28.76.56.86.86.05.3.11.98.19,2.02.07,1.05.09,2.21.04,3.49-.05,1.28-.2,2.06-.45,2.36-.05.1-.26.23-.64.38s-.86.23-1.46.23l-1.58-2.1c.1-.3.01-.59-.26-.86-.28-.27-1.18-.69-2.7-1.24-1.53-.55-2.55-1.04-3.07-1.46-.53-.42-.88-.77-1.05-1.05-.18-.27-.29-.51-.34-.71-.65.5-1.61.93-2.89,1.27-1.27.35-3.07.61-5.4.79-2.32.18-3.81.31-4.46.41-.65.1-1.15.55-1.5,1.35-.35.8-.48,1.98-.38,3.52,0,.6.12,1.24.38,1.91.25.67.77,1.15,1.58,1.42.8.28,1.95.29,3.45.04,1.5-.25,2.42-.38,2.77-.38s1.2.3,2.55.9,2.5.9,3.45.9c1.4,0,3.04.41,4.91,1.24,1.88.82,3.5,1.94,4.88,3.34,1.37,1.4,2.24,2.8,2.59,4.2.05.1.15.31.3.64.15.33.23.56.23.71l-.08.97c0,.4.08,1.09.23,2.06.15.98.2,1.71.15,2.21-.35.5-.94,1.15-1.76,1.95-.82.8-1.36,1.51-1.61,2.14-.25.62-.38,1.34-.38,2.14-.4.65-1.41,1.3-3.04,1.95-1.63.65-3.54,1.21-5.74,1.69-2.2.47-4.43.83-6.68,1.05-2.25.23-4.41.25-6.49.08-2.08-.18-3.26-.69-3.56-1.54Z"/>
  <path d="M175.92,120.03c-.45,0-1.06-.18-1.84-.52-.78-.35-1.65-.85-2.62-1.5-.98-.65-1.46-.95-1.46-.9-.15-1.25-.23-2.62-.23-4.12s.12-2.77.38-3.83c.9-.4,1.35-.87,1.35-1.42,0-.2.86-.65,2.59-1.35s2.96-1.05,3.71-1.05c.9,0,1.36.03,1.39.07.02.05.02.2,0,.45-.03.25-.04.43-.04.53,0,.05.02.1.08.15.05.05.4.08,1.05.08s1.14.1,1.46.3c.32.2.55.48.68.83.12.35.19.73.19,1.12,0,.05.01.14.04.26.02.12.32.28.9.45.57.18.95.51,1.12,1.01.17.5.29,1.01.34,1.54.05.53.07,1.04.07,1.54,0,1.3-.19,2.28-.56,2.93-.38.65-.84.97-1.39.97-.4,0-.95.36-1.65,1.09-.7.72-1.3,1.09-1.8,1.09l-3.75.3ZM177.72,94.53c-.15-.05-.84-.31-2.06-.79-1.23-.47-2.16-.71-2.81-.71-.1-.25-.39-.41-.86-.49-.48-.08-.76-.24-.86-.49-.05-.1-.1-.4-.15-.9-.05-.5,0-1.55.15-3.15.15-1.6.23-2.42.23-2.48.25-.3.45-.59.6-.86.15-.27.32-.75.53-1.43.2-.67.49-1.09.86-1.24s.86-.26,1.46-.34c.6-.08,1.52-.11,2.77-.11.9,0,1.58.18,2.03.53.45.35.89.96,1.31,1.84.42.88.96,1.31,1.61,1.31.5,0,1.17.43,2.02,1.27l-.15,3.67c-.35.2-.83.95-1.42,2.25-.6,1.3-1.23,1.95-1.88,1.95l-3.38.15Z"/>
  <path d="M190.4,131.21c-.55.95-1.2,1.71-1.95,2.29-.75.57-1.54.76-2.36.56-.83-.2-1.56-.84-2.21-1.91-.65-1.08-.98-2.61-.98-4.61,0-.65.15-1.44.45-2.36.3-.93,1.35-2.66,3.15-5.21.25-.35.69-.79,1.31-1.31.62-.53,1.06-1.01,1.31-1.46.1-.2.21-.45.34-.75.12-.3.46-1.52,1.01-3.67.95-.95,1.8-2.24,2.55-3.86s1.67-3.98,2.77-7.05c1.1-3.07,1.97-4.89,2.62-5.44.25-.7.89-1.42,1.91-2.17,1.02-.75,1.73-1.43,2.1-2.02.38-.6.64-1.16.79-1.69.15-.53.27-1.01.38-1.46.35-2.25,1.15-4.82,2.4-7.72l3.3-8.03c.25-.15.57-.3.98-.45.4-.15.66-.34.79-.56.12-.23.19-.69.19-1.39,0-.65.35-1.35,1.05-2.1.7-.75,1.12-1.22,1.27-1.42.25-.35.64-.65,1.16-.9.52-.25.98-.61,1.35-1.09.38-.47.7-.96.98-1.46.27-.5.46-.85.56-1.05.65-1.2,1.06-1.7,1.24-1.5.17.2.31.28.41.23-.05.1-.19.41-.41.94s-.76,1.78-1.61,3.75c-.85,1.98-1.83,4.41-2.93,7.31-1.1,2.9-1.62,4.65-1.57,5.25-1.8,1.5-3.01,3.71-3.64,6.64-.63,2.93-1.09,4.79-1.39,5.59-.1.2-.45,1.15-1.05,2.85-.6,1.7-1.19,3.13-1.76,4.28-.58,1.15-1.41,2.38-2.51,3.67-.35.45-.69,1.42-1.01,2.92-.33,1.5-.64,2.53-.94,3.08-.25.5-.58,1.34-.97,2.51-.4,1.17-.75,2.04-1.05,2.59-1.2,1.95-2.06,3.43-2.59,4.42-.52,1-.89,2.05-1.09,3.15-.2,1.1-.28,2.17-.23,3.22l-4.12,7.43ZM219.95,59.73l-.45-.3c-.25-1.4-.33-2.85-.23-4.35.1-1.5.4-2.82.9-3.98.1-.2.35-.57.75-1.12.4-.55.84-.94,1.31-1.16.47-.23.71.11.71,1.01,0,.3-.19.78-.56,1.42-.38.65-.59,1.1-.64,1.35-.1.3-.05.86.15,1.69.2.82.2,1.51,0,2.06-.15.4-.55,1.12-1.2,2.17l-.75,1.2Z"/>
  <path d="M217.02,131.21c-.55.95-1.2,1.71-1.95,2.29-.75.57-1.54.76-2.36.56-.83-.2-1.56-.84-2.21-1.91-.65-1.08-.98-2.61-.98-4.61,0-.65.15-1.44.45-2.36.3-.93,1.35-2.66,3.15-5.21.25-.35.69-.79,1.31-1.31.62-.53,1.06-1.01,1.31-1.46.1-.2.21-.45.34-.75.12-.3.46-1.52,1.01-3.67.95-.95,1.8-2.24,2.55-3.86s1.67-3.98,2.77-7.05c1.1-3.07,1.97-4.89,2.62-5.44.25-.7.89-1.42,1.91-2.17,1.02-.75,1.73-1.43,2.1-2.02.38-.6.64-1.16.79-1.69.15-.53.27-1.01.38-1.46.35-2.25,1.15-4.82,2.4-7.72l3.3-8.03c.25-.15.57-.3.98-.45.4-.15.66-.34.79-.56.12-.23.19-.69.19-1.39,0-.65.35-1.35,1.05-2.1.7-.75,1.12-1.22,1.27-1.42.25-.35.64-.65,1.16-.9.52-.25.98-.61,1.35-1.09.38-.47.7-.96.98-1.46.27-.5.46-.85.56-1.05.65-1.2,1.06-1.7,1.24-1.5.17.2.31.28.41.23-.05.1-.19.41-.41.94s-.76,1.78-1.61,3.75c-.85,1.98-1.83,4.41-2.93,7.31-1.1,2.9-1.62,4.65-1.57,5.25-1.8,1.5-3.01,3.71-3.64,6.64-.63,2.93-1.09,4.79-1.39,5.59-.1.2-.45,1.15-1.05,2.85-.6,1.7-1.19,3.13-1.76,4.28-.58,1.15-1.41,2.38-2.51,3.67-.35.45-.69,1.42-1.01,2.92-.33,1.5-.64,2.53-.94,3.08-.25.5-.58,1.34-.97,2.51-.4,1.17-.75,2.04-1.05,2.59-1.2,1.95-2.06,3.43-2.59,4.42-.52,1-.89,2.05-1.09,3.15-.2,1.1-.28,2.17-.23,3.22l-4.12,7.43ZM246.57,59.73l-.45-.3c-.25-1.4-.33-2.85-.23-4.35.1-1.5.4-2.82.9-3.98.1-.2.35-.57.75-1.12.4-.55.84-.94,1.31-1.16.47-.23.71.11.71,1.01,0,.3-.19.78-.56,1.42-.38.65-.59,1.1-.64,1.35-.1.3-.05.86.15,1.69.2.82.2,1.51,0,2.06-.15.4-.55,1.12-1.2,2.17l-.75,1.2Z"/>
  <path d="M274.25,117.26c.65.25,1.41.36,2.29.34.87-.02,1.76.21,2.66.71l-1.57,3.3c-.55.1-.93.27-1.12.53-.2.25-.31.36-.34.34-.03-.03-.04-.06-.04-.11-1-.25-2.31-.31-3.94-.19-1.63.12-2.56.19-2.81.19s-.43-.1-.52-.3c-.1-.2-.28-.3-.53-.3-.45-.85-1.03-1.28-1.72-1.28-1.15,0-2.58.29-4.28.86-1.7.57-2.58.86-2.62.86-2.45.75-5,1.12-7.65,1.12-.55,0-1.35-.24-2.4-.71-1.05-.48-1.85-.71-2.4-.71-.15-.8-.69-1.64-1.61-2.51-.93-.88-1.46-1.59-1.61-2.14-.15-.55-.23-.95-.23-1.2-.05-.8-.11-1.44-.19-1.91-.07-.47-.26-.94-.56-1.39,0-.7.15-1.76.45-3.19.3-1.42.45-2.46.45-3.11,0-.6-.1-1.47-.3-2.62-.2-1.15-.33-1.88-.38-2.18-.25-2.05-.2-3.47.15-4.27l-.3-8.17c-.25-.5-.6-.9-1.05-1.2-.2-.15-.58-.26-1.12-.34-.55-.08-.9-.16-1.05-.26-.45-.25-1.1-.7-1.95-1.35-.85-.65-1.38-1-1.57-1.05-.25-.55-.06-1.24.56-2.06.62-.83,1.21-1.24,1.76-1.24.2,0,.75-.01,1.65-.04.9-.02,1.57-.01,2.02.04.8.1,1.96.46,3.49,1.09,1.52.63,2.41,1.19,2.66,1.69,0,.2-.05.75-.15,1.65-.1.9-.13,1.6-.08,2.1.25,2.75.32,6.2.23,10.35,0,.4-.05,1.6-.15,3.6-.1,2-.09,3.71.04,5.14.12,1.42.46,2.77,1.01,4.05.55,1.28,1.17,2.41,1.88,3.41.05.05.19.3.41.75.23.45.4.76.52.94.12.18.21.29.26.34.1.05.44.03,1.01-.08.57-.1.94-.12,1.09-.08.2.05.41.23.64.53s.56.45,1.01.45c.65,0,1.54-.24,2.66-.71,1.12-.47,2.19-1.27,3.19-2.4,1-1.12,1.52-2.21,1.57-3.26.15-.2.38-.25.68-.15.3.1.5.1.6,0,.1-.05.19-.24.26-.56.08-.32.16-.54.26-.64.5-.55.79-.92.86-1.12.08-.2.14-.62.19-1.27.1-1.3.44-3.25,1.01-5.85.57-2.6.91-4.47,1.01-5.62,0-.25.12-.62.38-1.12.25-.5.38-.87.38-1.12.05-.25-.03-.62-.23-1.12-.2-.5-.3-.85-.3-1.05-.15-1.45-.29-2.34-.41-2.66-.13-.32-.31-.61-.56-.86-.2-.25-.51-.47-.94-.68-.43-.2-1.34-.32-2.74-.38-1.4-.05-2.38-.17-2.93-.38-.55-.2-.97-.44-1.27-.71-.3-.27-.52-.56-.67-.86.05-.7.34-1.26.86-1.69.52-.42.84-.79.94-1.09l3-.3c1.7,0,3.32.15,4.88.45.4.05.91.24,1.54.56.62.33.99.51,1.09.56v.6c0,.3.19,1.98.56,5.03.38,3.05.34,4.8-.11,5.25.3.5.45,3.35.45,8.55s-.12,8.28-.38,9.22c0,.05-.01.11-.04.19-.03.08-.15.35-.38.83-.23.48-.24.84-.04,1.09.1.1.65.4,1.65.9.05.05.2.39.45,1.01.25.63.42.96.52,1.01Z"/>
  <path d="M302.15,122.36l-3.53-1.58.98-3.82c.2-.1.5-.42.9-.98.4-.55.68-.95.82-1.2.2-.4.41-1.45.64-3.15.22-1.7.34-2.92.34-3.67,0-.4-.14-1.08-.41-2.03-.28-.95-.41-1.66-.41-2.14s.12-.96.38-1.46c-.15-1.35-.47-3.38-.97-6.08.35-.4.56-1.09.64-2.06.08-.98-.19-1.97-.79-3-.6-1.02-1.4-1.51-2.4-1.46l-.82-3.45c-.3-.05-.66.04-1.09.26-.43.23-.89.94-1.39,2.14-.6.7-1.63,2.5-3.08,5.4-1.2.75-1.66,2.47-1.39,5.17.27,2.7.32,4.46.15,5.29-.18.83-.54,1.44-1.09,1.84.45,3,.6,5.65.45,7.95l-.07.07c0,.2.94.95,2.81,2.25,1.88,1.3,2.81,2.08,2.81,2.33l-.9,1.8c-.75.1-2.11.35-4.09.75-1.98.4-3.59.61-4.84.64-1.25.02-2.4-.04-3.45-.19-.25-.6-.9-.95-1.95-1.05,0-.3.05-.59.15-.86.1-.28.57-1.06,1.43-2.36.55-.15,1.16-.72,1.84-1.73.67-1,1.06-1.5,1.16-1.5.4-.45.7-2.02.9-4.72.05-.8-.03-1.95-.23-3.45-.2-1.5-.3-2.57-.3-3.22,0-.85.07-2.69.22-5.51.15-2.82.17-4.96.08-6.41-.2-1.6-.75-2.7-1.65-3.3-.15-.15-.51-.26-1.09-.34-.58-.08-.94-.16-1.09-.26-.85-.85-1.39-1.56-1.61-2.14-.23-.57-.16-1.09.19-1.54,2-1.15,3.47-1.73,4.42-1.73,1.25,0,2.15.1,2.7.3.3.15.98.6,2.02,1.35,1.05.75,1.92,1.12,2.62,1.12.95,0,2.44-.19,4.46-.56,2.03-.38,3.51-.56,4.46-.56.3,0,.89.3,1.76.9.87.6,1.84,1.38,2.89,2.33.35-.25,1.06-.65,2.14-1.2,1.08-.55,2.36-1.15,3.86-1.8,1.5-.65,2.52-1.02,3.07-1.12l3.3,1.88c.1.35.35.75.75,1.2.1.1.32.33.68.68.35.35.59.65.71.9.12.25.19.48.19.67,0,.55.3,1.12.9,1.73l.53,8.33c0,.5.12,1.29.38,2.36.25,1.08.38,1.89.38,2.44l-.3,2.85v5.85l.23,2.55c0,.9.75,2.53,2.25,4.88-.15.5-.63,1.17-1.43,2.03-.8.85-1.45,1.28-1.95,1.28-1.15,0-2.98-.18-5.48-.53-2.5-.35-4.32-.53-5.47-.53-2,0-3.15.01-3.45.04-.3.02-.58.06-.83.11-.2.05-.79.24-1.76.56-.97.32-1.74.49-2.29.49ZM311,118.83c.2-.05.57-.21,1.12-.49.55-.27.9-.44,1.05-.49l2.17-.45c.25-.05.47-.2.68-.45.2-.25.35-.83.45-1.73,0-.2.09-.56.26-1.09.17-.53.24-.94.19-1.24,0-.3-.11-.8-.34-1.5-.22-.7-.34-1.2-.34-1.5-.45-5.7-.07-9.8,1.12-12.3l-.3-4.58s.11-.32.34-.82c.22-.5.31-.85.26-1.05-.05-.15-.26-.4-.64-.75-.38-.35-.61-.62-.71-.82-.4-.75-.82-1.38-1.27-1.88-.45-.5-1.1-.77-1.95-.83-.7,0-1.86.7-3.49,2.1-1.63,1.4-2.76,2.53-3.41,3.38-.35,2.4-.85,4.35-1.5,5.85.05.3.25.73.6,1.27.35.55.55.98.6,1.27.15.3.12.84-.08,1.61-.2.78-.3,1.29-.3,1.54s.1.59.3,1.01c.2.43.28.81.23,1.16-.05.35-.19.88-.41,1.57-.22.7-.36,1.2-.41,1.5-.15,1-.24,2.05-.26,3.15-.03,1.1.09,2.03.34,2.78.1.1.34.21.71.34.38.13.64.26.79.41.1.1.25.4.45.9.2.5.42.83.68.98,1.5.85,2.52,1.23,3.07,1.12Z"/>
  <path d="M350,123.93c-1.15,0-2.34-.24-3.56-.71-1.23-.48-2.24-1.19-3.04-2.14-.25-.3-.45-.8-.6-1.5-.15-.7-.28-1.17-.38-1.43-.2-.4-.65-.99-1.35-1.76s-1.15-1.39-1.35-1.84c-.05-.1-.14-.54-.26-1.31-.12-.77-.24-1.21-.34-1.31,0-.1.01-.27.04-.53.02-.25.21-2.25.56-6,.35-3.75.46-6.61.34-8.59-.12-1.97-.44-3.04-.94-3.19-.05-.4-.25-1.31-.6-2.74-.35-1.43-.6-2.21-.75-2.36-.15-.2-.41-.36-.79-.49-.38-.12-1.12-.12-2.25,0-1.12.13-2.01.18-2.66.15-.65-.02-1.27-.12-1.88-.3-.6-.17-1.12-.39-1.58-.64.15-1,.56-1.8,1.24-2.4.67-.6,1.99-1.07,3.94-1.43,1.1-.2,2.27-.61,3.52-1.24,1.25-.62,1.95-1.34,2.1-2.14.1-.65.17-1.42.22-2.32.05-.9.05-2.12,0-3.68-.05-1.55-.08-2.57-.08-3.07.1-1.1.24-1.85.41-2.25.17-.4.46-.6.86-.6.1.1.26.2.49.3.22.1.39.13.49.08.1-.2.62-.3,1.58-.3.2,0,.39.06.56.19.17.12.32.34.45.64.12.3.2.69.22,1.16.02.48.02.96,0,1.46-.03.5-.04.8-.04.9,0,.65-.13,2.6-.38,5.85,0,.05-.05.35-.15.9-.1.55-.11.96-.04,1.24.08.28.21.41.41.41.4.35,1.01.78,1.84,1.27.83.5,1.31.8,1.46.9.6.4,1.19.7,1.76.9.57.2,1.35.23,2.33.08s1.71-.25,2.21-.3c2.2-.2,3.45,0,3.75.6l.67,1.5-.9,1.65c-.4.25-.91.41-1.54.49-.63.07-1.54.05-2.74-.08-1.2-.12-1.95-.19-2.25-.19-1.55,0-2.89.6-4.01,1.8-1.12,1.2-1.74,2.6-1.84,4.2l-.9.6c.05.15.19.36.41.64.22.28.34.49.34.64l-.53,1.58c-.15,1.05-.28,2.73-.38,5.02,0,1.2.1,2.84.3,4.91.2,2.08.59,4.03,1.16,5.85.57,1.83,1.25,3.16,2.02,4.01.77.85,1.59,1.28,2.44,1.28.45,0,1.25-.29,2.4-.86,1.15-.57,2.27-1.38,3.38-2.4,1.1-1.02,1.4-1.89.9-2.59.15-.2.29-.62.41-1.28.12-.65.26-1.1.41-1.35.15-.25.46-.57.94-.98.47-.4.79-.72.94-.97.9-1.4,1.51-2.26,1.84-2.59s.66-.57,1.01-.75c.35-.17.72-.21,1.12-.11.4.1.8.38,1.2.83.85.9,1.28,2.58,1.28,5.02,0,.6-.05,1.26-.15,1.99-.1.72-.25,1.26-.45,1.61-.2.35-.58.69-1.12,1.01-.55.33-.98.66-1.28,1.01-.05.1-.1.26-.15.49-.05.22-.1.52-.15.9-.05.38-.08.61-.08.71-.1.2-.31.4-.64.6-.33.2-.51.33-.56.38-.2.2-.4.45-.6.75-.2.3-.38.72-.53,1.28-.15.55-.28.92-.38,1.12-.2.45-1.6.86-4.2,1.24s-4.47.56-5.62.56Z"/>
  <path d="M394.1,120.48c-1.2,0-2.85-.15-4.95-.45v-.22c0-.15.15-.53.45-1.12s.4-1.02.3-1.28c-.1-.25-.33-.38-.67-.38s-.88.09-1.58.26c-.7.18-1.2.26-1.5.26-.1-.35-.4-1.06-.9-2.14-.5-1.07-.84-1.92-1.01-2.55-.18-.62-.26-1.16-.26-1.61s.5-1.3,1.5-2.55c1-1.25,1.7-1.88,2.1-1.88s.98.52,1.73,1.57c1.2-1.5,1.91-2.34,2.14-2.51.23-.17.45-.34.68-.49.22-.15.45-.25.67-.3.22-.05.44-.08.64-.08.3,0,1.2.53,2.7,1.58s2.5,1.8,3,2.25c.2,1,.24,2.58.11,4.73-.13,2.15-.19,3.33-.19,3.52s-.28.36-.83.49c-.55.13-.99.41-1.31.86-.33.45-.54,1.02-.64,1.72-.1-.15-.28-.3-.53-.45-.25-.15-.75-.2-1.5-.15.15.35.23.55.23.6s-.13.15-.38.3Z"/>
  <path d="M426.05,120.63c-.2-.5-.49-.8-.86-.9-.38-.1-.59-.25-.64-.45-.05-.2-.1-.38-.15-.52,0-.1-.01-.31-.04-.64-.03-.32.15-1.36.52-3.11.38-1.75-.04-3.2-1.24-4.35-.05-.25-.05-1.01,0-2.29.05-1.28-.08-2.11-.38-2.51.1-4.35.08-7.2-.08-8.55-.15-1.35-.35-2.47-.6-3.38l-.9-1.8c-.05-.35.05-.87.3-1.58.25-.7.38-1.2.38-1.5,0-.65-.18-1.46-.52-2.44-.35-.97-.83-1.49-1.42-1.54-.5-.55-1.41-1.02-2.74-1.43-1.33-.4-2.1-.71-2.32-.94-.23-.23-.35-.52-.38-.9s.14-.91.49-1.61c.55-.3,1.52-.59,2.92-.86,1.4-.27,2.97-.35,4.72-.23,1.75.13,2.95.56,3.6,1.31-.3,1.45-.48,3.14-.53,5.06-.05,1.93.15,3.41.6,4.46.2.3.17.96-.08,1.99-.25,1.03-.26,1.78-.04,2.25.23.48.74.79,1.54.94.45.1,1.04.38,1.76.83.72.45,1.14.7,1.24.75,1.1.55,1.92.25,2.47-.9.55-1.15.85-1.75.9-1.8.25-.4.44-1.16.56-2.29.12-1.12.29-1.91.49-2.36.3-.1.53-.36.67-.79.15-.42.05-1.36-.3-2.81-.35-1.45-.53-2.3-.53-2.55,0-.35.14-.83.41-1.43.27-.6.44-.95.49-1.05.65.05,1.69.29,3.11.71,1.42.43,2.51.64,3.26.64.2,0,.5-.11.9-.34.4-.22.7-.34.9-.34.35,0,.7.25,1.05.75.35.5.65,1.75.9,3.75.25,2,.47,3.18.67,3.52-.3.4-.66.96-1.09,1.69-.43.73-.74,1.34-.94,1.84-.25.1-.34.35-.26.75.08.4.29.88.64,1.42.15.25.26.48.34.67.08.2.26.71.56,1.54.3.83.66,1.34,1.09,1.54.42.2.84.31,1.24.34.4.03.67.04.83.04.4,0,.8-.2,1.2-.6.4-.4.71-1.01.94-1.84.22-.83.34-1.54.34-2.14,0-.55-.11-1.37-.34-2.47-.23-1.1-.34-1.9-.34-2.4l-.08-6.75c.05-.95.29-1.57.71-1.88.42-.3.91-.46,1.46-.49.55-.02,1.21.03,1.99.15.77.13,1.26.19,1.46.19.35.05.77-.11,1.28-.49.5-.38.77-.59.83-.64.95-.15,1.6-.38,1.95-.67.25.3.99.74,2.21,1.31,1.22.58,1.91,1.06,2.06,1.46.15.4.22.7.22.9,0,.25-.26.6-.79,1.05-.53.45-1.16.78-1.91.97-.25-.05-.7-.05-1.35,0-.65.05-1.3.36-1.95.94-.65.58-1,.86-1.05.86-.85.15-1.53.82-2.02,2.02-1.05,2.3-1.65,4.12-1.8,5.48-.1.6-.09,1.35.04,2.25.12.9.19,1.4.19,1.5-.05.85-.3,2.08-.75,3.67-.45,1.6-.7,2.75-.75,3.45-.05.75-.03,1.95.08,3.6.1,1.65.12,2.83.07,3.52-.05.35-.09,1.06-.11,2.14-.03,1.08-.09,1.89-.19,2.44l-.75,1.8c-.4,0-.71.15-.94.45-.22.3-.46.55-.71.75-.25.2-.78.38-1.58.53-.25-.1-.5-.23-.75-.38-.25-.15-.46-.38-.64-.68-.18-.3-.29-.5-.34-.6-.05-.1-.31-.4-.79-.9-.48-.5-.74-.82-.79-.97-.1-.4-.13-1.01-.08-1.84.05-.82-.05-1.39-.3-1.69,0-.1-.03-1.17-.08-3.22-.05-2.05-.2-3.38-.45-3.97-.15-.15-.29-.71-.41-1.69-.13-.98-.34-1.66-.64-2.06-.05-.6.05-1.96.3-4.09.25-2.12.12-3.66-.38-4.61-.55-1.05-.94-1.74-1.16-2.06-.23-.32-.48-.56-.75-.71-.28-.15-.61-.27-1.01-.38-.4-.1-1-.15-1.8-.15-.4,0-.89.21-1.46.64-.58.43-1.1,1.39-1.58,2.89-.48,1.5-.86,3.41-1.16,5.74s-.48,3.56-.53,3.71c-.2.15-.65,1.64-1.35,4.46-.7,2.83-1.15,4.74-1.35,5.74-.05.45-.15.86-.3,1.24-.15.38-.65,1.24-1.5,2.59-.15.1-.3.29-.45.56-.15.28-.3.71-.45,1.31-.15.6-.25.97-.3,1.12-.9-.2-1.8-.1-2.7.3Z"/>
  <path d="M469.62,122.81c-.1.05-.39.02-.86-.08-.48-.1-1.5-.52-3.08-1.27-1.57-.75-2.41-1.15-2.51-1.2-.9-.4-1.66-.84-2.29-1.31-.63-.47-1.09-1.09-1.39-1.84-.3-.75-.55-1.22-.75-1.42-.2-.25-.59-.61-1.16-1.09-.58-.47-.99-.89-1.24-1.24l-1.8-3c-.05-.2.01-.76.19-1.69.17-.92.15-1.64-.08-2.14-.23-.5-.56-.87-1.01-1.12l.3-10.2c.5-.25.89-.47,1.16-.68.27-.2.45-.38.52-.52s.12-.45.15-.9c.02-.45.11-.83.26-1.12.05,0,.11-.04.19-.11.07-.07.24-.56.49-1.46.25-.9.97-1.6,2.17-2.1.1-.05.4-.54.9-1.46.5-.92.82-1.46.97-1.61,1.35-1.55,3.53-2.93,6.53-4.12,1.75-.7,3.1-1.21,4.05-1.54.95-.32,1.88-.44,2.77-.34.15.05.61.33,1.39.82.77.5,1.19.78,1.24.83,1.4.75,2.64,1.44,3.71,2.06,1.07.63,2.1,1.5,3.08,2.62.97,1.12,2.14,2.29,3.49,3.49.2,1.65,1.12,3.7,2.78,6.15.1,3.4.15,5.32.15,5.77s-.03.9-.08,1.35c0,.25-.18,1.36-.52,3.34-.35,1.98-.35,3.61,0,4.91-.05.05-.21.16-.49.34-.28.18-.46.33-.56.45-.1.12-.18.24-.23.34-.05.2.05.49.3.86s.35.66.3.86c-.05.3-1,1.03-2.85,2.17-1.85,1.15-3.1,1.88-3.75,2.17-.65-.1-1.5.53-2.55,1.88-.9.15-2.14.51-3.71,1.09-1.57.57-3.21.96-4.91,1.16-.3.05-.54.2-.71.45-.18.25-.36.4-.56.45ZM466.4,116.73c1.5.85,3.51,1.21,6.04,1.09,2.52-.12,4.69-.89,6.49-2.29,1.8-1.4,2.72-3.07,2.77-5.02,0-.8.05-1.3.15-1.5.1-.2.35-.49.75-.86.4-.38.65-.69.75-.94.5-1,.84-2.35,1.01-4.05.17-1.7.14-3.51-.11-5.44-.25-1.92-.75-3.94-1.5-6.04-.75-2.1-1.79-3.72-3.11-4.88-1.33-1.15-2.69-1.72-4.09-1.72-1.65,0-3.75.48-6.3,1.42-2.55.95-4.68,1.99-6.38,3.11-1.7,1.12-2.88,2.16-3.52,3.11-.15.2-.31.56-.49,1.09-.18.52-.26,1.44-.26,2.74s-.13,2.16-.38,2.59c-.25.43-.53.74-.83.94,1.3,5.95,2.78,10.55,4.42,13.8.25.15.67.26,1.28.34.6.08,1.02.21,1.27.41.2.15.53.5.98,1.05.45.55.8.9,1.05,1.05Z"/>
  <path d="M499.32,119.88c-.3,0-.83-.1-1.58-.3-.75-.2-1.23-.3-1.42-.3-3.6.4-6.3.45-8.1.15-.35-.05-.58-.26-.67-.64-.1-.38-.33-.59-.68-.64-.7-.15-1.1-.32-1.2-.52h.07c0-.9.1-1.76.3-2.59.2-.83.59-1.5,1.16-2.02.57-.53,1.71-.8,3.41-.83,1.7-.02,2.79-.16,3.26-.41.47-.25.9-.57,1.28-.97.38-.4.69-1,.94-1.8.1-.15.22-.67.38-1.58.15-.9.25-2.49.3-4.76.05-2.27.09-4.54.11-6.79.02-2.25.02-4.35,0-6.3-.03-1.95-.04-3-.04-3.15,0-.2-.06-.39-.19-.56-.13-.17-.19-.31-.19-.41-.2-.1-.48-.31-.83-.64-.35-.32-.65-.54-.9-.64-1-.4-2.2-.79-3.6-1.16-1.4-.38-2.55-.49-3.45-.34-.05-.15-.12-.29-.22-.41-.1-.12-.5-.41-1.2-.86-.55-.35-.34-.9.64-1.65.97-.75,1.69-1.15,2.14-1.2,3.4,0,5.72.1,6.97.3.4.05,1.04.31,1.91.79.88.48,1.29.89,1.24,1.24-.15.6-.23,1.04-.23,1.31s.11.33.34.15c.22-.17.41-.36.56-.56.4.4.97.84,1.72,1.31.75.48,1.64.79,2.66.94,1.02.15,1.94.03,2.74-.38.2-.2.31-.39.34-.56.03-.17.16-.29.41-.34.2.15.44.26.71.34.27.08.46.04.56-.11.1-.1.09-.4-.04-.9-.12-.5-.11-.85.04-1.05.55-.7,1.47-1.27,2.78-1.73,1.3-.45,2.47-.7,3.53-.75.5,0,1.34-.15,2.51-.45,1.17-.3,2.04-.45,2.59-.45.3,0,1.29.61,2.96,1.84,1.67,1.23,2.64,1.99,2.89,2.29.15.65.25,1.45.3,2.4.05.95-.18,2.5-.68,4.65-.2.2-.55.21-1.05.04-.5-.17-.8-.26-.9-.26-.15,0-.38.3-.68.9-.3.35-.95.48-1.95.38-.4-.45-.86-1.58-1.39-3.38-.53-1.8-1.01-3.04-1.46-3.71-.45-.68-1.03-1.01-1.72-1.01-.55,0-1.83.46-3.83,1.39-2,.93-3.34,1.46-4.01,1.61s-1.12.16-1.35.04c-.23-.12-.36-.21-.41-.26-.1,0-.19.03-.26.08-.08.05-.13.21-.15.49-.03.28-.08.49-.15.64-.07.15-.19.28-.34.38-.15.1-.35.18-.6.23-.2.15-.29.3-.26.45.02.15-.11.28-.41.38-.6.15-1.33,1.23-2.17,3.23-.85,2-1.6,3.05-2.25,3.15l-.15,10.35c0,.55.12,1.33.38,2.33.25,1,.4,1.55.45,1.65-.2.45-.21.81-.04,1.09.17.28.65.46,1.42.56.77.1,1.26.25,1.46.45.3.3.67.98,1.12,2.03.45,1.05,1.62,1.55,3.52,1.5l1.65,1.5c.15.15.15.3,0,.45-.15.15-.2.25-.15.3.1.15.33.24.67.26s.65.34.9.94c-.1.45-.74.93-1.91,1.42-1.18.5-2.54.85-4.09,1.05-.45.1-1.15.1-2.1,0-.95-.1-1.6-.15-1.95-.15l-2.4.6Z"/>
  <path d="M529.4,122.73c-1,0-2.4-.29-4.2-.86-1.8-.58-2.95-.91-3.45-1.01l-.38-2.7c.6-.65,1.67-1.21,3.23-1.69,1.55-.47,3.42-.71,5.62-.71.5,0,1.22.15,2.17.45.95.3,1.67.45,2.17.45.35,0,.64-.09.86-.26.23-.17.59-.6,1.09-1.28.5-.67,1-1.06,1.5-1.16.2-.05.38-.2.53-.45.15-.25.22-1.02.22-2.33,0-1.5.08-6.09.22-13.76.15-7.67.2-14.01.15-19.01,0-.55-.14-1.62-.41-3.23-.28-1.6-.51-2.52-.71-2.77-.45-.6-1.1-1.16-1.95-1.69-.85-.52-1.6-.81-2.25-.86l-4.35,2.4c-.35.05-.84.13-1.46.23-.63.1-1.16.13-1.61.07-.45-.05-1.08-.25-1.88-.6,0-.25.12-.53.38-.83.25-.3.38-.52.38-.67,0-.1-.19-.57-.56-1.43-.38-.85.14-1.77,1.54-2.77.6.25,1.21.24,1.84-.04.62-.27,1.01-.41,1.16-.41.3,0,.7.13,1.2.38.5.25.87.38,1.12.38,1.15.1,2.84.09,5.06-.04,2.22-.12,3.64-.19,4.24-.19.25,0,.78.2,1.58.6.8.4,1.4.63,1.8.68-.1,1.05,0,1.68.3,1.88.3.2.45.4.45.6.05,1.05.01,2.64-.11,4.76-.12,2.13-.19,3.41-.19,3.86l-.52,17.92c-.05.05-.13.11-.23.19-.1.08-.36.26-.79.56-.43.3-.09.45,1.01.45l-.23,5.92c-.05.15-.15.33-.3.52-.15.2-.28.35-.38.45.55,1.2.85,2.17.9,2.92v1.31c0,.68.02,1.36.07,2.06.05.7.16,1.51.34,2.44.17.93.51,1.66,1.01,2.21.5.55,1.12.83,1.88.83.85,0,2.17-.11,3.97-.34,1.8-.22,3.12-.34,3.98-.34.8,0,1.59.2,2.36.6.77.4,1.25,1.09,1.42,2.06.17.97.01,2.01-.49,3.11-.9-.25-1.49-.36-1.76-.34-.28.02-.54.22-.79.6-.25.38-.6.66-1.05.86-.2.1-.74.12-1.61.08-.88-.05-2.85-.34-5.92-.86-3.08-.53-4.94-.79-5.59-.79-.3,0-.61.21-.94.64s-.56.66-.71.71c-1.2.3-3.3.41-6.3.34-3-.07-4.55-.11-4.65-.11Z"/>
  <path d="M591.12,121.46c-1.7,0-4.3-.28-7.8-.83-3.5-.55-6.1-.83-7.8-.83-.6,0-2.04.17-4.31.53-2.28.35-4.06.52-5.36.52s-2.38-.16-3.23-.49c-.85-.33-1.47-.81-1.88-1.46-.4-.65-1.14-1.59-2.21-2.81-1.08-1.22-1.81-2.19-2.21-2.89-1.25-2.3-1.8-7.28-1.65-14.93.05-.95.5-2.46,1.35-4.54.85-2.07,1.6-3.39,2.25-3.94.9.05,1.85.2,2.85.45-.15-.15-.29-.3-.41-.45-.12-.15-.21-.3-.26-.45s-.1-.35-.15-.6c-.05-.25-.08-.42-.08-.52l1.05-2.18c2.25-1.3,4.22-2.65,5.92-4.05,4.45.2,7.77.5,9.98.9.9,1.15,1.72,1.73,2.47,1.73,1.65,0,2.84-.45,3.56-1.35.72-.9,1.11-2.17,1.16-3.82.2-4.75-.15-7.58-1.05-8.48-.85-.85-2.17-1.37-3.97-1.58-1.8-.2-3-.5-3.6-.9-.4-.25-.58-.56-.52-.94.05-.38.35-.75.9-1.12.55-.38,1.05-.64,1.5-.79,3.95-1.3,7.8-.85,11.55,1.35-.05,1.9-.18,4.79-.38,8.66-.2,3.88-.33,6.64-.38,8.29-.15.25-.23.51-.23.79s.05.39.15.34c-.05.3.21.6.79.9.57.3.91.52,1.01.67.1.15.01.5-.26,1.05-.28.55-.41.93-.41,1.12.45,3.1.56,7.44.34,13.01-.22,5.58-.34,8.76-.34,9.56,0,.65.12,1.2.38,1.65.25.45.8.96,1.65,1.54.85.58,1.43,1.04,1.73,1.39,2.05.3,3.25.81,3.6,1.54.35.72.5,1.71.45,2.96-.2.05-1.08.23-2.62.53-1.55.3-2.73.45-3.53.45ZM571.47,117.11l2.25-.9c.35,0,.76-.06,1.24-.19.47-.12,1.12-.36,1.95-.71.83-.35,1.36-.57,1.61-.67.05-.6.15-1.02.3-1.28.15-.25.35-.39.6-.41.25-.02.41-.05.49-.08.08-.02.1-.17.08-.45-.03-.27-.11-.66-.26-1.16.15-.25.67-1.09,1.58-2.51.9-1.42,1.52-2.51,1.88-3.26.35-.75.52-1.32.52-1.72.05-.7-.05-1.95-.3-3.75-.25-1.8-.66-3.77-1.24-5.92-.58-2.15-1.19-3.5-1.84-4.05-3.6-3.4-5.98-5.1-7.12-5.1-.55,0-1.46.31-2.74.94-1.28.63-2.36.71-3.26.26-.2.4-.66.8-1.39,1.2-.72.4-1.19.7-1.39.9-.1.8-1.1,2.08-3,3.82-.2.2-.55,1.43-1.05,3.68s-.85,4.25-1.05,6c.55,1.25.95,3.19,1.2,5.81.25,2.62.42,4.19.53,4.69.55,0,1.36.29,2.44.86,1.07.58,2.06,1.34,2.96,2.29.15-.3.51-.47,1.09-.53.57-.05,1.21.1,1.91.45.1.05.4.38.9.97.5.6.87.88,1.12.83Z"/>
  <path d="M2,132.26v-3.75h30.37v3.75H2Z"/>
  <path d="M32.37,132.26v-3.75h27.52v3.75h-27.52Z"/>
  <path d="M59.9,132.26v-3.75h30.37v3.75h-30.37Z"/>
  <path d="M90.27,132.26v-3.75h64.5v3.75h-64.5Z"/>
  <path d="M154.77,132.26v-3.75h79.87v3.75h-79.87Z"/>
  <path d="M234.65,132.26v-3.75h181.5v3.75h-181.5Z"/>
  <path d="M416.15,132.26v-3.75h181.88v3.75h-181.88Z"/>
</svg>