<?xml version="1.0" encoding="UTF-8" standalone="no"?>
<svg
   id="Layer_1"
   viewBox="0 0 600 200"
   version="1.1"
   sodipodi:docname="logo-chandler_lite.svg"
   inkscape:version="1.4 (e7c3feb100, 2024-10-09)"
   xmlns:inkscape="http://www.inkscape.org/namespaces/inkscape"
   xmlns:sodipodi="http://sodipodi.sourceforge.net/DTD/sodipodi-0.dtd"
   xmlns="http://www.w3.org/2000/svg"
   xmlns:svg="http://www.w3.org/2000/svg">
  <sodipodi:namedview
     id="namedview24"
     pagecolor="#ffffff"
     bordercolor="#000000"
     borderopacity="0.25"
     inkscape:showpageshadow="2"
     inkscape:pageopacity="0.0"
     inkscape:pagecheckerboard="0"
     inkscape:deskcolor="#d1d1d1"
     inkscape:zoom="2.8036784"
     inkscape:cx="315.65675"
     inkscape:cy="102.00885"
     inkscape:window-width="2538"
     inkscape:window-height="1384"
     inkscape:window-x="10"
     inkscape:window-y="49"
     inkscape:window-maximized="1"
     inkscape:current-layer="Layer_1" />
  <defs
     id="defs1">
    <style
       id="style1">
      .cls-1 {
        fill: none;
      }
    </style>
  </defs>
  <rect
     class="cls-1"
     x="2"
     y="64.93"
     width="598"
     height="70.13"
     id="rect1" />
  <path
     d="M35.38,119.83c-.8,0-2.04-.28-3.71-.83-1.68-.55-2.79-1.08-3.34-1.58-.35-.3-.6-.95-.75-1.95-.05-.5.06-.99.34-1.46.27-.47,1.15-1.24,2.62-2.29,1.47-1.05,2.21-2.12,2.21-3.23l.08-7.05c0-.65.57-2.27,1.72-4.87,0-.55-.2-1.36-.6-2.44-.4-1.07-.63-1.81-.68-2.21-.05-.25-.07-1.51-.07-3.79s-.18-3.59-.53-3.94c-.2-.25-.7-.2-1.5.15-.8.35-1.3.52-1.5.52-.6,0-1.55-.2-2.85-.6-1.3-.4-2.23-.6-2.78-.6-2.5,0-4.03.28-4.57.83-.45.45-1.35.76-2.7.94-1.35.18-2.25.54-2.7,1.09-.45.6-.76,1.9-.94,3.9-.18,2-.36,3.28-.56,3.83-.25.65-.44,1.61-.56,2.89-.13,1.27-.16,2.36-.11,3.26.05,1,.2,2.71.45,5.14.25,2.43.38,4.01.38,4.76,0,.4.09.83.26,1.28.17.45.69.94,1.54,1.46.85.52,1.39,1.04,1.61,1.54.22.5.31,1.08.26,1.72,0,.3-.14.5-.41.6-.28.1-.78.1-1.5,0-.73-.1-1.16-.13-1.31-.08-.35,0-.94.14-1.76.41-.83.27-1.41.41-1.76.41-2.05.1-3.58.06-4.57-.11-1-.18-1.69-.49-2.06-.94-.38-.45-.56-.95-.56-1.5,0-1.15.8-2.25,2.4-3.3.2-.15.54-.25,1.01-.3.47-.05.81-.15,1.01-.3.45-.35.7-1.25.75-2.7.05-1.45.12-2.33.23-2.62.05-.25.39-1.09,1.01-2.51.62-1.42.94-2.51.94-3.26l.08-14.85s-.01-.36-.04-.94c-.03-.57-.03-1.09,0-1.54.02-.45.09-.86.19-1.24.1-.38.26-.56.49-.56s.46.07.71.23c.85.6,2.15,1.26,3.9,1.99,1.75.73,2.92.96,3.52.71.35-.15.8-.46,1.35-.94.55-.47,1-.79,1.35-.94,2.9-1.4,5.3-2.07,7.2-2.02.65.05,1.62.36,2.93.94,1.3.58,2.61,1.48,3.94,2.7,1.32,1.23,1.99,2.34,1.99,3.34v.15c0,.05-.04.9-.11,2.55-.08,1.65-.08,3.01,0,4.09.07,1.08.19,1.76.34,2.06.1.2.36.56.79,1.09.42.52.64.94.64,1.24l-.15,8.62c-.05,1.4.62,2.79,2.02,4.16,1.4,1.38,2.2,2.34,2.4,2.89.2.55.3,1,.3,1.35,0,.9-.39,1.76-1.16,2.59-.78.83-1.54,1.36-2.29,1.61-.25.05-1.03.14-2.32.26-1.3.12-2.13.19-2.48.19ZM11,76.93c-.4-.2-.74-1.26-1.01-3.19-.28-1.92-.44-2.96-.49-3.11-.1-.25-.33-.62-.67-1.12-.35-.5-1.06-1.07-2.14-1.73-1.08-.65-1.71-1.16-1.91-1.54-.2-.38-.3-.69-.3-.94,0-.65.35-1.19,1.05-1.61.7-.42,1.7-.61,3-.56.25.05.56.28.94.67.38.4.59.6.64.6s.23-.2.52-.6c.3-.4.6-.6.9-.6.7,0,1.46.19,2.29.56s1.42.84,1.8,1.39c.38.55.56,1.08.56,1.58,0,.6-.34,1.05-1.01,1.35-.68.3-1.04.48-1.09.52-.2.2-.39.48-.56.82-.18.35-.35.84-.53,1.46-.18.63-.29,1.01-.34,1.16-.1.25-.23,1.03-.38,2.33-.15,1.3-.58,2.15-1.27,2.55Z"
     id="path1"
     style="fill:#fffff8;fill-opacity:1" />
  <path
     d="M57.8,118.63c-1,0-2.02-.38-3.07-1.12l-1.58-.08-.07-.07c-1-.05-2.21-.95-3.64-2.7-1.42-1.75-2.26-3.17-2.51-4.28-.05-.2.05-1,.3-2.4.05-.2.09-.47.11-.83.02-.35-.04-1.29-.19-2.81-.15-1.52-.15-2.49,0-2.89v-.15l.45-1.12c.45-.9.65-1.82.6-2.77-.1-1.2,0-2.95.3-5.25l-.23-.67v-.08l-.3-.75-.6-1.65c-.5-1.1-1.09-2.06-1.76-2.89-.67-.82-1.39-1.44-2.14-1.84l-4.8.83-.45-.08-.15-.07c-.65-.45-1.1-.85-1.35-1.2,0-1.5,1.47-2,4.42-1.5l.98-.45c3.55-1.8,5.5-4.17,5.85-7.12-.4-2.6-.45-4.59-.15-5.96.3-1.37.85-2.46,1.65-3.26l.75.52c.25.2.57.6.98,1.2.3.6.45.98.45,1.12-.85,2.6-1.35,5.25-1.5,7.95.05,1.2.32,1.88.83,2.02.4.65.98,1.25,1.73,1.8.75.55,1.25,1.08,1.5,1.57.2-.3.6-.34,1.2-.11s.98.31,1.12.26c.85-.2,2.04-.36,3.56-.49,1.52-.12,2.82-.12,3.9,0,1.07.13,1.61.49,1.61,1.09-.6.6-1.27,1.05-2.02,1.35l-.6.23-.38.15c-.75.15-1.5.23-2.25.23h-1.43l-.82-.15-2.1-.38-.98,1.2c-.85,0-1.55.23-2.1.68-.55.45-1.05,1.29-1.5,2.51-.45,1.23-.63,3.44-.52,6.64.1,3.2.1,5.05,0,5.55l-.38,2.1-.07,2.7-.08,1.88,1.35,1.5c.1.55.3,1.23.6,2.03l.67,1.27c.25.45.62.93,1.12,1.42,1.15,1.15,2.48,1.73,3.98,1.73,2.25,0,4.32-1.32,6.23-3.98.05-.1.14-.34.26-.71.12-.38.21-.66.26-.86l.45-1.2.9-1.88,1.42-2.25c.4-.6.7-1.28.9-2.03,1.1-.65,1.96-1,2.59-1.05.62-.05,1.21.38,1.76,1.28.05.85.34,1.78.86,2.77.53,1,.81,1.81.86,2.44.05.63-.08,1.31-.38,2.06l-.3.3-1.35,1.8c-1.4,1.85-2.35,3.05-2.85,3.6-1,1-1.88,1.67-2.62,2.03-1.65.7-3.78.97-6.38.82-.95.3-1.93.45-2.93.45Z"
     id="path2"
     style="fill:#fffff8;fill-opacity:1" />
  <path
     d="M85.32,118.63c-1,0-2.02-.38-3.07-1.12l-1.58-.08-.07-.07c-1-.05-2.21-.95-3.64-2.7-1.42-1.75-2.26-3.17-2.51-4.28-.05-.2.05-1,.3-2.4.05-.2.09-.47.11-.83.02-.35-.04-1.29-.19-2.81-.15-1.52-.15-2.49,0-2.89v-.15l.45-1.12c.45-.9.65-1.82.6-2.77-.1-1.2,0-2.95.3-5.25l-.23-.67v-.08l-.3-.75-.6-1.65c-.5-1.1-1.09-2.06-1.76-2.89-.67-.82-1.39-1.44-2.14-1.84l-4.8.83-.45-.08-.15-.07c-.65-.45-1.1-.85-1.35-1.2,0-1.5,1.47-2,4.42-1.5l.98-.45c3.55-1.8,5.5-4.17,5.85-7.12-.4-2.6-.45-4.59-.15-5.96.3-1.37.85-2.46,1.65-3.26l.75.52c.25.2.57.6.98,1.2.3.6.45.98.45,1.12-.85,2.6-1.35,5.25-1.5,7.95.05,1.2.32,1.88.83,2.02.4.65.98,1.25,1.73,1.8.75.55,1.25,1.08,1.5,1.57.2-.3.6-.34,1.2-.11s.98.31,1.12.26c.85-.2,2.04-.36,3.56-.49,1.52-.12,2.82-.12,3.9,0,1.07.13,1.61.49,1.61,1.09-.6.6-1.27,1.05-2.02,1.35l-.6.23-.38.15c-.75.15-1.5.23-2.25.23h-1.43l-.82-.15-2.1-.38-.98,1.2c-.85,0-1.55.23-2.1.68-.55.45-1.05,1.29-1.5,2.51-.45,1.23-.63,3.44-.52,6.64.1,3.2.1,5.05,0,5.55l-.38,2.1-.07,2.7-.08,1.88,1.35,1.5c.1.55.3,1.23.6,2.03l.67,1.27c.25.45.62.93,1.12,1.42,1.15,1.15,2.48,1.73,3.98,1.73,2.25,0,4.32-1.32,6.23-3.98.05-.1.14-.34.26-.71.12-.38.21-.66.26-.86l.45-1.2.9-1.88,1.42-2.25c.4-.6.7-1.28.9-2.03,1.1-.65,1.96-1,2.59-1.05.62-.05,1.21.38,1.76,1.28.05.85.34,1.78.86,2.77.53,1,.81,1.81.86,2.44.05.63-.08,1.31-.38,2.06l-.3.3-1.35,1.8c-1.4,1.85-2.35,3.05-2.85,3.6-1,1-1.88,1.67-2.62,2.03-1.65.7-3.78.97-6.38.82-.95.3-1.93.45-2.93.45Z"
     id="path3"
     style="fill:#fffff8;fill-opacity:1" />
  <path
     d="M107.97,133.56c-.4,0-1.03-.07-1.88-.22-.85-.15-1.45-.22-1.8-.22h-.38c-.2,0-1.25.02-3.15.07-1.9.05-3.26.08-4.09.08s-1.71-.04-2.66-.11c-.95-.08-1.76-.19-2.44-.34-.67-.15-1.16-.38-1.46-.67l-.3-.83c0-.3.13-.59.38-.86.25-.28,1.02-.51,2.33-.71,1.55-.2,2.7-.41,3.45-.64.75-.23,1.32-.55,1.72-.98.4-.42.65-.74.75-.94.15-.25.27-1.09.38-2.51.1-1.43.16-3.25.19-5.48.02-2.23.04-4.09.04-5.59s-.01-2.72-.04-3.68c-.03-.95-.04-2.12-.04-3.52,0-.85.11-2.3.34-4.35.23-2.05.34-3.57.34-4.57,0-.4-.11-1.01-.34-1.84-.23-.83-.34-1.44-.34-1.84-.05-1.25-.01-3.14.11-5.66.12-2.52.19-4.06.19-4.61,0-.2.05-.66.15-1.39.1-.72-.01-1.29-.34-1.69-.33-.4-.91-.77-1.76-1.12,1-.2,1.67-.27,2.03-.23.35.05.59.25.71.6.12.35.21.63.26.82.05.3.26.69.64,1.16.38.48.59.81.64,1.01.3.75.62,1.14.97,1.16.35.03.65.16.9.41-.2.5-.41,1.14-.64,1.91-.23.78-.4,1.7-.52,2.77-.13,1.08-.25,2.23-.38,3.45-.13,1.23-.19,1.91-.19,2.06,0,.2-.14.66-.41,1.39-.28.73-.34,1.29-.19,1.69.05.15.21.4.49.75.27.35.44.68.49.98,0,.25-.08.65-.23,1.2-.15.55-.2.95-.15,1.2.15.8.59,1.94,1.31,3.41.72,1.48,1.79,2.98,3.19,4.5,1.4,1.53,2.7,2.41,3.9,2.66,1.85.35,3.65.35,5.4,0,2.05.5,3.68.4,4.88-.3.75-.4,1.62-1.26,2.62-2.59,1-1.32,2.07-3.19,3.23-5.59,1.15-2.4,1.75-4.4,1.8-6,0-.55-.14-1-.41-1.35-.28-.35-.44-.62-.49-.82-.1-.3-.04-.79.19-1.46.23-.68.34-1.11.34-1.31,0-.25-.16-.66-.49-1.24-.33-.57-.49-.99-.49-1.24,0-.15.06-.5.19-1.05.12-.55.14-.97.04-1.27l-2.92-5.77c.15.1.47.26.98.49.5.23.85.41,1.05.56.45.45,1.24,1.68,2.36,3.68,1.12,2,1.71,3.23,1.76,3.67,0,.3-.07.78-.23,1.43-.15.65-.2,1.12-.15,1.42.05.25.2.56.45.94.25.38.4.66.45.86.35,1,.41,2.55.19,4.65-.22,2.1-.34,3.37-.34,3.82,0,.1.04.41.11.94.07.52.09.86.04,1.01-.5,1.35-1.18,2.51-2.02,3.49-.85.97-1.78,1.83-2.77,2.55-1,.73-1.88,1.34-2.62,1.84-.1.1-.39.34-.86.71-.48.38-.84.64-1.09.79-.1.05-.34.03-.71-.08-.38-.1-.61-.15-.71-.15-.7-.05-1.73.1-3.08.45-1.35.35-2.23.55-2.62.6l-3.45-1.5c-.25-.1-.69-.17-1.31-.22-.63-.05-1.06-.15-1.31-.3-.35-.2-.99-.84-1.91-1.91-.93-1.07-1.79-1.61-2.59-1.61-.35,0-.7.16-1.05.49-.35.33-.64.93-.86,1.8s-.34,1.9-.34,3.07.02,2.3.07,3.38c.05,1.08.08,1.64.08,1.69.05.45.04,1.11-.04,1.99-.07.87-.11,1.46-.11,1.76-.1,1.85.4,3.1,1.5,3.75,1.4.8,2.25,1.2,2.55,1.2.3.05.91.04,1.84-.04.92-.08,1.67.01,2.25.26.57.25.84.92.79,2.02,0,.45-.28.86-.82,1.24-.55.38-1.05.56-1.5.56Z"
     id="path4"
     style="fill:#fffff8;fill-opacity:1" />
  <path
     d="M144.65,115.63l-1.5-.83c-.65-.25-1.54-.49-2.66-.71-1.12-.23-1.91-.29-2.36-.19-.35.05-.96.26-1.84.64-.88.38-1.66.54-2.36.49-.35,0-.93-.17-1.73-.53-.8-.35-1.64-.87-2.51-1.58-.88-.7-1.36-1.32-1.46-1.88-.05-.5.01-1.25.19-2.25.17-1,.26-1.7.26-2.1,0-.1-.05-.65-.15-1.65-.1-1-.09-1.91.04-2.74.12-.83.51-1.24,1.16-1.24.45,0,.85.11,1.2.34.35.22.54.71.56,1.46.02.75.04,1.15.04,1.2.05.8.47,1.71,1.27,2.74.8,1.03,1.96,2.04,3.49,3.04,1.52,1,2.86,1.62,4.01,1.88,1.15.25,2.72.38,4.73.38s3.62-.12,4.88-.38c1.3-.25,2.36-.96,3.19-2.14s1.31-2.46,1.46-3.86c0-.15.06-.5.19-1.05.12-.55.17-.99.15-1.31-.03-.32-.06-.61-.11-.86-.15-.5-.63-1.09-1.42-1.76-.8-.67-1.28-1.24-1.43-1.69-.35-1-.7-1.79-1.05-2.36-.35-.57-.95-1.01-1.8-1.31-1.2-.45-1.93-.76-2.17-.94-.25-.17-.45-.34-.6-.49.35-.25.91-.42,1.69-.53.77-.1,1.44-.1,1.99,0,1.7.05,2.7.13,3,.23.95.3,2.17,1.12,3.67,2.48s2.61,2.62,3.34,3.83c.72,1.2,1.09,2.15,1.09,2.85,0,.3-.07.61-.22.94-.15.33-.41.74-.79,1.24s-.61.85-.71,1.05c-.2.35-.34.96-.41,1.84-.08.88-.24,1.51-.49,1.91-.6.95-1.54,1.88-2.81,2.77-1.27.9-2.44,1.4-3.49,1.5h-.94c-.48,0-.84.03-1.09.08-.35.1-1.05.41-2.1.94-1.05.53-1.83.76-2.33.71-.5-.05-.85-.1-1.05-.15ZM140,92.83l-.23-.45c-.15-.35-.34-.45-.56-.3-.23.15-.39.24-.49.26-.1.03-.2.04-.3.04-1-.15-2.13-.44-3.38-.86-1.25-.42-2.17-.94-2.77-1.54-.55-.55-.96-1.3-1.24-2.25-.28-.95-.39-2.3-.34-4.05,0-1.15.04-2.07.11-2.77.07-.7.29-1.27.64-1.73.45-.55,1.54-1.25,3.26-2.1,1.73-.85,3.81-1.7,6.26-2.55.55,0,1.37.21,2.47.64,1.1.43,1.9.66,2.4.71.45.05,1.09-.01,1.91-.19.83-.17,1.44-.26,1.84-.26.5,0,1.26.21,2.29.64,1.02.43,1.76.64,2.21.64.3,0,.82-.14,1.57-.41.75-.27,1.32-.39,1.73-.34.7.05,1.22.64,1.58,1.76.35,1.12.4,2.25.15,3.38-.25,1.12-.63,1.69-1.12,1.69-.4,0-1.4-.65-3-1.95-1.6-1.3-2.81-2.14-3.64-2.51-.82-.38-1.51-.56-2.06-.56-.9-.05-1.7.06-2.4.34-.7.28-1.58.91-2.62,1.91-1.05,1-1.88,1.65-2.48,1.95-.25.15-.7.26-1.35.34-.65.07-1.1.16-1.35.26-.65.3-1.18.75-1.58,1.35-.4.6-.59,1.2-.56,1.8.02.6.16,1.1.41,1.5l1.8,1.95c.2.25.4.54.6.86.2.33.45.81.75,1.46.3.65.5,1.05.6,1.2-.25.1-.63.15-1.12.15Z"
     id="path5"
     style="fill:#fffff8;fill-opacity:1" />
  <path
     d="M175.47,116.53c-.3-.05-.93-.49-1.88-1.31-.95-.83-1.8-1.49-2.55-1.99,0-.15-.15-.99-.45-2.51-.3-1.52-.38-2.69-.23-3.49,1-.6,1.7-1.04,2.1-1.31.4-.27.67-.55.82-.83.15-.27.23-.46.23-.56,1.9-.8,3.4-1.2,4.5-1.2,0,.2.04.4.11.6.08.2.2.35.38.45.17.1.69.16,1.54.19.85.03,1.32.41,1.43,1.16,0,.15.04.39.11.71.08.33.36.59.86.79.5.2.8.33.9.38.25.1.49.91.71,2.44s.29,2.49.19,2.89c-.15,1-1.38,1.9-3.68,2.7-2.3.8-4,1.1-5.1.9ZM175.92,92.31c-.1-.05-.21-.45-.34-1.2-.13-.75-.74-1.22-1.84-1.43-.05-.05-.21-.22-.49-.52-.28-.3-.5-.51-.67-.64-.18-.12-.34-.19-.49-.19-.05-.35-.28-1.07-.68-2.18-.4-1.1-.6-1.77-.6-2.02.25-.3.54-.8.86-1.5.32-.7.56-1.17.71-1.42.4-.6,1.32-1.06,2.77-1.39,1.45-.32,2.74-.32,3.86,0,1.12.33,1.94.86,2.44,1.61.25.4.47.78.67,1.12.2.35.29.5.26.45-.03-.05.49.4,1.54,1.35-.35.4-.63,1.1-.82,2.1-.2,1-.34,1.66-.41,1.99-.08.33-.21.6-.41.83-.2.22-.48.34-.82.34-.25,0-.75.45-1.5,1.35-.35.3-1.7.75-4.05,1.35Z"
     id="path6"
     style="fill:#fffff8;fill-opacity:1" />
  <path
     d="M184.7,131.23l.08-.15c-.05-.2-.1-.4-.15-.6-.05-.2-.11-.36-.19-.49-.08-.12-.2-.34-.38-.64-.18-.3-.16-1.2.04-2.7.05,0,.11.01.19.04.07.02.27.09.6.19.32.1.5.15.53.15.02,0-.01-.04-.11-.11-.1-.08-.19-.15-.26-.23-.08-.08-.15-.15-.23-.22-.08-.08-.14-.18-.19-.3-.05-.13-.1-.26-.15-.41l2.7-5.55c.65-1.25,1.19-2.46,1.61-3.64.42-1.17.84-2.14,1.24-2.89.35-.7.9-2,1.65-3.9.75-1.9,1.37-3.33,1.88-4.28.3-.55.86-1.32,1.69-2.33.83-1,1.39-1.77,1.69-2.32.4-.7.86-1.94,1.39-3.71.52-1.77.94-2.99,1.24-3.64.5-1.05,1.47-2.71,2.93-4.99,1.45-2.27,2.45-4.06,3-5.36.5-1.15,1.6-4.07,3.3-8.77,1.7-4.7,3.3-8.2,4.8-10.5.1-.15.3-.49.6-1.01.3-.52.68-1.39,1.12-2.59.45-1.2.72-1.95.83-2.25.3-.7.67-1.26,1.12-1.69.45-.42.8-.47,1.05-.15.25.33.17,1.06-.23,2.21-.55,1.55-.73,3.65-.52,6.3-.45.95-1.35,2.44-2.7,4.46-1.35,2.02-2.28,3.61-2.78,4.76-.8.85-1.24,2.2-1.31,4.05-.07,1.85-.2,3.05-.38,3.6-.18.55-.34.93-.49,1.12-.15.25-.49.56-1.01.94-.52.38-.89.76-1.09,1.16-.5.95-.82,2.1-.98,3.45-.15,1.35-.3,2.3-.45,2.85-.15.6-.76,1.59-1.84,2.96-1.08,1.38-1.74,2.34-1.99,2.89-.75,1.4-1.48,3.22-2.17,5.47-.7,2.1-2.19,5.15-4.46,9.15-2.28,4-3.74,7.12-4.39,9.38-.1.4-.19,1.06-.26,1.99-.07.92-.16,1.59-.26,1.99-.3,1.1-1.1,2.24-2.4,3.41-1.3,1.17-2.6,2.14-3.9,2.89Z"
     id="path7"
     style="fill:#fffff8;fill-opacity:1" />
  <path
     d="M211.32,131.23l.08-.15c-.05-.2-.1-.4-.15-.6-.05-.2-.11-.36-.19-.49-.08-.12-.2-.34-.38-.64-.18-.3-.16-1.2.04-2.7.05,0,.11.01.19.04.07.02.27.09.6.19.32.1.5.15.53.15.02,0-.01-.04-.11-.11-.1-.08-.19-.15-.26-.23-.08-.08-.15-.15-.23-.22-.08-.08-.14-.18-.19-.3-.05-.13-.1-.26-.15-.41l2.7-5.55c.65-1.25,1.19-2.46,1.61-3.64.42-1.17.84-2.14,1.24-2.89.35-.7.9-2,1.65-3.9.75-1.9,1.37-3.33,1.88-4.28.3-.55.86-1.32,1.69-2.33.83-1,1.39-1.77,1.69-2.32.4-.7.86-1.94,1.39-3.71.52-1.77.94-2.99,1.24-3.64.5-1.05,1.47-2.71,2.93-4.99,1.45-2.27,2.45-4.06,3-5.36.5-1.15,1.6-4.07,3.3-8.77,1.7-4.7,3.3-8.2,4.8-10.5.1-.15.3-.49.6-1.01.3-.52.68-1.39,1.12-2.59.45-1.2.72-1.95.83-2.25.3-.7.67-1.26,1.12-1.69.45-.42.8-.47,1.05-.15.25.33.17,1.06-.23,2.21-.55,1.55-.73,3.65-.52,6.3-.45.95-1.35,2.44-2.7,4.46-1.35,2.02-2.28,3.61-2.78,4.76-.8.85-1.24,2.2-1.31,4.05-.07,1.85-.2,3.05-.38,3.6-.18.55-.34.93-.49,1.12-.15.25-.49.56-1.01.94-.52.38-.89.76-1.09,1.16-.5.95-.82,2.1-.98,3.45-.15,1.35-.3,2.3-.45,2.85-.15.6-.76,1.59-1.84,2.96-1.08,1.38-1.74,2.34-1.99,2.89-.75,1.4-1.48,3.22-2.17,5.47-.7,2.1-2.19,5.15-4.46,9.15-2.28,4-3.74,7.12-4.39,9.38-.1.4-.19,1.06-.26,1.99-.07.92-.16,1.59-.26,1.99-.3,1.1-1.1,2.24-2.4,3.41-1.3,1.17-2.6,2.14-3.9,2.89Z"
     id="path8"
     style="fill:#fffff8;fill-opacity:1" />
  <path
     d="M273.72,117.73c-.55,0-1.18-.1-1.88-.3-.45-.15-1.15-.54-2.1-1.16-.95-.62-1.78-.99-2.48-1.09-1.35-.25-3.15.05-5.4.9-.3.1-.81.2-1.54.3-.73.1-1.21.17-1.46.23-2.5.6-4.61.92-6.34.97-1.73.05-2.94-.15-3.64-.6-.05-.05-.2-.21-.45-.49-.25-.28-.66-1-1.24-2.17-.58-1.17-.91-1.84-1.01-1.99-.15-.3-.49-.6-1.01-.9-.52-.3-.85-.56-.98-.79-.13-.22-.19-.56-.19-1.01,0-.05.01-.1.04-.15.02-.05.19-.09.49-.11.3-.02.45-.81.45-2.36v-2.47l.07-5.17.15-7.73c0-1.05-.03-1.7-.08-1.95-.05-.25-.14-.38-.26-.38s-.21-.05-.26-.15c-.05-.1-.09-.2-.11-.3-.03-.1-.19-.85-.49-2.25-.3-1.4-1.03-2.12-2.17-2.18h-.83c-.35,0-.8.23-1.35.68-.6,0-1.36-.17-2.29-.52-.93-.35-1.39-.85-1.39-1.5,0-.45.47-1.73,1.42-3.83.25-.15.65-.25,1.2-.3.55-.05,1.3-.01,2.25.11.95.13,1.52.19,1.73.19-.05-.4.07-.67.38-.83.3-.15.87,0,1.72.45.5.3,1.07.74,1.73,1.31.65.58,1.2,1.11,1.65,1.61.6.85.9,1.48.9,1.88v.9l-.08,4.27v2.32l-.08,1.58-.07,3.98v2.92l-.08,1.72v1.28l-.07,3.9c0,.5.19,1.14.56,1.91.38.78.99,1.6,1.84,2.47.85.88,1.62,1.51,2.32,1.91l1.43.38s.26.19.64.56.74.56,1.09.56c.15,0,.45-.04.9-.11.45-.07.99-.41,1.61-1.01.62-.6,1.04-.98,1.24-1.12.5-.4,1.22-.62,2.17-.68.95-.05,1.5-.12,1.65-.22.15-.1.41-.5.79-1.2.38-.7.61-1.12.71-1.27,1.6-1.9,2.57-3.45,2.93-4.65,1.3-4.55,1.72-8.42,1.27-11.62-.1-.85-.25-1.73-.45-2.62l-.6-2.1c-.15-.55-.35-1.05-.6-1.5-.55-.85-1.3-1.37-2.25-1.58-.25-.1-.64-.09-1.16.04-.52.13-.89.19-1.09.19l-1.28-.45-.45-.22c-.95-.65-1.4-1.52-1.35-2.62,0-.4.16-.8.49-1.2.32-.4.66-.62,1.01-.67.25-.1.64.06,1.16.49.52.43.96.64,1.31.64.3.05,1.21.04,2.74-.04,1.52-.08,2.6.01,3.23.26.62.25,1.07.6,1.35,1.05.27.45.31,1.15.11,2.1-.35.55-.59,1.48-.71,2.77-.13,1.3-.08,2.29.15,2.96s.56,1.01,1.01,1.01c-.5,4.6-.75,8-.75,10.2,0,.3-.1.75-.3,1.35-.2.6-.3,1.03-.3,1.28-.15,1.3-.03,2.5.38,3.6.9,2.5,3.2,4.42,6.9,5.78.15,0,.45.45.9,1.35l.38,1.05c0,.7-.52,1.26-1.57,1.69-1.05.42-2.48.59-4.27.49Z"
     id="path9"
     style="fill:#fffff8;fill-opacity:1" />
  <path
     d="M322.62,118.26c-1.05-.25-2.62-.48-4.72-.67-2.1-.2-3.43-.35-3.97-.45-.15-.05-.46.01-.94.19-.48.17-.91.19-1.31.04-.4-.15-.8-.4-1.2-.75-.3.25-1.04.4-2.21.45-1.17.05-2.43.05-3.75,0s-2.09-.07-2.29-.07c-1.2,0-2.02-.14-2.47-.41-.45-.28-.68-.69-.68-1.24,0-.35.51-1,1.54-1.95,1.02-.95,1.61-1.5,1.76-1.65.55-.85.88-2.78.97-5.78s.04-5.66-.19-7.99c-.22-2.32-.59-3.81-1.09-4.46l-.07-4.8c0-.75-.21-1.41-.64-1.99-.43-.57-1.15-.85-2.18-.82-1.03.03-2.24.48-3.64,1.35-1.4.88-2.68,2.33-3.82,4.35-1.15,2.02-1.73,4.31-1.73,6.86,0,.55.2,1.41.6,2.59.4,1.17.6,2.04.6,2.59,0,.35-.09,1.04-.26,2.06-.18,1.03-.24,1.81-.19,2.36.1.85.77,2.21,2.02,4.09,1.25,1.88,1.88,3.01,1.88,3.41s-.19.8-.56,1.2c-.38.4-.79.7-1.24.9h-1.65c-.85,0-1.5.05-1.95.15-.05,0-.13.01-.23.04-.1.02-.66.15-1.69.38-1.03.22-1.96.32-2.81.3-.85-.03-1.58-.26-2.17-.71-.6-.45-.9-1.27-.9-2.47,0-.6.62-1.32,1.88-2.17,1.25-.85,2.03-1.52,2.33-2.03.5-.75.89-2.04,1.16-3.86.27-1.82.34-4.06.19-6.71,0-.3.1-.8.3-1.5.2-.7.3-1.2.3-1.5,0-.45-.16-1.15-.49-2.1-.33-.95-.44-1.7-.34-2.25.05-.15.14-.49.26-1.01.12-.52.19-.96.19-1.31s-.08-.7-.23-1.05c-.5-1.25-1.53-2.27-3.08-3.08-1.55-.8-2.44-1.37-2.66-1.73-.22-.35-.34-.67-.34-.98,0-.5.21-1,.64-1.5.42-.5,1.1-.85,2.02-1.05.92-.2,1.71-.17,2.36.08,3.65,1.65,5.55,2.47,5.7,2.47.35,0,1.35-.31,3-.94,1.65-.62,2.87-.96,3.67-1.01.85-.05,2.14.21,3.86.79,1.72.58,2.91.86,3.56.86.35,0,3.4-.9,9.15-2.7.15,0,.8.29,1.95.86,1.15.58,1.85.94,2.1,1.09l1.88,3.15.08,2.55c0,.15.01.43.04.82.03.4.04,3.11.04,8.14s.38,8.39,1.12,10.09c.3.6,1.01,1.51,2.14,2.74,1.12,1.23,1.72,2.26,1.8,3.11.08.85.01,1.65-.19,2.4-.05.1-.26.33-.64.67s-.86.71-1.46,1.09-.97.54-1.12.49ZM310.62,115.03c.25-.25.68-.46,1.28-.64.6-.17,1.05-.36,1.35-.56,2.75-.6,4.12-1.6,4.12-3,0-.55.01-1.41.04-2.59.03-1.17-.01-2.16-.11-2.96-.1-.8-.38-1.75-.83-2.85.95-2.35,1.41-3.92,1.39-4.72-.03-.8-.16-1.43-.41-1.88,0-.35.05-1.11.15-2.29.1-1.17-.03-2.24-.38-3.19-.3-.75-.9-1.59-1.8-2.51-.9-.92-1.7-1.39-2.4-1.39-.65,0-1.49.5-2.51,1.5-1.03,1-1.81,1.9-2.36,2.7-.1.1-.15.28-.15.52s-.03.43-.07.53c-.1.1-.3.24-.6.41-.3.18-.5.34-.6.49s-.12.36-.07.64c.05.28-.2.71-.75,1.31-.45,1.1-.68,1.85-.68,2.25v13.2c0,1.2.21,2.11.64,2.74.42.63,1.25,1.06,2.47,1.31,1.22.25,1.99.58,2.29.98Z"
     id="path10"
     style="fill:#fffff8;fill-opacity:1" />
  <path
     d="M350.82,118.63c-1,0-2.02-.38-3.08-1.12l-1.57-.08-.08-.07c-1-.05-2.21-.95-3.64-2.7-1.42-1.75-2.26-3.17-2.51-4.28-.05-.2.05-1,.3-2.4.05-.2.09-.47.11-.83.02-.35-.04-1.29-.19-2.81-.15-1.52-.15-2.49,0-2.89v-.15l.45-1.12c.45-.9.65-1.82.6-2.77-.1-1.2,0-2.95.3-5.25l-.22-.67v-.08l-.3-.75-.6-1.65c-.5-1.1-1.09-2.06-1.76-2.89-.67-.82-1.39-1.44-2.14-1.84l-4.8.83-.45-.08-.15-.07c-.65-.45-1.1-.85-1.35-1.2,0-1.5,1.47-2,4.43-1.5l.97-.45c3.55-1.8,5.5-4.17,5.85-7.12-.4-2.6-.45-4.59-.15-5.96.3-1.37.85-2.46,1.65-3.26l.75.52c.25.2.57.6.98,1.2.3.6.45.98.45,1.12-.85,2.6-1.35,5.25-1.5,7.95.05,1.2.32,1.88.82,2.02.4.65.98,1.25,1.73,1.8.75.55,1.25,1.08,1.5,1.57.2-.3.6-.34,1.2-.11.6.23.97.31,1.12.26.85-.2,2.04-.36,3.56-.49,1.52-.12,2.82-.12,3.9,0,1.08.13,1.61.49,1.61,1.09-.6.6-1.27,1.05-2.02,1.35l-.6.23-.38.15c-.75.15-1.5.23-2.25.23h-1.42l-.83-.15-2.1-.38-.97,1.2c-.85,0-1.55.23-2.1.68-.55.45-1.05,1.29-1.5,2.51-.45,1.23-.63,3.44-.52,6.64.1,3.2.1,5.05,0,5.55l-.38,2.1-.08,2.7-.08,1.88,1.35,1.5c.1.55.3,1.23.6,2.03l.67,1.27c.25.45.62.93,1.12,1.42,1.15,1.15,2.47,1.73,3.97,1.73,2.25,0,4.32-1.32,6.23-3.98.05-.1.14-.34.26-.71.12-.38.21-.66.26-.86l.45-1.2.9-1.88,1.42-2.25c.4-.6.7-1.28.9-2.03,1.1-.65,1.96-1,2.59-1.05.62-.05,1.21.38,1.76,1.28.05.85.34,1.78.86,2.77.53,1,.81,1.81.86,2.44.05.63-.07,1.31-.38,2.06l-.3.3-1.35,1.8c-1.4,1.85-2.35,3.05-2.85,3.6-1,1-1.88,1.67-2.62,2.03-1.65.7-3.78.97-6.38.82-.95.3-1.92.45-2.92.45Z"
     id="path11"
     style="fill:#fffff8;fill-opacity:1" />
  <path
     d="M388.1,117.43c-.25-.05-.74-.39-1.46-1.01-.73-.62-1.19-1.09-1.39-1.39-.1-.2-.41-1.01-.94-2.44-.52-1.42-.79-2.21-.79-2.36,0-1.4.39-2.8,1.16-4.2.78-1.4,2.31-2.82,4.61-4.28.15-.1.36-.15.64-.15s.66.06,1.16.19c.5.12.8.19.9.19.05,0,.27-.04.68-.11.4-.07.75-.12,1.05-.15.3-.02.55-.01.75.04,1.2.35,2.26,1.12,3.19,2.33.92,1.2,1.51,2.28,1.76,3.22.15.5.15,1.24,0,2.21-.15.97-.38,1.69-.68,2.14,0,.05.06.33.19.83s.14.82.04.97c-.05.1-.16.28-.34.53-.18.25-.56.62-1.16,1.12-.6.5-.98.82-1.12.97-.1.05-.36.04-.79-.04-.42-.08-.71-.04-.86.11-1.8,1.55-4,1.97-6.6,1.27ZM391.77,112.41c.55,0,1.11-.29,1.69-.86s.86-1.16.86-1.76c0-.5-.25-.94-.75-1.31-.5-.38-1-.56-1.5-.56s-1,.3-1.5.9c-.5.6-.75,1.18-.75,1.73s.19,1,.56,1.35c.38.35.84.53,1.39.53Z"
     id="path12"
     style="fill:#fffff8;fill-opacity:1" />
  <path
     d="M426.05,116.38c-.9,0-1.63-.26-2.18-.79-.55-.53-.95-1.35-1.2-2.48-.25-1.12-.28-2.82-.08-5.1.2-2.27.3-3.56.3-3.86,0-1.35-.25-3.46-.75-6.34-.5-2.87-.75-4.99-.75-6.34l-.15-4.95c-.05-.45-.18-.89-.38-1.31-.2-.42-.72-1.17-1.57-2.25-.85-1.07-1.55-1.99-2.1-2.74l-.08-.08s-.49.19-1.31.56c-.82.38-1.36.54-1.61.49-.55,0-1.15-.26-1.8-.79-.65-.52-.97-1.11-.97-1.76,0-.4.09-.8.26-1.2.18-.4.53-.68,1.05-.83.52-.15,1.31-.15,2.36,0s1.7.23,1.95.23l2.77-.38c.4.05,1.65.41,3.75,1.09,2.1.67,3.23,1.09,3.38,1.24v.45c-.6.4-1.7.98-3.3,1.73v2.7c-.3-.05-.54-.01-.71.11-.18.13-.09.66.26,1.61.25.3.49.78.71,1.43.22.65.49,2.28.79,4.88.05.1.2.52.45,1.27.25.75.42,1.18.53,1.27.6.25,1.55.39,2.85.41,1.3.03,2.2.11,2.7.26-.05.3.1.5.45.6l2.7-8.4c.1-.35.31-.83.64-1.42.33-.6.64-.87.94-.83l.45.3c-.2-1.5-.3-2.65-.3-3.45-.7-1.1-1.05-1.85-1.05-2.25.05-.55.56-.96,1.54-1.24.97-.27,2.27-.26,3.9.04,1.62.3,2.44.75,2.44,1.35,0,.25-.03.66-.08,1.24-.05.58-.05,1.11,0,1.61.05.5.25.98.6,1.42.05.2.06.52.04.98-.03.45-.16.85-.41,1.2.05.1.31.46.79,1.09.47.63.71,1.11.71,1.46,0,.85-.18,1.68-.52,2.48-.35.8-.8,1.26-1.35,1.39-.55.13-1.17-.29-1.88-1.24-.4-.6-.65-1.45-.75-2.55l-3.22-1.58c-.15,1.7-.5,3.84-1.05,6.41-.55,2.58-1.38,5.41-2.48,8.51-1.1,3.1-2.28,6-3.52,8.7-.2.4-.23,1-.08,1.8.15.8.22,1.25.22,1.35,0,.25-.14.6-.41,1.05-.28.45-.7.8-1.28,1.05-.58.25-1.01.38-1.31.38-.15,0-.4-.2-.75-.6l-.15.6ZM449.67,117.66c-.9,0-1.76-.28-2.59-.83-.83-.55-1.42-1.62-1.8-3.22-.38-1.6-.51-3.95-.41-7.05-.05-.15-.1-.46-.15-.94-.05-.47-.15-1.3-.3-2.47-.15-1.17-.19-2.24-.11-3.19.08-.95.25-1.59.53-1.91.27-.32.55-.51.83-.56.27-.05.99-.04,2.14.04,1.15.07,2.07-.34,2.77-1.24.6-3.4,1.02-6.7,1.28-9.9-.05-.25-.23-.72-.53-1.42-.3-.7-.45-1.17-.45-1.43,0-.4.15-.85.45-1.35.3-.5.47-.8.53-.9-.45-1.2-.67-1.84-.67-1.91v-.26c2.15-1.25,4.24-1.82,6.26-1.73,2.03.1,4.19.8,6.49,2.1v.45c-.75.5-2.03.8-3.83.9l.45.52-.6-.45h-.08c-.4.35-.9.86-1.5,1.54-.6.67-1.05,1.16-1.35,1.46,0,.05-.16.13-.49.23-.33.1-.49.18-.49.23-.2,4.05-.56,7.68-1.09,10.88-.53,3.2-1.36,6.48-2.51,9.82-.15.45-.29,2.18-.41,5.18-.13,3-.4,4.99-.83,5.96-.43.98-.94,1.46-1.54,1.46Z"
     id="path13"
     style="fill:#fffff8;fill-opacity:1" />
  <path
     d="M470.52,116.46c-.9-.35-1.94-.45-3.11-.3-1.18.15-1.84.2-1.99.15-1.65-.5-3.58-1.3-5.78-2.4-.95-.5-1.95-1.1-3-1.8.1-.15.12-.5.08-1.05-.05-.55-.33-1.22-.83-2.02l-.97-1.88-.38-1.35-.53-1.95c-.15-.45-.43-1.09-.83-1.91-.4-.83-.66-1.5-.79-2.02-.13-.52-.19-1.09-.19-1.69s.21-1.61.64-3.04c.42-1.42,1.74-4.24,3.94-8.44.1-.2.4-.76.9-1.69.5-.92.9-1.61,1.2-2.06.6-.8,1.5-1.67,2.7-2.62.9-.6,1.52-.95,1.88-1.05.15-.05.41-.04.79.04.38.08.64.09.79.04.15-.05.26-.23.34-.52s.16-.47.26-.52c.2-.1.85-.08,1.95.07,1.1.15,1.77.23,2.02.23.35,0,.66-.17.94-.52.27-.35.56-.52.86-.52l3.07-.15c.35,0,.74.06,1.16.19.42.12,1.04.36,1.84.71.8.35,1.35.58,1.65.67l4.12,1.43c.5.5,1.17,1.74,2.03,3.71.85,1.98,1.62,3.39,2.32,4.24.05.05.25.21.6.49.35.28.55.46.6.56.1.3.26.79.49,1.46.23.67.26,1.54.11,2.59-.15,1.05-.23,1.83-.23,2.33.15,3.75.12,6.12-.08,7.12-.35,1.7-1.68,3.83-3.97,6.38-1.45,1.6-3.12,3.08-5.03,4.42-2.1,1.6-3.8,2.5-5.1,2.7-.25.05-.58.09-.97.11-.4.02-1.58-.01-3.53-.11ZM471.87,113.38c2.35,0,4.39-.27,6.11-.83,1.72-.55,3.19-1.39,4.39-2.51,1.2-1.12,2.2-2.61,3-4.46.35-.75.59-2.04.71-3.86.12-1.82.29-2.99.49-3.49.05-.1.19-.25.41-.45.22-.2.34-.38.34-.52,0-.35-.19-1.27-.56-2.77s-.79-2.9-1.24-4.2c-.3-1-1.06-2.11-2.29-3.34-1.23-1.22-2.31-1.94-3.26-2.14-.1,0-.45.01-1.05.04-.6.03-1.05-.04-1.35-.19l-2.55-1.73c-1.95-1.3-3.67-1.95-5.17-1.95s-2.81.29-4.09.86c-1.27.58-2.39,1.31-3.34,2.21-1.4,1.35-2.53,3.01-3.38,4.99-.85,1.98-1.3,3.96-1.35,5.96,0,.5-.04.93-.11,1.27-.08.35-.25.64-.53.86-.28.22-.46.44-.56.64-.25.6-.31,1.33-.19,2.18.12.85.34,1.62.64,2.32,2.2,4.45,3.5,7,3.9,7.65.4.6.85,1.15,1.35,1.65.65.55,1.41.96,2.29,1.24.87.28,1.75.45,2.62.53.87.08,1.82.1,2.85.08,1.02-.03,1.66-.04,1.91-.04Z"
     id="path14"
     style="fill:#fffff8;fill-opacity:1" />
  <path
     d="M499.32,117.13c-1.15.35-3.4.45-6.75.3-3.35-.15-5.65-.4-6.9-.75-.45-.1-.8-.4-1.05-.9-.25-.5-.38-1-.38-1.5.05-1.6,1.12-2.61,3.23-3.04,2.1-.42,3.22-.66,3.38-.71.85-.3,1.56-.71,2.14-1.24.57-.53.85-1.49.82-2.89-.03-1.4.16-2.42.56-3.08.25-.4.5-.75.75-1.05s.39-.53.41-.67c.02-.15.06-.72.11-1.73l.3-17.55c0-.95-.31-1.94-.94-2.96-.63-1.02-1.36-1.56-2.21-1.61-.6-.05-1.08.08-1.43.38s-.58.48-.67.52c-.35.15-.95.34-1.8.56-.85.23-1.61.28-2.29.15-.68-.12-1.1-.34-1.28-.64-.18-.3-.26-.57-.26-.83,0-1.45,1.08-2.17,3.23-2.17,1.3.05,3.85.3,7.65.75,1.55.25,2.55,1.65,3,4.2.05.25.3.46.75.64.45.18,1.09.24,1.91.19.82-.05,1.39-.15,1.69-.3.35-.2,1.11-.71,2.29-1.54,1.17-.83,2.11-1.34,2.81-1.54.1-.05.45-.11,1.05-.19.6-.08.92-.09.98-.04-.5.4-.85.74-1.05,1.01-.2.28-.28.59-.22.94.05.35.05.63,0,.82-.1.3-.43.66-.97,1.09-.55.43-.95.81-1.2,1.16-.1.2-.39.34-.86.41-.48.08-.79.16-.94.26-.6.45-1.61,1.71-3.04,3.79-1.42,2.08-2.11,3.36-2.06,3.86l.67,1.42c.05.2.08.69.08,1.46s-.03,1.29-.08,1.54l-.52,2.25c0,.3.14.7.41,1.2.27.5.41.9.41,1.2,0,.45-.11,1.16-.34,2.14-.22.97-.29,1.74-.19,2.29.1.9.39,1.8.86,2.7.47.9,1.04,1.62,1.69,2.17.3.25.9.43,1.8.53.9.1,1.38.15,1.43.15.75.15,1.44.65,2.06,1.5.62.85.85,1.7.67,2.55-.18.85-.71,1.35-1.61,1.5-1,.6-1.58.9-1.73.9-.35,0-1.16-.16-2.44-.49-1.27-.32-2.19-.36-2.74-.11l-1.2.97ZM519.5,87.58c-.35,0-.66-.17-.94-.53-.28-.35-.41-.72-.41-1.12.05-.75.5-1.47,1.35-2.17.85-.7,1.38-1.21,1.58-1.54.2-.32.33-.56.38-.71.1-.3-.01-.79-.34-1.46-.33-.68-.49-1.04-.49-1.09,0-.2.2-.38.6-.53.4-.15.7-.2.9-.15.4,0,.76.18,1.09.52.32.35.5.93.53,1.73.02.8-.11,1.75-.41,2.85-.3,1.1-.75,2.01-1.35,2.74-.6.73-1.12,1.15-1.58,1.28-.45.12-.75.19-.9.19Z"
     id="path15"
     style="fill:#fffff8;fill-opacity:1" />
  <path
     d="M530.45,118.56c-2.25,0-3.93-.55-5.02-1.65.15-.6.64-1.1,1.46-1.5.83-.4,1.89-.66,3.19-.79,1.3-.12,2.46-.19,3.49-.19s2.05.03,3.08.08c1.02.05,1.56.08,1.61.08.7,0,1.36-.46,1.99-1.39.62-.92,1.17-2.6,1.65-5.02.47-2.42.94-7.69,1.39-15.79l-.22-.38-.45-1.05c-.45-1-.7-1.94-.75-2.81-.05-.87.08-1.41.38-1.61.1-1.45.1-3.89,0-7.31-.1-3.42-.05-5.96.15-7.61.05-.6-.51-1.6-1.69-3-1.17-1.4-2.56-2.67-4.16-3.83,2.25-.6,3.9-.66,4.95-.19,1.05.48,1.75,1.31,2.1,2.51.05.15.1.73.15,1.73.05,1,.12,3.01.22,6.04.1,3.03.15,4.64.15,4.84,0,.3-.08.81-.23,1.54-.15.73-.2,1.26-.15,1.61,0,.5.22,1.19.67,2.06.45.88.67,1.56.67,2.06,0,.45-.12,1.09-.38,1.91-.25.82-.38,1.46-.38,1.91,0,.8.09,2.04.26,3.71.17,1.68.26,2.86.26,3.56.15,6.3.29,10.34.41,12.11.12,1.78.26,2.94.41,3.49.05.15.15.28.3.38.15.1.39.2.71.3.33.1.54.18.64.22,3.35-.2,5.58-.17,6.67.08,1.1.25,1.81.63,2.14,1.12s.49.97.49,1.42c-.15.05-.7.24-1.65.56-.95.32-1.58.49-1.88.49l-22.65.3ZM532.4,65.91c-.05,0-.79.16-2.21.49-1.42.33-2.14-.21-2.14-1.61,1-.45,2.05-.61,3.15-.49,1.1.13,2.05.44,2.85.94l-1.65.67Z"
     id="path16"
     style="fill:#fffff8;fill-opacity:1" />
  <path
     d="M569.37,117.51c-.3,0-1.11-.29-2.44-.86-1.33-.58-2.61-1.16-3.86-1.76-1.4-.75-2.23-1.22-2.47-1.42-.6-.55-1.28-1.38-2.03-2.47s-1.35-2.18-1.8-3.23c-.6-1.25-.97-2.42-1.12-3.52-.05-.35.05-1.12.3-2.33.1-.6.12-1.07.08-1.42-.05-.3-.29-1.1-.71-2.4-.42-1.3-.64-2.05-.64-2.25,0-.6.29-1.43.86-2.48.57-1.05.91-1.67,1.01-1.88l.15-1.8c.15-1,.98-2.49,2.48-4.46,1.5-1.97,2.8-3.49,3.9-4.54.15-.15,1.59-.5,4.31-1.05,2.72-.55,4.34-.83,4.84-.83l1.2.23c.9.25,1.84.63,2.81,1.12.97.5,1.64.98,1.99,1.43.15.15.3.29.45.41.15.13.39.21.71.26.33.05.54.1.64.15.3.05.72.36,1.28.94.55.58.92.86,1.12.86.15,0,.24.01.26.04.03.03.06.06.11.11.2.2.46.23.79.07.32-.15.64-.51.94-1.09.3-.57.5-1.17.6-1.8.1-.62.09-1.29-.04-1.99-.12-.7-.54-1.2-1.24-1.5.05-.95.27-2.47.67-4.57.4-2.1.62-3.65.67-4.65.05-.45-.03-1.12-.22-2.03l-.08-.3v-.15c-.1-.6-.12-1.02-.08-1.27.4-.2.9-.2,1.5,0,.6.2.9.58.9,1.12l-.08,3-.08,3.22c0,.25.21.59.64,1.01.42.43.64.76.64,1.01l-.83,6.97c0,.1.21.61.64,1.54.42.93.72,1.94.9,3.04.17,1.1.24,2.2.19,3.3l-.07,1.95-.23,12.3v1.65l-.08,3.83v1.42c0,.45.25.81.75,1.09.5.28,1.67.46,3.53.56.85.05,1.59.28,2.21.67.62.4.99.86,1.09,1.39.1.52-.08,1-.52,1.42-.45.42-1.18.69-2.18.79-.85.1-2.29.11-4.31.04-2.02-.08-3.24-.24-3.64-.49-.2-.15-.45-.47-.75-.97-.3-.5-.53-.83-.68-.97-.35-.35-.67-.53-.97-.53-.2,0-1,.38-2.4,1.12-1.4.75-2.12,1.15-2.17,1.2-.65.3-2.23.67-4.72,1.12l-3.23.52-1.5.08ZM570.87,113.08c.75,0,1.32-.27,1.73-.83.4-.55.62-.83.67-.83.4-.15,1.34-.39,2.81-.71,1.47-.33,2.6-.7,3.38-1.12.77-.42,1.36-.89,1.76-1.39.55-.7,1-1.45,1.35-2.25.45-.95.85-2.12,1.2-3.53.1-.6.25-1.77.45-3.52.2-1.75.15-3.72-.15-5.92l-.52-3.83c-.05-.3-.41-.9-1.09-1.8s-1.55-1.91-2.62-3.04c-1.08-1.12-1.79-1.71-2.14-1.76-2.8-.5-4.9-.72-6.3-.67-2.2.1-4.12.65-5.78,1.65-.55.35-1.03.88-1.42,1.58l-1.27,2.55c-.1.15-.18.43-.23.83-.05.4-.1.65-.15.75-.15.15-.41.26-.79.34s-.61.21-.71.41c-.25.45-.48,1.59-.68,3.41-.2,1.83-.25,3.89-.15,6.19,0,.5.08,1.12.22,1.87.15,1,.42,2.03.83,3.08.4,1.05.87,1.92,1.42,2.62.65.8,1.56,1.74,2.74,2.81s2.24,1.86,3.19,2.36c.95.5,1.7.75,2.25.75Z"
     id="path17"
     style="fill:#fffff8;fill-opacity:1" />
  <path
     d="M2,129.13v-3.75h30.37v3.75H2Z"
     id="path18"
     style="fill:#fffff8;fill-opacity:1" />
  <path
     d="M32.37,129.13v-3.75h27.52v3.75h-27.52Z"
     id="path19"
     style="fill:#fffff8;fill-opacity:1" />
  <path
     d="M59.9,129.13v-3.75h30.37v3.75h-30.37Z"
     id="path20"
     style="fill:#fffff8;fill-opacity:1" />
  <path
     d="M90.27,129.13v-3.75h64.5v3.75h-64.5Z"
     id="path21"
     style="fill:#fffff8;fill-opacity:1" />
  <path
     d="M154.77,129.13v-3.75h79.87v3.75h-79.87Z"
     id="path22"
     style="fill:#fffff8;fill-opacity:1" />
  <path
     d="M234.65,129.13v-3.75h181.5v3.75h-181.5Z"
     id="path23"
     style="fill:#fffff8;fill-opacity:1" />
  <path
     d="M416.15,129.13v-3.75h181.88v3.75h-181.88Z"
     id="path24"
     style="fill:#fffff8;fill-opacity:1" />
</svg>
