<?xml version="1.0" encoding="UTF-8"?>
<svg id="logotype" xmlns="http://www.w3.org/2000/svg" viewBox="0 0 599.04 85.47">
  <defs>
    <style>
      .cls-1 {
        fill: #2a2a29;
        stroke-width: 0px;
      }
    </style>
  </defs>
  <g id="letterforms">
    <path class="cls-1" d="m8.22,5.69c1.58,0,3.24-.87,4.27-.87,2.13,0,2.21,1.66,2.21,3.79v14.77c3.55-3.55,7.03-5.13,12.01-5.13,6.64,0,15.4,3.63,15.4,13.98v17.06c0,3.87.16,6.08,2.37,6.08,1.26,0,2.37-.47,3.56-.47,1.58,0,2.69,1.11,2.69,2.61,0,1.82-1.42,2.92-3.4,2.92s-5.21-.87-8.14-.87-6.32.87-8.29.87c-1.82,0-3.48-1.11-3.48-2.92,0-1.5,1.11-2.61,2.69-2.61,1.19,0,2.29.47,3.55.47,2.13,0,2.37-2.29,2.37-6.08v-13.67c0-9.72-4.9-12.01-9.72-12.01s-11.61,1.97-11.61,11.53v13.27c0,5.45.4,6.95,2.29,6.95,1.34,0,2.61-.47,3.63-.47,1.58,0,2.69,1.11,2.69,2.61,0,1.82-1.34,2.92-3.48,2.92-1.9,0-5.13-.87-8.06-.87s-6.32.87-8.29.87-3.48-1.11-3.48-2.92c0-1.5,1.11-2.61,2.69-2.61,1.03,0,2.29.47,3.63.47,1.98,0,2.29-2.05,2.29-6.08V16.04c0-3.79-.4-6.16-2.13-6.16-1.42,0-2.77.47-3.79.47-1.58,0-2.69-1.11-2.69-2.61,0-1.58,1.42-2.92,3.08-2.92s4.11.87,5.13.87Z"/>
    <path class="cls-1" d="m64.15,25.04h-7.9c-.87,0-1.34.47-1.34,1.42v19.51c0,5.92,1.11,9.16,5.77,9.16,3.16,0,5.61-1.58,5.61-8.14,0-4.42,0-7.19,3.16-7.19,1.58,0,2.92.79,2.92,4.5,0,12.8-4.74,16.35-12.64,16.35-1.5,0-4.03-.32-5.77-1.26-2.92-1.58-5.13-4.19-5.13-12.24v-19.59c0-2.29-.4-2.53-3.16-2.53-3.24,0-4.19-.95-4.19-2.92,0-1.58,1.34-2.84,3.32-2.84h2.69c1.19,0,1.34-.71,1.34-1.66v-7.82c0-2.37,1.03-3.55,3.08-3.55,1.9,0,3,1.03,3,3.71v8.14c0,.87.24,1.19,1.03,1.19h8.45c2.61,0,3.79.79,3.79,2.92,0,1.98-1.42,2.84-4.03,2.84Z"/>
    <path class="cls-1" d="m91,25.04h-7.9c-.87,0-1.34.47-1.34,1.42v19.51c0,5.92,1.11,9.16,5.77,9.16,3.16,0,5.61-1.58,5.61-8.14,0-4.42,0-7.19,3.16-7.19,1.58,0,2.92.79,2.92,4.5,0,12.8-4.74,16.35-12.64,16.35-1.5,0-4.03-.32-5.77-1.26-2.92-1.58-5.13-4.19-5.13-12.24v-19.59c0-2.29-.4-2.53-3.16-2.53-3.24,0-4.19-.95-4.19-2.92,0-1.58,1.34-2.84,3.32-2.84h2.69c1.19,0,1.34-.71,1.34-1.66v-7.82c0-2.37,1.03-3.55,3.08-3.55,1.9,0,3,1.03,3,3.71v8.14c0,.87.24,1.19,1.03,1.19h8.45c2.61,0,3.79.79,3.79,2.92,0,1.98-1.42,2.84-4.03,2.84Z"/>
    <path class="cls-1" d="m139.9,39.02c0,14.69-8.14,22.51-18.88,22.51-4.74,0-8.85-1.74-10.98-4.9h-.16v17.77c0,3.55.32,6,2.29,6,1.34,0,2.61-.47,3.63-.47,1.58,0,2.69,1.11,2.69,2.61,0,1.82-1.66,2.92-3.55,2.92-2.21,0-6.08-.87-8.29-.87-1.98,0-6.48.87-7.98.87-1.82,0-3.48-1.11-3.48-2.92,0-1.5,1.11-2.61,2.69-2.61,1.03,0,2.29.47,3.63.47,1.82,0,2.29-12.8,2.29-17.14V30.57c0-3.48-.16-6.16-2.29-6.16-1.34,0-2.61.47-3.63.47-1.58,0-2.69-1.11-2.69-2.61,0-1.66,1.58-2.92,3.48-2.92,1.26,0,2.76.87,4.34.87,1.19,0,3.48-.87,4.5-.87,1.19,0,2.05.63,2.05,2.45v2.61h.16c2.21-3.71,6.71-6.16,12.09-6.16,11.38,0,18.09,7.9,18.09,20.78Zm-28.99,10.82c1.42,3.4,4.42,6.32,9.8,6.32,8.22,0,12.64-6,12.64-16.51s-4.03-16.04-11.69-16.04c-3.08,0-5.85.95-8.22,3.08-2.37,2.13-3.55,6.4-3.55,14.3,0,4.27.24,7.11,1.03,8.85Z"/>
    <path class="cls-1" d="m170.95,20.38c0,1.82-.47,3.79-.47,5.77s.47,3.95.47,5.77-1.03,3-2.84,3c-1.5,0-2.53-.95-2.53-4.03,0-.95,0-2.37-.47-3.16-.63-1.03-2.29-1.97-3.24-2.53-2.37-1.26-4.34-1.58-5.45-1.58-4.82,0-8.85,2.69-8.85,6.95,0,3.71,2.29,5.21,9.24,6.08,12.96,1.58,16.51,4.9,16.51,11.93,0,8.14-7.19,12.96-16.35,12.96-4.19,0-8.29-1.03-11.53-3.71.08.24.08.63.08,1.03,0,2.13-1.18,3.4-2.76,3.4-2.13,0-3-1.5-3-3.4,0-2.13.63-4.34.63-6.56s-.63-4.27-.63-6.24.95-2.92,2.77-2.92c1.5,0,2.37.79,2.45,2.45.16,2.92.32,5.06,1.19,6.32,1.74,2.53,7.35,4.27,11.69,4.27,6.08,0,8.93-3.63,8.93-6.95,0-3.56-2.21-5.93-9.79-6.64-11.93-1.11-15.96-5.06-15.96-11.53,0-7.9,7.03-12.8,15.4-12.8,3.24,0,6.79.55,9.32,2.77v-.63c0-1.58.71-2.69,2.53-2.69,1.66,0,2.69.87,2.69,2.69Z"/>
    <path class="cls-1" d="m188.73,28.75c0,2.77-2.21,5.06-5.06,5.06s-5.13-2.21-5.13-5.06,2.37-5.13,5.13-5.13,5.06,2.29,5.06,5.13Zm0,26.62c0,2.84-2.29,5.13-5.06,5.13s-5.13-2.29-5.13-5.13,2.29-5.06,5.13-5.06,5.06,2.29,5.06,5.06Z"/>
    <path class="cls-1" d="m220.96,7.82l-21.72,56.24c-.32.87-.63,1.42-3.08,1.42-1.9,0-2.69-.24-2.69-.87,0-.24.24-.71.55-1.58,6.95-17.46,17.06-42.5,23.46-60.27.79-2.13,1.03-2.76,3.32-2.76s2.77.24,2.77,1.03c0,.24-.32,1.11-.87,2.45-.55,1.26-1.11,2.69-1.74,4.34Z"/>
    <path class="cls-1" d="m238.34,7.82l-21.72,56.24c-.32.87-.63,1.42-3.08,1.42-1.9,0-2.69-.24-2.69-.87,0-.24.24-.71.55-1.58,6.95-17.46,17.06-42.5,23.46-60.27.79-2.13,1.03-2.76,3.32-2.76s2.77.24,2.77,1.03c0,.24-.32,1.11-.87,2.45-.55,1.26-1.11,2.69-1.74,4.34Z"/>
    <path class="cls-1" d="m248.77,20.22c1.19,0,3.48-.87,4.5-.87,1.82,0,2.61.63,2.61,3.55,0,4.66-.47,7.11-.47,18.01,0,1.34,0,8.37,1.5,10.98,1.34,2.37,3.87,4.27,8.61,4.27,4.42,0,7.35-1.74,9.32-4.98,1.82-2.92,1.98-10.82,1.98-16.75,0-7.58-.47-10.03-3.24-10.03-1.19,0-2.05.47-3.24.47-1.58,0-2.69-1.11-2.69-2.61,0-1.66,1.5-2.92,3.71-2.92,1.34,0,3.71.87,4.9.87,1.5,0,3-.87,4.5-.87,1.66,0,2.37.95,2.37,2.92,0,3.48-.24,7.98-.24,10.9v16.04c0,3,.16,6.16,2.29,6.16,1.18,0,2.45-.47,3.63-.47,1.58,0,2.69,1.11,2.69,2.61,0,1.82-1.74,2.92-3.4,2.92-1.18,0-3.32-.87-4.5-.87-1.26,0-3.4.87-4.58.87-1.5,0-1.9-1.26-1.9-4.11v-.71h-.16c-2.53,3.87-6.64,5.92-12.4,5.92-7.11,0-15.25-2.92-15.25-13.59v-17.3c0-3.48-.63-6.24-2.77-6.24-1.18,0-2.37.47-3.55.47-1.58,0-2.69-1.11-2.69-2.61,0-1.82,1.74-2.92,3.87-2.92,1.5,0,3,.87,4.58.87Z"/>
    <path class="cls-1" d="m330.45,24.09c2.92-4.19,7.43-5.85,12.56-5.85,9.08,0,15.01,3.95,15.01,15.4v15.48c0,3.79.32,6.24,2.37,6.24,1.18,0,2.37-.47,3.55-.47,1.58,0,2.69,1.11,2.69,2.61,0,1.82-1.18,2.92-3.4,2.92-1.9,0-5.21-.87-8.06-.87-3.08,0-6.4.87-8.37.87-2.21,0-3.48-1.11-3.48-2.92,0-1.5,1.11-2.61,2.69-2.61,1.18,0,2.37.47,3.55.47,1.9,0,2.37-1.42,2.37-6.16v-12.88c0-3.24-.24-6.24-1.18-8.14-1.9-3.63-5.53-4.58-8.22-4.58-2.37,0-4.66.87-6.63,2.61-1.98,1.74-3,5.69-3,11.93v11.53c0,2.76.16,5.69,2.37,5.69,1.19,0,2.37-.47,3.55-.47,1.58,0,2.69,1.11,2.69,2.61,0,1.82-1.26,2.92-3.48,2.92-1.9,0-5.13-.87-7.98-.87-3.08,0-6.32.87-8.45.87s-3.4-1.11-3.4-2.92c0-1.5,1.11-2.61,2.69-2.61,1.19,0,2.37.47,3.55.47,1.9,0,2.37-1.5,2.37-6.16v-16.19c0-2.61-.39-4.66-1.5-6.16-1.97-2.69-5.13-3.24-6.79-3.24-3.4,0-6.71,1.26-8.69,4.58-1.34,2.21-2.05,4.34-2.05,9.56v8.29c0,7.11.24,9.32,2.29,9.32,1.26,0,2.61-.47,3.63-.47,1.58,0,2.69,1.11,2.69,2.61,0,1.82-1.26,2.92-3.48,2.92-1.9,0-5.13-.87-7.98-.87-3.08,0-6.32.87-8.45.87s-3.4-1.11-3.4-2.92c0-1.5,1.11-2.61,2.69-2.61,1.03,0,2.29.47,3.63.47,1.82,0,2.29-1.5,2.29-6.16v-18.64c0-4.42-.32-6.16-2.29-6.16-1.34,0-2.61.47-3.63.47-1.58,0-2.69-1.11-2.69-2.61,0-1.34,1.5-2.92,3-2.92,1.03,0,2.69.87,4.19.87,1.66,0,3.63-.87,4.9-.87,1.5,0,1.82.87,1.82,4.74h.16c3.08-4.03,6.64-5.85,11.69-5.85s9.48,2.13,11.61,5.85Z"/>
    <path class="cls-1" d="m390.01,25.04h-7.9c-.87,0-1.34.47-1.34,1.42v19.51c0,5.92,1.11,9.16,5.77,9.16,3.16,0,5.61-1.58,5.61-8.14,0-4.42,0-7.19,3.16-7.19,1.58,0,2.92.79,2.92,4.5,0,12.8-4.74,16.35-12.64,16.35-1.5,0-4.03-.32-5.77-1.26-2.92-1.58-5.13-4.19-5.13-12.24v-19.59c0-2.29-.4-2.53-3.16-2.53-3.24,0-4.19-.95-4.19-2.92,0-1.58,1.34-2.84,3.32-2.84h2.69c1.18,0,1.34-.71,1.34-1.66v-7.82c0-2.37,1.03-3.55,3.08-3.55,1.9,0,3,1.03,3,3.71v8.14c0,.87.24,1.19,1.03,1.19h8.45c2.61,0,3.79.79,3.79,2.92,0,1.98-1.42,2.84-4.03,2.84Z"/>
    <path class="cls-1" d="m417.03,55.38c0,2.84-2.29,5.13-5.06,5.13s-5.13-2.29-5.13-5.13,2.29-5.06,5.13-5.06,5.06,2.29,5.06,5.06Z"/>
    <path class="cls-1" d="m449.58,21.41c.79,1.34,1.34,3.55,2.05,6.79l5.77,27.17h.16l6-25.28c.47-1.9.55-2.84.55-3.56,0-1.34-.63-2.21-1.9-2.21-1.34,0-2.61.55-3.95.55-1.5,0-2.92-1.11-2.92-2.92,0-1.5,1.11-2.61,4.34-2.61,1.82,0,6.56.87,8.37.87s6.48-.87,8.06-.87c1.82,0,2.76,1.11,2.76,2.61,0,1.66-1.58,2.92-2.76,2.92-1.03,0-1.9-.55-2.76-.55-1.74,0-2.61,1.82-4.82,10.11l-4.98,18.72c-1.9,7.27-3.32,8.06-6.16,8.06-3.79,0-4.9-3.08-5.92-7.82l-5.85-27.96h-.16l-5.53,25.04c-1.5,6.95-2.29,10.74-6.71,10.74-2.45,0-4.11-1.18-5.37-6l-5.85-21.88c-1.82-6.71-1.97-9.01-3.87-9.01-1.18,0-2.13.55-3.08.55-1.34,0-3.08-1.11-3.08-2.92,0-1.5,1.11-2.61,4.66-2.61,1.82,0,6.32.87,8.37.87,1.9,0,6.32-.87,8.14-.87,1.58,0,2.69,1.11,2.69,2.61,0,1.66-1.58,2.92-3.08,2.92-1.26,0-2.37-.55-3.71-.55-1.5,0-2.13,1.11-2.13,2.45,0,1.58.71,4.11.87,4.9l5.61,23.7h.16l5.92-27.25c1.42-6.4,2.37-8.93,6.16-8.93.95,0,2.61,0,3.95,2.21Z"/>
    <path class="cls-1" d="m502.51,22.04c4.9,4.03,7.19,10.74,7.19,17.69,0,12.8-7.43,21.8-19.51,21.8s-18.72-8.93-18.72-21.57c0-6.87,2.13-12.8,5.92-16.67,3.24-3.24,7.66-5.06,12.88-5.06s9.16,1.26,12.24,3.79Zm-12.24,34.13c8.29,0,12.88-6.32,12.88-16.75,0-8.22-3.16-15.8-12.48-15.8-9.79,0-12.64,9.08-12.64,16.19,0,9.72,4.34,16.35,12.24,16.35Z"/>
    <path class="cls-1" d="m544.06,29.39c0,4.98-2.53,8.14-6.56,8.14-2.45,0-4.34-1.66-4.34-3.79,0-1.82,1.5-3.4,3.24-3.4.32,0,.71.16,1.03.24.4-.71.47-1.18.47-1.82,0-3.32-3.48-5.53-7.03-5.53-7.27,0-9.95,5.37-9.95,14.69v11.38c0,2.61.24,6.08,2.45,6.08,1.34,0,2.69-.47,3.71-.47,1.58,0,2.69,1.11,2.69,2.61,0,1.82-1.58,2.92-3.48,2.92s-5.53-.87-8.06-.87-5.85.87-8.29.87c-1.97,0-3.63-1.26-3.63-2.92,0-1.5,1.11-2.61,2.69-2.61,1.18,0,2.45.47,3.71.47,2.13,0,2.13-2.69,2.13-6.56v-18.25c0-2.53,0-6.16-2.29-6.16-1.19,0-2.69.47-4.58.47-1.66,0-2.76-1.11-2.76-2.61,0-1.58,1.42-2.92,3.55-2.92,1.03,0,3.08.87,4.58.87,1.74,0,3.32-.87,4.5-.87,1.66,0,2.21,1.11,2.21,3.63v1.19h.16c2.45-4.03,6.4-5.92,11.14-5.92,6.95,0,12.72,4.11,12.72,11.14Z"/>
    <path class="cls-1" d="m545.33,5.69c1.58,0,3.24-.87,4.27-.87,2.13,0,2.21,1.66,2.21,3.79v40.6c0,3.32.24,6.16,2.37,6.16,1.19,0,2.37-.47,3.55-.47,1.58,0,2.69,1.11,2.69,2.61,0,1.66-1.42,2.92-3.48,2.92-1.9,0-4.9-.87-8.06-.87-2.92,0-6.4.87-8.29.87s-3.48-1.11-3.48-2.92c0-1.5,1.11-2.61,2.69-2.61,1.18,0,2.37.47,3.55.47,2.13,0,2.37-2.69,2.37-6.24V16.04c0-3.32-.32-6.16-2.37-6.16-1.18,0-2.53.47-4.19.47s-2.76-1.11-2.76-2.61c0-1.82,1.74-2.92,3.63-2.92s4.27.87,5.29.87Z"/>
    <path class="cls-1" d="m584.35,5.69c1.58,0,3.71-.87,4.66-.87,1.03,0,1.42.87,1.42,3.08v41.39c0,3.79.32,6.08,2.29,6.08,1.26,0,2.45-.47,3.63-.47,1.58,0,2.69,1.11,2.69,2.61,0,1.82-1.26,2.92-2.61,2.92-1.03,0-3.16-.87-4.66-.87-1.34,0-2.77.87-4.27.87-2.21,0-2.76-.87-2.76-3.95v-.63h-.16c-2.45,3.79-7.11,5.69-12.17,5.69-11.22,0-18.41-8.77-18.41-21.88,0-12.4,6.71-21.41,17.93-21.41,5.77,0,9.79,2.21,12.24,5.92h.16v-8.22c0-3.79-.32-6.08-2.29-6.08-1.34,0-2.61.47-3.63.47-1.58,0-2.69-1.11-2.69-2.61,0-1.58,1.26-2.92,3.08-2.92,1.5,0,3.95.87,5.53.87Zm-11.53,50.48c3.24,0,7.35-1.11,9.56-5.13,1.5-2.76,1.97-6.32,1.97-11.93,0-3-.32-5.69-.95-7.74-1.82-5.69-6.32-7.74-11.14-7.74-7.5,0-11.69,6.32-11.69,16.43,0,9.16,4.42,16.12,12.24,16.12Z"/>
  </g>
  <rect id="short_underline" data-name="short underline" class="cls-1" y="66.12" width="102.03" height="1"/>
  <rect id="long_underline" data-name="long underline" class="cls-1" x="111.16" y="66.12" width="487.26" height="1"/>
</svg>