<?xml version="1.0" encoding="UTF-8"?>
<svg id="Layer_1" xmlns="http://www.w3.org/2000/svg" viewBox="0 0 1976 595">
  <g id="bullets">
    <path d="M500.66,330.98c.07-.77.19-1.47.37-2.1.17-.63.26-1.05.26-1.26-.14-.91-.63-1.94-1.47-3.1-.84-1.16-1.96-1.89-3.36-2.21-1.4-.32-2.56.44-3.46,2.26-.07.21-.16.7-.26,1.47-.1.77-.28,1.56-.52,2.36-.25.81-.54,1.63-.89,2.47-.98,2.17-2.49,3.85-4.51,5.04-2.03,1.19-3.94,1.45-5.72.79-1.79-.66-2.91-2.08-3.36-4.25-.46-2.17-.19-4.83.79-7.98.14-.35.66-1.38,1.57-3.1.91-1.71,1.43-2.61,1.58-2.68.21,0,.59.07,1.15.21.56.14.91.18,1.05.11.14,0,.28-.37.42-1.1.14-.74.28-1.17.42-1.31.28-.28.75-.56,1.42-.84.66-.28,1.07-.59,1.21-.95.14-.35.21-.84.21-1.47,0-1.33-1.54-2.31-4.62-2.94-.7-.07-1.52.39-2.47,1.37-.95.98-1.66,1.58-2.15,1.79-1.33.49-2.29.47-2.89-.05-.6-.53-1.19-.77-1.79-.74-.6.04-1.14.12-1.63.26-1.05.28-2.15.28-3.31,0-1.15-.28-1.98-1.05-2.47-2.31-.49-1.26-.46-2.69.1-4.31.56-1.4,1.38-2.36,2.47-2.89,1.08-.53,2.92-.37,5.51.47.77.28,1.96.16,3.57-.37,1.61-.52,2.66-.72,3.15-.58.56.14,1.08.54,1.58,1.21.49.67.91,1,1.26,1,.21,0,.8-.09,1.78-.26.98-.17,1.61-.19,1.89-.05.28.14.47.46.58.95.1.49.17,1.03.21,1.63.03.6.05.96.05,1.1.14.7.66,1.93,1.58,3.68,1.89.21,2.97.35,3.25.42,1.47,1.68,2.33,2.61,2.57,2.78.24.18.54.33.89.47l4.1-2.31c2.03-1.05,3.5-1.15,4.41-.31,2.31,2.31,4.29,5.11,5.93,8.4,1.64,3.29,2.47,6.27,2.47,8.93,0,1.19-.23,2.28-.68,3.25-.46.98-1.21,1.56-2.26,1.73-1.05.17-2.31-.02-3.78-.58-1.47-.56-2.87-1.31-4.2-2.26-1.33-.95-2-1.56-2-1.84ZM487.22,296.96c-.21-.49-.44-1.38-.68-2.68-.25-1.29-.54-2.26-.89-2.89-.21-.35-.89-1.05-2.05-2.1-1.15-1.05-1.73-2-1.73-2.83,0-.7.23-1.42.68-2.15.45-.73,1-1.1,1.63-1.1.35,0,.91.37,1.68,1.1.77.74,1.54,1.7,2.31,2.89.49.63,1.05,1.75,1.68,3.36.63,1.61,1.19,2.73,1.68,3.36l1.79,1.78c.49.91.61,1.91.37,2.99-.25,1.09-.72,1.84-1.42,2.26-.7.42-1.52.33-2.47-.26-.94-.59-1.8-1.84-2.57-3.73ZM503.71,300.32c-.63,1.12-1.28,1.65-1.94,1.58-.67-.07-1.21-.7-1.63-1.89,1.19-3.5,2.48-5.74,3.88-6.72.28-.49.82-1.5,1.63-3.04.8-1.54,1.61-2.76,2.42-3.67.8-.91,1.7-1.61,2.68-2.1.28.28.44.75.47,1.42.03.67-.14,1.4-.52,2.21-.39.81-.72,1.35-1,1.63-.21.28-.65.56-1.31.84-.67.28-1.1.56-1.31.84-.35.49-.58,1.3-.68,2.42-.1,1.12-.26,1.86-.47,2.21-.14.21-.46.54-.94,1-.49.46-.81.86-.95,1.21-.07.21-.1.54-.1,1s-.07.82-.21,1.1ZM513.26,310.09c-.63,0-1.66-.16-3.1-.47-1.44-.32-2.56-.67-3.36-1.05-.81-.38-1.24-.75-1.31-1.1l.73-1.47c.63-.21,1.79-.3,3.46-.26,1.68.04,3.11-.19,4.31-.68.07.63.42,1.14,1.05,1.52.63.38,1.49.49,2.57.31,1.08-.17,1.66-.51,1.73-1,0-.14-.04-.35-.1-.63-.07-.28-.04-.49.1-.63.28-.35.82-.51,1.63-.47.8.04,1.68.44,2.62,1.21.95.77,1.42,1.58,1.42,2.42,0,.35-.12.7-.37,1.05-.25.35-.79.58-1.63.68-.84.11-1.96.09-3.36-.05-1.4-.14-2.21-.21-2.42-.21-.42,0-1.09.14-1.99.42-.91.28-1.58.42-2,.42Z"/>
  </g>
</svg>