<svg xmlns="http://www.w3.org/2000/svg" viewBox="41 -675.3333333333334 915 924.3333333333334" fill="currentColor" role="img"><title>fcaslon-x</title><path transform="scale(1,-1)" d="M954 647Q956 640 956 634Q956 599 921 573Q907 573 890.0 556.0Q873 539 855 537Q853 537 824 539Q805 541 795 534Q795 527 799.5 511.0Q804 495 804 487Q804 469 784 460Q737 469 702 496Q691 488 694 477Q700 474 704.5 462.0Q709 450 716 447Q716 445 722 428Q726 416 724 408Q716 401 707 401Q697 401 679.0 412.5Q661 424 653 424Q642 424 634 408Q641 402 631 392Q631 386 634.0 373.0Q637 360 637 353Q637 345 634 340Q630 341 602 348Q583 353 570 351Q567 354 559.5 353.5Q552 353 549 356Q535 346 543 337Q551 329 562.0 303.5Q573 278 584 271Q585 262 593.0 246.5Q601 231 601 222Q601 215 598 208Q598 191 614 184Q618 176 621 146Q622 122 636 112Q636 102 653 93Q666 96 700 114Q729 129 747 129Q756 129 765 126Q788 133 812 126Q856 89 856 43Q856 19 844 -14Q785 -80 785 -130Q785 -155 801 -175Q810 -175 826.5 -182.0Q843 -189 851 -189Q861 -189 869 -183Q899 -180 899 -201Q899 -210 891 -233L880 -241Q820 -241 809 -239Q769 -234 749 -208Q733 -199 713 -178Q696 -162 680 -145Q656 -135 647 -137Q641 -145 641 -154Q641 -149 650 -189Q646 -194 648.5 -205.5Q651 -217 648.5 -222.5Q646 -228 635.5 -235.0Q625 -242 625 -249Q624 -241 616.0 -235.5Q608 -230 601 -225Q600 -220 594.5 -205.5Q589 -191 589 -184Q589 -176 595 -170L590 -156L592 -145Q585 -135 570 -137Q561 -150 532.0 -167.5Q503 -185 494 -200Q442 -219 433 -219Q418 -219 406 -211Q400 -212 362 -218Q334 -223 316 -223Q277 -223 255 -203Q253 -191 260.0 -176.5Q267 -162 278 -162Q285 -162 295.5 -171.0Q306 -180 310.5 -181.0Q315 -182 319 -182Q329 -182 345.0 -169.0Q361 -156 373 -156Q378 -149 401 -142Q421 -136 423 -123Q426 -110 403.5 -56.5Q381 -3 381 20Q381 37 390 47Q388 59 395 80Q420 106 461 106Q523 106 568 63Q570 63 581 65Q589 67 592 60Q599 64 596.0 75.0Q593 86 598 91Q596 106 580 146Q567 180 568 203Q565 207 550.5 218.0Q536 229 536 237Q536 243 540 249Q532 267 509 284Q474 310 472 312Q474 299 464.0 277.5Q454 256 455 244Q440 228 429 228Q422 228 408.0 241.5Q394 255 381 258Q371 253 369.0 237.5Q367 222 360 217Q361 214 361 211Q361 189 336 189Q326 189 318 197Q317 202 320.5 210.0Q324 218 324 221Q324 226 318 230Q313 226 308 226Q302 226 291.5 231.5Q281 237 276 237Q263 237 263 216Q263 213 263 206Q264 199 264 196Q264 182 253 175Q229 172 217 181Q209 187 198 211L187 214Q178 188 157 188Q120 188 53 258Q52 262 58 299Q72 302 99 310Q142 329 228 367Q240 380 318 421Q379 452 384 491Q366 545 275 567Q265 591 168 617Q54 648 42 655Q41 657 41 659Q41 672 89 675Q122 676 146 674Q175 675 225 666Q286 638 315 622Q366 594 398 567Q415 571 428.5 549.5Q442 528 453 528Q459 528 466 532Q528 570 591 608Q680 659 724 652Q738 657 768.0 659.0Q798 661 812 666Q820 665 831 665Q840 665 859.5 666.0Q879 667 889 667Q932 667 954 647ZM735 584Q711 598 675 589Q663 569 624.0 564.5Q585 560 573 540Q557 541 536.0 520.5Q515 500 499 501Q493 495 449 465Q417 444 406 422Q398 422 391 422Q382 421 379 414Q347 386 315 359Q276 328 239 326Q215 315 191 304Q164 289 157 266Q166 259 185.0 261.5Q204 264 212 260Q262 282 311 304Q389 339 398 351Q414 355 435.5 377.0Q457 399 472 403Q476 406 499 413Q516 418 518 430Q539 452 560 473Q585 499 609 507Q629 532 688 551Q693 562 711.5 570.0Q730 578 735 584ZM738 8Q726 41 699 44Q687 42 666 33Q664 24 652 14Q637 2 634 -3Q644 -22 666 -60Q668 -62 684 -78Q695 -91 703 -91Q711 -91 718 -79Q717 -62 725 -35Q737 -1 738 8ZM581 -14Q563 23 516 19Q498 -17 483 -11V-25Q508 -60 505 -109Q508 -111 511.5 -121.5Q515 -132 521 -132Q523 -132 527 -131Q529 -125 544 -111Q556 -100 554 -88Q581 -62 581 -14Z"/></svg>