<svg xmlns="http://www.w3.org/2000/svg" viewBox="37 -699.3829787234042 572 971.3829787234042" fill="currentColor" role="img"><title>fcaslon-quotesingle</title><path transform="scale(1,-1)" d="M566 407Q555 407 539.5 458.5Q524 510 505 516Q496 510 447 470Q413 441 385 429Q346 429 335 416H239Q229 416 229 389Q229 365 243 360Q427 350 427 131Q418 104 409 78Q397 44 372 44Q360 44 354 90Q346 154 344 159Q315 170 287 182Q251 195 228 196Q191 198 153.5 169.5Q116 141 116 114Q116 99 129 90Q134 98 147 113Q185 146 246 146Q317 146 340 40Q337 35 337 21Q337 12 339.5 -22.0Q342 -56 342 -78Q342 -156 308 -199Q302 -206 291.0 -210.0Q280 -214 275.5 -217.0Q271 -220 270 -248Q269 -272 255 -272Q239 -271 239 -262Q239 -226 235 -221Q158 -174 157 -139Q158 -119 153 -79Q143 -43 143 -40Q140 -26 143 4Q135 14 120.5 21.5Q106 29 94.0 36.0Q82 43 59.5 97.0Q37 151 37 167Q37 244 72.5 285.0Q108 326 185 343Q189 347 189 401Q189 408 135 450Q77 495 70 508Q47 547 47 590Q47 654 97 686Q113 696 143 699Q171 702 189.0 681.5Q207 661 207 634Q207 576 142 576Q130 576 117 588Q101 601 93 603Q93 470 196 470Q218 470 230 499Q239 521 248 544Q257 557 290 590Q357 618 367 622Q399 631 455 631Q469 620 500 603Q544 589 578 540Q609 494 609 453Q609 407 566 407ZM413 586Q354 586 304 551Q248 512 248 456Q248 443 296 443Q351 443 407.0 483.5Q463 524 463 557Q463 586 413 586Z"/></svg>