<svg xmlns="http://www.w3.org/2000/svg" viewBox="20 -695 951 1001" fill="currentColor" role="img"><title>fcaslon-ae</title><path transform="scale(1,-1)" d="M971 631Q971 590 952.0 569.0Q933 548 906 548Q876 548 852.5 570.5Q829 593 829 629Q829 638 858.0 666.5Q887 695 896 695Q924 695 947.5 677.0Q971 659 971 631ZM855 492Q855 470 835.0 455.5Q815 441 791 441Q738 441 738 496Q738 554 785 554Q811 554 833.0 535.5Q855 517 855 492ZM855 217Q849 155 835 122Q822 109 796 91Q759 65 741 65Q727 65 727 82Q727 90 733.5 104.5Q740 119 740 127Q740 141 723.5 159.0Q707 177 707 188Q707 196 720.5 207.5Q734 219 734 229Q734 281 676 281Q651 281 604 269Q573 278 573 332L613 376V389Q600 406 586 423Q569 441 550 441Q542 441 532.0 431.5Q522 422 514 422Q504 422 489.0 431.5Q474 441 466 441Q447 441 427.5 424.0Q408 407 408 389Q408 383 427.0 346.5Q446 310 446 283Q446 262 406 262Q386 262 359.0 288.0Q332 314 312 314Q282 314 257 298Q229 280 229 252Q229 237 262.5 223.0Q296 209 296 195Q296 190 293 184L262 154Q261 151 261 147Q261 140 268.5 124.5Q276 109 276 102Q276 88 254 82Q188 99 162 139Q139 175 139 246Q139 287 153 300Q216 358 259 358Q261 358 274.5 354.0Q288 350 295 350Q306 350 306 359Q306 374 287.0 394.5Q268 415 268 430Q268 460 295 460Q323 460 351 439Q362 446 364.5 455.0Q367 464 370 474Q407 562 487 562Q523 562 581 544Q605 536 622 502Q632 482 643 441Q651 410 656 408Q678 422 697 422Q734 422 734 394Q734 382 727.5 365.0Q721 348 721 348Q721 345 778 303Q839 257 855 217ZM243 548Q243 520 222 504Q205 490 180 490Q139 490 139 518Q139 542 163.0 561.5Q187 581 212 581Q243 581 243 548ZM573 194Q573 174 556.0 162.5Q539 151 515 151Q486 151 467 166Q444 183 444 212Q444 268 492 268Q521 268 547.0 246.0Q573 224 573 194ZM154 631Q154 612 137.0 589.5Q120 567 102 562Q83 556 54.0 584.5Q25 613 25 633Q25 694 82 694Q109 694 131.5 676.5Q154 659 154 631ZM861 -103Q865 -137 852 -165Q836 -198 803 -198Q775 -198 775 -142Q775 -81 813 -81Q847 -81 861 -103ZM971 -243Q971 -272 951.5 -289.0Q932 -306 907 -306Q854 -306 854 -252Q854 -217 874 -195Q891 -176 916 -176Q939 -176 955.0 -193.5Q971 -211 971 -243ZM753 -26Q753 -46 737.0 -61.0Q721 -76 701 -76Q687 -76 675.5 -53.5Q664 -31 651 -31Q624 -53 601.0 -91.0Q578 -129 561 -140Q530 -160 466 -160Q419 -141 398 -127Q359 -102 351 -72Q352 -60 351 -38Q345 -26 337 0Q325 0 311.5 -12.5Q298 -25 285 -25Q270 -25 255.5 -11.0Q241 3 241 17Q241 31 265.0 45.5Q289 60 293 71Q295 77 293 102Q296 109 332.5 123.0Q369 137 393 137Q420 137 420 119Q420 97 382 52Q382 -8 385 -21Q396 -58 440 -58Q454 -51 524 -39Q573 -31 581 0Q578 20 578 36Q578 110 629 110Q652 110 677 95Q699 82 701 71L709 25Q711 13 732.0 0.5Q753 -12 753 -26ZM234 -72Q244 -76 244 -96Q244 -122 230 -143Q213 -169 187 -169Q162 -169 142.0 -145.5Q122 -122 122 -95Q122 -45 191 -45Q210 -55 234 -72ZM135 -225Q135 -255 117.0 -271.5Q99 -288 74 -288Q52 -288 36.0 -274.5Q20 -261 20 -238Q20 -173 76 -173Q99 -173 117.0 -187.5Q135 -202 135 -225Z"/></svg>