<svg xmlns="http://www.w3.org/2000/svg" viewBox="58.67857142857143 -659 898.6850649350649 916" fill="currentColor" role="img"><title>fcaslon-three</title><path transform="scale(1,-1)" d="M957 -214Q959 -232 950 -242Q942 -245 934 -245Q913 -245 874 -219Q872 -210 859.0 -200.5Q846 -191 844 -185Q830 -180 818 -162Q803 -140 796 -134Q790 -123 770.0 -108.5Q750 -94 743.5 -80.5Q737 -67 703 -34Q673 -6 669 18Q647 26 627 50Q611 72 594 93Q593 99 591.0 105.5Q589 112 582 113Q557 116 520 84Q522 69 532 41Q551 38 566 24Q575 -3 591 -58Q599 -63 603 -77Q607 -95 609 -98Q603 -112 596.0 -127.0Q589 -142 577 -146Q574 -140 557 -103Q546 -77 532 -64Q527 -72 524 -86Q520 -109 520 -109Q528 -119 529.5 -136.5Q531 -154 533 -170Q535 -175 535 -178Q535 -189 521 -196Q499 -208 499 -208Q472 -199 466 -173Q466 -150 473 -144Q473 -137 475.5 -122.0Q478 -107 478 -100Q478 -78 462 -66Q452 -63 437 -83Q440 -96 422 -129Q407 -124 398 -105Q396 -86 404 -59Q414 -27 414 -13Q421 -5 426.5 14.5Q432 34 439 42Q442 51 449 66Q445 75 437 75Q435 75 432 74Q428 74 426 74Q417 74 412 83Q405 55 372 21Q337 -16 330 -37Q306 -59 302 -75Q280 -96 245 -141Q239 -149 209 -175Q186 -195 179 -212Q169 -216 146 -238Q127 -257 110 -257Q105 -257 100 -256Q80 -236 80 -224Q80 -218 83 -212Q111 -183 160 -121Q173 -111 200 -81Q223 -54 242 -42Q252 -36 276 -10Q296 11 313 16Q333 32 334 47Q357 68 368 80Q388 100 397 118Q386 125 366 122Q343 119 334 124Q315 114 295 105Q271 93 252 94Q248 93 235.5 88.0Q223 83 216 83Q208 83 201 89Q186 96 186 110Q193 122 219.0 134.0Q245 146 251 161Q251 166 238 176Q219 171 196 171Q161 171 123 182Q111 196 124 214Q143 236 199 227Q206 221 222 222Q245 223 247.0 224.0Q249 225 253.5 229.5Q258 234 256 239Q256 239 205 269Q204 277 205 281Q207 288 214 287Q227 285 246.5 272.5Q266 260 275 257Q279 246 291.0 243.0Q303 240 314 238Q333 241 352.5 245.0Q372 249 383 265Q385 277 374.5 289.0Q364 301 355 312Q293 372 280 384Q238 426 209 462Q201 463 195.0 473.5Q189 484 185 487Q173 502 114 544Q71 575 59 613Q56 633 81 640Q113 641 142 611Q185 567 193 562Q194 554 204.0 548.0Q214 542 217 536Q228 525 261 478Q285 441 314 428Q342 394 353 383Q376 357 394 343Q411 326 422 326Q427 326 432 329Q443 333 443 344Q443 349 440.5 358.0Q438 367 438 371Q435 382 428 404Q427 409 417 425Q409 438 409 448Q409 452 410 456Q388 470 399 500Q414 513 421 505Q441 482 459 443Q462 442 464 442Q468 442 473.5 446.5Q479 451 482 451Q484 468 475.5 505.5Q467 543 467 558Q467 600 511 613Q523 615 533 593Q537 578 537 561Q537 547 532.5 515.5Q528 484 529 467Q535 465 541 464Q548 462 554.5 467.0Q561 472 569 496Q575 517 585 517Q590 517 597 513Q609 506 613 486Q594 424 569 395Q571 385 556.0 376.5Q541 368 544 356Q545 339 545 322Q548 300 559 291L565 286Q581 302 584 325Q599 336 617.0 362.5Q635 389 650 401Q678 424 720 470Q768 521 787 539Q794 558 814 579Q845 611 848.5 614.5Q852 618 873 642Q889 659 902 659Q910 659 919 654L938 627Q936 609 920 588Q904 571 889 553Q885 546 870.5 535.5Q856 525 853 516Q811 479 770 443Q720 399 690 360Q683 353 591 279Q587 262 607 246Q628 252 648 258Q672 267 683 282Q740 308 772 308Q795 308 814 297Q814 282 789.5 270.0Q765 258 765 254Q765 247 785 238Q792 236 799 236Q809 236 826.0 242.0Q843 248 852 248Q859 248 865 246Q880 238 891 214Q890 196 865 179Q852 175 817 178Q786 180 770 170Q771 159 787.5 148.5Q804 138 804 128Q804 124 803 120Q787 110 767 110Q736 110 690 135Q666 144 614 154L607 148Q623 112 629 103Q646 78 669 75Q674 66 691 59Q704 49 745 2Q776 -33 804 -42Q829 -59 868.5 -102.0Q908 -145 933 -161Q934 -170 946.0 -186.5Q958 -203 957 -214ZM570 202Q561 267 518 275Q506 267 473.0 266.0Q440 265 429 260Q408 251 410 221Q412 184 402 155Q406 152 443 126Q469 109 477 88Q491 86 502.5 103.5Q514 121 527 120Q577 154 570 202Z"/></svg>