<?xml version="1.0" standalone="no"?>
<!DOCTYPE svg PUBLIC "-//W3C//DTD SVG 1.1//EN" "http://www.w3.org/Graphics/SVG/1.1/DTD/svg11.dtd" >
<svg xmlns="http://www.w3.org/2000/svg" xmlns:xlink="http://www.w3.org/1999/xlink" version="1.1" viewBox="-10 0 877 1000">
   <path fill="currentColor"
d="M420 706c-7 1 -14 2 -20 2c-50 0 -70 -12 -101 -20c-10 -5 -28 -3 -36 -11c-79 -36 -88 -48 -89 -48c-8 -7 -33 -31 -39 -37c-11 -8 -18 -27 -26 -37c0 -3 -16 -40 -18 -42c-24 -40 -33 -90 -37 -137l-4 -15l1 -25v-6l7 -50c3 -25 4 -37 6 -48c-1 -4 -1 -7 -1 -11
c0 -34 30 -91 43 -115c17 -31 55 -60 89 -84c28 -4 33 -25 58 -25c15 0 52 -23 81 -28c35 -6 59 -18 85 -18c35 0 72 17 104 27c12 3 24 6 40 6l21 -1c58 0 91 50 125 71c17 13 26 27 38 45c11 16 29 29 30 50c1 7 27 35 27 70c0 10 -4 16 -4 21c0 7 17 20 17 40l-3 39l3 58
c0 12 -7 50 -12 56c-7 7 -4 16 -7 25c-23 57 -34 84 -73 135c-74 96 -208 103 -305 113zM249 16c-2 -1 -5 -1 -8 -1c-15 0 -28 9 -28 24c0 4 2 14 9 14c1 0 1 0 1 -1c0 -3 -2 -6 -2 -8c2 -8 9 -15 17 -15c7 0 12 9 12 12c0 7 -25 9 -25 37c0 57 52 103 100 103
c12 0 25 -6 39 -6s35 12 35 30c0 11 -9 20 -19 20c-2 0 -7 -4 -11 -4c-1 0 -1 1 -1 2c0 12 27 16 25 16c16 0 29 -13 29 -29c0 -17 -18 -25 -18 -30s19 -4 19 -10c0 -19 -29 -25 -40 -25c-13 0 -26 11 -55 11c-6 0 -10 -2 -10 -7c0 -4 4 -6 9 -6c8 0 14 2 17 2
c28 0 48 -19 48 -41c0 -1 -1 -2 -2 -2l-19 6c0 -2 6 -23 6 -27c0 -9 -4 -17 -4 -24l1 -14c0 -5 -1 -6 -5 -6c-19 0 -24 22 -36 22c-2 0 -3 -2 -3 -6v-5c0 -4 -1 -6 -5 -6c-25 0 -22 54 -50 54c-3 0 -8 -3 -8 -7c0 -10 34 -19 34 -52c0 -8 -2 -17 -7 -23c-8 0 -21 11 -21 14
v6c-3 -10 -18 -17 -24 -18zM268 376c-1 4 -2 12 -6 12c-2 0 -5 -5 -8 -6v2c0 20 19 24 19 34c0 2 -2 3 -5 3c-2 0 -19 -17 -28 -23c-10 -7 -38 -14 -39 -14s-2 1 -2 5c1 9 8 14 8 21c0 6 -16 6 -21 7c-11 3 -26 17 -40 17c-4 0 -9 -4 -12 -4c-2 0 -3 2 -3 5
c0 31 49 37 49 40l-8 10c0 2 4 2 9 2c23 0 36 -4 44 -17c1 -1 2 -2 3 -2s1 1 1 2c0 9 -15 12 -15 25c0 4 2 17 6 17l8 -8c2 0 1 10 2 12v2c0 14 16 21 27 21c6 0 12 -1 12 -4c0 0 -15 -22 -15 -25c0 -18 15 -27 31 -27c18 0 36 11 36 32c0 2 1 3 2 3c2 0 6 -6 6 -9
c-13 -41 -36 -65 -75 -65c-2 1 -9 2 -14 2c-3 0 -5 0 -5 -2c0 -4 12 -4 22 -4c28 0 53 14 64 34c2 2 8 15 10 16c1 0 1 -1 1 -3c0 -64 -42 -64 -51 -122c-7 0 -10 6 -13 11zM398 255c-9 12 -11 41 -11 53l2 20c0 3 -1 6 -2 7c-6 0 -9 -10 -15 -12c-1 2 -2 4 -2 7
c0 11 14 26 17 36c13 37 25 82 28 123c0 60 -7 101 -22 101c-2 0 -3 -1 -3 -5c0 -28 16 -55 16 -74c0 -13 -2 -25 -6 -38c-1 -5 -19 -35 -28 -35c-3 0 -6 4 -6 8c0 11 6 16 6 22c0 1 0 2 -1 2c-2 0 -12 -11 -22 -11c-7 0 -10 4 -10 10c0 12 34 20 34 52c0 31 -20 61 -20 83
c0 18 20 27 20 30c0 26 -32 40 -51 40c-27 0 -47 -12 -47 -12c-3 0 -5 2 -5 4c0 6 21 19 54 19c28 0 46 -11 61 -50c2 -4 2 -4 5 -5c27 -22 34 -68 34 -109c0 -56 -9 -113 -21 -167c-1 -5 -1 -11 -1 -17c0 -27 8 -51 8 -76c0 -7 -2 -12 -5 -12c-2 0 -4 2 -7 6zM530 268
c1 0 5 4 7 4c0 -3 -9 -18 -12 -22c-1 -9 -2 -15 -2 -24c0 -11 13 -30 24 -30c5 0 9 3 10 3c0 0 2 -2 2 -9c0 -2 -5 -16 -13 -16c-1 0 -2 0 -3 1c-3 -1 -9 -4 -9 -6c0 -1 16 -3 26 -9c20 -12 19 -38 46 -50c6 -3 13 -2 13 -6c0 -17 -42 -26 -42 -32c0 -3 3 -7 3 -11
c0 -10 -6 -19 -15 -21c-5 5 -1 19 -14 24c-10 15 -32 20 -40 38c-2 4 -3 6 -4 6c-3 0 -4 -13 -16 -13c-3 0 -6 2 -6 7c0 2 3 3 3 7v1s1 1 1 2c0 8 -12 24 -12 45c0 3 1 5 2 5c1 -3 2 -12 5 -12c2 0 3 2 3 4c0 9 -7 19 -7 36c0 4 1 8 2 10c2 -5 3 -25 7 -25c1 0 2 3 2 6
c0 8 -1 9 -1 14c0 12 7 39 10 38c-3 -14 -6 -27 -6 -41c0 -21 19 -65 29 -65c1 0 3 1 3 3c0 4 -20 36 -18 35c-7 2 -8 21 -8 30c1 12 1 23 4 35c2 3 10 25 10 24v-2c0 -3 -2 -10 -2 -15c0 -2 1 -4 3 -4c1 0 9 30 15 35zM748 258c9 0 13 -6 13 -14c0 -12 -9 -16 -9 -30
c0 -26 9 -47 9 -47c0 -2 0 -3 -1 -3s-17 38 -17 50c0 11 8 17 8 26c0 7 -3 8 -8 8c-11 0 -14 -9 -14 -20c0 -30 10 -52 10 -75c0 -49 -54 -132 -82 -132c-2 0 -3 1 -3 3c0 12 45 22 45 60l-1 6c1 2 1 4 1 6c0 5 -3 18 -8 18c-1 0 -2 -1 -2 -3c2 -7 6 -13 6 -19
c0 -3 -1 -6 -3 -8v-2c0 -6 -7 -23 -9 -23l-4 5c-2 0 -4 -18 -22 -29c-2 -2 -4 -2 -4 -2h-1c0 5 17 15 17 30l-13 38v1l5 -2c2 0 3 2 3 4c0 10 -10 24 -10 27c0 21 12 39 10 40c3 -1 27 -33 30 -33c1 0 2 16 6 16c7 0 15 -30 15 -25c0 -7 -4 -13 -4 -21c0 -6 1 -8 3 -8
c6 0 10 13 10 19s-1 12 -4 18c-12 25 0 91 -62 91c-9 0 -23 -4 -23 -17c0 -8 5 -14 14 -14c10 0 20 6 29 6c11 0 19 -8 19 -18c0 -5 -8 -10 -11 -10c-2 0 -2 0 -2 2s5 7 5 11c0 5 -4 9 -11 9c-9 0 -18 -7 -31 -7c-16 0 -24 13 -24 25c0 14 9 18 26 25c1 0 2 1 2 2
c0 3 -11 10 -13 13c2 2 5 2 8 2c21 0 34 -9 48 -20c4 -4 16 -29 24 -29c2 0 3 2 3 4c0 7 -10 19 -10 27c0 3 6 16 12 16l7 -2c4 0 6 6 9 6c2 0 5 -1 9 -1zM203 330c-32 4 -69 13 -91 38c-3 2 -8 6 -8 9s12 5 12 10c0 2 -1 5 -4 8c-12 15 -23 50 -23 52c0 13 6 32 10 32
c3 0 5 -4 7 -4s2 5 3 11c3 14 24 30 27 30c2 0 2 -6 5 -6c5 0 16 7 17 7c6 0 16 -5 16 -14c0 -4 -2 -6 -5 -6c-4 0 -9 2 -14 2c-29 0 -39 -39 -39 -60c0 -60 66 -95 122 -95c59 0 109 32 144 88c4 6 15 20 19 20v-2c0 -20 -27 -52 -41 -67c-41 -44 -102 -53 -141 -54z
M630 95c4 1 8 8 12 8c6 0 12 -20 12 -24v-2c1 -5 4 -9 4 -13l-25 -36c0 -4 2 -5 2 -8c0 -13 -5 -20 -12 -20c-8 0 -8 10 -11 10c-2 0 -4 -3 -5 -3c-20 -17 -60 -16 -71 -18c-36 -3 -57 -27 -97 -27c-10 0 -17 2 -18 8c3 4 6 5 10 5c2 0 6 -1 10 -1c24 0 57 27 57 74
c0 12 -10 31 -25 31c-12 0 -25 -9 -25 -21c1 -19 31 -1 31 -25c0 -6 -4 -13 -10 -14c0 0 -1 1 -1 2c0 3 4 8 4 10c-3 18 -35 -2 -35 27c0 10 13 17 13 22l-3 5c0 7 17 8 22 10c15 -6 27 -16 28 -16c2 0 3 3 6 3c0 0 6 -17 6 -23v-6c0 -42 -34 -84 -69 -84h-4c0 -2 3 -2 6 -2
c51 0 93 45 114 51c3 2 16 7 22 7c2 0 3 -1 3 -1c-5 -8 -17 -7 -17 -12c0 -1 0 -1 1 -1c28 14 32 21 33 44c1 8 6 22 13 22c4 0 4 -12 6 -15c3 0 4 5 4 9v6c0 8 6 10 9 18zM587 399c-3 -6 -19 -19 -27 -19c-4 0 -6 2 -6 7c0 1 1 4 1 6c0 3 -1 5 -4 6c-9 -3 -16 -11 -27 -11
c-12 0 -24 7 -35 7c-3 0 -5 -1 -7 -1c-1 0 -2 1 -2 2c0 17 9 33 20 47c3 1 14 5 14 10c-1 4 -12 1 -12 5c0 16 33 23 40 24h4c3 0 6 -1 8 -3c0 -1 0 -3 -1 -4c1 -1 2 -1 3 -1l7 1c1 0 2 0 3 -2c-2 -6 -14 -6 -14 -9c0 -1 2 -1 3 -1c5 0 10 7 22 7c2 0 2 -1 2 -2v-1
c-9 -1 -30 -14 -30 -23c0 -1 0 -2 1 -2c13 0 19 22 41 22c1 0 1 0 1 -1c0 -8 -19 -12 -20 -20c1 -1 2 -2 3 -2c5 0 12 9 16 10c1 0 2 0 2 -1c0 -8 -15 -11 -15 -17c0 -1 2 -1 5 -2c4 1 6 8 11 8c0 -2 -12 -16 -11 -16c3 0 12 4 13 4c-3 -2 -9 -8 -9 -11l5 -6
c0 -3 -4 -10 -5 -11zM687 335c-13 3 -40 3 -53 18c-2 2 -7 15 -11 15c-3 0 -5 -8 -7 -8c-7 0 -18 24 -18 37c0 6 2 25 7 25c3 0 2 -5 4 -5c4 0 2 13 4 15c0 1 6 -8 8 -8c1 0 1 0 1 2s-1 2 -1 12c0 3 1 5 3 5c1 0 7 -41 15 -41c1 0 2 1 2 4c0 8 -11 32 -11 42c0 2 0 3 1 4
c0 -2 9 -11 11 -11h1c0 2 -2 4 -2 5s1 2 2 2c46 0 51 -56 51 -62c-1 -1 -2 -1 -3 -1c-9 0 -13 9 -21 9c-1 0 -3 -2 -3 -3c0 -5 11 -9 11 -19c0 -5 -2 -10 -2 -14c0 -9 10 -15 11 -23zM190 117c-13 0 -25 15 -25 28c0 6 9 2 9 6c0 5 -9 18 -9 30c0 5 2 24 11 24
c2 0 4 -3 10 -3c8 0 15 3 23 4c7 -1 18 -9 19 -9c5 0 3 16 5 20c14 -8 35 -6 35 -33c0 -3 -1 -6 -4 -8c-2 1 -3 6 -6 6c0 0 -2 -1 -2 -2l6 -11s-7 3 -10 3c-1 0 -2 0 -2 -1c0 -2 4 -4 4 -10c0 -1 0 -2 -1 -2s-4 4 -4 4c-4 0 2 -11 -8 -11c-26 0 -24 17 -32 17
c-1 0 -1 -1 -1 -2c0 -11 15 -23 19 -27c0 -3 -7 -4 -7 -6l7 -6c-4 -5 -14 -2 -14 -4l3 -4c-1 -4 -5 -5 -10 -5c-6 0 -14 2 -16 2zM713 439c-14 1 -42 -3 -42 14c0 2 0 2 2 2l8 -2c2 0 3 2 3 3c0 6 -15 1 -17 9c0 1 2 2 3 2l3 -1c2 0 2 1 2 3c-4 4 -16 2 -16 10
c1 0 11 -2 16 -2c2 0 4 0 4 1l-29 9c1 2 4 3 8 3c7 0 17 -2 19 -3c2 0 2 0 2 1c0 9 -26 3 -26 9c0 2 2 4 3 4s4 -1 6 -1c1 0 2 1 2 2s-1 3 -3 3c-1 0 -3 0 -4 -1v1c0 5 11 8 11 10c0 1 -2 1 -7 1c2 13 13 18 25 18c17 0 37 -9 37 -18c0 -6 -12 -3 -12 -6c0 -2 41 -20 41 -44
c0 -2 0 -3 -1 -4h-6l-28 -7h-4c-3 0 -4 -1 -4 -3c0 -4 2 -8 4 -13zM624 529c-3 0 -4 7 -4 13v8c0 5 -1 9 -3 9l-6 -14s-3 1 -3 5l1 6c0 2 -2 2 -3 2l-8 -13c-5 0 -8 17 -8 23c0 12 6 29 12 29c3 0 7 -10 8 -10c4 0 17 37 54 37c-1 0 9 -46 10 -43c-1 -3 -7 -7 -7 -12
c0 -1 1 -2 3 -2l13 4c5 0 6 -1 6 -3c0 -9 -13 -36 -32 -36c-1 0 -3 0 -5 1l6 13c-1 1 -2 2 -3 2c-6 0 -7 -16 -14 -19c-1 1 -1 2 -1 3c0 3 5 7 5 9s-2 4 -4 4l-10 -15c-1 2 -1 5 -1 8c0 17 10 23 10 36c0 2 -1 3 -2 3c-10 0 -14 -34 -14 -48zM563 299c14 0 38 4 41 4
c34 0 98 -37 98 -63c-4 0 -14 11 -19 14c-20 12 -41 22 -64 22c-19 0 -41 -11 -41 -33c0 -9 2 -17 12 -17c14 0 13 20 16 20c1 0 3 -6 3 -11c0 -10 -9 -23 -24 -23c-24 0 -17 24 -24 31c-2 0 -4 -4 -7 -4c-1 0 -2 1 -3 2c0 4 4 7 4 12v1c8 8 12 18 22 25c4 3 28 5 30 9
c-5 6 -11 8 -17 8c-11 0 -23 -4 -33 -4c3 0 -61 12 -77 20c1 1 3 2 6 2c11 0 34 -7 43 -7c2 0 3 1 3 2l-3 6c0 7 13 9 20 9c3 0 6 -1 7 -3c-9 -1 -16 -3 -16 -11c2 -10 14 -11 23 -11zM465 404c-2 -1 -3 9 -3 19c0 55 34 117 89 117c16 0 32 -2 46 -9c15 -8 34 -20 34 -41
c0 -4 -3 -14 -10 -14c-4 0 -9 7 -12 7c-1 0 -2 0 -3 -2c2 -11 14 -11 14 -19c0 -10 -13 -25 -16 -29c-3 1 -3 10 -3 18c0 14 3 14 3 20s-4 6 -8 6h-10s-21 2 -21 10c0 6 22 7 27 7c2 -2 4 -3 5 -3c2 0 3 2 3 4l-4 11c0 1 1 2 2 2l10 -9c1 0 1 2 1 4c0 19 -29 27 -47 27
c-41 0 -80 -35 -88 -75c-3 -18 -3 -34 -9 -51zM745 309c0 -1 -1 -2 -2 -2l-3 1c20 -9 4 -32 24 -32c5 0 11 6 18 6c1 0 1 -1 1 -1c0 -8 -12 -11 -20 -11c-28 0 -11 33 -48 33c-8 0 -23 -10 -31 -13c-1 -1 -4 -1 -6 -1c-14 0 -26 11 -26 19c0 11 8 20 21 20c9 0 13 -4 13 -7
c0 -1 -1 -2 -2 -2s-8 3 -11 3c-7 0 -13 -5 -13 -11c0 -9 11 -16 17 -16c13 0 29 16 39 16c9 0 15 -1 20 -2c-8 4 -13 17 -13 23v5c0 5 -1 5 -3 5h-3c-3 0 -6 3 -6 12c0 25 26 31 26 52c0 4 -2 6 -4 6c-10 0 -6 -18 -16 -23c-3 2 1 8 -5 8c-2 0 -4 -1 -7 -1s-4 1 -4 2
c0 8 19 30 27 30c10 0 20 -10 20 -28l-10 -60c0 -4 0 -24 7 -31zM129 210c-6 16 -39 40 -39 63c0 27 36 39 52 39c12 0 31 -4 38 -4c3 0 6 1 10 3c-3 6 -16 6 -17 14h4c8 0 29 -4 28 -9c-1 -3 -5 -4 -5 -8c0 -1 1 -1 3 -1h7c36 0 116 26 155 71c3 4 12 19 16 19
c0 -47 -114 -97 -161 -97h-10c-5 0 -8 -1 -8 -3c0 -3 6 -7 6 -11l-29 -15c-1 2 -1 4 -1 5c0 12 16 23 16 25s-2 2 -5 2h-9l-35 3c-14 0 -48 -8 -48 -34s36 -46 36 -66c0 0 1 -3 0 -3c-2 0 -3 7 -4 7zM499 524c-2 -1 -4 -3 -5 -3s-7 5 -7 10c0 7 17 3 17 9c0 3 -10 16 -10 24
c0 14 9 28 16 40c2 0 27 -22 29 -24c5 -4 6 -15 13 -15c2 0 3 2 3 5s0 6 -1 7c1 1 3 2 5 2c20 0 30 -38 30 -36c0 -1 -1 -2 -2 -2c-7 0 -8 13 -14 13c-1 0 -1 0 -1 -2v-4c0 -3 -3 -3 -4 -3c-4 0 -5 7 -10 7c-3 0 -1 -6 -5 -6c-3 0 -7 7 -11 7c-1 0 -2 -1 -2 -2l1 -6
c0 -1 0 -1 -3 -1l-11 7c-1 -1 -2 -2 -2 -3l3 -6c0 -2 -20 -13 -29 -18zM274 182c0 7 13 15 13 21c0 1 -1 2 -2 2c-4 0 -6 -10 -9 -12c-3 1 -4 6 -4 10c0 24 16 51 44 51c4 0 5 -4 5 -9s-1 -9 -1 -11s1 -5 3 -5c9 0 3 15 27 15c3 0 5 0 5 -2c0 -8 -25 -46 -35 -46l-1 1
c0 3 5 4 5 8c0 1 0 2 -1 2c-5 0 -11 -18 -19 -19l-1 1c0 5 7 8 7 11c0 1 -1 2 -2 2c-3 0 -11 -20 -21 -20h-1c0 2 9 9 9 14c0 2 0 3 -2 4c-3 0 -13 -19 -18 -19c0 0 -1 0 -1 1zM615 209h1c6 0 8 -25 35 -25c2 0 4 -1 4 -2s-4 -3 -9 -3c-9 0 -17 6 -25 6c-2 0 -4 0 -6 -1
c0 -8 30 -17 30 -42c0 -6 -7 -22 -12 -22c-1 0 -1 2 -3 2l-13 -7c-2 0 -2 1 -2 2c0 2 17 13 17 29c0 10 -8 14 -15 14c-16 0 -16 -20 -19 -20c-4 0 -7 13 -7 20v5c-6 6 -19 8 -19 25c0 5 3 6 6 6l11 -1c4 0 9 3 11 3c3 0 5 -1 10 -1s1 9 5 12zM166 55c4 -1 7 -1 9 -1
c11 0 13 15 13 25c0 2 -1 3 -3 3c-1 0 -7 -6 -13 -6c-1 0 -1 0 -1 1c0 28 25 34 39 36c4 0 2 -3 5 -4c2 0 3 3 4 3s1 -1 1 -1c0 -5 -5 -5 -6 -9c1 -1 1 -1 1 -2c0 -11 -12 -16 -12 -23c0 -1 1 -1 3 -1c3 0 9 16 12 15c1 -1 1 -2 1 -3c0 -5 -5 -7 -5 -13c1 0 5 0 5 -1
c0 -17 -9 -33 -28 -33c-12 0 -24 7 -25 14zM275 586c-4 1 -15 4 -15 8c0 1 0 3 2 3c8 0 27 -6 28 -6c17 0 31 11 31 27c0 29 -39 21 -39 30c0 4 10 7 17 7c12 0 17 -14 27 -14c3 0 1 5 3 7c12 -2 11 -26 11 -27c0 -28 -20 -40 -38 -40c-9 0 -18 2 -27 5zM422 277
c0 -5 -2 -7 -4 -7c-3 0 -4 3 -4 6c1 21 4 31 4 45l-1 23c0 21 11 46 51 46c19 0 43 -5 76 -12c8 -1 20 -19 20 -29c-1 -1 -2 -1 -3 -1c-5 0 -2 11 -26 21c-21 9 -43 15 -63 15c-27 0 -46 -12 -47 -43c1 -4 1 -10 1 -17c0 -16 -2 -36 -4 -47zM447 399c-14 11 -18 25 -18 40
c0 26 9 52 9 76c0 39 -13 89 -32 121c28 -19 39 -77 39 -125c0 -22 -8 -44 -8 -67c0 -15 15 -30 15 -40c0 -3 -1 -6 -3 -6c0 0 -1 0 -2 1zM650 329l-3 -1c-9 -2 -20 -3 -32 -3c-62 0 -158 28 -158 49c0 2 2 3 5 3s8 -2 13 -6c37 -32 133 -38 134 -38c17 0 34 4 42 4
c4 0 7 -1 7 -3s-2 -3 -8 -5zM145 220c-7 4 -13 13 -13 23c0 12 10 24 27 24c6 0 13 -2 13 -9h-2c-3 0 -5 2 -9 2c-9 -2 -16 -10 -16 -16c0 -10 10 -17 16 -17c16 0 34 29 57 43c14 8 26 16 40 22c0 -3 -36 -27 -51 -41c-16 -15 -26 -36 -45 -36c-5 0 -10 1 -17 5zM447 146
c-11 6 -18 9 -18 21c0 32 36 17 36 30c0 16 -43 -1 -43 36c0 6 2 11 3 11c-1 0 6 -33 24 -33h5c11 0 19 -6 19 -15c0 -18 -36 -10 -36 -30c0 -17 37 -15 37 -47c0 -7 -6 -18 -19 -18c-12 0 -20 17 -20 22c0 3 2 5 4 5c1 0 1 -1 1 -2v-1c3 -10 11 -15 17 -15c5 0 9 3 9 8
c0 14 -6 21 -19 28zM780 236c17 -17 15 -19 15 -29c0 -8 -4 -22 -18 -22c-12 0 -20 17 -20 22c0 3 2 6 3 6s7 -18 16 -18c6 0 12 6 12 14c0 7 -21 24 -21 33c0 20 32 22 32 37c0 19 -55 -9 -55 48c0 1 0 2 1 2c0 0 2 -3 4 -9c8 -22 26 -27 34 -27h5c11 0 19 -6 19 -15
c0 -17 -32 -20 -32 -36c0 -3 3 -4 5 -6zM202 215c3 49 91 87 102 95c5 4 16 8 19 14c5 4 45 36 46 36c-5 -18 -43 -48 -44 -46c0 1 7 10 7 9v1c-4 0 -44 -31 -58 -39c-25 -14 -56 -43 -60 -65c0 -5 -5 -9 -9 -9c-1 0 -3 1 -3 4zM465 229c8 0 21 7 21 17c0 15 -28 6 -28 27
c0 8 8 18 22 18c7 0 34 -18 34 -23c-17 0 -17 17 -32 17c-7 0 -15 -6 -15 -13c0 -14 26 -7 26 -24c0 -15 -14 -23 -27 -23c-24 0 -41 16 -41 38c0 23 15 38 35 39c4 0 7 -2 7 -3s-35 -8 -35 -34c0 -18 14 -36 31 -36h2zM99 500c6 56 83 93 110 93c1 0 23 -7 25 -14
c-1 1 -5 1 -9 1c-73 0 -110 -42 -121 -85c-1 -3 -2 -5 -3 -5s-2 6 -2 10zM176 519v2c0 5 20 -1 20 12s-20 17 -24 17c-27 0 -31 -31 -48 -31h-1c11 20 34 41 59 41c23 0 33 -13 33 -23c0 -13 -13 -26 -25 -26c-5 0 -10 2 -14 8zM754 521l6 -18c-1 -2 -2 -3 -3 -3
c-9 0 -18 45 -31 61c-8 10 -49 41 -48 55c0 2 1 3 2 3c30 0 71 -83 74 -98zM569 594c-4 -2 -8 -3 -11 -3c-18 0 -23 32 -45 32c-1 0 -3 -1 -5 -1c-1 0 -2 0 -2 1c0 2 12 5 15 5c10 -2 21 -24 32 -24c6 0 10 8 10 11c0 20 -35 26 -49 26s-30 -7 -38 -7c-1 0 -2 0 -2 1
c0 6 30 12 49 12c24 0 55 -13 55 -37c0 -6 -3 -12 -9 -16zM345 253c-16 2 -32 12 -32 28c0 23 31 34 46 48c1 -1 1 -1 1 -2c0 -16 -35 -20 -35 -46c0 -13 14 -20 25 -20c8 0 20 7 20 17c0 9 -16 15 -16 23c0 2 2 4 7 6c3 -3 0 -7 3 -11c4 -6 15 -8 15 -18
c0 -17 -18 -24 -25 -24h-4c-2 0 -4 0 -5 -1zM798 311v-2c0 -3 -3 -4 -8 -4c-32 0 -46 22 -46 50c0 42 33 58 38 59c2 -1 3 -3 3 -5c0 -9 -32 -22 -32 -55c0 -20 13 -43 41 -43h4zM288 499c-1 4 -2 8 -2 12c0 13 8 25 25 25c9 0 18 -2 25 -2c9 0 13 6 13 13s-6 16 -14 16
c-4 0 -8 -4 -10 -4c0 0 -1 0 -1 2c0 6 8 9 14 9c10 0 21 -10 21 -23c0 -11 -13 -22 -25 -22l-20 2c-6 0 -16 -3 -16 -15l1 -12c0 -5 -4 -8 -5 -8c-3 0 -5 4 -6 7zM506 653c-5 -3 -12 -5 -18 -5c-17 0 -43 24 -55 30c2 1 3 1 4 1c14 0 27 -18 45 -18c10 0 20 5 20 14
c0 7 -5 12 -15 12l-18 -3c-4 0 -8 1 -11 6c1 1 1 11 3 10c3 -2 1 -11 11 -11c9 0 17 7 25 7c9 -2 14 -9 14 -17s-7 -12 -7 -19l4 -3c0 -1 -2 -2 -2 -4zM132 93c-2 1 -7 8 -7 12c0 1 0 2 2 3c1 -4 5 -6 8 -6c5 0 9 3 9 10c0 -1 -8 23 -31 44c-10 9 -17 23 -17 39
c0 2 3 29 10 29c1 0 1 -1 2 -2c-4 -12 -6 -21 -6 -28c0 -19 11 -28 17 -34c21 -21 36 -41 36 -50s-9 -19 -17 -19c-2 0 -4 1 -6 2zM483 561c-1 -1 -2 -2 -3 -2c-5 0 -7 12 -10 14c-4 2 -30 5 -30 27c0 1 1 1 1 1c5 0 12 -21 30 -21c11 0 14 8 14 17c0 16 -9 24 -32 24
c-9 0 -39 14 -39 23c3 0 26 -17 38 -17h6c18 0 35 -7 35 -28c0 -14 -10 -23 -10 -38zM120 559c29 51 82 49 82 66c0 4 -4 7 -7 7c-7 0 -14 -13 -22 -18c-1 1 -1 2 -1 3c0 11 21 23 30 23c10 0 14 -7 14 -11c0 -18 -49 -27 -69 -47c-8 -9 -24 -30 -28 -30c-1 0 -2 1 -2 2
s1 3 3 5zM541 494c-1 -1 -3 -1 -5 -1c-9 0 -23 7 -23 10c0 6 24 21 42 21l5 -1c4 -2 22 -17 21 -20c-3 0 -22 11 -26 11v-1c0 -3 16 -9 16 -15c0 -1 -1 -1 -2 -1c-8 0 -14 10 -20 10c-1 0 -2 -1 -2 -1c0 -7 12 -5 12 -11c0 -1 -1 -2 -2 -2c-4 0 -15 10 -24 10h-1
c0 -6 7 -5 9 -9zM400 639h-1c0 12 16 21 16 32c0 10 -8 18 -19 18c-9 0 -18 -6 -27 -8c-6 0 -17 0 -17 12c0 2 1 4 4 5c3 -5 4 -11 9 -11c14 0 20 13 35 13c14 0 26 -10 26 -22c0 -20 -16 -27 -26 -39zM295 547c-13 18 -47 23 -47 31c1 2 13 6 13 6c15 0 51 -25 54 -40
c-2 -2 -6 -3 -9 -3c-4 0 -9 2 -11 6zM257 612c-8 6 -12 5 -12 13c0 10 18 12 20 20c0 7 -10 12 -18 12c-10 0 -15 -15 -18 -15c-1 0 -1 1 -1 2c0 12 11 19 23 19c9 0 22 -6 22 -18c0 -8 -16 -16 -16 -22c0 -10 35 -9 35 -16c0 -2 -5 -2 -8 -2c-9 0 -18 2 -27 7zM569 644
c0 -1 -1 -1 -1 -1c-6 0 -23 22 -26 24l-14 14c-3 1 -15 10 -15 10c24 0 45 -35 60 -35c4 0 12 5 12 11l-4 12h2c6 0 9 -7 9 -15c0 -10 -5 -21 -17 -21c-2 0 -4 0 -6 1zM188 360c-17 6 -37 17 -37 36c0 11 11 16 19 16c5 0 9 -3 9 -7c-2 1 -3 2 -5 2c-7 0 -11 -10 -11 -16
c4 -38 63 -27 88 -37c0 -2 -3 -3 -9 -3c-16 0 -51 8 -54 9zM458 332c-4 -1 -7 -2 -10 -2c-5 0 -7 2 -7 4c0 3 9 10 24 10c13 0 76 -9 76 -16c0 -1 -3 -2 -6 -2c-16 0 -39 7 -56 7c-9 0 -16 0 -21 -1zM243 232c-1 3 -2 5 -2 8c0 16 34 44 47 44c0 -18 -34 -20 -34 -40
c0 -6 3 -10 9 -10c2 0 5 0 8 2c-1 -8 -7 -11 -14 -11c-5 0 -11 3 -14 7zM72 210c0 1 -1 5 -1 9s1 7 4 7v-3c0 -5 3 -7 6 -7s8 3 8 10c0 4 -12 18 -12 44c0 7 1 13 6 17c1 -1 1 -2 1 -3c0 -3 -1 -7 -1 -15c0 -10 4 -14 11 -36c1 -4 3 -9 3 -14c0 -9 -7 -17 -14 -17
c-4 0 -8 3 -11 8zM381 -24v-1c4 -1 31 -9 31 -15c0 -1 -2 -4 -4 -4c-7 0 -25 10 -32 11c-6 6 -64 12 -64 15c4 2 7 2 11 2c16 0 42 -2 58 -8zM312 387l-1 -1c-3 0 -5 10 -5 11c0 6 5 27 22 27c1 0 2 0 3 -1c-9 -2 -14 -11 -14 -18c0 -6 3 -10 9 -10c2 0 4 0 6 1
c6 1 39 30 37 32l1 -1c0 -7 -31 -44 -50 -44c-3 0 -6 1 -8 4zM624 341c-2 0 -5 -1 -8 -1c-24 0 -44 12 -44 27c0 6 6 16 15 16c6 0 7 -2 7 -6c0 -5 -10 -4 -10 -12c0 -21 47 -12 47 -21c0 -2 -4 -3 -7 -3zM788 320c-9 0 -19 6 -21 20c0 3 3 5 5 5c6 0 2 -16 16 -16
s15 22 15 32c0 8 -1 16 -2 22c1 4 2 5 4 5c5 0 6 -14 6 -23c0 -15 -4 -45 -23 -45zM798 414c1 -2 1 -3 1 -4c0 -2 0 -3 -2 -3s-5 3 -16 16c-6 7 -9 14 -9 22l1 11c0 26 -19 34 -19 37c0 2 3 4 4 4s2 0 2 -1c2 -2 21 -18 21 -36l-2 -13c0 -16 10 -16 19 -33zM106 260
c-1 2 -2 5 -2 7c0 34 53 32 55 32c3 0 6 0 6 -1c0 -2 -52 -7 -52 -27c0 -6 3 -9 8 -9c4 0 8 5 9 5s1 -1 1 -2c0 -10 -8 -13 -12 -13c-5 0 -10 3 -13 8zM74 331c-2 4 -4 9 -4 13c0 19 21 46 32 46c1 0 1 0 1 -1c0 -10 -26 -17 -26 -44c0 -4 2 -14 9 -14l11 1c2 0 4 -1 4 -2
c0 -4 -7 -7 -11 -7c-6 0 -13 3 -16 8zM632 45c-8 -13 -23 -28 -34 -28l-3 2c-3 0 -15 -10 -17 -10s-27 -2 -26 -4c1 -1 3 -2 6 -2c64 0 78 35 78 42c0 2 0 2 -1 2s-2 0 -3 -2zM314 122c2 -2 6 -4 8 -4c0 0 1 0 1 1c0 10 -33 22 -42 22c-11 0 -29 -6 -29 -17c0 -1 0 -1 1 -1
c9 0 20 9 31 9c12 0 20 -3 30 -10zM367 -11c0 1 -1 3 -1 5c0 1 0 2 1 3c3 -3 7 -4 9 -4c6 0 10 5 10 11c0 3 -5 11 -5 20v1c3 0 16 -13 16 -26c0 -8 -10 -16 -19 -16c-4 0 -8 2 -11 6zM664 451c0 -1 -2 -2 -3 -2c-10 0 -34 15 -34 21c0 1 4 2 5 2c6 0 9 -11 17 -11
c1 0 2 1 2 3c-2 7 -16 11 -16 15c0 2 1 2 2 2c11 0 25 -18 27 -30zM232 546c0 2 8 3 8 9c0 20 -29 10 -40 18c1 2 5 3 9 3c26 0 42 -9 42 -21c0 -6 -6 -12 -17 -12c-1 0 -2 1 -2 2v1zM526 54c2 2 3 3 5 3c7 0 16 -10 16 -18c0 -12 -19 -22 -30 -22c-1 0 -4 -1 -4 1
c0 7 25 10 25 23c0 9 -12 9 -12 13zM659 636c-18 0 -28 8 -48 25c-5 3 -11 3 -15 7c1 1 2 1 3 1c14 0 62 -30 60 -33zM560 282c3 2 5 1 10 3v-1c0 -13 -40 -22 -42 -40c1 11 15 39 28 39c2 0 3 -1 4 -1zM458 472c-2 -7 -6 -12 -7 -12c0 3 15 31 15 51c0 12 -9 18 -9 24
c0 2 1 3 2 3c7 0 14 -15 14 -25c0 -16 -11 -32 -15 -41zM778 372c-1 -3 -2 -7 -4 -7c0 0 -4 1 -4 5c0 16 21 31 29 31c5 0 6 -1 6 -2c0 -3 -22 -18 -27 -27zM408 -18c4 5 7 9 7 15c0 10 -17 19 -17 28l1 2c11 -8 25 -21 25 -36c0 -5 -3 -10 -11 -10c-1 0 -3 1 -5 1zM239 584
c-26 14 -35 22 -35 25c0 1 1 1 2 1c4 0 41 -17 40 -25c-1 -1 -3 -2 -4 -2s-2 0 -3 1zM650 511c-3 -5 -7 -15 -12 -15c-1 0 -2 1 -2 3c0 3 5 6 5 10c0 1 -1 2 -2 2c-2 0 -4 -3 -5 -3c-2 0 -3 2 -3 2c0 12 22 15 23 15s1 -1 1 -2c0 -2 -4 -8 -5 -12zM414 34
c12 -7 48 -21 48 -22s-2 -2 -5 -2c-24 0 -48 26 -48 25l1 1c1 0 2 -1 4 -2zM695 351c-2 0 -5 -3 -6 -3s-3 1 -3 6c0 0 15 21 23 24v-3c0 -8 -8 -21 -14 -24zM73 391c1 6 0 14 11 14c6 0 12 -1 12 -7s-10 -8 -17 -8c-2 0 -5 0 -6 1zM700 281c3 2 5 3 8 3c4 0 7 -2 10 -6
c0 -1 -1 -1 -2 -1h-3c-4 0 -9 -4 -9 -10l3 -10c0 -1 -1 -1 -1 -1c-6 0 -10 11 -10 17c0 3 1 6 4 8zM307 142c1 -3 3 -7 6 -7c2 0 3 1 3 3c0 3 -5 7 -5 11c1 3 6 4 6 8c0 2 -2 3 -4 3c-3 0 -4 -3 -5 -3l-3 2c-4 0 -6 -4 -6 -7c0 -6 4 -10 4 -10c2 0 1 11 3 13c1 -1 1 -2 1 -4
l-1 -6zM797 351l1 -1c0 -1 0 -1 -1 -1l-10 1h-1c-9 1 -27 1 -27 7c0 2 5 3 8 4c3 -3 12 -5 17 -5h5c3 0 7 -1 8 -5zM493 411c2 6 17 20 17 26c0 0 -1 1 -2 1c-11 0 -20 -26 -21 -29c1 -1 2 -1 2 -1c2 0 4 1 4 3zM397 495l-6 -27c0 -1 0 -2 1 -2c6 0 9 35 9 46
c0 7 -1 13 -3 13c-1 0 -1 -4 -1 -8v-22zM137 320c-6 1 -10 6 -10 10c0 5 4 9 11 10c1 -1 1 -1 1 -2l-3 -9c0 -9 18 -8 26 -11c-4 1 -21 -1 -25 2zM682 404c1 3 1 5 1 6c0 4 -7 19 -15 19c0 0 -1 -1 -1 -2c0 -5 13 -24 13 -24c1 0 1 0 2 1zM490 462c-1 0 -1 1 -1 2
c0 6 10 25 18 25c1 0 5 -2 5 -6c0 -2 -17 -7 -22 -21zM312 22c-1 2 -2 3 -2 5s2 4 5 4c4 0 10 -4 10 -12c0 -4 -2 -6 -4 -6c-4 0 -7 3 -9 9zM300 -3v3c0 5 3 9 6 9c1 0 7 -3 7 -10c0 -5 -2 -8 -5 -8s-5 2 -8 6zM278 -3v2c0 5 1 7 4 7s10 -2 10 -10c0 -3 -3 -6 -6 -6
c-4 0 -8 3 -8 7zM168 432c7 -6 18 -12 26 -12c3 0 5 0 5 2c0 3 -30 12 -30 12h-2zM664 346c-2 3 -21 14 -25 14v-2c0 -7 15 -14 22 -14c2 0 3 1 3 2zM626 594c1 0 11 12 11 16c0 1 0 2 -1 2c-6 0 -16 -12 -16 -21c1 -1 1 -1 2 -1c2 0 4 2 4 4zM407 56v5c0 2 2 6 7 6
c3 0 6 -5 6 -9s-3 -7 -6 -7c-2 0 -5 2 -7 5zM334 95c1 -3 3 -4 4 -4c2 0 4 5 5 8c-1 4 -10 11 -12 11s-3 -1 -3 -3c0 -4 6 -11 6 -12zM388 76c-1 2 -2 3 -2 4c0 2 2 8 5 8c5 0 9 -5 9 -10c0 -3 -2 -5 -5 -5s-6 1 -7 3zM750 427v-1c-4 0 -16 7 -23 11c1 2 3 4 5 4
c7 0 17 -9 18 -14zM108 340c-1 2 -2 4 -2 5c0 3 2 6 6 6s7 -4 7 -8s-2 -8 -5 -8c-2 0 -4 2 -6 5zM343 643c0 4 -3 13 -3 19c0 1 0 3 1 4c6 0 6 -11 8 -15c-1 -3 0 -12 -2 -12c-1 0 -2 1 -4 4zM130 182c-2 2 -2 4 -2 6c0 4 2 7 6 7c2 0 7 -2 7 -4c0 -5 -3 -11 -7 -11
c-1 0 -3 1 -4 2zM383 592c1 -2 2 -3 4 -3c6 0 -1 12 13 12c1 0 1 1 1 1c0 2 -5 4 -8 4c-6 0 -10 -6 -10 -11v-3zM146 177c0 8 1 13 6 13c2 0 7 -1 7 -5c0 -5 -6 -10 -10 -10c-1 0 -2 0 -3 2zM583 101c-3 -1 -4 -1 -4 -2c0 -2 10 -6 18 -6c4 0 7 1 10 3c-4 6 -18 3 -24 5z
M113 176c-1 2 -1 4 -1 5c0 3 1 6 4 6s9 -4 9 -7c0 -4 -5 -8 -8 -8c-2 0 -3 1 -4 4zM103 314c0 5 4 10 9 10c3 0 6 -2 6 -5c0 -4 -6 -8 -10 -8c-2 0 -4 1 -5 3zM386 149c0 -1 1 -1 2 -1c6 0 26 8 26 13c0 1 0 1 -1 2c0 0 -27 -12 -27 -14zM282 223h1c1 0 24 21 24 21
c0 1 -1 2 -2 2c-8 0 -22 -19 -23 -23zM409 82c-1 1 -2 2 -2 3c0 3 3 5 6 5c4 0 8 -3 8 -9c0 -3 -1 -6 -4 -6c-5 0 -4 6 -8 7zM345 7c-1 2 -2 4 -2 6s2 3 4 3c3 0 6 -1 9 -4v-1l1 -5c0 -2 -3 -4 -4 -4c-3 0 -6 3 -8 5zM129 169c0 3 2 4 6 4c7 0 9 -4 9 -6c0 -4 -3 -6 -7 -6
c-3 0 -7 2 -8 8zM302 172h4c11 0 35 1 31 2c0 2 -8 3 -16 3c-9 0 -18 -1 -19 -5zM404 102c-1 2 -1 4 -1 6c0 3 2 4 5 4s8 0 8 -5s-3 -8 -7 -8c-1 0 -3 1 -5 3zM619 527c1 -1 2 -2 2 -3c-4 1 -21 12 -20 16c1 1 3 2 4 2c6 0 12 -11 14 -15zM764 155v-2c0 -4 -2 -5 -5 -5
c-5 0 -8 1 -8 5c0 6 3 7 8 7c3 0 4 -2 5 -5zM70 293c-1 1 -1 2 -1 3c0 7 19 3 22 7v-1c-4 -5 -9 -10 -16 -10c-1 0 -3 0 -5 1zM405 129v4c0 3 1 6 4 6c4 0 8 -4 8 -7c0 -4 -3 -7 -6 -7c-2 0 -4 1 -6 4zM87 341c-1 1 -1 3 -1 4c0 4 3 7 6 7c2 0 6 -2 6 -6c0 -3 -2 -8 -6 -8
c-1 0 -3 1 -5 3zM557 156c0 -4 14 -23 16 -23c0 0 1 0 1 1c0 4 -11 23 -15 23zM661 148c-1 -3 -2 -9 -2 -14c0 -8 2 -15 6 -15c1 0 2 1 2 2l-4 12c0 4 1 8 1 10c0 4 -2 5 -3 5zM754 170c0 -5 -3 -7 -6 -7c-4 0 -6 3 -6 8c0 3 3 5 6 5s6 -2 6 -6zM292 40c0 -1 1 -1 2 -1
s2 0 2 2c0 0 -4 22 -12 22h-1c0 -3 9 -21 9 -23zM386 57c-1 2 -1 3 -1 5s2 4 4 4c4 0 8 -3 8 -8c0 -3 -2 -5 -5 -5c-2 0 -5 1 -6 4zM507 417c3 3 9 7 9 11c0 1 0 2 -1 2c-5 0 -16 -13 -16 -20v-1c2 0 7 6 8 8zM240 604c-1 1 -4 3 -4 5c0 1 0 3 2 3c9 0 15 -4 15 -5
c0 -3 -3 -5 -7 -5c-2 0 -4 1 -6 2zM370 129l9 -6c1 0 2 1 2 2c0 3 -15 13 -22 13c-1 0 -2 0 -3 -1c2 -7 11 -3 14 -8zM630 92c-1 -2 -4 -9 -4 -12c0 -2 1 -3 3 -3c2 2 9 12 9 17h-1c-3 0 -4 -1 -7 -2zM245 95c0 -2 1 -3 2 -3c3 0 11 13 11 14c-1 2 -2 2 -3 2
c-5 0 -10 -10 -10 -13zM644 28c2 0 2 3 4 5c1 -1 1 -3 1 -5c0 -10 -1 -17 -5 -17c-1 0 -2 2 -2 5c0 4 2 10 2 12zM723 368c0 2 5 8 5 11c0 0 0 1 -1 1c-4 -3 -12 -14 -12 -22c0 -1 0 -2 1 -3c6 2 3 10 7 13zM143 200c-1 2 -2 4 -2 5c0 3 2 4 6 4s7 -1 7 -5c0 -3 -3 -5 -6 -5
c-2 0 -3 0 -5 1zM229 69c2 -5 4 -12 9 -14c1 0 1 1 1 1c0 10 -8 20 -8 20c-1 0 -2 -1 -2 -2s1 -2 1 -4c0 0 0 -1 -1 -1zM76 416c-3 0 -4 0 -4 2s3 5 7 5s8 -5 8 -10c0 -1 0 -2 -1 -2c-3 0 -6 5 -10 5zM590 512c-1 -1 -3 -2 -4 -2c-5 0 -9 7 -14 10c0 1 1 1 2 1
c12 0 15 -6 16 -9zM332 31c1 3 3 5 6 5s6 -2 6 -6s-2 -5 -4 -5c-3 0 -7 2 -8 6zM724 203h-2c-2 0 -3 -2 -3 -4c0 -4 2 -7 5 -7s6 2 6 7c-1 3 -3 3 -6 4zM170 171c1 -2 6 -9 8 -9h1c0 4 -5 7 -5 12v1s-2 11 -4 11c0 0 -1 0 -1 -2c0 -5 0 -8 1 -13zM114 198v2c0 3 3 7 6 7
s4 -3 4 -6s-2 -6 -5 -6c-2 0 -3 1 -5 3zM327 -5v2c0 4 2 7 5 7c2 0 4 -1 4 -6c0 -3 -2 -7 -5 -7c-1 0 -3 1 -4 4zM350 127l17 -6l2 2c0 4 -12 6 -20 8c-1 0 -2 -1 -2 -2s1 -2 3 -2zM506 552c-1 7 -4 21 -5 21c0 0 -2 -2 -2 -6s2 -17 5 -17c1 0 2 1 2 2zM299 83
c3 -3 5 -11 9 -11c1 0 1 0 1 1c0 -1 -4 16 -11 16h-2c0 -3 1 -5 3 -6zM660 356c0 2 -9 9 -13 9c-1 0 -2 -1 -2 -1c0 -4 7 -10 11 -10c2 0 3 0 4 2zM258 94c0 -1 1 -2 2 -2c3 0 10 8 11 11c-1 2 -2 2 -3 2c-4 0 -10 -8 -10 -11zM377 610c1 -2 2 -2 3 -2c3 0 4 7 8 7h2
s1 0 2 1c0 1 -3 3 -7 3s-8 -2 -8 -9zM596 483c0 3 -3 4 -6 4c-6 0 -9 -2 -9 -4s4 -3 7 -3c4 0 7 1 8 3zM308 498c0 1 3 22 7 22c1 0 1 0 2 -2c0 -4 -7 -20 -9 -20zM385 486l2 -2c4 0 5 17 5 15c0 2 -1 4 -2 4c-2 0 -5 -11 -5 -17zM281 423c1 -1 2 -2 3 -2s2 2 2 4
c0 4 -3 10 -10 10c-1 0 -1 -1 -1 -1c0 -3 6 -9 6 -11zM774 167c1 -1 1 -1 1 -2c0 -3 -3 -5 -6 -5c-2 0 -4 2 -4 5c0 4 2 6 4 6s4 -1 5 -4zM748 452c0 -6 -1 -7 -3 -7c-1 0 -8 0 -8 4c0 3 3 5 7 5c2 0 3 -1 4 -2zM178 91c0 -2 0 -3 1 -3l14 15c0 1 -1 2 -2 2
c-4 0 -13 -12 -13 -14zM390 158c1 -1 2 -1 3 -1c4 0 13 6 13 9c0 1 -1 2 -2 2c-3 -3 -13 -5 -14 -10zM357 25c0 3 1 4 3 4c4 0 9 -5 9 -8c0 -1 -1 -2 -2 -2c-3 0 -8 3 -10 6zM515 556c0 3 -1 5 -1 7c0 1 0 3 1 4c-1 2 -2 3 -3 3c-2 0 -3 -2 -4 -3c0 -2 3 -13 5 -13
c1 0 2 1 2 2zM242 461c1 -2 2 -2 3 -2c2 0 5 4 5 8s-3 5 -4 5c-2 0 -3 -10 -4 -11zM381 36v3c0 3 1 6 3 6c4 0 5 -3 5 -5c0 -3 -3 -6 -5 -6c-1 0 -2 1 -3 2zM740 414c0 3 -4 7 -8 7c-1 0 -4 -1 -4 -3c0 -3 5 -5 9 -5c1 0 2 0 3 1zM438 395c-1 -3 -4 -4 -6 -4c-3 0 -6 2 -6 4
s3 3 5 3c3 0 6 -1 7 -3zM738 464c1 0 1 1 1 2c-1 1 -3 1 -5 1c-4 0 -13 -2 -13 -4c0 -1 1 -1 3 -1c5 0 13 2 14 2zM615 460c0 2 -1 3 -2 3c-2 0 -6 -5 -6 -9c0 -1 0 -2 1 -3c5 0 6 6 7 9zM213 446c1 -3 3 -4 5 -4s4 2 4 4c0 3 -2 5 -4 5s-4 -2 -5 -5zM255 459
c0 -1 1 -1 1 -1c3 0 7 4 7 8c0 1 -1 4 -4 4c-5 0 -1 -9 -4 -11zM289 432c2 -1 4 -5 6 -5c0 0 1 1 1 5c0 3 -4 6 -6 6c-1 0 -3 -1 -3 -2s1 -3 2 -4zM570 66c0 -1 -1 -4 -1 -6c0 -3 1 -6 3 -6c1 0 3 0 3 3s-2 10 -4 10c0 0 -1 0 -1 -1zM636 288c1 -1 0 -10 3 -10s4 4 4 6
s-1 5 -4 5c-1 0 -2 0 -3 -1zM723 187c-1 -1 -1 -2 -1 -3c0 -3 2 -5 4 -5c3 0 4 3 4 5s-2 4 -4 4c-1 0 -2 0 -3 -1zM201 450c0 -2 2 -3 3 -3c2 0 5 2 5 5s-2 4 -4 4s-4 -2 -4 -5v-1zM707 100c0 -3 3 -10 6 -10c1 0 3 3 3 4c0 3 -6 6 -8 6h-1zM535 120c0 -4 3 -8 6 -8
c2 0 3 1 3 4c-1 2 -4 5 -6 5c-1 0 -2 0 -3 -1zM556 147v-1c0 -3 3 -10 6 -10c1 0 2 1 2 2c0 3 -5 9 -8 9zM552 111c-1 -1 -1 -1 -1 -2c0 -3 4 -5 5 -5c2 0 3 1 3 3s-3 5 -5 5c-1 0 -1 0 -2 -1zM626 291v-2c0 -3 1 -6 4 -6c1 0 3 1 3 3s-3 6 -5 6c-1 0 -1 0 -2 -1zM732 473
c-1 1 -3 2 -5 2c-4 0 -6 -1 -6 -3c1 -2 3 -2 5 -2c3 0 6 1 6 2v1zM614 294v-2c0 -2 2 -7 3 -7s3 3 3 5c0 3 -2 5 -4 5c-1 0 -1 0 -2 -1zM269 466v-6c0 -1 0 -3 1 -3s4 2 4 5s-1 6 -3 6zM298 437c2 -3 4 -4 5 -4s2 1 2 3c0 1 -1 5 -4 5c-2 0 -3 0 -3 -2v-2zM276 55
c4 -2 6 -8 7 -8v6c1 0 -5 6 -7 6c-1 0 -1 0 -1 -1c0 0 0 -2 1 -3zM188 453c1 -2 2 -2 3 -2c2 0 4 2 4 4c0 1 -2 3 -4 3s-3 -1 -3 -3v-2zM396 38v1c0 3 1 4 3 4c1 0 2 0 3 -1c0 -3 -1 -7 -3 -7c-1 0 -2 1 -3 3zM707 90v-1c0 -3 2 -5 4 -5c1 0 2 1 2 2c0 2 -2 5 -4 5zM226 147
c0 1 1 1 3 1c5 0 8 -2 8 -4l-1 -1c-3 0 -9 4 -10 4zM648 283v-3c0 -1 1 -2 2 -2c2 0 4 1 4 2c0 3 -2 4 -3 4s-2 0 -3 -1zM211 67c0 -1 0 -2 1 -2c3 0 4 2 4 5c0 1 -1 2 -2 2s-3 -2 -3 -4v-1zM727 177c-1 -1 -1 -2 -1 -3s1 -2 2 -2c2 0 4 3 4 4s-1 2 -2 2s-2 0 -3 -1z
M727 169v-2c0 -2 1 -3 2 -3c2 0 3 1 3 3s-1 3 -2 3s-2 0 -3 -1zM179 177c2 -2 3 -3 4 -3v7c0 1 0 2 -1 2s-3 -3 -3 -6zM315 214c1 -2 2 -3 4 -3c1 0 2 1 2 3c-1 1 -3 3 -4 3s-1 -1 -2 -3zM351 77c0 -2 1 -3 2 -3c2 0 3 2 3 4c0 1 -2 2 -3 2s-2 -1 -2 -3zM205 61
c0 -3 1 -4 2 -4c2 0 3 1 3 3s-1 3 -3 3c-1 0 -2 -1 -2 -2zM566 105v-2c0 -2 1 -3 2 -3c0 0 4 0 4 2c0 1 -3 3 -5 3h-1zM343 89c0 -3 2 -4 4 -4c1 0 2 1 2 2c0 2 -1 3 -3 3c-1 0 -2 0 -3 -1zM322 221c1 -2 3 -3 3 -3c1 0 1 1 1 2c0 2 -1 5 -2 5s-1 -1 -2 -4zM176 454
c0 -1 1 -1 1 -1c2 0 3 1 3 3c0 1 -1 2 -1 2c-2 0 -3 -2 -3 -3v-1zM203 53c1 -1 2 -2 3 -2s1 1 1 2s1 1 -2 1c-1 0 -2 0 -2 -1zM198 47c1 1 2 1 2 1l-1 1v1s-1 -1 -1 -2v-1zM736 309c1 -1 3 -1 4 -1c-1 0 -3 0 -4 1zM274 36c0 0 -1 -1 -1 -2c0 1 1 2 1 2z" />
</svg>
