<?xml version="1.0" standalone="no"?>
<!DOCTYPE svg PUBLIC "-//W3C//DTD SVG 1.1//EN" "http://www.w3.org/Graphics/SVG/1.1/DTD/svg11.dtd" >
<svg xmlns="http://www.w3.org/2000/svg" xmlns:xlink="http://www.w3.org/1999/xlink" version="1.1" viewBox="-10 0 1178 1000">
   <path fill="currentColor"
d="M1038 146c-1 0 -16 0 -16 4l1 9c0 29 -39 36 -39 60c0 4 0 9 -5 9c-4 0 -8 -6 -16 -6c-3 0 -5 6 -6 9c-10 45 -53 81 -60 85c-4 2 3 16 -7 16c-3 0 -5 -2 -7 -2c-6 2 4 13 -9 13c-8 0 -20 1 -23 8l1 14c0 27 -24 30 -31 35c-15 15 -13 31 -23 42c-7 8 -26 14 -29 19
c-6 11 -7 21 -14 31c-8 11 -20 15 -28 25c-9 11 -15 33 -30 33c-10 0 -12 -19 -18 -19c-2 0 -4 3 -4 5c0 8 11 11 11 21c0 20 -30 42 -34 48c-19 31 -24 10 -39 40c-4 4 -15 5 -15 11l4 8c0 3 -8 17 -19 17c-4 0 -20 -11 -20 -17c0 -5 4 -7 4 -9c0 -14 -45 -20 -45 -42
c0 -7 13 -7 13 -20c0 -5 -5 -8 -8 -8c-7 0 -10 5 -10 10l1 7s0 1 -1 1c-17 0 -15 -31 -21 -31c-3 0 -4 4 -6 4c-6 0 -35 -31 -39 -36c-36 -48 -28 -44 -41 -60c-1 -2 -2 -4 -2 -6l1 -5c0 -6 -17 4 -26 -11c-5 -9 -48 -45 -63 -77c-4 -9 -4 -26 -14 -26c-4 0 -6 3 -9 3
c-9 0 -10 -14 -15 -20l-27 -26c-22 -24 -48 -59 -67 -87c-4 -5 -4 -10 -9 -14c-10 -8 -30 -11 -30 -29c0 -2 1 -4 3 -4l8 3c2 0 4 -2 4 -5c0 -19 -21 -9 -33 -15c-36 -18 -45 -57 -45 -57c-7 -11 -36 -19 -36 -46c0 -24 29 -22 41 -22c13 0 27 13 35 13c15 0 31 -8 47 -8
c13 0 25 4 36 4c7 0 12 -9 24 -9c14 0 18 12 21 12c1 0 2 -1 2 -2v-3c0 -5 2 -8 6 -8c10 0 18 7 23 13c22 -5 41 -9 64 -9c32 0 63 7 95 14h4c3 0 3 -1 3 -4v-5c0 -2 3 -5 7 -5c6 0 12 4 19 4l37 -5l23 4c13 0 31 -6 49 -6c13 0 26 6 38 6c7 0 13 -3 21 -3l27 3
c9 0 14 -5 21 -5c5 0 8 2 8 8l-1 6c0 1 1 2 2 2s3 0 5 -1c33 -11 73 -17 105 -17s71 10 78 13c8 -3 18 -13 33 -13c14 0 18 7 23 7c9 -2 16 -6 25 -6s19 4 25 8c19 0 32 9 42 9c5 0 9 -18 25 -18l12 3c6 0 12 -3 17 -3c13 0 26 5 26 19c0 35 -30 35 -47 56
c-7 8 -12 36 -33 36zM530 161c1 35 11 76 54 76c78 0 8 -150 71 -173c10 -3 37 2 37 -17c0 -2 -1 -3 -2 -3c-6 0 -8 4 -15 4l-31 -3c-13 0 -22 14 -24 14c-1 0 -1 -1 -2 -2l-3 -6c0 -1 -1 -2 -3 -2c-6 0 -10 17 -10 24l9 58c0 1 0 1 -1 1c-3 0 -2 -36 -17 -36
c-3 0 -5 6 -6 6c0 0 -20 -14 -23 -14c-4 0 -5 9 -5 19c0 32 7 26 7 32c0 1 -1 1 -1 1c-2 0 -5 -2 -6 -2s-2 2 -2 4c0 21 20 34 20 53c0 4 -2 12 -7 12c-7 0 -9 -7 -9 -12l3 -15c0 -3 -11 -21 -11 -38c0 -7 4 -8 4 -13l-2 -20c0 -6 2 -27 7 -27c4 0 6 4 8 4c1 0 1 -3 1 -4
c0 -3 -3 -18 -6 -18c-1 0 -7 9 -11 9l-6 -7c-1 0 -1 1 -1 1c0 4 2 5 2 7c0 1 0 2 -1 2c-2 0 -4 -10 -8 -10c-1 0 -2 1 -2 3c1 3 5 5 5 9c0 1 -1 1 -2 1l-9 -10s-1 1 -1 2c1 5 6 8 6 14c0 2 0 3 -1 3c-3 0 -5 -14 -9 -14c-1 0 -1 0 -1 1c0 7 7 21 7 36c0 17 -3 35 -3 50z
M562 486c1 1 4 3 8 3c2 0 4 -1 6 -2c0 -56 -17 -100 -66 -131c-22 -14 -52 -32 -55 -52c0 -2 -2 -4 -3 -4c0 0 -1 0 -1 2c0 7 2 10 2 12c0 1 -1 1 -1 1c-2 0 -3 -5 -6 -5c-2 0 0 8 -4 8h-5c-2 0 -4 0 -4 3c0 40 62 37 62 49c0 1 -1 2 -2 2c-7 0 -20 -10 -33 -10
c-10 0 -29 5 -29 8c0 1 4 4 4 6c0 0 -1 1 -3 1c-8 0 -29 9 -29 15c0 8 42 22 42 21c0 6 -8 4 -8 7c0 4 7 4 11 4c24 0 33 -11 43 -11c4 0 6 1 6 3c0 6 -48 3 -48 29c0 7 2 8 3 8h2c5 0 7 18 24 18c18 0 14 -23 31 -23c8 0 16 4 16 13c0 5 -7 8 -7 11c0 1 1 1 2 1
c8 0 10 -8 10 -14c0 -10 -8 -19 -18 -19c-20 0 -24 21 -31 21c-3 0 -6 -1 -6 -6c0 -17 16 -24 31 -24c31 0 52 27 56 55zM958 134c0 -30 -16 -36 -16 -58c0 -15 11 -28 28 -28c11 0 17 4 17 14v5c0 3 1 3 2 3c3 0 5 -5 5 -9c0 -12 -9 -19 -22 -19c-17 0 -35 12 -35 32
c0 6 4 15 4 22c-2 0 -21 -31 -21 -39c0 -6 2 -10 7 -10h4c2 0 3 0 3 -1c0 -3 -9 -6 -14 -6c-8 0 -13 3 -13 11c0 10 39 57 39 71v1c-1 0 -2 -1 -3 -4c-19 -58 -74 -78 -129 -78c-9 0 -41 0 -41 5c0 2 7 4 8 4c13 -2 24 -3 35 -3c91 0 129 51 129 130c0 6 0 24 -2 24
s-3 -2 -3 -4c0 -6 1 -14 1 -24c0 -25 -3 -57 -25 -57c-10 0 -15 6 -15 14c0 4 2 13 5 13v-5c0 -5 3 -12 10 -12c10 0 17 11 17 19c0 3 -1 6 -3 6c0 0 -2 -18 -13 -18c-4 0 -6 4 -6 8c0 8 8 9 8 12l-6 7l1 6s0 1 -1 1c-2 0 -7 -3 -11 -3c-12 0 -30 10 -30 23c0 4 3 10 5 10
c1 0 10 -17 20 -17c21 0 27 29 27 50c0 38 -26 73 -61 81c-3 1 -5 2 -5 3c0 3 12 6 16 6c23 0 59 -43 66 -60c17 -39 11 -114 50 -114c8 0 17 4 17 12c0 6 -2 7 -6 7c-5 0 -12 -3 -15 -3c-10 0 -21 12 -21 21c0 7 9 1 9 6c0 4 -8 11 -8 18c0 4 3 13 8 13c1 0 16 -24 31 -35
c1 -1 1 -1 1 -2s-1 -1 -2 -1c-7 0 -12 6 -16 6c-1 0 -1 -1 -1 -2c0 -9 31 -4 31 -25c0 -14 -16 -23 -28 -23c-9 0 -21 5 -26 8c-5 0 -6 -5 -6 -12zM652 428c-14 0 -22 10 -22 16c2 0 8 -10 20 -10c19 0 -5 36 34 38c11 0 23 -2 25 -18c0 -1 1 -2 2 -2c4 0 5 5 10 5
c1 0 2 -3 2 -6c0 -14 -39 -47 -39 -44c0 -2 1 -2 3 -2c16 0 20 29 33 29c3 0 3 -1 3 -3v-4c0 -1 0 -3 2 -3c1 0 7 18 18 18c1 0 2 0 2 -2v-9c0 -8 -8 -17 -8 -22c0 -4 8 -1 8 -4c0 -16 -33 -21 -33 -22s2 -2 4 -2c30 0 44 27 79 27c9 0 16 -2 16 -4c0 -5 -12 -7 -12 -10
c0 -1 1 -1 2 -1h9c16 0 34 -8 34 -25c0 -12 -9 -21 -22 -21c-16 0 -13 19 -24 19c-1 0 -3 -1 -5 -1h-1c0 3 6 6 8 6c10 0 10 -18 23 -18c3 0 12 3 12 11c0 15 -12 17 -20 17c-35 0 -65 -12 -99 -12c-26 0 -47 4 -69 20h-1c-1 0 -2 0 -2 -1v-1c31 -28 73 -50 132 -50
c6 0 13 0 19 1c3 0 4 -2 4 -4c0 -5 -15 -4 -21 -4c-86 0 -154 40 -177 118v2c0 1 0 1 1 1s3 -1 3 -3c9 -23 34 -32 57 -32c14 0 38 5 38 32c0 7 -6 17 -16 17c-28 0 -8 -37 -32 -37zM644 352c0 2 1 10 6 10c3 0 2 -5 5 -11c7 -14 26 -16 40 -17c82 -8 128 -47 128 -130
c0 -23 -13 -53 -39 -53c-16 0 -21 14 -21 30c0 22 17 45 17 68c0 35 -25 62 -61 62c-21 0 -38 -10 -38 -32c0 -2 0 -3 -1 -3c-6 0 -9 12 -9 16c0 15 17 29 34 29c51 0 77 -20 89 -69c0 -2 1 -3 2 -3s1 1 1 2c0 58 -58 74 -92 74l-25 -1c-8 0 -26 2 -26 7c0 2 5 3 5 4
s-15 7 -15 17zM423 271c-11 8 -56 28 -56 25c0 1 1 2 3 2c40 0 89 -52 89 -57c0 -1 0 -1 -1 -1l-8 1c-1 0 -2 0 -2 -1s21 -10 21 -16c0 -1 0 -1 -1 -1s-2 0 -3 1c-13 9 -21 12 -39 12c-4 0 -14 1 -14 -3c0 -1 0 -1 2 -1h11c9 0 45 -5 45 -18h-2l-9 4c-2 0 -3 -1 -3 -2
s20 -8 20 -15c0 0 0 -1 -1 -1s-12 12 -18 12c-2 0 -3 -1 -3 -2s28 -18 28 -29v-1c-4 0 -22 23 -32 23c-15 0 -30 -6 -46 -6c-3 0 -6 0 -6 3s3 4 3 9c0 1 -1 2 -2 2c-3 0 -6 -7 -13 -7c-10 0 -15 6 -23 6c-1 0 -5 -1 -9 -1s-7 1 -7 4c0 12 6 31 24 31h6c2 0 4 1 4 2
c0 6 -13 0 -13 8c0 4 12 7 19 7s13 -5 21 -5c3 0 5 1 5 3c0 8 -14 11 -19 11c-17 0 -37 -4 -51 -14c-2 -1 -3 -2 -4 -2v1c0 8 27 26 40 26c16 0 30 -4 43 -13c1 -1 2 -1 3 -1h1c0 1 -1 3 -3 4zM766 146c-4 -8 -9 -18 -9 -28c0 -4 2 -7 4 -7c1 0 1 1 1 4v6c0 12 5 24 19 24
c21 0 28 -23 28 -49c0 -11 -2 -21 -7 -21c-1 0 -4 3 -6 3c-3 0 -5 -6 -7 -8c-6 -9 -27 -24 -28 -24c-8 0 -20 36 -23 44v4l2 13c0 1 -1 3 -2 3c-3 0 -2 -12 -11 -12c-5 0 -5 11 -5 14c0 21 11 42 36 42c5 0 9 -3 9 -6c0 -1 -1 -2 -1 -2zM324 250c2 5 11 24 24 26
c2 0 3 -1 3 -2c0 0 0 -1 -1 -1c-12 -7 -21 -20 -21 -34c0 -15 16 -30 16 -47c0 -2 -1 -4 -3 -4c-3 0 -5 3 -7 3c-1 0 -4 0 -4 -2s6 -11 6 -17c0 -7 -4 -16 -4 -22v-4c0 -2 0 -3 -1 -3c-4 0 -30 11 -30 29v6c0 1 0 1 -1 1c-4 0 -8 -11 -11 -11c-8 0 -11 21 -11 25
c0 8 5 15 5 22c0 2 -1 4 -2 4c-7 0 -11 -27 -11 -38c0 -20 6 -41 18 -49c1 -1 2 -3 2 -4c0 0 0 -1 -1 -1c-16 0 -27 36 -27 53c0 30 23 69 33 69h3c5 3 8 14 13 14c1 0 1 -1 1 -2c0 -5 -15 -27 -15 -45c0 -4 1 -14 4 -14c1 0 1 1 1 2v13c0 19 4 34 22 50h2c1 0 2 0 2 -1
c0 -6 -8 -9 -9 -16c0 -2 1 -3 2 -3c0 0 1 1 2 3zM541 294c3 1 3 4 3 9c0 14 43 33 39 35c16 -1 23 -48 24 -48s3 6 8 6s7 -18 7 -24c0 -10 -5 -24 -19 -24c-9 0 -20 3 -20 12c1 7 1 12 1 17c0 4 0 19 -3 19c-2 0 -4 -2 -4 -4c1 -5 2 -11 2 -17c0 -23 -14 -30 -37 -30
c-10 0 -14 18 -14 25c0 8 4 25 7 25c2 0 3 -1 6 -1zM393 180c0 8 4 8 11 8c14 0 29 -1 38 -13c2 -3 2 -6 5 -6c5 0 1 8 5 8c16 0 11 -42 15 -42c6 0 -2 21 9 21c3 0 6 -2 6 -4c0 -18 -11 -46 -15 -46h-2c0 -6 -6 -26 -11 -26c-1 0 -1 1 -1 2c0 8 4 18 4 27s-6 45 -18 45
c-1 0 -2 -1 -2 -2s0 -2 1 -2c10 -9 17 -27 17 -44c0 -8 -3 -25 -7 -25c-1 0 -1 0 -1 1c0 7 2 7 2 18c0 2 -1 4 -2 4c1 0 -5 -32 -8 -32c-1 0 -1 1 -1 1c0 4 2 8 2 11c0 1 0 2 -1 2c-2 0 -6 -23 -12 -23c-1 0 -1 0 -1 1c0 9 7 17 7 25c0 18 -30 40 -30 51c0 2 2 2 3 2h3
c1 0 2 0 2 2c-10 12 -18 20 -18 36zM818 160c0 13 24 11 31 11c36 0 51 -23 51 -63c0 -3 0 -14 -5 -14c-6 0 -21 11 -33 11s-22 -4 -29 -4c-21 0 -34 42 -34 43c0 8 10 7 15 7c14 0 25 -11 36 -11c1 0 1 0 1 1zM757 164c-7 -13 -30 -13 -34 -13c-15 0 -40 8 -40 15
c0 3 8 3 8 4c0 2 -25 16 -25 41c0 3 1 4 3 4l12 -1l28 4l11 -2c1 0 2 1 2 2s-2 3 -2 5s1 2 3 2c14 0 36 -18 36 -37c0 -2 -1 -4 -3 -4c-3 0 -22 14 -27 14c-1 0 -2 0 -2 -1c0 -5 31 -14 31 -28c0 -2 0 -3 -1 -5zM562 551l7 10c2 1 16 16 15 18c6 -2 25 -27 22 -29
c3 1 3 3 8 3c2 0 3 -2 3 -4c0 -3 -1 -5 -1 -6l1 -10c0 -2 -1 -5 -1 -9c0 -1 0 -1 1 -1c5 0 7 15 15 15c17 0 35 -19 35 -24s-37 -14 -44 -14c-2 0 -3 0 -3 1c0 2 5 4 5 7c0 1 -1 2 -2 2c-2 0 -8 -9 -12 -9c-2 0 -2 5 -5 5l-8 -1c-12 0 -13 16 -13 28l1 14c0 1 0 2 -1 2
s-3 -2 -3 -3l1 -31c0 -7 -5 -11 -10 -11c-13 0 -26 15 -26 27c0 8 4 25 8 25zM184 156l-1 18c0 23 5 44 26 44c19 0 26 -19 26 -41l-1 -17c0 -16 16 -36 16 -36c0 -1 -1 -2 -3 -2c-7 0 -23 10 -23 18c0 4 4 11 4 16c0 3 -1 4 -2 4c-3 0 -2 -19 -6 -19c-2 0 -2 3 -5 3l-3 -3
c-1 -1 -1 -1 -2 -1c-2 0 -5 10 -5 15c0 8 6 11 6 14l-5 6l7 19c0 3 -2 4 -4 4c-8 0 -9 -10 -9 -16l1 -15l-1 -11c0 -6 3 -13 3 -20c0 -5 -4 -21 -10 -21l-6 5c-6 0 -2 -15 -22 -17l-3 4c-3 1 -13 -1 -13 4c0 3 35 14 35 45zM679 121c0 3 0 11 4 11c3 0 4 -4 5 -4s1 1 1 2
c2 9 13 16 23 16c6 0 10 -4 10 -6c0 -1 -1 -1 -2 -1l-6 1c-11 0 -13 -13 -13 -21c0 -44 51 -46 51 -70c0 -2 -1 -3 -3 -3c-51 0 -88 64 -104 64c-7 0 -6 -6 -10 -6c-3 0 -3 2 -3 5c1 7 8 11 15 11l8 -2l6 3c11 0 33 -49 46 -49c2 0 2 4 2 4c-13 9 -30 27 -30 45zM542 596
c0 8 -9 14 -9 18c0 5 15 12 17 12c13 0 21 -36 23 -50c0 -6 -2 -15 -11 -15c1 0 -11 52 -20 52l-1 -1c0 -11 12 -22 12 -32c0 -25 -22 -31 -42 -32c0 -9 -44 -23 -41 -24l-1 3c2 25 32 12 32 25c0 2 -1 3 -3 3c-1 -1 -3 -1 -5 -1c-5 0 -11 2 -11 7c0 2 1 4 3 4s4 -3 7 -3
s8 2 12 2c6 0 7 -2 7 -7v-3h6c15 0 31 7 31 24c0 0 0 1 -1 1c-3 0 -8 -13 -23 -13c-8 0 -17 6 -17 14c0 1 2 5 4 5s6 -9 16 -9s15 11 15 20zM311 117c-5 0 -21 1 -21 5c0 1 0 1 1 1l11 -1c21 0 35 16 60 16c5 0 7 -1 7 -3c0 -3 -5 -6 -5 -8c0 -1 2 -1 4 -1c4 0 10 2 15 2
c3 0 6 -1 6 -3c0 -1 -3 -2 -3 -4h7c6 0 11 -3 11 -4c0 0 -13 -2 -20 -6c-2 -1 -10 -13 -15 -13h-3c-2 0 -3 0 -3 -3c0 -1 2 -3 2 -5s-9 -3 -13 -3c-5 0 -12 2 -12 4v2c0 1 0 3 -4 3h-6c-14 0 -20 4 -20 6c0 0 1 1 3 1l12 -1c9 0 45 8 45 12c0 1 -1 2 -2 2
c-17 0 -26 -10 -46 -10c-6 0 -23 2 -23 6c0 1 15 1 15 3c0 1 -1 2 -3 2zM619 244c0 13 13 28 27 28c7 0 22 -4 22 -11l-4 -8c0 -4 6 1 11 -7c4 -5 11 -13 11 -13c0 -6 -25 -11 -37 -11c-7 0 -26 2 -26 9l1 1l10 -1c3 0 9 2 9 3s-1 2 -3 2l-10 -1c-6 0 -11 4 -11 9zM480 262
c0 4 15 7 21 7c14 0 35 -19 35 -29c0 -3 -6 -4 -8 -4c-4 0 -11 3 -12 3s-2 -1 -2 -2l13 -7c0 -2 -3 -2 -7 -2c-7 0 -9 3 -14 3s-8 -3 -12 -3c-8 0 -26 6 -26 12c0 4 16 5 16 10zM844 221c4 0 10 9 20 9c1 0 3 0 4 -1v-1v1v-1c-1 -5 -3 -25 -9 -32c-2 -2 -2 -3 -2 -4h2
c1 0 3 -1 3 -2c0 -11 -34 -18 -38 -18c-2 0 -4 0 -4 2c0 14 16 18 16 22c0 1 0 2 -1 2s-5 -7 -8 -7c-1 0 -2 2 -2 4c0 11 1 26 14 30c2 0 2 -4 5 -4zM810 328c0 11 11 14 20 14c12 0 41 -9 41 -13c0 -3 -2 -6 -5 -6l-7 1l-4 -5c-16 0 -20 15 -28 15c-2 0 -4 -1 -4 -3
c0 -10 31 -10 31 -33c0 -5 -6 -2 -7 -7c-2 -7 -2 -17 -12 -17c-2 0 -7 1 -7 4c0 0 10 3 10 14zM347 43c-56 0 -119 31 -133 93c0 1 1 2 3 2s4 -1 5 -3c16 -58 70 -86 128 -86c24 0 56 8 67 22c1 1 2 1 2 1c1 0 2 -1 2 -2c0 -23 -58 -27 -74 -27zM477 320c0 3 6 5 9 5
c9 0 6 -11 11 -11c4 0 13 8 21 8c4 0 13 -2 13 -4c0 -1 -1 -2 -2 -2c-9 -2 -25 -25 -25 -23c0 -2 9 -1 9 -5c0 -2 -21 -12 -32 -12c-3 0 -11 1 -11 2s21 3 21 13c0 1 0 1 -1 1c-7 -6 -14 -9 -24 -9s-21 7 -21 18c0 1 0 1 1 1c0 0 10 -13 17 -13c11 0 19 6 19 17zM509 522
c2 0 3 1 3 3c0 1 -1 2 -1 4c0 3 2 7 10 7c11 0 18 -3 25 -13c2 -3 8 -19 8 -17c0 -2 -2 -3 -4 -3l-9 2c-1 0 -2 -1 -2 -2l3 -3c0 -1 -1 -2 -3 -2c-9 0 -53 12 -53 20c0 5 9 6 14 6zM483 49c-2 1 -3 2 -3 3l4 8l-13 18c0 2 11 3 18 3c8 0 12 -7 17 -7c4 0 3 8 10 8
c6 0 4 -20 26 -20l12 3v-1c0 -7 -14 -11 -20 -11l-28 10c-1 0 -2 -1 -2 -2c0 -8 19 -9 19 -13c0 -1 -2 -3 -5 -3c-6 0 -13 7 -15 7l-3 -5c-5 0 -11 1 -17 2zM689 495c4 14 15 12 15 17c0 4 -10 8 -10 18c0 6 2 9 4 9c0 0 19 -8 19 -16c0 -4 -5 -8 -5 -9c0 0 0 -1 1 -1
c20 -5 46 -28 46 -49c0 -4 -1 -33 -9 -33c-1 0 -3 1 -3 3c0 10 6 16 6 24c0 28 -23 47 -42 47c-1 0 -1 0 -1 -1s1 -2 1 -4c0 -5 -19 -12 -20 -12s-2 2 -2 5v2zM486 209c0 7 7 15 14 15l9 -5c4 0 6 4 14 4c3 0 7 -1 7 -3l-11 -11h1c4 0 11 5 14 5c1 0 1 -1 1 -2
c0 -16 -18 -28 -34 -28c-4 0 -8 2 -8 5l2 13c0 1 -1 2 -2 2h-4c-2 0 -3 2 -3 5zM341 346c-57 -17 -97 -53 -121 -109c-1 -2 -5 -4 -8 -4c-2 0 -3 1 -3 2v1c25 51 67 102 130 116c2 0 4 -1 4 -4c0 -1 0 -2 -2 -2zM739 234c0 11 17 31 14 32c7 -1 21 -25 20 -20
c1 -4 1 -7 1 -10c0 -7 -4 -26 -10 -26c-1 0 -1 18 -6 18c-1 0 -1 -1 -1 -2c0 -4 2 -9 2 -14c0 -3 0 -4 -1 -4c-5 0 -19 18 -19 26zM578 344l3 143c1 1 2 2 3 2c5 0 4 -61 4 -85c0 -14 1 -63 -1 -63c-1 0 -2 1 -4 1l-3 -1c-1 0 -1 1 -2 3zM814 80c0 6 2 16 11 16
c0 0 1 -1 1 -2l-3 -10c0 -15 16 -21 29 -21c19 0 40 11 55 20c0 0 5 3 5 2c0 -14 -58 -33 -76 -33c-10 0 -26 4 -26 17l5 4zM287 71c-19 0 -54 31 -54 48c0 0 0 1 1 1c5 0 18 -35 40 -35c8 0 15 5 15 14c0 6 -4 9 -9 9h-4c-1 0 -2 0 -2 1c0 2 5 4 9 4c11 0 24 -17 24 -22
c0 -6 -7 -4 -7 -7c0 -2 4 -3 4 -6c-3 -6 -11 -7 -17 -7zM617 573c0 13 6 21 17 28h2c5 0 10 -12 10 -17c0 -8 -10 -11 -10 -20c0 -7 9 -11 9 -16c0 -4 -8 -5 -10 -5c-12 0 -18 20 -18 30zM572 662c-1 1 -1 1 -1 2s1 2 2 2l9 -1l9 1c1 0 1 0 1 -2s-4 -10 -4 -16
c0 -18 18 -25 18 -26c0 -2 -3 -5 -6 -5c-4 0 -8 7 -9 7c-2 0 -3 -4 -3 -5c0 -9 1 -17 1 -31c0 -3 -1 -4 -3 -4c-10 0 -4 51 -9 51l-10 -4c-3 0 -5 2 -5 5s14 4 14 17c0 3 -1 6 -4 9zM166 194c-1 0 -2 0 -2 1s1 2 3 2c9 0 11 -8 11 -13c0 -8 3 -42 -17 -42c-7 0 -15 4 -23 4
c-10 0 -13 -9 -13 -18c0 -5 7 -10 7 -13c0 -1 -1 -2 -3 -2c-8 0 -13 10 -13 17c0 13 10 25 24 25c5 -1 8 -1 12 -1c10 0 20 6 22 28c0 5 -3 12 -8 12zM627 496c14 0 21 10 33 10c6 0 12 -3 12 -10v-2c0 1 14 -9 14 -12c0 -1 0 -1 -1 -1c-6 0 -10 1 -13 1
c-11 0 -24 -3 -31 -3c-10 0 -14 5 -14 7c0 1 1 1 1 1c4 0 6 -1 8 -1s3 1 3 1c0 3 -15 2 -15 7c0 1 1 2 3 2zM624 296c0 5 8 8 11 8l14 -2c3 0 5 2 7 2c9 0 9 -17 9 -22c0 -2 -2 -5 -5 -5c-4 0 -8 3 -11 3c-8 0 -11 -2 -17 -2c-5 0 -8 13 -8 18zM633 608
c-9 0 -18 -14 -24 -41c0 -1 0 -1 -1 -1c-3 0 -9 3 -9 7c0 14 9 48 29 48c6 0 16 -5 16 -11c0 -2 -1 -3 -3 -3s-5 1 -8 1zM638 188c-8 3 -13 16 -13 19c0 1 0 2 1 2l7 -3c1 0 2 0 2 1c0 5 -9 7 -9 9s1 3 4 3c12 0 30 -2 30 -15c0 -6 -2 -6 -5 -6h-2c-1 0 -2 -1 -2 -2
c0 -3 6 -7 6 -13c0 -2 -1 -4 -3 -4c-4 0 -11 6 -16 9zM812 282c-11 3 -31 40 -33 37c1 2 6 2 8 2c6 0 43 -18 43 -26c0 -6 -21 -12 -18 -13zM490 490c3 0 0 9 10 9c13 0 40 -5 40 -14c0 -3 -5 -3 -7 -3l-8 1c-3 0 -1 -5 -11 -5c-11 0 -17 4 -24 4c-6 0 -11 -1 -14 -1
s-4 0 -4 1c0 7 13 8 18 8zM254 135c-13 0 -13 32 -13 33c0 9 2 26 10 26c3 0 10 -40 10 -48c0 -6 -1 -11 -7 -11zM396 108c0 2 1 3 3 3c6 0 7 -15 8 -15c2 0 2 3 2 6l-1 7c0 1 1 2 2 2c9 0 15 -23 15 -20c0 -3 -2 -5 -4 -5c-3 0 -7 2 -8 2c-3 0 -6 -21 -14 -21
c-3 0 -4 3 -4 6c0 4 2 7 2 10c0 1 -1 1 -2 1s-3 -1 -5 -1c-3 0 -8 1 -8 4c0 2 15 3 15 14zM278 250c-7 0 -9 5 -12 5c-2 0 -3 -2 -3 -4v-5c0 -1 0 -2 -1 -2c-6 0 -8 16 -8 21c0 24 18 40 37 52h2s0 -1 -1 -1c-13 -11 -27 -22 -27 -40c0 -9 8 -17 15 -17c10 0 11 11 13 11
c1 0 2 -1 2 -3c0 -9 -10 -17 -17 -17zM520 342c0 17 21 33 31 45c7 8 17 34 19 34v-1c-7 -35 -41 -49 -41 -74c0 -16 8 -18 13 -18c9 0 13 5 13 10c0 3 -2 6 -2 8c0 1 1 2 2 2c4 0 7 -8 7 -11c0 -10 -10 -18 -20 -18c-13 1 -22 12 -22 23zM463 486c-1 -2 -3 -2 -4 -2
c-5 0 -2 11 -12 16c-2 0 -2 1 -2 2c0 2 11 21 15 21s-1 -11 8 -11c3 0 6 1 8 1c4 0 7 -2 7 -10c0 -4 -16 -13 -20 -17zM967 73v-4c0 -5 3 -10 3 -14c0 -2 -1 -2 -3 -2c-9 0 -17 12 -17 21c0 6 6 28 13 28c3 0 13 -9 13 -10c0 -8 -7 -10 -9 -19zM641 92c0 2 0 8 6 8
c14 -1 31 -21 31 -28c0 -4 -7 -4 -10 -4c-13 0 -27 11 -27 24zM599 425c-6 22 -9 51 -9 61c0 1 1 2 1 2c2 0 5 -36 10 -55c6 -24 19 -37 19 -56c0 -10 -6 -18 -16 -18c-4 0 -9 3 -9 8c0 2 1 4 3 4s3 -5 6 -5c9 0 9 8 9 12c0 15 -9 27 -14 47zM313 75c0 8 3 10 8 10
c12 0 37 -7 37 -11c0 -8 -17 -10 -22 -10c-8 0 -23 0 -23 11zM615 470c0 2 1 5 4 5l17 -4l13 1c4 0 5 -2 5 -5c0 -7 -5 -22 -9 -22c-12 0 -8 15 -14 15c-2 0 -5 -5 -8 -5c-6 0 -8 10 -8 15zM717 287c3 0 4 6 15 6c2 0 8 -1 8 -4c0 -5 -11 -7 -11 -11c0 -1 3 -3 3 -5
c0 -1 -3 -2 -4 -2h-6c-9 0 -11 -4 -16 -4c-3 0 -4 0 -16 6c-1 0 -1 1 -1 2c0 2 18 1 18 15c0 2 1 2 2 2c4 0 5 -5 8 -5zM1069 95c-1 1 -1 2 -1 2c0 2 1 3 3 3c21 0 43 -26 43 -46c0 -11 -10 -16 -21 -16c-5 0 -15 2 -15 6c0 1 0 1 2 1l11 -1c8 0 15 2 15 14
c0 21 -21 30 -37 37zM220 88c-1 16 -11 26 -11 41c1 2 1 2 2 2c0 0 1 -1 1 -2c0 -10 11 -30 11 -42c0 -39 -35 -41 -50 -41c-8 0 -33 4 -33 21c0 3 2 9 8 9c1 0 2 -1 2 -2c0 -4 -2 -6 -2 -9c0 -12 16 -16 28 -16c26 0 44 15 44 39zM887 232c-8 5 -33 27 -33 28h2
c13 0 28 -21 40 -21c14 0 9 16 13 16s7 -7 7 -11c0 -9 -10 -15 -19 -15c-4 0 -7 1 -10 3zM889 195c0 -2 -1 -4 -2 -4s-3 2 -3 4c-4 37 -30 60 -64 68c-2 0 -4 2 -4 3s1 2 3 2c38 0 68 -41 70 -73zM1041 141c12 0 22 -17 22 -31c0 -1 -2 -26 -9 -26c-1 0 -3 3 -3 4v2
c6 9 6 13 6 20c0 10 -6 25 -16 25c-16 0 -14 -21 -19 -21c-2 0 -4 0 -4 2c0 15 7 25 23 25zM285 156c0 3 3 5 6 5c7 0 28 -21 28 -25s-3 -6 -8 -6c-10 0 -26 14 -26 26zM755 415c0 7 19 22 28 22c6 0 8 -3 8 -8c-2 -7 -17 -19 -28 -19c-7 1 -8 3 -8 5zM322 358
c0 27 30 73 59 73c15 0 24 -10 26 -25c0 -2 -1 -3 -1 -3c-3 0 -5 24 -26 24c-26 0 -54 -44 -54 -70c0 -1 0 -2 -1 -2s-3 2 -3 3zM421 55c11 6 25 17 39 17c7 0 15 -8 15 -14c0 -7 -6 -12 -12 -12c-2 0 -3 1 -3 2c0 3 4 4 4 8c0 3 -3 7 -7 7c-17 0 -24 -11 -37 -11l-1 1
c0 1 1 1 2 2zM358 391c4 10 17 17 24 17c6 0 11 -2 11 -8c0 -10 -12 -23 -26 -23s-19 6 -19 11c0 2 1 3 2 3c2 0 4 -9 14 -9s22 8 22 14c0 4 -2 6 -5 6c-9 0 -15 -13 -21 -13c-1 0 -2 0 -2 1v1zM671 423c-3 0 -4 0 -4 2c0 1 2 4 3 6c4 7 3 27 14 27c6 0 8 -8 8 -11
c0 -11 -6 -22 -21 -24zM886 277c0 17 -26 25 -26 28c0 1 0 1 1 1c13 0 36 -19 36 -34c0 -7 -7 -11 -14 -11c-5 0 -13 3 -13 8c0 1 0 2 2 2s4 -1 7 -1c4 0 7 1 7 7zM368 81c0 2 4 3 5 3c5 0 9 -4 9 -9c0 -21 -28 -20 -41 -20c-9 0 -42 3 -42 8h1c12 0 24 -5 37 -5
c11 0 34 1 34 17zM634 132c0 5 2 22 10 22c10 0 12 -16 12 -24c0 -2 -1 -4 -4 -5c-9 0 -18 0 -18 7zM707 116c0 5 1 16 9 16c1 0 3 -1 3 -2l-5 -16c0 -17 22 -29 22 -36c0 -2 -1 -3 -2 -3c-15 0 -27 29 -27 41zM250 112c0 5 7 5 9 6c4 2 5 12 9 12c1 0 6 -8 6 -10
c0 -3 -7 -6 -7 -14c0 -7 11 -3 11 -8c0 -3 -3 -3 -6 -3c-10 0 -22 6 -22 17zM632 163c0 8 7 11 13 11c22 0 23 -31 23 -47c0 -2 0 -3 -1 -3c-8 0 -1 42 -23 42c-3 0 -9 -7 -10 -7s-2 4 -2 4zM549 491c5 5 22 10 39 10c8 0 30 -3 30 -12c0 -1 -1 -3 -3 -3c-1 0 -13 10 -28 10
s-32 -10 -36 -10c-2 0 -3 2 -3 3zM558 366c18 0 15 52 17 52c1 0 2 -15 2 -24c0 -18 -3 -37 -22 -37c-4 0 -10 3 -10 8c0 1 2 4 4 4c3 0 5 -3 9 -3zM543 233c10 9 24 13 37 13c11 0 38 -4 38 -18c0 0 -1 -1 -2 -1s-2 1 -3 2c-10 10 -21 12 -33 12c-15 0 -24 -4 -35 -13
c-1 -1 -3 -2 -3 -2c-1 0 -2 1 -2 2s1 3 3 5zM473 397h-2c-2 0 -4 -1 -4 -2c0 -2 11 -3 18 -3c29 0 63 15 78 48c1 1 1 3 1 3c0 1 0 2 -1 2s-2 -1 -3 -3c-16 -31 -44 -46 -74 -46c-4 0 -8 0 -13 1zM211 94l-8 28c0 1 1 1 1 1c1 0 11 -24 11 -32c0 -12 -6 -22 -19 -22
c-9 0 -15 5 -15 12c0 4 2 9 4 9s0 -14 13 -14c8 0 13 9 13 18zM364 350c-2 0 -3 1 -3 2c0 6 61 6 76 7h6c4 0 5 0 5 -1c0 -4 -49 -6 -84 -8zM887 85c17 0 34 28 39 28c1 0 1 -1 1 -3c0 -15 -31 -32 -41 -32c-4 0 -11 1 -11 6c0 1 1 2 3 2zM852 273c0 4 7 21 13 21
s13 -10 13 -15c0 -3 -1 -4 -2 -4c-2 0 -5 2 -6 2c-9 0 -5 -10 -10 -10c-4 0 -8 3 -8 6zM1046 108c4 -1 6 -3 6 -4s-2 -2 -4 -2l-22 2c-13 0 -26 -4 -39 -18l-2 -2c-2 0 -2 2 -2 3c0 18 39 22 47 22c6 0 12 0 16 -1zM407 307c0 9 5 18 16 18c1 0 2 -1 2 -1
c0 -2 -11 -8 -11 -17c0 -15 13 -24 25 -33c1 -1 1 -1 1 -2c0 0 0 -1 -1 -1c-13 0 -32 24 -32 36zM830 82c0 6 5 10 11 10c7 0 12 -9 12 -15s-3 -8 -8 -8c-6 0 -15 6 -15 13zM501 172c0 4 13 9 17 9c7 0 6 -7 6 -10c0 -6 -1 -13 -8 -13c-5 0 -15 9 -15 14zM319 310
c0 5 4 11 6 11c3 0 2 -20 17 -20c11 0 18 10 25 10c1 0 2 0 2 -1c0 -9 -22 -13 -28 -13c-9 0 -22 3 -22 13zM1014 81c-8 0 -34 0 -34 -14l2 -7c0 -1 -1 -2 -3 -2c-4 0 -6 5 -6 10c0 13 21 19 35 19c5 0 11 -1 11 -3s-3 -3 -5 -3zM229 236c1 7 10 26 16 26c2 0 3 -8 3 -13
c0 -6 -5 -17 -17 -17c-2 0 -2 2 -2 4zM427 485c0 22 28 62 52 66c2 0 2 -1 2 -2s0 -2 -2 -2c-21 -6 -46 -34 -48 -65c0 -1 0 -1 -1 -1s-3 2 -3 4zM470 162c-3 0 -4 1 -4 2c0 3 6 3 9 3c15 0 43 -10 43 -30c0 -1 -1 -2 -2 -2s-1 0 -2 1c-11 20 -24 27 -44 26zM1002 54
c20 0 33 19 40 19c2 0 3 -1 3 -3c0 -12 -32 -21 -41 -21c-3 0 -5 2 -5 3s1 2 3 2zM507 100c15 0 8 18 14 18c2 0 3 -1 3 -3c0 -13 -3 -22 -18 -22c-9 0 -16 6 -17 15c0 2 2 3 3 3c4 0 2 -11 15 -11zM493 332c0 5 10 14 15 14s8 -9 8 -13c0 -6 -10 -7 -14 -7s-9 2 -9 6z
M967 141v-9c0 -15 4 -26 17 -26c10 0 10 15 12 15s4 -2 4 -3c0 -12 -9 -17 -17 -17c-15 0 -20 16 -20 32c0 3 -1 9 2 9c1 0 2 0 2 -1zM598 487c0 2 1 3 2 3c2 0 10 -39 22 -53c1 -1 1 -2 1 -2v-1c-19 0 -25 52 -25 53zM249 208c18 0 24 23 24 23s1 0 1 -1
c0 -12 -15 -30 -26 -30c-10 0 -14 8 -14 16c0 4 1 11 4 11c1 0 1 -1 1 -2l-1 -6c0 -6 3 -11 11 -11zM56 62c1 9 17 32 32 32c2 0 3 -1 3 -2c0 -5 -31 -8 -31 -35c0 -5 3 -9 10 -9h2c2 0 3 -1 3 -2c0 -3 -4 -2 -5 -2c-11 0 -14 8 -14 18zM777 366c0 3 4 6 8 6c1 0 2 -1 2 -2
l-2 -8c0 -3 1 -5 6 -5c3 0 5 1 7 1s3 -1 3 -2c0 -6 -9 -9 -14 -9c-4 0 -10 0 -10 4c0 3 2 5 2 7c0 4 -2 5 -2 8zM715 360c1 5 22 4 24 4c4 0 14 -1 14 -5c0 -3 -12 -5 -15 -5h-4c-8 0 -19 1 -19 5v1zM94 108c1 8 11 25 17 25c1 0 1 0 1 -1c0 -3 -13 -23 -13 -28
c0 -6 3 -12 3 -19c0 -2 -1 -3 -3 -3c-4 0 -5 17 -5 21v5zM656 548c0 3 3 6 5 6c1 0 1 -1 1 -3c0 -16 13 -32 29 -38c1 -1 2 -1 2 -2c0 0 -1 -1 -4 -1c-16 2 -33 23 -33 38zM107 101c7 4 18 5 23 5c3 0 24 0 24 -11c0 -1 -1 -2 -2 -2c-2 0 -15 8 -21 8c-9 0 -15 -5 -23 -5
c-1 0 -2 1 -2 3c0 1 0 2 1 2zM839 242c0 9 -18 11 -18 14c0 1 1 1 3 1c10 -1 25 -7 25 -18c0 -5 -5 -9 -10 -9c-4 0 -9 4 -9 6c0 0 1 1 2 1h2c3 0 5 2 5 5zM301 293v1c0 1 0 2 1 2s2 0 2 -1c7 -7 12 -9 21 -9c11 0 22 3 40 3c3 0 10 0 10 -3c0 -1 -1 -1 -2 -1h-9l-41 -3
c-7 0 -18 4 -22 11zM387 311c-6 0 -29 5 -29 13c0 1 2 2 3 2c12 0 15 -10 26 -10c8 0 9 9 11 9c1 0 2 -2 2 -4c0 -8 -7 -10 -13 -10zM1080 61c0 5 4 7 9 7s10 -3 10 -9c0 -7 -4 -10 -9 -10s-10 4 -10 12zM391 456l-1 -1c-1 0 -1 1 -1 1c0 3 4 5 7 5c6 0 8 -3 8 -8l-1 -13
c0 -4 4 -7 10 -7c12 0 20 14 19 14c1 0 1 -1 1 -2c-1 -12 -10 -16 -20 -16s-14 5 -14 11l1 12c0 4 -1 6 -4 6c-2 0 -4 -1 -5 -2zM998 70c0 6 9 5 13 5c9 0 12 -3 12 -5c0 -5 -16 -10 -19 -10c-5 0 -6 5 -6 10zM587 229c12 -11 17 -26 17 -41c0 -16 -6 -31 -14 -43v-1
c0 -1 0 -2 1 -2c9 0 15 35 15 46c0 9 -5 43 -18 43c-1 0 -2 0 -2 -1zM676 124c0 -3 0 -4 -1 -4s-3 3 -3 5v5c0 14 -3 29 -3 41c0 2 1 4 3 4c6 0 4 -44 4 -51zM1054 67c0 9 9 15 18 15c5 0 12 -2 12 -7c0 -2 -1 -3 -4 -3c-3 1 -6 1 -8 1c-7 0 -12 -9 -15 -9c-1 0 -3 1 -3 3z
M646 397c7 -3 17 -5 30 -5c9 0 39 4 39 9c0 1 -1 1 -2 1c-9 0 -24 -7 -38 -7c-11 0 -21 5 -28 5c-1 0 -2 -1 -2 -2c0 0 0 -1 1 -1zM424 306c0 4 3 6 6 6c4 0 13 -19 13 -25c0 -2 -1 -2 -2 -2c-7 0 -17 17 -17 21zM370 370c10 0 24 12 24 12c2 0 3 -3 3 -4
c0 -11 -7 -14 -15 -14c-5 0 -15 1 -15 4c0 1 1 2 3 2zM245 222c0 6 5 13 11 13c3 0 9 -2 9 -5c0 -5 -9 -14 -15 -14c-3 0 -5 3 -5 6zM592 398c0 1 0 10 4 10c5 0 8 -24 8 -25s0 -5 -3 -5c-9 0 -9 14 -9 20zM143 132c0 3 1 4 2 4c5 0 21 -4 21 -5c0 -6 -10 -11 -14 -11
c-6 0 -9 8 -9 12zM340 332c3 4 16 8 26 8c7 0 14 -2 14 -5s-2 -3 -4 -3c-4 1 -8 2 -11 2l-21 -6c-3 0 -4 2 -4 3v1zM486 88c-2 -1 -4 -1 -7 -1c-6 0 -10 1 -10 4c0 5 11 16 11 16s9 -12 9 -17c0 -1 -1 -2 -3 -2zM629 322v1c0 1 0 2 1 2c2 0 14 -11 27 -11c8 0 16 5 23 5h2
c0 -5 -17 -9 -26 -9c-11 0 -22 4 -27 12zM147 82c-2 0 -3 1 -3 2c0 2 1 4 3 4c12 0 25 -9 25 -19c0 -6 -6 -11 -12 -11c-1 0 -4 2 -4 3c0 2 11 -1 11 8c0 10 -12 13 -20 13zM193 96c0 7 2 13 5 13s7 -6 7 -13s-4 -13 -7 -13s-5 6 -5 13zM973 126c0 4 3 7 7 7s8 -3 8 -5
s-4 -5 -4 -6s5 -2 5 -5c0 -2 -4 -4 -6 -4c-6 0 -10 7 -10 13zM1064 59c-1 1 -1 1 -1 2c0 2 2 3 3 3c5 0 8 -9 8 -13c0 -6 -4 -11 -12 -11c-5 0 -13 2 -13 7c0 1 1 2 2 2c2 0 4 -5 9 -5c4 0 7 3 7 8c0 2 -1 5 -3 7zM642 563c0 6 5 10 9 10s7 -3 7 -8c0 -6 -5 -10 -9 -10
s-7 3 -7 8zM70 70c4 4 9 6 14 6c10 0 18 -8 20 -18c0 -2 -1 -3 -3 -3c-4 0 -3 16 -19 16l-10 -4c-1 0 -2 1 -2 2v1zM760 366l-1 1c0 1 1 2 3 2c6 0 8 -7 8 -10c0 -9 -14 -14 -22 -14c-3 0 -7 2 -7 3s22 1 22 11c0 3 -1 5 -3 7zM455 267c0 2 1 3 3 3c4 0 12 -4 12 -5
c0 -4 -1 -13 -5 -13c-8 0 -10 11 -10 15zM1039 112c-4 0 -7 4 -7 7c0 5 3 9 8 9s8 -5 8 -9s-3 -7 -9 -7zM738 275c0 5 11 11 15 11c5 0 7 -2 8 -8c0 -2 -1 -3 -2 -3l-9 2c-3 -1 -5 -5 -7 -5s-5 1 -5 3zM997 129c0 3 7 7 12 7c4 0 5 -3 5 -8c0 -4 -1 -8 -4 -8s-13 7 -13 9z
M727 476c-4 0 -8 6 -8 11c0 3 2 6 6 6s9 -6 9 -11c0 -4 -2 -6 -7 -6zM615 336c0 4 4 7 8 7c3 0 7 -3 7 -8s-3 -8 -7 -8s-8 3 -8 9zM273 280c0 5 2 7 4 7c4 0 10 -7 10 -12c0 -4 -2 -6 -4 -6c-4 0 -10 5 -10 11zM527 309c2 1 4 2 6 2c3 0 5 -1 5 -4c0 -5 -12 -1 -12 -11v-3
c0 -2 0 -3 -3 -3c-2 0 -4 2 -4 5c0 7 3 10 8 14zM711 241h-1c-1 0 -3 1 -3 2c0 7 33 19 36 19c1 0 2 -1 2 -2s-1 -2 -2 -2c-12 -3 -27 -11 -32 -17zM478 177c1 -1 1 -2 1 -3s0 -2 -2 -2c-9 0 -15 9 -15 20c0 1 0 1 1 1c2 0 11 -10 15 -16zM326 331v1c0 1 1 2 3 2
s21 -26 23 -25c-1 -1 -2 -1 -3 -1c-7 0 -20 17 -23 23zM500 132l-1 1c0 2 2 3 3 3c6 0 9 -10 9 -14c0 -5 -3 -13 -8 -13c-1 0 -2 1 -2 2c0 4 4 9 4 11c0 4 -2 7 -5 10zM734 448c-4 0 -7 15 -7 17s1 3 3 3c6 0 9 -8 9 -14c0 -3 -1 -6 -5 -6zM135 55c-11 0 -25 11 -25 14
c0 2 1 3 2 3c4 0 24 -16 26 -15c-1 -1 -2 -2 -3 -2zM1029 72c-3 8 -9 15 -9 20c0 1 1 3 3 3c4 0 11 -15 11 -22c0 -1 -1 -3 -3 -3c-1 0 -2 1 -2 2zM349 349c0 3 0 22 5 22c1 0 3 -1 3 -3c0 -6 0 -23 -5 -23c-1 0 -3 2 -3 4zM123 70c3 4 10 24 13 24c2 0 3 -1 3 -3
c0 -6 -9 -23 -14 -23c-1 0 -2 1 -2 1v1zM909 209l-1 -1c-3 0 -10 10 -10 12c0 3 10 4 11 4c3 0 4 -2 4 -5s-1 -7 -4 -10zM482 131c0 3 2 7 4 7c1 0 1 -1 1 -3c0 -12 13 -11 13 -15c0 -2 -1 -3 -4 -3c-8 0 -14 5 -14 14zM198 219c-1 -1 -1 -1 -2 -1s-2 1 -2 2c0 5 12 7 17 7
c2 0 17 -2 17 -8c0 -1 -1 -2 -1 -2c-4 0 -10 6 -16 6s-9 -1 -13 -4zM537 344c0 3 0 12 5 12c1 0 5 -14 5 -16c0 -4 -1 -5 -3 -5c-3 0 -7 4 -7 9zM376 419c2 0 3 -1 3 -2s-13 -6 -21 -15c0 -1 -1 -1 -2 -1s-2 1 -2 2c0 13 25 16 22 16zM412 422c6 0 10 2 15 2c1 0 2 -1 2 -2
c0 -5 -7 -9 -11 -9c-3 0 -8 2 -8 6c0 2 1 3 2 3zM335 373c0 2 2 13 6 13c3 0 3 -10 3 -12c0 -3 -1 -9 -5 -9s-4 4 -4 8zM867 159l1 -1c1 0 1 1 1 2c0 5 -10 8 -22 8c-6 0 -15 -2 -15 -5c0 -1 0 -1 1 -1c2 0 7 2 13 2c8 0 18 -2 21 -5zM626 373c0 4 2 6 4 6c4 0 9 -5 9 -11
c0 -3 -1 -4 -4 -4s-9 4 -9 9zM1037 79c-1 1 -2 2 -2 3c0 2 5 4 5 4c5 0 12 -3 12 -7c0 -2 -1 -5 -3 -5c-5 0 -8 2 -12 5zM789 58c0 5 6 9 9 9s5 -4 5 -7s-2 -6 -5 -6s-9 0 -9 4zM251 67c-1 1 -1 1 -1 2s1 1 2 1c3 0 18 -19 18 -23c0 -2 -1 -4 -3 -4c0 0 -10 18 -16 24z
M885 252c0 2 1 3 5 3c7 0 12 -3 12 -5c0 -3 -4 -6 -6 -6c-4 0 -11 4 -11 8zM857 92c0 4 3 6 7 6c3 0 6 -2 6 -6c0 -5 -3 -7 -7 -7c-3 0 -6 2 -6 7zM412 331c0 -1 -1 -1 -1 -1c-1 0 -2 2 -2 4c0 8 6 13 25 15c2 0 2 -1 2 -1c0 -1 0 -1 -2 -1c-12 -2 -16 -7 -22 -16zM701 245
c-1 -1 -1 -2 -2 -2s-2 1 -2 3v2c0 9 -10 12 -10 13s0 2 1 2c8 0 15 -4 15 -11c0 -2 -1 -5 -2 -7zM131 127c0 3 1 5 3 5c4 0 7 -8 7 -15c0 -3 -1 -5 -2 -5c-4 0 -8 12 -8 15zM758 149c0 0 1 0 1 1s-1 2 -3 2c-11 0 -23 -15 -23 -18c0 -2 1 -3 2 -3c0 0 11 16 23 18zM95 45
c-2 0 -3 2 -3 3s0 1 1 1c11 0 16 9 20 9c2 0 3 -3 3 -4c0 -4 -16 -9 -21 -9zM239 59c-1 -2 -2 -3 -3 -3v10c0 7 -6 18 -6 20c0 1 0 1 1 1c6 0 9 -14 9 -21c0 -3 0 -5 -1 -7zM583 57c0 4 3 6 8 6c3 0 7 -2 7 -5c0 -4 -4 -6 -8 -6c-3 0 -6 2 -7 5zM401 367c0 2 0 14 4 14
s5 -3 5 -6s-1 -12 -6 -12c-2 0 -3 1 -3 4zM615 313c0 5 3 7 7 7c3 0 6 -2 6 -7c0 -4 -3 -5 -6 -5c-4 0 -7 1 -7 5zM797 166l-1 -1c0 -1 1 -1 3 -1c11 0 16 24 16 26c0 1 -1 2 -1 2c-1 0 -7 -20 -17 -26zM522 138c0 4 -5 10 -5 12l1 1c6 0 8 -10 8 -12c0 -7 -5 -15 -8 -15
c-1 0 -2 1 -2 2c0 3 6 7 6 12zM708 476c-5 0 -9 3 -9 6c0 2 3 4 8 4s8 -3 8 -6c0 -2 -2 -4 -7 -4zM340 236c0 6 4 13 10 13c2 0 3 0 3 -2c0 -5 -7 -13 -11 -13c-2 0 -2 1 -2 2zM437 190c0 3 4 5 7 5c4 0 7 -2 7 -5c0 -4 -3 -6 -7 -6c-3 0 -7 2 -7 6zM491 134c0 4 1 12 7 13
c2 0 4 -1 4 -2c0 -3 -8 -15 -8 -17c-1 1 -3 5 -3 6zM384 323h-1c-2 0 -2 0 -2 1c0 4 14 19 15 19s1 -1 1 -2c0 -5 -9 -16 -13 -18zM294 347c0 2 2 4 4 4c4 0 6 -2 11 -2l6 1c1 0 1 0 1 -1c0 -2 -11 -6 -15 -6s-7 1 -7 4zM378 190c0 4 3 6 6 6s6 -2 6 -6s-3 -6 -6 -6
s-6 2 -6 6zM437 487c0 4 3 5 5 5c3 0 6 -2 6 -6c0 -5 -2 -7 -4 -7c-3 0 -7 3 -7 8zM635 331c0 4 2 6 5 6s7 -3 7 -7s-3 -5 -6 -5s-6 2 -6 6zM537 467c0 3 4 5 7 5c2 0 4 -1 4 -3c0 -3 -3 -11 -7 -11c-3 0 -4 8 -4 9zM169 92c1 4 3 7 6 7c2 0 4 -2 4 -4c0 -5 -4 -11 -8 -11
c-2 0 -2 1 -2 4v4zM681 151c2 2 5 4 8 4c2 0 4 -1 4 -4c0 -2 -3 -2 -6 -4c-2 -1 -2 -7 -4 -7s-3 3 -3 6c0 2 0 3 1 5zM1046 59c0 2 2 3 4 3c3 0 11 -6 11 -10c0 -1 -1 -2 -2 -2c-3 0 -13 5 -13 9zM739 210c4 -3 14 -18 15 -18s1 1 1 3c0 4 -10 18 -15 18c-1 0 -1 -1 -1 -2
v-1zM386 139c0 4 3 6 5 6c3 0 5 -2 5 -6c0 -5 -2 -7 -5 -7c-2 0 -5 2 -5 7zM895 195c0 4 3 6 6 6s5 -2 5 -5c0 -5 -3 -7 -6 -7c-2 0 -5 2 -5 6zM796 126c2 -5 7 -29 8 -29c0 0 1 1 1 2c0 4 -3 30 -9 30c0 0 -1 0 -1 -1c0 0 1 -1 1 -2zM1033 98h2c5 0 11 -4 11 -7
c0 -1 -2 -2 -5 -2c-2 0 -12 3 -12 6c0 1 1 2 4 3zM666 553c0 3 4 6 7 6s5 -2 5 -5c0 -4 -4 -6 -7 -6s-5 1 -5 5zM299 277c0 3 1 4 3 4c7 0 9 -8 10 -8c-1 -2 -3 -3 -5 -3c-4 0 -8 2 -8 7zM556 519c1 -1 1 -1 2 -1s2 1 2 2c0 7 -4 18 -5 18c-2 0 -3 -2 -3 -5
c0 -5 2 -11 4 -14zM357 164c0 3 3 5 6 5s6 -2 6 -5c0 -4 -3 -6 -6 -6s-6 2 -6 6zM340 164c0 3 3 5 6 5s6 -2 6 -5c0 -4 -3 -6 -6 -6s-6 2 -6 6zM614 352c0 3 4 6 8 6c2 0 4 -1 4 -4c0 -5 -4 -7 -7 -7c-2 0 -5 1 -5 5zM350 195c0 4 3 6 5 6c3 0 6 -3 6 -6c0 -4 -3 -6 -6 -6
c-2 0 -5 2 -5 6zM221 48c0 4 3 6 5 6c3 0 6 -3 6 -6c0 -4 -3 -6 -6 -6c-2 0 -5 2 -5 6zM730 236c0 -2 -16 -6 -16 -6c-1 0 -1 0 -1 1c0 5 8 9 12 9c3 0 5 -1 5 -4zM492 378c0 -5 7 1 7 -9c0 -2 1 -3 2 -3c3 0 4 5 4 7c0 5 -4 7 -8 7c-1 0 -5 0 -5 -2zM105 73c-2 0 -3 1 -3 2
c0 3 10 8 14 8c2 0 3 -1 3 -2c0 -4 -11 -8 -14 -8zM177 60c0 2 2 5 5 5c4 0 8 -3 8 -5s-4 -5 -8 -5c-3 0 -5 2 -5 5zM576 85c0 3 3 5 6 5s5 -2 5 -6s-2 -5 -5 -5s-6 2 -6 6zM352 178c0 4 3 6 5 6c3 0 5 -2 5 -6s-2 -6 -5 -6c-2 0 -5 2 -5 6zM502 460c0 3 4 4 8 4
c3 0 7 -1 7 -4c0 -2 -3 -4 -7 -4s-8 2 -8 4zM284 297c0 4 2 5 5 5c2 0 5 -2 5 -6s-2 -6 -4 -6c-3 0 -6 3 -6 7zM87 40c-3 2 -5 6 -5 10c0 3 1 9 5 9c0 0 1 0 1 -1c0 -4 -1 -6 -1 -8c0 -3 3 -6 3 -10l-1 -1zM429 468c0 3 3 5 6 5s6 -2 6 -5c0 -4 -3 -5 -6 -5s-6 1 -6 5z
M579 208l1 -1c1 0 1 1 1 2c0 5 -6 7 -10 7c-3 0 -12 -2 -12 -6c0 -1 0 -1 1 -1c4 0 7 3 10 3s6 -1 9 -4zM218 166v-2s0 -1 1 -1c3 0 5 17 5 26c0 3 0 7 -2 7c0 0 -1 -2 -1 -3v-5c0 -8 -1 -16 -3 -22zM613 91v1c0 2 0 2 -1 2c-3 0 -4 -7 -4 -11c0 -7 2 -12 4 -12c1 0 2 1 2 2
c0 2 -2 5 -2 8zM397 298c-7 0 -18 6 -18 7c2 0 5 -1 8 -1l10 1c2 0 3 -2 3 -4s-1 -3 -3 -3zM677 198c0 2 -1 3 -2 3s-2 -1 -2 -3c0 -8 10 -16 14 -16c1 0 1 0 1 1c0 2 -10 8 -11 15zM794 174c-1 -1 -2 -2 -2 -3c0 0 1 -1 2 -1c9 0 12 14 12 16s0 3 -2 3c0 0 -3 -11 -10 -15z
M822 126c0 2 -1 3 -2 3s-1 -1 -1 -3c0 -8 9 -16 14 -16c1 0 1 0 1 1c0 2 -11 9 -12 15zM280 225c0 -3 5 -6 9 -6c2 0 4 1 4 4s-4 5 -8 5c-3 0 -5 -1 -5 -3zM290 197v1c0 2 -1 2 -2 2c-3 0 -3 -5 -3 -8c0 -6 2 -12 5 -12c1 0 2 1 2 2l-3 9zM663 568c0 3 4 5 7 5
c2 0 4 -1 4 -4c0 -4 -4 -6 -7 -6c-2 0 -4 1 -4 5zM404 178v1c0 2 -1 2 -2 2c-3 0 -3 -5 -3 -8c0 -6 2 -12 5 -12c1 0 2 1 2 2l-3 9zM409 448c0 3 2 4 5 4c2 0 5 -2 5 -7c0 -3 -1 -4 -3 -4c-3 0 -7 3 -7 7zM567 618c0 4 2 6 4 6s4 -2 4 -6c0 -5 -2 -7 -4 -7s-4 2 -4 7z
M379 172c0 3 3 5 5 5c3 0 6 -2 6 -5s-3 -5 -6 -5c-2 0 -5 2 -5 5zM693 221c0 -1 -1 -1 -2 -1s-2 1 -2 2c0 4 12 14 14 14h1c0 -2 -8 -12 -11 -15zM815 372c0 1 1 1 2 1c4 0 9 -4 9 -8c0 -2 -1 -3 -3 -3c-4 0 -8 6 -8 10zM766 396l-1 -2c0 -1 1 -1 2 -1c4 0 17 7 17 7
c0 1 -2 2 -3 2c-2 0 -12 -3 -15 -6zM554 49c0 4 2 6 5 6c2 0 4 -2 4 -6c0 -3 -2 -5 -5 -5c-2 0 -4 2 -4 5zM613 277c0 -2 1 -3 1 -4l-2 -10c0 -1 1 -2 1 -2c3 0 5 6 5 12c0 5 -3 8 -4 8c0 0 -1 -1 -1 -3v-1zM523 526c2 -1 10 -5 13 -5c1 0 1 1 1 2c0 4 -8 7 -11 7
c-2 0 -4 -2 -4 -3zM801 328c0 3 1 14 7 14c1 0 2 0 2 -2c0 1 -7 -15 -6 -15c-2 0 -3 1 -3 3zM570 125v1c0 2 0 2 -1 2c-3 0 -4 -7 -4 -9c0 -5 2 -11 4 -11c1 0 2 1 2 2l-2 7zM419 458c0 2 2 4 5 4c2 0 5 -2 5 -5s-2 -5 -5 -5c-2 0 -5 2 -5 6zM310 172c0 2 -1 2 -2 2
s-2 -1 -2 -2c0 -6 6 -14 10 -14c2 0 3 1 3 2c0 0 0 1 -1 1c-5 2 -7 7 -8 11zM365 196c0 4 2 6 4 6s4 -2 4 -6s-2 -6 -4 -6s-4 2 -4 6zM504 382c0 -5 6 0 6 -6v-3c0 -1 0 -2 1 -2c3 0 4 5 4 6c0 5 -4 7 -6 7c-1 0 -5 0 -5 -2zM631 57l-2 1c-1 0 -2 -1 -2 -2c0 -5 12 -6 14 -6
c4 0 7 0 7 2c0 1 -1 1 -2 1h-4c-5 0 -8 2 -11 4zM926 63c0 4 1 7 3 7s3 -3 3 -7s-1 -8 -3 -8s-3 4 -3 8zM861 77c0 2 3 4 5 4c3 0 5 -2 5 -4c0 -4 -2 -5 -5 -5c-2 0 -5 1 -5 5zM369 179c0 4 2 6 4 6c1 0 3 -2 3 -6c0 -5 -2 -7 -4 -7c-1 0 -3 2 -3 7zM589 71c0 4 2 6 4 6
c3 0 5 -3 5 -6s-2 -4 -4 -4s-5 1 -5 4zM306 321c0 2 4 5 7 5c2 0 3 -1 3 -3c0 -3 -4 -7 -7 -7c-1 0 -3 1 -3 5zM607 517c2 3 3 7 3 11c0 1 0 5 -2 5s-4 -11 -4 -16l1 -1c1 0 2 0 2 1zM596 47c0 3 3 4 5 4c3 0 6 -2 6 -4c0 -3 -3 -4 -5 -4c-3 0 -6 1 -6 4zM677 53
c1 -1 2 -1 2 -1c1 0 2 1 2 1c0 5 -11 6 -14 6c-4 0 -8 0 -8 -2c0 -1 0 -1 2 -1h4c5 0 10 -1 12 -3zM447 468c0 3 3 6 6 6c2 0 3 -1 3 -4c0 -4 -3 -6 -5 -6s-4 1 -4 4zM308 300c0 3 2 5 4 5s5 -3 5 -6s-2 -4 -4 -4s-5 2 -5 5zM412 253v-1c0 -1 1 -2 2 -2c4 0 7 7 7 12
c0 2 -1 3 -2 3c-2 0 -2 -6 -7 -12zM295 308c0 3 3 6 6 6c2 0 3 -2 3 -5s-2 -5 -4 -5s-5 2 -5 4zM189 180c0 6 1 13 1 15c0 1 0 2 -1 2c-2 0 -3 -9 -3 -16c0 -5 1 -9 3 -9v8zM589 317c5 -4 5 -13 7 -13c1 0 2 1 2 4s-3 12 -8 12c-1 0 -2 -1 -2 -2c0 0 0 -1 1 -1zM565 523
c1 -1 1 -1 2 -1s1 1 1 1c0 5 -2 16 -4 16c-1 0 -2 -4 -2 -5c0 -4 2 -8 3 -11zM640 529c1 0 1 1 1 1c0 1 -2 2 -5 2s-9 -5 -9 -8c0 -1 0 -2 1 -2c0 0 10 6 12 7zM568 58c0 3 2 4 5 4c2 0 5 -2 5 -4c0 -3 -3 -4 -5 -4c-3 0 -5 1 -5 4zM351 149c0 3 2 4 4 4c3 0 5 -2 5 -4
c0 -3 -2 -5 -5 -5c-2 0 -4 2 -4 5zM904 108c0 3 2 4 4 4c3 0 5 -2 5 -4c0 -3 -2 -5 -5 -5c-2 0 -4 2 -4 5zM898 156c0 2 3 4 5 4c3 0 5 -2 5 -4c0 -3 -2 -4 -5 -4c-2 0 -5 1 -5 4zM605 325c0 2 3 4 5 4s4 -1 4 -5c0 -3 -2 -4 -4 -4s-5 2 -5 5zM367 150c0 2 3 4 5 4
c3 0 5 -2 5 -4c0 -3 -2 -4 -5 -4c-2 0 -5 1 -5 4zM359 231c5 6 16 6 16 8c0 0 -1 1 -2 1c-5 0 -16 -2 -16 -8c0 -1 0 -2 1 -2zM932 224h9c1 0 2 1 2 2c0 2 -4 4 -7 4s-6 -2 -6 -4c0 -1 1 -2 2 -2zM560 377l-2 -1c-1 0 -2 1 -2 2c0 4 6 10 8 10c1 0 1 -1 1 -2
c0 -3 -3 -8 -5 -9zM470 371c-1 -1 -3 -1 -5 -1l-7 1l-1 -1c0 -3 6 -4 9 -4s7 1 7 3c0 1 -1 2 -2 2h-1zM106 110c0 2 2 9 5 9c2 0 3 -2 3 -4s-3 -7 -7 -7c-1 0 -1 1 -1 2zM223 63c0 3 2 4 4 4c3 0 5 -2 5 -4c0 -3 -2 -4 -5 -4c-2 0 -4 1 -4 4zM384 156c0 2 2 4 4 4s4 -2 4 -4
c0 -4 -2 -5 -4 -5s-4 1 -4 5zM834 313c3 -1 10 -9 11 -9s1 3 1 3c-2 4 -7 8 -11 9c-2 0 -2 -1 -2 -2s0 -1 1 -1zM458 412c7 0 7 -3 12 -3c1 0 2 0 2 1c0 5 -11 5 -14 5c-2 0 -2 -1 -2 -1c0 -1 1 -2 2 -2zM574 70c0 3 2 5 4 5s4 -2 4 -5c0 -2 -2 -4 -4 -4s-4 2 -4 4zM889 320
c-6 0 -11 5 -11 5c0 1 1 1 1 1c3 0 13 0 13 -4c0 -1 -1 -2 -3 -2zM753 140c0 1 0 2 -2 2s-7 -6 -7 -8s1 -2 2 -2c3 0 7 5 7 8zM684 196c0 -3 4 -8 7 -8c1 0 2 0 2 2s-5 8 -7 8s-2 -1 -2 -2zM594 606c0 3 2 5 3 5c2 0 4 -2 4 -5s-2 -5 -4 -5c-1 0 -3 2 -3 5zM509 259h1
c1 0 1 0 1 1s-6 4 -11 4c-3 0 -8 -1 -8 -3c0 -1 0 -1 1 -1c2 0 3 1 6 1s8 -1 10 -2zM511 277c0 2 1 2 3 2c3 0 8 -3 8 -5c0 -1 -1 -2 -2 -2c-3 0 -9 2 -9 5zM417 368c0 3 2 4 4 4s4 -1 4 -4s-2 -4 -4 -4s-4 1 -4 4zM989 155c0 2 3 3 6 3s5 -1 5 -2c0 -2 -4 -4 -7 -4
c-2 0 -4 1 -4 3zM662 497c1 0 2 1 2 2c0 0 0 1 -2 1s-13 0 -13 -5c0 -1 0 -1 1 -1c5 0 6 3 12 3zM569 46c0 3 2 4 4 4s4 -2 4 -4s-2 -4 -4 -4s-4 2 -4 4zM237 47c0 3 2 4 3 4c2 0 4 -2 4 -4c0 -3 -2 -5 -4 -5c-1 0 -3 2 -3 5zM656 580c0 2 3 3 5 3s4 -1 4 -2
c0 -3 -3 -5 -5 -5s-4 1 -4 4zM438 453c0 2 3 5 6 5c1 0 2 -1 2 -3c0 -3 -3 -5 -5 -5s-3 1 -3 3zM470 380c-1 -1 -3 -1 -4 -1l-8 2c-1 0 -1 0 -1 -1c0 -3 6 -4 8 -4c4 0 7 1 7 2s-1 2 -2 2zM514 193c3 0 11 4 11 9c0 1 0 1 -1 1c-3 0 0 -4 -12 -8c-1 0 -1 -1 -1 -1
c0 -1 1 -1 3 -1zM513 386c0 -3 5 -1 5 -6v-2c0 -1 0 -1 1 -1c2 0 3 2 3 5s-3 5 -6 5c-2 0 -3 0 -3 -1zM772 392c0 -1 -1 -1 -1 -1c0 -1 1 -2 2 -2c2 0 11 5 11 5c0 1 -1 2 -2 2c-2 0 -7 -1 -10 -4zM643 211l9 -5c1 0 1 3 1 3c-2 4 -6 5 -9 5c-1 0 -2 -1 -2 -2s0 -1 1 -1z
M840 329c2 -4 6 -5 10 -5c2 0 2 1 2 1c0 1 -12 7 -11 7c-1 0 -1 -1 -1 -2v-1zM792 228c0 -3 2 -4 4 -4s4 1 4 4c0 2 -2 3 -4 3s-4 -1 -4 -3zM476 221c0 3 2 4 3 4c2 0 4 -2 4 -4c0 -3 -2 -4 -4 -4c-1 0 -3 1 -3 4zM338 147c0 2 1 4 3 4s4 -2 4 -4s-2 -4 -4 -4s-3 2 -3 4z
M934 234h7c1 0 2 1 2 2c0 2 -4 3 -6 3c-3 0 -5 -3 -5 -4s1 -1 2 -1zM493 474c1 1 2 2 4 2s4 -2 4 -4s-2 -3 -3 -3c-3 0 -5 2 -5 4v1zM415 476c0 3 2 5 4 5s3 -1 3 -3c0 -3 -2 -5 -4 -5c-1 0 -2 1 -3 3zM438 435c0 3 2 5 4 5c1 0 2 -1 2 -4s-2 -5 -3 -5c-2 0 -3 1 -3 4z
M633 347c0 2 2 4 3 4c2 0 3 -2 3 -4c0 -3 -1 -5 -3 -5c-1 0 -3 2 -3 5zM362 227c0 -1 1 -2 2 -2s10 6 10 5c0 1 -1 2 -3 2c-3 0 -9 -3 -9 -5zM599 119c0 -2 0 -2 1 -2c2 0 3 3 3 6s-1 6 -3 6c-1 0 -1 -1 -1 -2v-8zM521 390c0 0 7 -9 6 -9c1 0 2 2 2 4c0 3 -2 6 -6 6
c-1 0 -2 0 -2 -1zM889 121c2 -2 3 -13 4 -13s1 1 1 2s0 14 -4 14c-1 0 -1 -1 -1 -2v-1zM424 252v-1c0 -1 0 -1 1 -1c4 0 5 5 5 7c0 3 -1 5 -3 5c0 0 -1 -1 -1 -2c0 0 1 -1 1 -2c0 -2 -1 -4 -3 -6zM705 302c0 1 3 2 5 2c3 0 5 -1 5 -2c0 -2 -2 -3 -5 -3c-2 0 -5 1 -5 3z
M384 443c0 3 2 4 4 4s3 -1 3 -3c0 -3 -2 -4 -3 -4c-2 0 -4 1 -4 3zM536 265v4c0 2 0 3 -1 3c-2 0 -2 -4 -2 -7s1 -7 3 -7c1 0 1 0 1 1zM506 253c1 0 2 0 2 1c0 2 -5 3 -7 3c-3 0 -7 -1 -7 -3c0 -1 0 -1 1 -1s3 1 6 1c2 0 4 -1 5 -1zM575 220c1 0 2 0 2 1c0 2 -5 3 -7 3
c-3 0 -7 -1 -7 -3c0 -1 0 -1 1 -1s3 1 6 1c2 0 4 -1 5 -1zM655 264c1 0 2 0 2 1c0 2 -5 3 -7 3c-3 0 -7 -1 -7 -3c0 -1 0 -1 1 -1s3 1 6 1c2 0 4 -1 5 -1zM580 674c0 2 2 3 4 3c1 0 3 -1 3 -3c0 -3 -2 -4 -4 -4c-1 0 -3 1 -3 4zM794 239c0 -3 2 -4 3 -4c2 0 4 1 4 4
c0 2 -2 3 -3 3c-2 0 -4 -1 -4 -3zM582 46c0 2 2 3 3 3c2 0 4 -1 4 -4c0 -2 -2 -3 -3 -3c-2 0 -4 1 -4 4zM672 407c0 -3 2 -5 3 -5s2 0 2 1s-1 2 -1 4v4c0 1 0 2 -1 2c-2 0 -3 -3 -3 -6zM763 267c0 1 2 3 4 3s4 -1 4 -4c0 -2 -2 -2 -3 -2c-3 0 -5 1 -5 3zM203 211l1 -1
c1 0 2 1 5 1s5 -1 7 -1c1 0 1 1 1 1c0 2 -4 3 -8 3c-3 0 -6 -2 -6 -3zM856 206v-1c0 -1 0 -2 1 -2c4 0 4 9 4 12c0 2 -1 2 -1 2s-2 -7 -4 -11zM603 338v1c0 3 3 6 5 6c1 0 2 -1 2 -2c0 -2 -4 -6 -6 -6c0 0 -1 0 -1 1zM203 204c0 0 0 -1 1 -1s2 1 5 1s5 -1 6 -1s1 1 1 1
c0 1 -3 3 -7 3s-6 -2 -6 -3zM501 413v-1c0 -1 0 -1 1 -1c2 0 3 5 3 6c0 3 -2 5 -3 5s-2 0 -2 -1s2 -3 2 -6c0 0 -1 -1 -1 -2zM629 402c0 -3 2 -4 3 -4c2 0 3 1 3 4c0 2 -1 3 -3 3c-1 0 -3 -1 -3 -3zM600 639c0 2 2 3 3 3c2 0 3 -1 3 -3c0 -3 -1 -4 -3 -4c-1 0 -3 1 -3 4z
M524 59c2 -2 8 -3 10 -3c1 0 2 1 2 2l-11 3c-1 0 -1 0 -1 -1v-1zM593 126c0 -2 -1 -4 -1 -5s0 -1 1 -1c2 0 3 3 3 6s-1 5 -3 5c-1 0 -1 0 -1 -1s1 -2 1 -4zM768 229c0 -2 -1 -4 -1 -5s0 -1 1 -1c2 0 3 3 3 6s-1 5 -3 5c-1 0 -1 0 -1 -1s1 -2 1 -4zM818 329c0 3 2 4 2 6
c0 0 0 1 -1 1c-3 0 -4 -4 -4 -7c0 -2 1 -4 2 -4s1 1 1 1v3zM936 208c0 -2 2 -3 4 -3c1 0 3 1 3 3s-2 3 -3 3c-2 0 -4 -1 -4 -3zM877 93c0 2 2 3 4 3c1 0 3 -1 3 -3s-2 -3 -3 -3c-2 0 -4 1 -4 3zM652 590c0 3 1 4 3 4c1 0 3 -2 3 -4s-1 -3 -2 -3c-2 0 -3 1 -4 3zM543 266
c0 2 1 3 1 4s0 1 -1 1c-2 0 -3 -2 -3 -5s1 -6 3 -6c1 0 1 0 1 1s-1 3 -1 5zM847 155c1 0 2 1 4 1l4 -1c1 0 1 0 1 1c0 2 -3 3 -6 3c-2 0 -5 -1 -5 -3c0 -1 1 -1 1 -1h1zM664 406c0 -3 2 -5 3 -5s1 2 1 5s0 5 -1 5s-3 -2 -3 -5zM609 143l7 -1c1 0 2 0 2 1c0 3 -7 3 -9 3
c-1 0 -2 -1 -2 -1c0 -1 1 -2 2 -2zM155 70c0 2 2 3 3 3c2 0 3 -1 3 -3s-1 -3 -3 -3c-1 0 -3 1 -3 3zM563 352c0 2 2 3 3 3c2 0 3 -1 3 -3s-1 -3 -3 -3c-1 0 -3 1 -3 3zM622 410c0 -2 2 -3 3 -3c2 0 3 1 3 3s-1 3 -3 3c-1 0 -3 -1 -3 -3zM699 380c0 -2 2 -3 3 -3c2 0 3 1 3 3
s-1 3 -3 3c-1 0 -3 -1 -3 -3zM687 380c0 -2 2 -3 3 -3c2 0 3 1 3 3s-1 3 -3 3c-1 0 -3 -1 -3 -3zM691 287c0 2 2 3 3 3c2 0 3 -1 3 -3s-1 -3 -3 -3c-1 0 -3 1 -3 3zM923 158c0 -2 2 -3 3 -3c2 0 3 1 3 3s-1 3 -3 3c-1 0 -3 -1 -3 -3zM593 87c0 2 2 3 3 3c2 0 3 -1 3 -3
s-1 -3 -3 -3c-1 0 -3 1 -3 3zM611 151l6 -1c1 0 2 0 2 1c0 3 -7 3 -8 3s-2 -1 -2 -1c0 -1 1 -2 2 -2zM460 128c0 -1 2 -2 4 -2s5 1 5 2s-3 2 -5 2s-4 -1 -4 -2zM932 242l3 1l4 -1c1 0 1 0 1 1c0 2 -3 3 -5 3s-4 -1 -4 -3v-1h1zM461 120c0 -2 2 -2 4 -2s4 0 4 2
c0 1 -2 2 -4 2s-4 -1 -4 -2zM930 252c0 -2 2 -2 4 -2s4 0 4 2c0 1 -2 2 -4 2s-4 -1 -4 -2zM432 248c0 -1 1 -1 1 -1c2 0 4 4 4 6c0 1 0 2 -1 2c-2 0 -4 -5 -4 -7zM655 407c0 -3 1 -5 2 -5s1 2 1 5s0 5 -1 5s-2 -2 -2 -5zM286 233c0 -1 2 -2 4 -2s4 1 4 2s-2 2 -4 2
s-4 -1 -4 -2zM511 421v-2c0 -2 2 -5 3 -5s1 1 1 3c0 1 -1 5 -3 5zM893 208c0 1 2 2 3 2c2 0 3 -1 3 -2c0 -2 -1 -3 -3 -3c-1 0 -3 1 -3 3zM678 502c0 1 2 2 3 2c2 0 3 -1 3 -2c0 -2 -1 -3 -3 -3c-1 0 -3 1 -3 3zM519 422v-2c0 -2 2 -5 3 -5s1 1 1 3c0 1 -1 5 -3 5zM527 424
v-2c0 -2 1 -4 3 -4c0 0 1 1 1 3c0 1 -1 4 -2 4s-1 0 -2 -1zM788 208c0 -2 1 -3 3 -3c1 0 2 1 2 3c0 1 -1 2 -2 2c-2 0 -3 -1 -3 -2zM679 344c0 1 1 2 3 2c1 0 2 -1 2 -2c0 -2 -1 -3 -2 -3c-2 0 -3 1 -3 3zM814 102c0 1 1 2 3 2c1 0 2 -1 2 -2c0 -2 -1 -3 -2 -3
c-2 0 -3 1 -3 3zM727 418c0 -2 1 -3 2 -3s2 1 2 3s-1 3 -2 3s-2 -1 -2 -3zM438 98c0 -3 1 -4 2 -4c0 0 1 1 1 4c0 2 -1 3 -1 3c-1 0 -2 -1 -2 -3zM617 419c0 -1 1 -2 2 -2c2 0 3 1 3 2s-1 2 -3 2c-1 0 -2 -1 -2 -2zM376 138c0 1 1 2 2 2s2 -1 2 -2c0 -2 -1 -3 -2 -3
s-2 1 -2 3zM791 217c0 -1 1 -2 2 -2c2 0 3 1 3 2s-1 2 -2 2c-2 0 -3 -1 -3 -2zM928 260c0 -1 1 -2 3 -2c1 0 3 1 3 2s-1 1 -3 1c-1 0 -3 0 -3 -1zM291 240c0 -1 2 -2 3 -2s2 1 2 2s-1 2 -2 2c-2 0 -3 -1 -3 -2zM676 382c0 -2 1 -2 2 -2s2 0 2 2c0 1 -1 2 -2 2s-2 -1 -2 -2z
M442 249c0 -2 1 -2 2 -2s2 0 2 2c0 1 -1 2 -2 2s-2 -1 -2 -2zM719 67c0 -2 1 -2 2 -2s2 0 2 2c0 1 -1 2 -2 2s-2 -1 -2 -2zM341 180c0 1 1 2 2 2s2 -1 2 -2c0 -2 -1 -2 -2 -2s-2 0 -2 2zM719 409c0 -2 1 -2 2 -2s2 0 2 2c0 1 -1 2 -2 2s-2 -1 -2 -2zM373 164c0 1 1 2 2 2
s2 -1 2 -2c0 -2 -1 -2 -2 -2s-2 0 -2 2zM433 260c0 -2 1 -2 2 -2s2 0 2 2c0 1 -1 2 -2 2s-2 -1 -2 -2zM613 159c0 -1 1 -2 2 -2c2 0 3 1 3 2s-1 1 -2 1c-2 0 -3 0 -3 -1zM614 167c0 -2 1 -2 2 -2s2 0 2 2c0 1 -1 1 -2 1s-2 0 -2 -1zM615 174c0 -1 1 -2 1 -2c1 0 2 1 2 2
s-1 2 -2 2c0 0 -1 -1 -1 -2zM732 58c0 -1 1 -2 1 -2c1 0 2 1 2 2s-1 2 -2 2c0 0 -1 -1 -1 -2zM725 62c0 -1 1 -2 1 -2c1 0 2 1 2 2s-1 2 -2 2c0 0 -1 -1 -1 -2z" />
</svg>
